<svg width="18" height="21" viewBox="0 0 18 21" fill="none" xmlns="http://www.w3.org/2000/svg">
<path d="M8.12542 9.02329C8.1557 9.14446 8.31728 9.94221 8.41321 10.3411C9.51591 10.5713 11.7506 11.5276 12.7301 11.977C11.8819 13.8855 9.91784 15.683 8.64044 16.4908C5.4444 14.249 3.15719 11.0681 3.47528 5.90299L0.112625 4.96387C-0.584139 10.644 1.91513 17.2784 8.64044 20.4593C10.1551 19.9898 15.6838 16.4302 16.7593 10.644C16.1988 10.3259 13.7147 9.00814 12.094 8.49314L7.92851 7.06931C7.89821 7.11475 8.08 8.84152 8.12542 9.02329Z" fill="url(#paint0_linear_215_24584)"/>
<path d="M17.1006 2.61497C17.1663 3.02394 17.3036 3.98427 17.3278 4.5538C15.2315 3.39051 8.87576 1.06995 0.635742 2.4332C5.22531 0.600391 11.9506 0.0550936 17.1006 2.61497Z" fill="url(#paint1_linear_215_24584)"/>
<path d="M0.635742 2.43316C2.56245 2.4574 12.0415 4.64464 17.2521 7.41655C17.2874 6.69959 17.3521 5.12328 17.3278 4.55375C15.2315 3.39047 8.87575 1.06991 0.635742 2.43316Z" fill="url(#paint2_linear_215_24584)"/>
<defs>
<linearGradient id="paint0_linear_215_24584" x1="14.8027" y1="12.7164" x2="-7.51524" y2="1.10194" gradientUnits="userSpaceOnUse">
<stop stop-color="white"/>
<stop offset="1" stop-color="#858585"/>
</linearGradient>
<linearGradient id="paint1_linear_215_24584" x1="17.9337" y1="2.72197" x2="1.86266" y2="1.79799" gradientUnits="userSpaceOnUse">
<stop stop-color="#343433"/>
<stop offset="0.35422" stop-color="#818181"/>
<stop offset="1" stop-color="#D7D7D7"/>
</linearGradient>
<linearGradient id="paint2_linear_215_24584" x1="1.51427" y1="2.02516" x2="17.1158" y2="5.91796" gradientUnits="userSpaceOnUse">
<stop stop-color="#757474"/>
<stop offset="1" stop-color="#EEEEEE"/>
</linearGradient>
</defs>
</svg>
