<svg width="13" height="16" viewBox="0 0 13 16" fill="none" xmlns="http://www.w3.org/2000/svg">
<path d="M6.09406 6.76771C6.11678 6.85859 6.23796 7.4569 6.30991 7.75606C7.13693 7.92873 8.81297 8.64595 9.54761 8.98297C8.91143 10.4144 7.43838 11.7625 6.48033 12.3683C4.0833 10.687 2.36789 8.30135 2.60646 4.42748L0.0844689 3.72314C-0.438104 7.98326 1.43635 12.9591 6.48033 15.3447C7.61636 14.9926 11.7629 12.3229 12.5695 7.98326C12.1491 7.7447 10.286 6.75635 9.07048 6.3701L5.94638 5.30223C5.92366 5.33631 6.06 6.63138 6.09406 6.76771Z" fill="url(#paint0_linear_6_21)"/>
<path d="M12.8255 1.96147C12.8747 2.2682 12.9777 2.98844 12.9959 3.41559C11.4236 2.54313 6.65682 0.802707 0.476807 1.82515C3.91898 0.450537 8.96296 0.0415643 12.8255 1.96147Z" fill="url(#paint1_linear_6_21)"/>
<path d="M0.477051 1.82536C1.92208 1.84354 9.03137 3.48397 12.9393 5.5629C12.9658 5.02518 13.0143 3.84295 12.9961 3.4158C11.4238 2.54334 6.65706 0.80292 0.477051 1.82536Z" fill="url(#paint2_linear_6_21)"/>
<defs>
<linearGradient id="paint0_linear_6_21" x1="11.1021" y1="9.53755" x2="-5.63643" y2="0.826703" gradientUnits="userSpaceOnUse">
<stop stop-color="white"/>
<stop offset="1" stop-color="#858585"/>
</linearGradient>
<linearGradient id="paint1_linear_6_21" x1="13.4503" y1="2.04172" x2="1.39699" y2="1.34874" gradientUnits="userSpaceOnUse">
<stop stop-color="#343433"/>
<stop offset="0.35422" stop-color="#818181"/>
<stop offset="1" stop-color="#D7D7D7"/>
</linearGradient>
<linearGradient id="paint2_linear_6_21" x1="1.13595" y1="1.51936" x2="12.8371" y2="4.43896" gradientUnits="userSpaceOnUse">
<stop stop-color="#757474"/>
<stop offset="1" stop-color="#EEEEEE"/>
</linearGradient>
</defs>
</svg>
