<svg width="30" height="30" viewBox="0 0 30 30" fill="none" xmlns="http://www.w3.org/2000/svg">
<path fill-rule="evenodd" clip-rule="evenodd" d="M4.79811 0.176848C2.5304 0.726989 0.619301 2.69685 0.144618 4.97327C-0.0475548 5.89484 -0.0475548 24.098 0.144618 25.0196C0.63292 27.3616 2.63786 29.3669 4.97941 29.8554C5.90079 30.0476 24.1002 30.0476 25.0216 29.8554C27.3631 29.3669 29.3681 27.3616 29.8564 25.0196C30.0485 24.098 30.0485 5.89484 29.8564 4.97327C29.6163 3.82225 29.0261 2.75796 28.1313 1.86289C27.2364 0.967942 26.1723 0.377559 25.0216 0.137481C24.0307 -0.069228 5.66476 -0.0334851 4.79811 0.176848ZM9.09013 4.26054C10.4774 4.93228 10.6766 7.00062 9.44448 7.94056C8.84797 8.3956 7.87287 8.50045 7.20139 8.18176C6.08234 7.65062 5.65427 6.17991 6.29851 5.08038C6.88177 4.08483 8.03055 3.74752 9.09013 4.26054ZM10.0025 16.871V23.7447H8.12827H6.25402V16.871V9.99741H8.12827H10.0025V16.871ZM16.25 11.0346V12.0717L16.9772 11.3644C17.9799 10.3891 18.7965 10.0776 20.3733 10.069C21.401 10.0634 21.6545 10.1065 22.2626 10.3905C23.6225 11.0258 24.4333 12.0601 24.8039 13.6326C24.9545 14.2717 24.9931 15.3771 24.9946 19.0894L24.9964 23.7447H23.1222H21.248V19.9528C21.248 15.9209 21.1892 15.4166 20.6276 14.6277C20.2572 14.1075 19.513 13.7467 18.8102 13.7467C17.8767 13.7467 17.0774 14.2621 16.5815 15.1839C16.3246 15.6613 16.3107 15.8647 16.2748 19.7142L16.2371 23.7447H14.3694H12.5015V16.871V9.99741H14.3757H16.25V11.0346Z" fill="white"/>
</svg>
