<svg width="44" height="51" viewBox="0 0 44 51" fill="none" xmlns="http://www.w3.org/2000/svg">
<path d="M20.6267 21.0208C20.7035 21.3284 21.1137 23.3535 21.3572 24.3661C24.1565 24.9505 29.8294 27.3781 32.3159 28.5188C30.1626 33.3637 25.1768 37.9266 21.934 39.9773C13.8208 34.2865 8.01464 26.2117 8.82212 13.0998L0.285903 10.7158C-1.48286 25.1351 4.86162 41.9768 21.934 50.0516C25.7792 48.8596 39.8139 39.8235 42.544 25.1351C41.1213 24.3276 34.8153 20.9823 30.701 19.675L20.1268 16.0606C20.0499 16.1759 20.5113 20.5594 20.6267 21.0208Z" fill="url(#paint0_linear_228_27080)"/>
<path d="M43.4099 4.75343C43.5766 5.79162 43.9252 8.22944 43.9867 9.67521C38.665 6.72218 22.5308 0.831352 1.61328 4.29202C13.2641 -0.360641 30.3365 -1.7449 43.4099 4.75343Z" fill="url(#paint1_linear_228_27080)"/>
<path d="M1.61328 4.2928C6.5043 4.35433 30.5672 9.90671 43.7945 16.9433C43.8842 15.1233 44.0482 11.1218 43.9867 9.676C38.665 6.72297 22.5308 0.83214 1.61328 4.2928Z" fill="url(#paint2_linear_228_27080)"/>
<defs>
<linearGradient id="paint0_linear_228_27080" x1="37.5773" y1="30.3959" x2="-19.0777" y2="0.912198" gradientUnits="userSpaceOnUse">
<stop stop-color="white"/>
<stop offset="1" stop-color="#858585"/>
</linearGradient>
<linearGradient id="paint1_linear_228_27080" x1="45.5248" y1="5.02505" x2="4.72784" y2="2.67952" gradientUnits="userSpaceOnUse">
<stop stop-color="#343433"/>
<stop offset="0.35422" stop-color="#818181"/>
<stop offset="1" stop-color="#D7D7D7"/>
</linearGradient>
<linearGradient id="paint2_linear_228_27080" x1="3.84346" y1="3.25708" x2="43.4484" y2="13.1391" gradientUnits="userSpaceOnUse">
<stop stop-color="#757474"/>
<stop offset="1" stop-color="#EEEEEE"/>
</linearGradient>
</defs>
</svg>
