<svg width="40" height="40" viewBox="0 0 40 40" fill="none" xmlns="http://www.w3.org/2000/svg">
<path d="M29.95 9H11.05C9.97587 9 8.94574 9.4346 8.18622 10.2082C7.4267 10.9818 7 12.031 7 13.125V26.875C7 27.969 7.4267 29.0182 8.18622 29.7918C8.94574 30.5654 9.97587 31 11.05 31H29.95C31.0241 31 32.0543 30.5654 32.8138 29.7918C33.5733 29.0182 34 27.969 34 26.875V13.125C34 12.031 33.5733 10.9818 32.8138 10.2082C32.0543 9.4346 31.0241 9 29.95 9ZM29.0455 11.75L20.5 18.2812L11.9545 11.75H29.0455ZM29.95 28.25H11.05C10.692 28.25 10.3486 28.1051 10.0954 27.8473C9.84223 27.5894 9.7 27.2397 9.7 26.875V13.4688L19.69 21.1C19.9237 21.2785 20.2079 21.375 20.5 21.375C20.7921 21.375 21.0763 21.2785 21.31 21.1L31.3 13.4688V26.875C31.3 27.2397 31.1578 27.5894 30.9046 27.8473C30.6514 28.1051 30.308 28.25 29.95 28.25Z" fill="white"/>
</svg>
