<svg width="21" height="18" viewBox="0 0 21 18" fill="none" xmlns="http://www.w3.org/2000/svg">
<path d="M17.6538 0.538574H3.11538C2.28913 0.538574 1.49672 0.87288 0.912475 1.46795C0.328227 2.06301 0 2.8701 0 3.71165V14.2886C0 15.1301 0.328227 15.9372 0.912475 16.5323C1.49672 17.1273 2.28913 17.4617 3.11538 17.4617H17.6538C18.4801 17.4617 19.2725 17.1273 19.8568 16.5323C20.441 15.9372 20.7692 15.1301 20.7692 14.2886V3.71165C20.7692 2.8701 20.441 2.06301 19.8568 1.46795C19.2725 0.87288 18.4801 0.538574 17.6538 0.538574V0.538574ZM16.9581 2.65396L10.3846 7.678L3.81115 2.65396H16.9581ZM17.6538 15.3463H3.11538C2.83997 15.3463 2.57583 15.2348 2.38108 15.0365C2.18633 14.8381 2.07692 14.5691 2.07692 14.2886V3.97607L9.76154 9.84627C9.94129 9.98358 10.1599 10.0578 10.3846 10.0578C10.6093 10.0578 10.8279 9.98358 11.0077 9.84627L18.6923 3.97607V14.2886C18.6923 14.5691 18.5829 14.8381 18.3882 15.0365C18.1934 15.2348 17.9293 15.3463 17.6538 15.3463Z" fill="white"/>
</svg>
