<svg width="17" height="18" viewBox="0 0 17 18" fill="none" xmlns="http://www.w3.org/2000/svg">
<path d="M14.75 17.125H14.6437C2.36247 16.4187 0.618722 6.05625 0.374972 2.89375C0.355331 2.64786 0.384402 2.40052 0.460518 2.16588C0.536635 1.93125 0.658301 1.71394 0.818545 1.52641C0.978789 1.33888 1.17446 1.1848 1.39435 1.07302C1.61424 0.961244 1.85403 0.893951 2.09997 0.875001H5.54372C5.79407 0.874758 6.03872 0.949694 6.24599 1.0901C6.45326 1.23051 6.61359 1.42992 6.70622 1.6625L7.65622 4C7.74769 4.22722 7.77039 4.4763 7.7215 4.71631C7.67261 4.95631 7.55428 5.17667 7.38122 5.35L6.04997 6.69375C6.25792 7.87547 6.82384 8.96479 7.67116 9.81435C8.51848 10.6639 9.60631 11.2327 10.7875 11.4438L12.1437 10.1C12.3197 9.92885 12.5421 9.81328 12.7833 9.76771C13.0245 9.72214 13.2737 9.74859 13.5 9.84375L15.8562 10.7875C16.0853 10.8831 16.2807 11.0446 16.4176 11.2517C16.5546 11.4587 16.6267 11.7018 16.625 11.95V15.25C16.625 15.7473 16.4274 16.2242 16.0758 16.5758C15.7242 16.9275 15.2473 17.125 14.75 17.125ZM2.24997 2.125C2.08421 2.125 1.92524 2.19085 1.80803 2.30806C1.69082 2.42527 1.62497 2.58424 1.62497 2.75V2.8C1.91247 6.5 3.75622 15.25 14.7125 15.875C14.7946 15.8801 14.8769 15.8689 14.9547 15.8421C15.0324 15.8153 15.1042 15.7734 15.1657 15.7188C15.2273 15.6642 15.2774 15.598 15.3133 15.524C15.3492 15.45 15.3702 15.3696 15.375 15.2875V11.95L13.0187 11.0062L11.225 12.7875L10.925 12.75C5.48747 12.0688 4.74997 6.63125 4.74997 6.575L4.71247 6.275L6.48747 4.48125L5.54997 2.125H2.24997Z" fill="white"/>
</svg>
