<svg width="36" height="36" viewBox="0 0 36 36" fill="none" xmlns="http://www.w3.org/2000/svg">
<path d="M31.8941 4.6063C31.6291 4.37673 31.3066 4.22355 30.9612 4.16316C30.6158 4.10278 30.2605 4.13746 29.9333 4.2635L4.62073 14.2048C4.23235 14.3552 3.90344 14.6279 3.68363 14.9817C3.46382 15.3355 3.36503 15.7512 3.40218 16.1661C3.43934 16.5809 3.6104 16.9724 3.88958 17.2815C4.16875 17.5906 4.54088 17.8006 4.94982 17.8796L11.6002 19.2097V27.4644C11.6006 27.8426 11.7128 28.2123 11.9226 28.527C12.1324 28.8416 12.4305 29.0874 12.7794 29.2332C13.0147 29.3291 13.2658 29.3803 13.5199 29.3841C13.7722 29.3856 14.0223 29.3367 14.2554 29.2401C14.4886 29.1436 14.7 29.0014 14.8774 28.8219L18.6208 25.0785L24.2153 30.0011C24.5619 30.3119 25.0114 30.4829 25.4768 30.481C25.6774 30.4827 25.8768 30.4503 26.0665 30.3851C26.3831 30.2844 26.6677 30.1022 26.8915 29.8566C27.1154 29.6111 27.2706 29.311 27.3417 28.9864L32.5112 6.48486C32.5884 6.14522 32.5718 5.79095 32.4631 5.46003C32.3544 5.1291 32.1577 4.83399 31.8941 4.6063ZM5.05952 16.0148C5.04993 15.957 5.06122 15.8976 5.09137 15.8474C5.12151 15.7972 5.16855 15.7593 5.22406 15.7405L26.4093 7.41728L12.231 17.6602L5.27891 16.2616C5.21831 16.2548 5.16237 16.2259 5.12186 16.1803C5.08135 16.1347 5.05914 16.0757 5.05952 16.0148ZM13.7119 27.6563C13.6738 27.6962 13.6241 27.723 13.5699 27.7329C13.5157 27.7427 13.4598 27.7351 13.4102 27.7112C13.362 27.6902 13.3208 27.6557 13.2917 27.612C13.2625 27.5682 13.2465 27.517 13.2456 27.4644V20.3478L17.373 23.9952L13.7119 27.6563ZM25.7511 28.6162C25.7417 28.6638 25.7199 28.708 25.6879 28.7444C25.6558 28.7808 25.6147 28.808 25.5687 28.8233C25.5228 28.8387 25.4735 28.8415 25.4261 28.8316C25.3786 28.8217 25.3346 28.7995 25.2986 28.767L13.7393 18.5926L30.8794 6.22433L25.7511 28.6162Z" fill="white"/>
</svg>
