<svg width="37" height="37" viewBox="0 0 37 37" fill="none" xmlns="http://www.w3.org/2000/svg">
<path d="M13.2141 30.6495H13.095C10.6949 30.6285 8.32953 30.074 6.17013 29.0263C5.77291 28.8397 5.44586 28.5309 5.23684 28.145C5.02782 27.7591 4.94782 27.3164 5.00854 26.8818C5.07458 26.4442 5.27717 26.0387 5.58741 25.7231C5.89764 25.4075 6.29965 25.198 6.73603 25.1245C8.07426 24.946 9.36165 24.4949 10.5186 23.7991C8.50993 22.2286 6.96351 20.1439 6.04328 17.766C5.12304 15.3881 4.86327 12.8055 5.29149 10.2919C5.34955 9.89378 5.52078 9.5207 5.78479 9.21708C6.0488 8.91347 6.39449 8.6921 6.78071 8.57931C7.15646 8.46131 7.5586 8.45626 7.93719 8.56481C8.31578 8.67336 8.65415 8.89072 8.91029 9.18989C9.78 10.3303 10.8729 11.2816 12.1224 11.9857C13.3719 12.6898 14.7517 13.132 16.1777 13.2852C16.2458 11.5307 16.9998 9.87302 18.2775 8.66867C18.9155 8.05775 19.6686 7.57992 20.4931 7.26301C21.3177 6.9461 22.197 6.79645 23.0799 6.82278C23.9628 6.84912 24.8317 7.05091 25.6358 7.4164C26.44 7.78189 27.1633 8.30376 27.7638 8.95162C27.9202 9.08992 28.1146 9.17806 28.3217 9.20461C28.5288 9.23116 28.7391 9.19491 28.9254 9.10054C29.2805 8.93307 29.6758 8.87003 30.0654 8.91877C30.4549 8.96751 30.8226 9.12603 31.1255 9.37582C31.4283 9.62561 31.6539 9.95637 31.7759 10.3295C31.8979 10.7027 31.9113 11.1028 31.8145 11.4833C31.471 12.8982 30.8202 14.2202 29.9083 15.3553C29.7073 19.5917 27.8395 23.5769 24.7123 26.4419C21.5851 29.3069 17.4519 30.8194 13.2141 30.6495ZM13.2141 27.6711H13.3333C15.0647 27.7306 16.7908 27.4459 18.4114 26.8334C20.032 26.2208 21.5149 25.2927 22.7741 24.1027C24.0333 22.9128 25.0437 21.4848 25.7469 19.9014C26.45 18.318 26.8319 16.6108 26.8703 14.8787C26.8948 14.404 27.0906 13.9543 27.4213 13.6129C27.7845 13.1531 28.0943 12.6535 28.3446 12.1237C27.8081 12.1247 27.2774 12.0125 26.7873 11.7943C26.2971 11.5762 25.8585 11.2571 25.5002 10.8578C25.1556 10.5161 24.7463 10.2466 24.2962 10.0651C23.8461 9.8835 23.3644 9.79355 22.8792 9.80047C22.389 9.7878 21.9013 9.87205 21.4438 10.0484C20.9864 10.2247 20.5682 10.4897 20.2135 10.828C19.7348 11.2822 19.3838 11.8542 19.1956 12.4867C19.0075 13.1191 18.9887 13.7899 19.1412 14.4319L19.5284 16.1296L17.786 16.2488C16.0006 16.3944 14.2049 16.1501 12.5232 15.533C10.8415 14.9159 9.31399 13.9406 8.04654 12.6747C7.99219 14.6351 8.48259 16.5721 9.46323 18.2705C10.4439 19.9689 11.8763 21.362 13.6013 22.295L15.0161 23.0992L14.0779 24.4395C13.0633 25.7701 11.6731 26.7661 10.0868 27.2988C11.1044 27.5538 12.1502 27.6789 13.1992 27.6711H13.2141Z" fill="white"/>
</svg>
