<svg width="31" height="31" viewBox="0 0 31 31" fill="none" xmlns="http://www.w3.org/2000/svg">
<path fill-rule="evenodd" clip-rule="evenodd" d="M12.0263 0.443978C7.80504 0.52512 5.50837 0.94393 3.93637 1.91916C2.27174 2.95189 1.43245 4.85683 1.10672 8.34171C0.993237 9.55572 0.946454 10.8383 0.925937 13.2975L0.909743 15.241H1.10899C1.60449 15.241 4.0017 15.1416 5.05383 15.0774C7.56143 14.9244 9.15494 14.6558 10.4144 14.1738C11.5155 13.7523 12.5556 13.0522 13.2482 12.2663C14.7416 10.5718 15.3324 8.60654 15.5741 4.52958C15.6385 3.44236 15.7374 1.06397 15.7374 0.600238V0.41748L14.3566 0.421605C13.5972 0.423855 12.5486 0.433929 12.0263 0.443978ZM16.0873 0.611212C16.0874 0.849264 16.1522 2.67549 16.1878 3.44219C16.3631 7.21982 16.7032 9.10944 17.4882 10.6665C18.5151 12.7033 20.2601 13.9972 22.7598 14.5755C24.2919 14.9299 26.3597 15.1085 30.3507 15.2311L30.9068 15.2482L30.9063 14.101C30.9047 10.3199 30.7631 7.95628 30.4413 6.34191C29.9948 4.1024 29.212 2.73813 27.912 1.93373C26.5009 1.06062 24.6387 0.650108 21.3728 0.492223C20.6018 0.454927 18.5661 0.41828 17.2431 0.417855L16.0873 0.41748L16.0873 0.611212ZM0.925912 17.5308C0.950378 20.4647 1.01523 21.8557 1.19446 23.2903C1.52664 25.9493 2.26832 27.6629 3.49369 28.6024C4.88682 29.6706 6.8992 30.173 10.4518 30.3396C11.2572 30.3773 13.2566 30.4134 14.5816 30.414L15.7374 30.4146L15.7372 30.2208C15.7369 29.8255 15.6548 27.748 15.5987 26.7149C15.4922 24.7555 15.3426 23.4698 15.0882 22.3279C14.5255 19.8028 13.2229 18.0317 11.1641 16.9925C9.36381 16.0838 7.20561 15.7735 1.48231 15.6007L0.909668 15.5834L0.925912 17.5308ZM29.7572 15.6178C25.2544 15.786 23.656 15.9606 21.9685 16.4685C20.5124 16.9067 19.255 17.7261 18.3589 18.8208C17.161 20.284 16.5852 22.0951 16.3261 25.2151C16.2359 26.3008 16.0873 29.4235 16.0873 30.2322V30.4146L17.2431 30.414C19.2027 30.4131 21.2124 30.363 22.285 30.2884C25.2089 30.085 27.021 29.5885 28.2777 28.6464C29.7429 27.5481 30.5134 25.4496 30.7676 21.8654C30.8561 20.6163 30.9054 18.7923 30.9063 16.7347L30.9068 15.591L30.5881 15.5949C30.4129 15.597 30.039 15.6073 29.7572 15.6178Z" fill="white"/>
</svg>
