<svg width="36" height="36" viewBox="0 0 36 36" fill="none" xmlns="http://www.w3.org/2000/svg">
<path d="M33.0886 17.4953C33.0886 17.4199 33.0887 17.3342 33.0852 17.2348C33.0818 16.9571 33.0749 16.6451 33.0681 16.3126C33.0407 15.3562 32.9927 14.4032 32.9172 13.5051C32.8144 12.2675 32.6636 11.2357 32.4579 10.461C32.2408 9.65247 31.8154 8.9151 31.224 8.32256C30.6327 7.73002 29.8962 7.30306 29.0881 7.08437C28.118 6.82384 26.2189 6.66272 23.545 6.56331C22.2732 6.51532 20.9123 6.48447 19.5514 6.46733C19.0749 6.46047 18.6327 6.45704 18.235 6.45361H17.2272C16.8295 6.45704 16.3873 6.46047 15.9108 6.46733C14.5499 6.48447 13.189 6.51532 11.9172 6.56331C9.2433 6.66615 7.34074 6.82727 6.37404 7.08437C5.56572 7.30253 4.82893 7.7293 4.2375 8.32193C3.64608 8.91455 3.22081 9.65221 3.00429 10.461C2.79518 11.2357 2.64778 12.2675 2.54494 13.5051C2.46952 14.4032 2.42153 15.3562 2.3941 16.3126C2.38382 16.6451 2.38039 16.9571 2.37696 17.2348C2.37696 17.3342 2.37354 17.4199 2.37354 17.4953V17.6873C2.37354 17.7627 2.37354 17.8484 2.37696 17.9478C2.38039 18.2255 2.38725 18.5374 2.3941 18.8699C2.42153 19.8263 2.46952 20.7793 2.54494 21.6775C2.64778 22.915 2.79861 23.9468 3.00429 24.7216C3.44308 26.3636 4.73202 27.6594 6.37404 28.0982C7.34074 28.3587 9.2433 28.5198 11.9172 28.6192C13.189 28.6672 14.5499 28.6981 15.9108 28.7152C16.3873 28.7221 16.8295 28.7255 17.2272 28.7289H18.235C18.6327 28.7255 19.0749 28.7221 19.5514 28.7152C20.9123 28.6981 22.2732 28.6672 23.545 28.6192C26.2189 28.5164 28.1214 28.3553 29.0881 28.0982C30.7302 27.6594 32.0191 26.367 32.4579 24.7216C32.667 23.9468 32.8144 22.915 32.9172 21.6775C32.9927 20.7793 33.0407 19.8263 33.0681 18.8699C33.0784 18.5374 33.0818 18.2255 33.0852 17.9478C33.0852 17.8484 33.0886 17.7627 33.0886 17.6873V17.4953ZM30.6205 17.6735C30.6205 17.7455 30.6205 17.8244 30.617 17.9169C30.6136 18.1843 30.6068 18.4791 30.5999 18.7979C30.5759 19.7098 30.5279 20.6216 30.4559 21.4684C30.3634 22.5722 30.2331 23.4772 30.072 24.084C29.8594 24.8758 29.2355 25.5032 28.4471 25.7123C27.7272 25.9042 25.9138 26.0585 23.449 26.1511C22.2012 26.199 20.8575 26.2299 19.5171 26.247C19.0475 26.2539 18.6121 26.2573 18.2213 26.2573H17.2409L15.9451 26.247C14.6047 26.2299 13.2644 26.199 12.0131 26.1511C9.54839 26.0551 7.73154 25.9042 7.01508 25.7123C6.22664 25.4997 5.60274 24.8758 5.3902 24.084C5.22908 23.4772 5.09882 22.5722 5.00626 21.4684C4.93427 20.6216 4.88971 19.7098 4.86228 18.7979C4.852 18.4791 4.84857 18.1809 4.84514 17.9169C4.84514 17.8244 4.84171 17.7421 4.84171 17.6735V17.509C4.84171 17.437 4.84171 17.3582 4.84514 17.2656C4.84857 16.9982 4.85543 16.7034 4.86228 16.3846C4.88628 15.4727 4.93427 14.5609 5.00626 13.7142C5.09882 12.6103 5.22908 11.7053 5.3902 11.0986C5.60274 10.3067 6.22664 9.67939 7.01508 9.47028C7.73497 9.27831 9.54839 9.12405 12.0131 9.03149C13.2609 8.9835 14.6047 8.95264 15.9451 8.9355C16.4147 8.92865 16.8501 8.92522 17.2409 8.92522H18.2213L19.5171 8.9355C20.8575 8.95264 22.1978 8.9835 23.449 9.03149C25.9138 9.12747 27.7306 9.27831 28.4471 9.47028C29.2355 9.68281 29.8594 10.3067 30.072 11.0986C30.2331 11.7053 30.3634 12.6103 30.4559 13.7142C30.5279 14.5609 30.5725 15.4727 30.5999 16.3846C30.6102 16.7034 30.6136 17.0016 30.617 17.2656C30.617 17.3582 30.6205 17.4404 30.6205 17.509V17.6735ZM14.6801 22.1848L22.6332 17.557L14.6801 12.9977V22.1848Z" fill="white"/>
</svg>
