<svg width="125" height="32" viewBox="0 0 125 32" fill="none" xmlns="http://www.w3.org/2000/svg">
<path d="M18.8143 14.8759C18.8277 13.8326 19.1036 12.8096 19.6164 11.9022C20.1291 10.9947 20.862 10.2323 21.7469 9.68582C21.1848 8.87937 20.4432 8.2157 19.581 7.74751C18.7188 7.27932 17.7598 7.01951 16.7802 6.98873C14.6904 6.7684 12.6646 8.24476 11.5997 8.24476C10.5142 8.24476 8.87462 7.0106 7.10909 7.04709C5.9671 7.08415 4.85413 7.41771 3.87864 8.01529C2.90315 8.61286 2.09839 9.45406 1.54279 10.4569C-0.863965 14.6424 0.931258 20.7937 3.23673 24.177C4.3902 25.8337 5.73829 27.6843 7.50222 27.6186C9.22834 27.5467 9.87302 26.513 11.9566 26.513C14.0208 26.513 14.6257 27.6186 16.4254 27.5769C18.2776 27.5467 19.4446 25.9129 20.5576 24.2405C21.3864 23.06 22.0241 21.7554 22.4472 20.3748C21.3711 19.9177 20.4528 19.1525 19.8068 18.1746C19.1607 17.1967 18.8156 16.0495 18.8143 14.8759Z" fill="white"/>
<path d="M15.4152 4.76366C16.4251 3.5459 16.9226 1.98068 16.8021 0.400391C15.2592 0.563166 13.834 1.30386 12.8105 2.4749C12.31 3.04698 11.9267 3.71253 11.6825 4.43349C11.4383 5.15445 11.3379 5.91669 11.3872 6.67663C12.1589 6.68462 12.9224 6.5166 13.6201 6.18524C14.3178 5.85388 14.9316 5.36782 15.4152 4.76366Z" fill="white"/>
<path d="M40.634 23.4246H34.7435L33.329 27.6201H30.834L36.4133 12.0977H39.0055L44.5849 27.6201H42.0473L40.634 23.4246ZM35.3536 21.4885H40.0228L37.721 14.6795H37.6566L35.3536 21.4885Z" fill="white"/>
<path d="M56.6345 21.9621C56.6345 25.4789 54.7606 27.7384 51.9326 27.7384C51.2163 27.7761 50.5038 27.6103 49.8769 27.2601C49.2499 26.91 48.7338 26.3895 48.3877 25.7584H48.3342V31.3639H46.0215V16.3029H48.2601V18.1852H48.3026C48.6647 17.5571 49.1895 17.0394 49.8212 16.6871C50.4529 16.3348 51.1679 16.1611 51.8901 16.1845C54.7496 16.1845 56.6345 18.455 56.6345 21.9621ZM54.2575 21.9621C54.2575 19.6708 53.0786 18.1644 51.28 18.1644C49.513 18.1644 48.3245 19.7025 48.3245 21.9621C48.3245 24.2423 49.513 25.7694 51.28 25.7694C53.0786 25.7694 54.2575 24.2741 54.2575 21.9621Z" fill="white"/>
<path d="M69.0349 21.962C69.0349 25.4789 67.161 27.7384 64.333 27.7384C63.6167 27.776 62.9042 27.6103 62.2773 27.2601C61.6503 26.9099 61.1342 26.3895 60.7881 25.7584H60.7345V31.3639H58.4219V16.3029H60.6604V18.1852H60.7029C61.065 17.5571 61.5898 17.0394 62.2216 16.6871C62.8533 16.3348 63.5683 16.1611 64.2905 16.1845C67.15 16.1845 69.0349 18.455 69.0349 21.962ZM66.6578 21.962C66.6578 19.6708 65.479 18.1644 63.6804 18.1644C61.9134 18.1644 60.7249 19.7025 60.7249 21.962C60.7249 24.2423 61.9134 25.7694 63.6804 25.7694C65.479 25.7694 66.6579 24.2741 66.6579 21.962H66.6578Z" fill="white"/>
<path d="M77.2312 23.2952C77.4025 24.8345 78.8913 25.8452 80.9256 25.8452C82.8749 25.8452 84.2773 24.8345 84.2773 23.4465C84.2773 22.2417 83.4315 21.5203 81.4287 21.0259L79.426 20.5413C76.5883 19.8528 75.2709 18.5198 75.2709 16.3567C75.2709 13.6785 77.5945 11.8389 80.894 11.8389C84.1594 11.8389 86.398 13.6785 86.4733 16.3567H84.1388C83.999 14.8076 82.7242 13.8726 80.8612 13.8726C78.9982 13.8726 77.7233 14.8186 77.7233 16.1956C77.7233 17.293 78.5376 17.9387 80.5294 18.4331L82.232 18.853C85.4026 19.6062 86.72 20.8855 86.72 23.156C86.72 26.06 84.4171 27.8789 80.7542 27.8789C77.3271 27.8789 75.0133 26.1027 74.8638 23.2951L77.2312 23.2952Z" fill="white"/>
<path d="M91.7108 13.6248V16.303H93.8533V18.1426H91.7108V24.3816C91.7108 25.3508 92.1398 25.8025 93.0816 25.8025C93.336 25.798 93.5899 25.7801 93.8424 25.7487V27.5773C93.419 27.6568 92.9886 27.6928 92.5579 27.6848C90.2768 27.6848 89.3872 26.8242 89.3872 24.6293V18.1426H87.749V16.303H89.3872V13.6248H91.7108Z" fill="white"/>
<path d="M95.0942 21.9621C95.0942 18.4014 97.1821 16.1638 100.438 16.1638C103.704 16.1638 105.783 18.4013 105.783 21.9621C105.783 25.5327 103.715 27.7605 100.438 27.7605C97.1614 27.7605 95.0942 25.5327 95.0942 21.9621ZM103.426 21.9621C103.426 19.5195 102.312 18.0779 100.438 18.0779C98.5638 18.0779 97.4507 19.5305 97.4507 21.9621C97.4507 24.4145 98.5638 25.8452 100.438 25.8452C102.312 25.8452 103.426 24.4145 103.426 21.9621H103.426Z" fill="white"/>
<path d="M107.689 16.303H109.895V18.2293H109.949C110.098 17.6277 110.449 17.096 110.942 16.7236C111.436 16.3513 112.042 16.1609 112.659 16.1846C112.925 16.1836 113.191 16.2127 113.451 16.2713V18.4441C113.115 18.3408 112.764 18.2934 112.412 18.3037C112.076 18.29 111.741 18.3495 111.43 18.4782C111.119 18.6068 110.84 18.8014 110.611 19.0488C110.382 19.2962 110.209 19.5904 110.104 19.9112C109.999 20.232 109.964 20.5719 110.002 20.9075V27.6201H107.689L107.689 16.303Z" fill="white"/>
<path d="M124.114 24.2961C123.803 26.3506 121.811 27.7605 119.263 27.7605C115.985 27.7605 113.951 25.5547 113.951 22.0159C113.951 18.4661 115.996 16.1638 119.165 16.1638C122.283 16.1638 124.243 18.3147 124.243 21.7461V22.542H116.285V22.6824C116.249 23.0989 116.3 23.5184 116.438 23.9132C116.575 24.308 116.794 24.669 117.08 24.9722C117.367 25.2754 117.715 25.5138 118.1 25.6717C118.486 25.8296 118.9 25.9033 119.316 25.8879C119.863 25.9394 120.411 25.8122 120.88 25.5254C121.349 25.2386 121.713 24.8075 121.918 24.2961L124.114 24.2961ZM116.296 20.9184H121.929C121.95 20.544 121.893 20.1692 121.763 19.8177C121.633 19.4662 121.431 19.1455 121.172 18.8758C120.912 18.6061 120.6 18.3932 120.255 18.2504C119.91 18.1076 119.539 18.0381 119.165 18.0461C118.789 18.0439 118.416 18.1166 118.067 18.26C117.719 18.4034 117.402 18.6148 117.135 18.8818C116.868 19.1488 116.657 19.4663 116.513 19.8159C116.369 20.1654 116.295 20.5402 116.296 20.9185V20.9184Z" fill="white"/>
<path d="M35.0635 0.413737C35.5483 0.378788 36.0348 0.452363 36.488 0.629154C36.9411 0.805945 37.3495 1.08155 37.6837 1.43608C38.018 1.79061 38.2697 2.21523 38.4208 2.67932C38.5719 3.14341 38.6185 3.63539 38.5574 4.11978C38.5574 6.50259 37.2753 7.87228 35.0635 7.87228H32.3813V0.413737H35.0635ZM33.5346 6.81748H34.9346C35.2811 6.83828 35.6278 6.78122 35.9496 6.65046C36.2713 6.51969 36.56 6.3185 36.7945 6.06155C37.0291 5.80459 37.2037 5.49833 37.3055 5.16506C37.4074 4.83178 37.434 4.47989 37.3834 4.13498C37.4303 3.79144 37.401 3.44173 37.2976 3.1109C37.1942 2.78007 37.0192 2.47632 36.7851 2.2214C36.5511 1.96649 36.2638 1.76673 35.9439 1.63643C35.624 1.50614 35.2793 1.44853 34.9346 1.46775H33.5346V6.81748Z" fill="white"/>
<path d="M39.8602 5.05548C39.8249 4.68558 39.8671 4.31237 39.9838 3.95979C40.1006 3.6072 40.2895 3.28302 40.5383 3.00805C40.7871 2.73307 41.0904 2.51336 41.4287 2.36302C41.767 2.21267 42.1328 2.13501 42.5028 2.13501C42.8727 2.13501 43.2386 2.21267 43.5769 2.36302C43.9152 2.51336 44.2185 2.73307 44.4673 3.00805C44.7161 3.28302 44.905 3.6072 45.0217 3.95979C45.1385 4.31237 45.1806 4.68558 45.1454 5.05548C45.1813 5.42576 45.1397 5.79948 45.0232 6.15264C44.9067 6.50579 44.718 6.83057 44.4691 7.10608C44.2202 7.3816 43.9167 7.60177 43.5781 7.75244C43.2394 7.90311 42.8732 7.98094 42.5028 7.98094C42.1324 7.98094 41.7661 7.90311 41.4275 7.75244C41.0888 7.60177 40.7853 7.3816 40.5364 7.10608C40.2876 6.83057 40.0988 6.50579 39.9824 6.15264C39.8659 5.79948 39.8243 5.42576 39.8602 5.05548ZM44.0079 5.05548C44.0079 3.83539 43.4622 3.12189 42.5046 3.12189C41.5433 3.12189 41.0026 3.83539 41.0026 5.05549C41.0026 6.28535 41.5434 6.99335 42.5046 6.99335C43.4623 6.99334 44.0079 6.28045 44.0079 5.05548H44.0079Z" fill="white"/>
<path d="M52.1709 7.87231H51.0237L49.8656 3.7268H49.7781L48.6248 7.87231H47.4885L45.9438 2.24365H47.0656L48.0694 6.53865H48.152L49.3041 2.24365H50.365L51.5171 6.53865H51.6046L52.6036 2.24365H53.7095L52.1709 7.87231Z" fill="white"/>
<path d="M55.0088 2.24359H56.0734V3.13775H56.156C56.2962 2.8166 56.5327 2.54738 56.8324 2.36762C57.1322 2.18787 57.4803 2.10652 57.8282 2.13494C58.1009 2.11434 58.3747 2.15564 58.6293 2.25576C58.8839 2.35588 59.1128 2.51226 59.2991 2.71331C59.4854 2.91437 59.6242 3.15494 59.7053 3.41722C59.7865 3.67949 59.8078 3.95674 59.7678 4.22843V7.87218H58.6619V4.50738C58.6619 3.60285 58.2706 3.15301 57.4527 3.15301C57.2676 3.14435 57.0828 3.176 56.911 3.24578C56.7392 3.31557 56.5844 3.42185 56.4574 3.55733C56.3303 3.69281 56.2338 3.85429 56.1747 4.03071C56.1156 4.20712 56.0951 4.39429 56.1147 4.5794V7.87224H55.0088L55.0088 2.24359Z" fill="white"/>
<path d="M61.5298 0.0463867H62.6357V7.8723H61.5298V0.0463867Z" fill="white"/>
<path d="M64.1731 5.05558C64.1379 4.68566 64.1801 4.31243 64.2969 3.95983C64.4137 3.60723 64.6026 3.28305 64.8514 3.00806C65.1002 2.73308 65.4036 2.51337 65.7419 2.36302C66.0802 2.21267 66.4461 2.13501 66.816 2.13501C67.186 2.13501 67.5519 2.21267 67.8902 2.36302C68.2285 2.51337 68.5318 2.73308 68.7807 3.00806C69.0295 3.28305 69.2184 3.60723 69.3352 3.95983C69.452 4.31243 69.4942 4.68566 69.459 5.05558C69.4948 5.42588 69.4532 5.79961 69.3367 6.15276C69.2201 6.50592 69.0314 6.83068 68.7825 7.10619C68.5336 7.3817 68.23 7.60186 67.8914 7.75252C67.5527 7.90318 67.1864 7.98101 66.816 7.98101C66.4457 7.98101 66.0794 7.90318 65.7407 7.75252C65.4021 7.60186 65.0985 7.3817 64.8496 7.10619C64.6007 6.83068 64.4119 6.50592 64.2954 6.15276C64.1789 5.79961 64.1373 5.42588 64.1731 5.05558ZM68.3209 5.05558C68.3209 3.8355 67.7752 3.122 66.8176 3.122C65.8563 3.122 65.3155 3.8355 65.3155 5.0556C65.3155 6.28546 65.8563 6.99346 66.8176 6.99346C67.7752 6.99345 68.3209 6.28056 68.3209 5.05558H68.3209Z" fill="white"/>
<path d="M70.623 6.28051C70.623 5.26732 71.3741 4.68322 72.7072 4.60021L74.2251 4.51232V4.02648C74.2251 3.432 73.8338 3.09631 73.0779 3.09631C72.4606 3.09631 72.0328 3.32397 71.91 3.72192H70.8394C70.9524 2.75512 71.8578 2.13501 73.1289 2.13501C74.5338 2.13501 75.3262 2.83751 75.3262 4.02648V7.8723H74.2616V7.08129H74.1741C73.9965 7.36503 73.7471 7.59634 73.4514 7.75161C73.1557 7.90687 72.8242 7.98052 72.4909 7.96504C72.2557 7.98962 72.0179 7.96441 71.793 7.89104C71.568 7.81767 71.3609 7.69776 71.1849 7.53905C71.0089 7.38033 70.868 7.18634 70.7712 6.96957C70.6745 6.7528 70.624 6.51807 70.623 6.28051ZM74.2251 5.79954V5.32897L72.8567 5.41686C72.085 5.46873 71.735 5.73241 71.735 6.22862C71.735 6.73521 72.1725 7.03001 72.7741 7.03001C72.9504 7.04793 73.1285 7.03005 73.2977 6.97744C73.467 6.92482 73.6239 6.83855 73.7593 6.72375C73.8947 6.60895 74.0057 6.46797 74.0857 6.30919C74.1657 6.15042 74.2132 5.9771 74.2251 5.79954Z" fill="white"/>
<path d="M76.7798 5.05556C76.7798 3.277 77.69 2.15028 79.1058 2.15028C79.456 2.13408 79.8036 2.21833 80.1079 2.3932C80.4122 2.56807 80.6606 2.82632 80.8242 3.13778H80.9069V0.0463867H82.0128V7.8723H80.9531V6.98302H80.8656C80.6893 7.29238 80.4322 7.54742 80.122 7.72053C79.8119 7.89363 79.4604 7.97819 79.1058 7.96507C77.6803 7.96513 76.7798 6.83839 76.7798 5.05556ZM77.9222 5.05556C77.9222 6.2494 78.4824 6.96779 79.4194 6.96779C80.3515 6.96779 80.9276 6.23904 80.9276 5.06044C80.9276 3.88734 80.3455 3.14821 79.4194 3.14821C78.4885 3.14821 77.9221 3.87147 77.9221 5.05556H77.9222Z" fill="white"/>
<path d="M86.5882 5.05548C86.553 4.68558 86.5951 4.31237 86.7119 3.95979C86.8286 3.6072 87.0175 3.28302 87.2663 3.00805C87.5151 2.73307 87.8184 2.51336 88.1567 2.36302C88.495 2.21267 88.8609 2.13501 89.2308 2.13501C89.6007 2.13501 89.9666 2.21267 90.3049 2.36302C90.6432 2.51336 90.9465 2.73307 91.1953 3.00805C91.4441 3.28302 91.633 3.6072 91.7497 3.95979C91.8665 4.31237 91.9087 4.68558 91.8734 5.05548C91.9093 5.42576 91.8677 5.79948 91.7512 6.15264C91.6348 6.50579 91.446 6.83057 91.1971 7.10608C90.9483 7.3816 90.6447 7.60177 90.3061 7.75244C89.9675 7.90311 89.6012 7.98094 89.2308 7.98094C88.8604 7.98094 88.4941 7.90311 88.1555 7.75244C87.8169 7.60177 87.5133 7.3816 87.2645 7.10608C87.0156 6.83057 86.8268 6.50579 86.7104 6.15264C86.5939 5.79948 86.5523 5.42576 86.5882 5.05548ZM90.7359 5.05548C90.7359 3.83539 90.1903 3.12189 89.2326 3.12189C88.2713 3.12189 87.7306 3.83539 87.7306 5.05549C87.7306 6.28535 88.2714 6.99335 89.2326 6.99335C90.1903 6.99334 90.7359 6.28045 90.7359 5.05548Z" fill="white"/>
<path d="M93.3574 2.24359H94.422V3.13775H94.5047C94.6448 2.8166 94.8813 2.54738 95.181 2.36762C95.4808 2.18787 95.8289 2.10652 96.1769 2.13494C96.4495 2.11434 96.7233 2.15564 96.9779 2.25576C97.2325 2.35588 97.4615 2.51226 97.6477 2.71331C97.834 2.91437 97.9729 3.15494 98.054 3.41722C98.1351 3.67949 98.1565 3.95674 98.1165 4.22843V7.87218H97.0106V4.50738C97.0106 3.60285 96.6192 3.15301 95.8014 3.15301C95.6162 3.14435 95.4314 3.176 95.2596 3.24578C95.0878 3.31557 94.9331 3.42185 94.806 3.55733C94.6789 3.69281 94.5825 3.85429 94.5233 4.03071C94.4642 4.20712 94.4437 4.39429 94.4633 4.5794V7.87224H93.3574V2.24359Z" fill="white"/>
<path d="M104.365 0.842285V2.26928H105.579V3.20496H104.365V6.09924C104.365 6.68884 104.607 6.94702 105.158 6.94702C105.299 6.94656 105.439 6.938 105.579 6.92138V7.84667C105.381 7.88235 105.18 7.90134 104.978 7.90343C103.748 7.90343 103.258 7.46885 103.258 6.38365V3.20491H102.369V2.26923H103.258V0.842285H104.365Z" fill="white"/>
<path d="M107.09 0.0463867H108.186V3.1482H108.274C108.421 2.82405 108.663 2.55331 108.969 2.37287C109.275 2.19244 109.629 2.11108 109.982 2.1399C110.253 2.12507 110.525 2.17056 110.776 2.27311C111.028 2.37566 111.254 2.53275 111.438 2.73318C111.623 2.9336 111.761 3.17241 111.843 3.43258C111.924 3.69275 111.948 3.96786 111.912 4.23828V7.87231H110.805V4.51232C110.805 3.61327 110.388 3.15795 109.607 3.15795C109.417 3.14229 109.225 3.16853 109.047 3.23485C108.868 3.30117 108.705 3.40595 108.571 3.54187C108.437 3.6778 108.333 3.84157 108.269 4.02174C108.204 4.20192 108.179 4.39413 108.196 4.58494V7.87229H107.09L107.09 0.0463867Z" fill="white"/>
<path d="M118.36 6.35262C118.21 6.86705 117.885 7.31203 117.441 7.60971C116.997 7.9074 116.463 8.03884 115.932 7.98104C115.563 7.99083 115.196 7.9198 114.857 7.77289C114.518 7.62598 114.215 7.4067 113.968 7.13028C113.722 6.85386 113.539 6.52691 113.431 6.17214C113.323 5.81736 113.293 5.44325 113.344 5.07578C113.295 4.70717 113.325 4.33226 113.432 3.97642C113.54 3.62057 113.723 3.29212 113.968 3.01327C114.213 2.73443 114.514 2.51172 114.852 2.36021C115.191 2.2087 115.557 2.13193 115.927 2.1351C117.487 2.1351 118.427 3.2051 118.427 4.9726V5.36021H114.47V5.42246C114.453 5.62902 114.479 5.83693 114.546 6.03287C114.614 6.22881 114.721 6.40844 114.861 6.56026C115.002 6.71208 115.172 6.83273 115.362 6.91448C115.552 6.99623 115.756 7.03726 115.963 7.03496C116.227 7.06686 116.495 7.01901 116.733 6.89751C116.97 6.776 117.166 6.58632 117.296 6.35259L118.36 6.35262ZM114.47 4.53866H117.301C117.315 4.34975 117.289 4.16001 117.226 3.98161C117.162 3.80321 117.062 3.64011 116.932 3.50279C116.803 3.36547 116.645 3.25696 116.471 3.18424C116.297 3.11152 116.11 3.0762 115.921 3.08054C115.73 3.07813 115.54 3.1142 115.363 3.18663C115.186 3.25906 115.025 3.36638 114.89 3.50228C114.754 3.63817 114.648 3.79988 114.576 3.97787C114.504 4.15586 114.468 4.34654 114.47 4.53866H114.47Z" fill="white"/>
</svg>
