<svg width="85" height="85" viewBox="0 0 85 85" fill="none" xmlns="http://www.w3.org/2000/svg">
<rect width="85" height="85" rx="20" fill="#2E00E4"/>
<path d="M20.8438 49.2236L25.3155 53.5998C22.7942 30.1067 45.9142 23.8419 54.8577 25.4081L59.3771 21.078H48.3404C28.8358 24.1183 20.8437 38.7669 20.8438 49.2236Z" fill="white"/>
<path d="M54.8577 25.4081L50.8141 29.1854L51.052 49.4078H44.5822V53.4155H54.9529L54.8817 32.456L54.8706 29.1854L54.8577 25.4081Z" fill="white"/>
<path d="M44.5822 53.4155V49.4078V35.4041L40.5861 39.2736V53.4155C40.6178 55.8262 40.0343 61.5782 37.4464 65.3002L40.5861 68.3865C44.0589 63.734 44.5822 56.5479 44.5822 53.4155Z" fill="white"/>
<path d="M69.5575 27.2507L54.8706 29.1854L54.8817 32.456L69.5575 27.2507Z" fill="white"/>
</svg>
