<svg width="267" height="48" viewBox="0 0 267 48" fill="none" xmlns="http://www.w3.org/2000/svg">
<path d="M122.107 38.059C120.772 38.059 119.55 37.8212 118.44 37.3456C117.354 36.8473 116.403 36.1679 115.588 35.3072C114.796 34.4466 114.174 33.4614 113.721 32.3516C113.291 31.2418 113.076 30.0641 113.076 28.8184C113.076 27.1424 113.449 25.6137 114.196 24.2321C114.943 22.8505 115.996 21.7521 117.354 20.9367C118.712 20.0988 120.285 19.6798 122.073 19.6798C123.816 19.6798 125.333 20.0761 126.623 20.8688C127.936 21.6389 128.909 22.6807 129.543 23.9943L126.623 24.9116C126.17 24.0736 125.537 23.4281 124.722 22.9751C123.907 22.4995 123.001 22.2617 122.005 22.2617C120.919 22.2617 119.923 22.5448 119.018 23.111C118.135 23.6772 117.433 24.4586 116.913 25.4551C116.392 26.429 116.132 27.5501 116.132 28.8184C116.132 30.0641 116.392 31.1965 116.913 32.2157C117.456 33.2122 118.169 34.0049 119.052 34.5938C119.957 35.1827 120.953 35.4771 122.039 35.4771C122.741 35.4771 123.409 35.3525 124.043 35.1034C124.699 34.8543 125.265 34.5259 125.74 34.1182C126.238 33.6879 126.578 33.2236 126.759 32.7253L129.679 33.6086C129.317 34.4692 128.762 35.2393 128.015 35.9187C127.291 36.5755 126.419 37.0965 125.401 37.4815C124.405 37.8665 123.307 38.059 122.107 38.059Z" fill="white"/>
<path d="M141.701 38.059C140.365 38.059 139.154 37.8212 138.068 37.3456C136.981 36.8473 136.042 36.1792 135.25 35.3412C134.457 34.4806 133.846 33.4953 133.416 32.3856C132.986 31.2758 132.771 30.1094 132.771 28.8864C132.771 27.6407 132.986 26.463 133.416 25.3532C133.846 24.2434 134.457 23.2695 135.25 22.4316C136.042 21.5709 136.981 20.9028 138.068 20.4272C139.177 19.9289 140.388 19.6798 141.701 19.6798C143.036 19.6798 144.247 19.9289 145.334 20.4272C146.42 20.9028 147.359 21.5709 148.152 22.4316C148.967 23.2695 149.589 24.2434 150.019 25.3532C150.449 26.463 150.664 27.6407 150.664 28.8864C150.664 30.1094 150.449 31.2758 150.019 32.3856C149.589 33.4953 148.978 34.4806 148.186 35.3412C147.393 36.1792 146.443 36.8473 145.334 37.3456C144.247 37.8212 143.036 38.059 141.701 38.059ZM135.827 28.9203C135.827 30.1434 136.087 31.2531 136.608 32.2497C137.151 33.2462 137.864 34.0389 138.747 34.6278C139.63 35.194 140.614 35.4771 141.701 35.4771C142.787 35.4771 143.772 35.1827 144.655 34.5938C145.56 34.0049 146.273 33.2122 146.794 32.2157C147.337 31.1965 147.608 30.0754 147.608 28.8524C147.608 27.6294 147.337 26.5196 146.794 25.5231C146.273 24.5265 145.56 23.7338 144.655 23.145C143.772 22.5561 142.787 22.2617 141.701 22.2617C140.614 22.2617 139.63 22.5674 138.747 23.179C137.864 23.7678 137.151 24.5605 136.608 25.557C136.087 26.5536 135.827 27.6747 135.827 28.9203Z" fill="white"/>
<path d="M164.717 22.6014C163.223 22.6241 159.488 23.3019 158.333 24.0493V37.7193H155.346V19.9855H158.333V24.0493C158.945 22.8263 159.544 21.888 160.54 21.1406C161.559 20.3705 162.623 19.9402 163.732 19.8496C163.958 19.8496 164.151 19.8496 164.309 19.8496C164.468 19.8496 164.603 19.8609 164.717 19.8836V22.6014Z" fill="white"/>
<path fill-rule="evenodd" clip-rule="evenodd" d="M231.279 29.6678C230.645 30.4831 230.328 31.457 230.328 32.5894C230.328 33.6086 230.588 34.5372 231.109 35.3752C231.63 36.1905 232.354 36.8474 233.282 37.3456C234.21 37.8212 235.263 38.059 236.44 38.059C237.662 38.059 238.896 37.7873 240.14 37.2437C241.385 36.7001 242.393 35.9301 243.162 34.9336L243.23 36.0547C243.275 36.485 243.468 36.8927 243.807 37.2777C244.17 37.6627 244.701 37.8552 245.403 37.8552C245.539 37.8552 245.709 37.8439 245.912 37.8212C246.139 37.7986 246.399 37.7646 246.693 37.7193V35.4092C246.354 35.3865 246.105 35.2959 245.946 35.1374C245.811 34.9562 245.743 34.6844 245.743 34.322V26.8141C245.743 24.5719 245.086 22.8279 243.773 21.5823C242.461 20.3139 240.672 19.6798 238.409 19.6798C237.164 19.6798 235.964 19.8836 234.81 20.2913C233.655 20.6763 232.501 21.2652 231.347 22.0579L232.433 24.1642C233.429 23.5074 234.368 23.0091 235.251 22.6694C236.157 22.307 237.096 22.1258 238.069 22.1258C239.563 22.1258 240.718 22.5222 241.533 23.3149C242.347 24.0849 242.755 25.1494 242.755 26.5083V27.7993V29.8376L242.108 29.1243C241.011 27.9154 239.532 27.0519 237.9 27.0519C236.406 27.0519 235.093 27.2784 233.961 27.7313C232.829 28.1843 231.935 28.8298 231.279 29.6678ZM242.755 29.8376C242.053 29.5659 241.317 29.362 240.548 29.2261C239.778 29.0676 239.02 28.9883 238.273 28.9883C236.756 28.9883 235.523 29.2941 234.572 29.9056C233.644 30.4944 233.18 31.3098 233.18 32.3516C233.18 32.9178 233.327 33.4727 233.622 34.0163C233.938 34.5372 234.391 34.9675 234.98 35.3073C235.591 35.647 236.338 35.8169 237.221 35.8169C238.149 35.8169 239.031 35.6357 239.869 35.2733C240.706 34.8883 241.374 34.4126 241.872 33.8464C242.144 33.5293 242.359 33.2123 242.517 32.8952C242.676 32.5555 242.755 32.2724 242.755 32.0459V29.8376Z" fill="white"/>
<path fill-rule="evenodd" clip-rule="evenodd" d="M252.715 42.6114L251.832 42.5435V45.1933C252.149 45.2613 252.41 45.3066 252.613 45.3292C252.84 45.3519 253.055 45.3632 253.258 45.3632C254.119 45.3632 254.854 45.2273 255.465 44.9555C256.076 44.6837 256.574 44.31 256.959 43.8344C257.367 43.3815 257.672 42.8945 257.876 42.3736L266.5 19.9855H263.546L258.148 34.6957L256.518 37.7193L257.292 32.5894L252.172 19.9855H249.014L256.518 37.7193C255.997 39.1009 255.567 40.1427 255.228 40.8448C254.911 41.5696 254.617 42.0565 254.345 42.3056C254.073 42.5548 253.756 42.6793 253.394 42.6793C253.236 42.6793 253.009 42.6567 252.715 42.6114Z" fill="white"/>
<path fill-rule="evenodd" clip-rule="evenodd" d="M204.817 37.7193L202.152 23.8924L205.297 31.805L204.817 37.7193Z" fill="white"/>
<path d="M258.148 34.6957L263.546 19.9855L257.929 34.1582L258.148 34.6957Z" fill="white"/>
<path d="M256.518 37.7193L258.148 34.6957L257.929 34.1582L256.518 37.7193Z" fill="white"/>
<path d="M170.814 37.7193L170.789 23.9892L170.814 19.9855H167.826V37.7193H170.814Z" fill="white"/>
<path d="M180.219 37.7193H183.207V27.1198C183.207 26.0553 183.116 25.0701 182.935 24.1642C182.777 23.2582 182.494 22.4768 182.086 21.82C181.702 21.1406 181.158 20.6197 180.457 20.2573C179.778 19.8723 178.929 19.6798 177.91 19.6798C176.869 19.6798 175.941 19.6989 174.869 20.0821C173.624 20.527 173.123 21.0047 172.376 21.6162C171.536 22.5145 171.068 23.4095 170.789 23.9892L171.536 23.6445C172.456 23.2461 175.079 22.6485 177.11 22.5528C178.757 22.5528 179.21 22.8592 179.733 23.6253C180.257 24.3914 180.219 25.9194 180.219 27.7992V37.7193Z" fill="white"/>
<path fill-rule="evenodd" clip-rule="evenodd" d="M209.815 15.7154L206.175 13.7345L210.351 24.2321L206.243 34.1862L204.817 37.7193L202.152 23.8924L198.06 13.5987H194.767L204.817 37.7193H207.465L212.287 26.3384L217.074 37.7193H219.722L229.806 13.5987H226.479L218.33 34.1862L217.074 37.7193L217.339 31.805L214.188 24.2321L218.364 13.7345L214.717 15.7154L212.253 22.1258L210.657 17.9302L209.815 15.7154Z" fill="white"/>
<path d="M209.061 13.7345H206.175L209.815 15.7154L209.061 13.7345Z" fill="white"/>
<path d="M218.364 13.7345H215.478L214.717 15.7154L218.364 13.7345Z" fill="white"/>
<path d="M170.814 37.7193L170.789 23.9892L170.814 19.9855H167.826V37.7193H170.814Z" fill="white"/>
<path d="M86.8821 37.7193L86.8572 23.9892L86.8821 19.9855H83.8942V37.7193H86.8821Z" fill="white"/>
<path d="M96.287 37.7193H99.2748V27.1198C99.2748 26.0553 99.1843 25.0701 99.0032 24.1642C98.8448 23.2582 98.5618 22.4768 98.1544 21.82C97.7696 21.1406 97.2264 20.6197 96.5247 20.2573C95.8456 19.8723 94.9968 19.6798 93.9782 19.6798C92.937 19.6798 92.0092 19.6989 90.9366 20.0821C89.6917 20.527 89.1909 21.0047 88.4439 21.6162C87.6041 22.5145 87.1361 23.4095 86.8572 23.9892L87.6041 23.6445C88.5234 23.2461 91.1473 22.6485 93.1775 22.5528C94.8246 22.5528 95.2775 22.8592 95.8014 23.6253C96.3253 24.3914 96.287 25.9194 96.287 27.7992V37.7193Z" fill="white"/>
<path d="M86.8821 37.7193L86.8572 23.9892L86.8821 19.9855H83.8942V37.7193H86.8821Z" fill="white"/>
<path d="M78.5414 13.5986H75.4857L78.5414 17.1327V13.5986Z" fill="white"/>
<path fill-rule="evenodd" clip-rule="evenodd" d="M68.2877 37.8892C66.3637 37.8892 64.7453 37.5608 63.4324 36.9039C62.1196 36.2245 61.0671 35.3186 60.2748 34.1861C59.4826 33.0311 58.9054 31.7288 58.5432 30.2793C58.1811 28.8298 58 27.335 58 25.7949V20.1737L60.5234 14.7441L61.0557 14.2402V25.7949C61.0557 26.9726 61.1689 28.1276 61.3953 29.2601C61.6443 30.3699 62.0404 31.3664 62.5836 32.2497C63.1269 33.133 63.8625 33.8351 64.7906 34.356C65.7186 34.8769 66.873 35.1374 68.2537 35.1374C69.6571 35.1374 70.8228 34.8769 71.7509 34.356C72.6789 33.8124 73.4146 33.099 73.9578 32.2157C74.501 31.3098 74.8858 30.3019 75.1122 29.1921C75.3612 28.0824 75.4857 26.9499 75.4857 25.7949V13.5986L78.5414 17.1327V25.7949C78.5414 27.4255 78.349 28.977 77.9642 30.4491C77.6021 31.8986 77.0135 33.1783 76.1987 34.288C75.3838 35.3978 74.32 36.2811 73.0071 36.9379C71.7169 37.5721 70.1438 37.8892 68.2877 37.8892Z" fill="white"/>
<path fill-rule="evenodd" clip-rule="evenodd" d="M60.9673 13.789L61.0557 13.7588V14.2402L60.5234 14.7441L60.9673 13.789Z" fill="white"/>
<path d="M60.8594 13.8257L58 17.1327L60.5234 14.7441L60.9673 13.789L60.8594 13.8257Z" fill="white"/>
<path d="M58 17.1327V20.1737L60.5234 14.7441L58 17.1327Z" fill="white"/>
<path d="M105.378 24.9116L108.366 19.9855L105.378 23.68V24.9116Z" fill="white"/>
<path d="M204.817 37.7193L206.243 34.1862L205.297 31.805L204.817 37.7193Z" fill="white"/>
<path d="M217.074 37.7193L218.33 34.1862L217.339 31.805L217.074 37.7193Z" fill="white"/>
<path d="M257.292 32.5894L256.518 37.7193L257.929 34.1582L257.292 32.5894Z" fill="white"/>
<path d="M58 14.8V17.1327L60.8594 13.8257L58 14.8Z" fill="white"/>
<path d="M108.366 19.9855H105.378V21.6739L108.366 19.9855Z" fill="white"/>
<path d="M105.378 22.4485L108.366 19.9855L105.378 21.6739V22.4485Z" fill="white"/>
<path d="M108.366 19.9855L105.378 22.4485V23.68L108.366 19.9855Z" fill="white"/>
<path fill-rule="evenodd" clip-rule="evenodd" d="M105.378 15.755L106.471 14.966L105.378 13.5986V15.755Z" fill="white"/>
<path fill-rule="evenodd" clip-rule="evenodd" d="M105.378 37.7193V24.9116L108.366 19.9855V37.7193H105.378ZM106.471 14.966L105.378 13.5986H108.366L106.471 14.966Z" fill="white"/>
<path d="M6.96945e-08 28.1284L5.04014 32.5019C2.19836 9.02318 28.257 2.7622 38.3373 4.32746L43.431 -1.0761e-07L30.9915 -7.67884e-08C9.00792 3.03842 4.38009e-08 17.6781 6.96945e-08 28.1284Z" fill="white"/>
<path d="M38.3373 4.32746L33.7797 8.10245L34.0478 28.3125L26.7557 28.3125L26.7557 32.3177L38.4445 32.3177L38.3642 11.3711L38.3517 8.10245L38.3373 4.32746Z" fill="white"/>
<path d="M26.7557 32.3177L26.7557 28.3125L26.7557 14.3174L22.2517 18.1845L22.2517 32.3177C22.2874 34.727 21.6297 40.4754 18.7129 44.1952L22.2517 47.2796C26.1658 42.6299 26.7557 35.4482 26.7557 32.3177Z" fill="white"/>
<path d="M54.9054 6.16891L38.3517 8.10245L38.3642 11.3711L54.9054 6.16891Z" fill="white"/>
</svg>
