<svg width="278" height="43" viewBox="0 0 278 43" fill="none" xmlns="http://www.w3.org/2000/svg">
<path d="M85.4764 32.6138C83.6958 32.6138 82.0661 32.2968 80.5872 31.6626C79.1386 30.9983 77.871 30.0923 76.7845 28.9448C75.7282 27.7973 74.8982 26.4837 74.2946 25.0039C73.7212 23.5242 73.4345 21.9539 73.4345 20.2931C73.4345 18.0584 73.9325 16.02 74.9284 14.178C75.9244 12.3359 77.3278 10.8713 79.1386 9.78415C80.9494 8.66683 83.0469 8.10816 85.4311 8.10816C87.755 8.10816 89.7771 8.63663 91.4974 9.69356C93.2478 10.7203 94.5456 12.1094 95.3906 13.8609L91.4974 15.0839C90.8938 13.9666 90.0487 13.1059 88.9622 12.502C87.8757 11.8678 86.6685 11.5507 85.3406 11.5507C83.8919 11.5507 82.564 11.9282 81.3568 12.6832C80.1798 13.4381 79.2442 14.4799 78.55 15.8087C77.8559 17.1072 77.5088 18.602 77.5088 20.2931C77.5088 21.9539 77.8559 23.4639 78.55 24.8228C79.2744 26.1515 80.2251 27.2084 81.4021 27.9935C82.6093 28.7787 83.9372 29.1713 85.3859 29.1713C86.3215 29.1713 87.2118 29.0052 88.0568 28.673C88.9321 28.3408 89.6866 27.903 90.3203 27.3594C90.9843 26.7856 91.437 26.1666 91.6785 25.5022L95.5717 26.6799C95.0888 27.8275 94.3494 28.8542 93.3535 29.7601C92.3877 30.6359 91.2257 31.3304 89.8676 31.8438C88.5397 32.3572 87.076 32.6138 85.4764 32.6138Z" fill="white"/>
<path d="M111.601 32.6138C109.82 32.6138 108.206 32.2968 106.757 31.6626C105.308 30.9983 104.056 30.1074 103 28.9901C101.943 27.8426 101.128 26.5289 100.555 25.0492C99.9816 23.5695 99.6948 22.0143 99.6948 20.3836C99.6948 18.7228 99.9816 17.1525 100.555 15.6728C101.128 14.1931 101.943 12.8945 103 11.7772C104.056 10.6297 105.308 9.73886 106.757 9.1047C108.236 8.44034 109.85 8.10816 111.601 8.10816C113.382 8.10816 114.996 8.44034 116.445 9.1047C117.894 9.73886 119.146 10.6297 120.202 11.7772C121.289 12.8945 122.119 14.1931 122.692 15.6728C123.266 17.1525 123.552 18.7228 123.552 20.3836C123.552 22.0143 123.266 23.5695 122.692 25.0492C122.119 26.5289 121.304 27.8426 120.248 28.9901C119.191 30.1074 117.924 30.9983 116.445 31.6626C114.996 32.2968 113.382 32.6138 111.601 32.6138ZM103.769 20.4289C103.769 22.0596 104.116 23.5393 104.81 24.8681C105.535 26.1968 106.485 27.2537 107.662 28.0388C108.839 28.7938 110.152 29.1713 111.601 29.1713C113.05 29.1713 114.362 28.7787 115.539 27.9935C116.747 27.2084 117.697 26.1515 118.391 24.8228C119.116 23.4639 119.478 21.969 119.478 20.3384C119.478 18.7077 119.116 17.228 118.391 15.8992C117.697 14.5705 116.747 13.5136 115.539 12.7285C114.362 11.9433 113.05 11.5507 111.601 11.5507C110.152 11.5507 108.839 11.9584 107.662 12.7738C106.485 13.5589 105.535 14.6158 104.81 15.9445C104.116 17.2733 103.769 18.7681 103.769 20.4289Z" fill="white"/>
<path d="M142.289 12.0037C140.297 12.0339 135.317 12.9376 133.778 13.9342V32.1609H129.794V8.51584H133.778V13.9342C134.593 12.3035 135.393 11.0525 136.721 10.0559C138.079 9.0292 139.497 8.45544 140.976 8.33465C141.278 8.33465 141.534 8.33465 141.746 8.33465C141.957 8.33465 142.138 8.34975 142.289 8.37995V12.0037Z" fill="white"/>
<path fill-rule="evenodd" clip-rule="evenodd" d="M231.038 21.4255C230.193 22.5126 229.771 23.8112 229.771 25.3211C229.771 26.68 230.118 27.9181 230.812 29.0354C231.506 30.1226 232.472 30.9983 233.709 31.6626C234.947 32.2968 236.35 32.6139 237.919 32.6139C239.549 32.6139 241.194 32.2515 242.854 31.5268C244.514 30.802 245.857 29.7753 246.883 28.4466L246.974 29.9414C247.034 30.5151 247.29 31.0587 247.743 31.5721C248.226 32.0854 248.935 32.3421 249.871 32.3421C250.052 32.3421 250.278 32.327 250.55 32.2968C250.852 32.2666 251.199 32.2213 251.591 32.1609V29.0807C251.138 29.0505 250.806 28.9297 250.595 28.7183C250.414 28.4768 250.324 28.1144 250.324 27.6312V17.6206C250.324 14.631 249.448 12.3057 247.698 10.6448C245.947 8.95374 243.563 8.10819 240.545 8.10819C238.885 8.10819 237.286 8.37998 235.747 8.92354C234.207 9.43691 232.668 10.2221 231.129 11.279L232.578 14.0874C233.906 13.2117 235.158 12.5473 236.335 12.0943C237.542 11.6112 238.795 11.3696 240.092 11.3696C242.084 11.3696 243.624 11.898 244.71 12.955C245.797 13.9817 246.34 15.401 246.34 17.2129V18.9342V21.652L245.477 20.7009C244.014 19.089 242.043 17.9376 239.866 17.9376C237.874 17.9376 236.124 18.2396 234.615 18.8436C233.106 19.4475 231.914 20.3082 231.038 21.4255ZM246.34 21.652C245.404 21.2896 244.423 21.0178 243.397 20.8367C242.371 20.6253 241.36 20.5196 240.364 20.5196C238.342 20.5196 236.697 20.9273 235.43 21.7426C234.192 22.5277 233.574 23.6149 233.574 25.004C233.574 25.7589 233.77 26.4988 234.162 27.2235C234.585 27.9181 235.188 28.4919 235.973 28.9448C236.788 29.3978 237.784 29.6243 238.961 29.6243C240.198 29.6243 241.375 29.3827 242.492 28.8995C243.608 28.3862 244.499 27.752 245.163 26.9971C245.525 26.5743 245.812 26.1515 246.023 25.7287C246.234 25.2758 246.34 24.8983 246.34 24.5963V21.652Z" fill="white"/>
<path fill-rule="evenodd" clip-rule="evenodd" d="M259.62 38.6837L258.443 38.5931V42.1263C258.866 42.2169 259.213 42.2773 259.484 42.3074C259.786 42.3376 260.073 42.3527 260.345 42.3527C261.491 42.3527 262.472 42.1716 263.287 41.8092C264.102 41.4468 264.766 40.9485 265.279 40.3144C265.822 39.7104 266.23 39.0612 266.501 38.3666L278 8.51587H274.061L266.863 28.1295L264.691 32.1609L265.723 25.3211L258.896 8.51587H254.686L264.691 32.1609C263.996 34.003 263.423 35.3921 262.97 36.3282C262.548 37.2946 262.155 37.9438 261.793 38.276C261.431 38.6082 261.009 38.7743 260.526 38.7743C260.314 38.7743 260.013 38.7441 259.62 38.6837Z" fill="white"/>
<path fill-rule="evenodd" clip-rule="evenodd" d="M195.756 32.1609L192.202 13.725L196.396 24.2752L195.756 32.1609Z" fill="white"/>
<path d="M266.863 28.1295L274.061 8.51587L266.572 27.4127L266.863 28.1295Z" fill="white"/>
<path d="M264.691 32.1609L266.863 28.1295L266.572 27.4127L264.691 32.1609Z" fill="white"/>
<path d="M150.419 32.1609L150.386 13.8541L150.419 8.51584H146.435V32.1609H150.419Z" fill="white"/>
<path d="M162.959 32.1609H166.943V18.0282C166.943 16.6089 166.822 15.2953 166.58 14.0874C166.369 12.8795 165.992 11.8376 165.449 10.9619C164.936 10.0559 164.211 9.36138 163.276 8.87822C162.37 8.36485 161.239 8.10816 159.88 8.10816C158.492 8.10816 157.255 8.13364 155.825 8.64467C154.165 9.23784 153.497 9.87475 152.501 10.6901C151.382 11.8878 150.758 13.0812 150.386 13.8541L151.382 13.3944C152.607 12.8633 156.106 12.0665 158.813 11.9389C161.009 11.9389 161.613 12.3474 162.311 13.3689C163.01 14.3904 162.959 16.4277 162.959 18.9341V32.1609Z" fill="white"/>
<path fill-rule="evenodd" clip-rule="evenodd" d="M202.419 2.82241L197.567 0.181218L203.135 14.178L197.657 27.45L195.756 32.1609L192.202 13.725L186.747 3.05176e-05H182.356L195.756 32.1609H199.287L205.716 16.9864L212.099 32.1609H215.63L229.075 3.05176e-05H224.639L213.774 27.45L212.099 32.1609L212.453 24.2752L208.251 14.178L213.819 0.181218L208.956 2.82241L205.67 11.3696L203.543 5.7754L202.419 2.82241Z" fill="white"/>
<path d="M201.415 0.181218H197.567L202.419 2.82241L201.415 0.181218Z" fill="white"/>
<path d="M213.819 0.181218H209.971L208.956 2.82241L213.819 0.181218Z" fill="white"/>
<path d="M150.419 32.1609L150.386 13.8541L150.419 8.51584H146.435V32.1609H150.419Z" fill="white"/>
<path d="M38.5094 32.1609L38.4762 13.8541L38.5094 8.51584H34.5257V32.1609H38.5094Z" fill="white"/>
<path d="M51.0493 32.1609H55.0331V18.0282C55.0331 16.6089 54.9124 15.2953 54.671 14.0874C54.4597 12.8795 54.0824 11.8376 53.5392 10.9619C53.0261 10.0559 52.3018 9.36138 51.3662 8.87822C50.4608 8.36485 49.3291 8.10817 47.9709 8.10817C46.5827 8.10817 45.3456 8.13364 43.9155 8.64467C42.2556 9.23784 41.5878 9.87475 40.5919 10.6901C39.4721 11.8878 38.8482 13.0812 38.4762 13.8541L39.4721 13.3944C40.6979 12.8633 44.1964 12.0665 46.9033 11.9389C49.0995 11.9389 49.7034 12.3474 50.4019 13.3689C51.1003 14.3904 51.0493 16.4277 51.0493 18.9341V32.1609Z" fill="white"/>
<path d="M38.5094 32.1609L38.4762 13.8541L38.5094 8.51584H34.5257V32.1609H38.5094Z" fill="white"/>
<path d="M27.3886 0H23.3142L27.3886 4.71207V0Z" fill="white"/>
<path fill-rule="evenodd" clip-rule="evenodd" d="M13.7169 32.3874C11.1516 32.3874 8.99371 31.9495 7.24326 31.0737C5.4928 30.1678 4.08942 28.9599 3.03311 27.45C1.97681 25.9099 1.20721 24.1735 0.724326 22.2408C0.241442 20.3082 0 18.3151 0 16.2616V8.7668L3.3645 1.52736L4.07433 0.855455V16.2616C4.07433 17.8319 4.22523 19.372 4.52703 20.8819C4.85902 22.3616 5.38717 23.6903 6.1115 24.8681C6.83582 26.0458 7.81668 26.9819 9.05407 27.6765C10.2915 28.371 11.8306 28.7183 13.6716 28.7183C15.5428 28.7183 17.0971 28.371 18.3345 27.6765C19.5719 26.9517 20.5527 26.0005 21.2771 24.8228C22.0014 23.6148 22.5145 22.271 22.8163 20.7913C23.1482 19.3116 23.3142 17.8017 23.3142 16.2616V0L27.3886 4.71207V16.2616C27.3886 18.4359 27.132 20.5044 26.619 22.4673C26.1361 24.4 25.3514 26.1062 24.2649 27.5859C23.1784 29.0656 21.7599 30.2433 20.0095 31.119C18.2892 31.9646 16.1917 32.3874 13.7169 32.3874Z" fill="white"/>
<path fill-rule="evenodd" clip-rule="evenodd" d="M3.95639 0.253776L4.07433 0.213591V0.855455L3.3645 1.52736L3.95639 0.253776Z" fill="white"/>
<path d="M3.81251 0.302798L0 4.71207L3.3645 1.52736L3.95639 0.253776L3.81251 0.302798Z" fill="white"/>
<path d="M0 4.71207V8.7668L3.3645 1.52736L0 4.71207Z" fill="white"/>
<path d="M63.1709 15.0839L67.1547 8.51584L63.1709 13.4419V15.0839Z" fill="white"/>
<path d="M195.756 32.1609L197.657 27.45L196.396 24.2752L195.756 32.1609Z" fill="white"/>
<path d="M212.099 32.1609L213.774 27.45L212.453 24.2752L212.099 32.1609Z" fill="white"/>
<path d="M265.723 25.3211L264.691 32.1609L266.572 27.4127L265.723 25.3211Z" fill="white"/>
<path d="M0 1.60181V4.71207L3.81251 0.302798L0 1.60181Z" fill="white"/>
<path d="M67.1547 8.51584H63.1709V10.767L67.1547 8.51584Z" fill="white"/>
<path d="M63.1709 11.7999L67.1547 8.51584L63.1709 10.767V11.7999Z" fill="white"/>
<path d="M67.1547 8.51584L63.1709 11.7999V13.4419L67.1547 8.51584Z" fill="white"/>
<path fill-rule="evenodd" clip-rule="evenodd" d="M63.1709 2.87516L64.6285 1.82315L63.1709 0V2.87516Z" fill="white"/>
<path fill-rule="evenodd" clip-rule="evenodd" d="M63.1709 32.1609V15.0839L67.1547 8.51584V32.1609H63.1709ZM64.6285 1.82315L63.1709 0H67.1547L64.6285 1.82315Z" fill="white"/>
</svg>
