<svg width="37" height="37" viewBox="0 0 37 37" fill="none" xmlns="http://www.w3.org/2000/svg">
<path d="M9.25 9.25H12.3333V12.3333H9.25V9.25Z" fill="white"/>
<path d="M4.625 16.9583V4.625H16.9583V16.9583H4.625ZM7.70833 7.70833V13.875H13.875V7.70833H7.70833ZM20.0417 20.0417H24.6667V23.125H20.0417V20.0417Z" fill="white"/>
<path d="M24.6665 23.125H27.7498V20.0417H32.3748V24.6667H27.7498V26.2083H29.2915V27.75H32.3748V32.375H29.2915V29.2917H26.2082V32.375H20.0415V26.2083H23.1248V29.2917H24.6665V23.125ZM27.7498 9.25H24.6665V12.3333H27.7498V9.25Z" fill="white"/>
<path d="M20.0417 4.625V16.9583H32.375V4.625H20.0417ZM29.2917 7.70833V13.875H23.125V7.70833H29.2917ZM9.25 24.6667H12.3333V27.75H9.25V24.6667Z" fill="white"/>
<path d="M4.625 32.3751V20.0417H16.9583V32.3751H4.625ZM7.70833 23.1251V29.2917H13.875V23.1251H7.70833Z" fill="white"/>
</svg>
