<svg width="110" height="72" viewBox="0 0 110 72" fill="none" xmlns="http://www.w3.org/2000/svg">
<path fill-rule="evenodd" clip-rule="evenodd" d="M9.29674 1.21628C8.76931 1.8853 8.35606 2.46414 8.3783 2.50272C8.40054 2.5413 9.70808 3.55959 11.284 4.76546L14.1493 6.95806L12.8674 7.15085C9.03016 7.72788 6.34178 9.14929 3.97175 11.8542C2.0656 14.0298 0.843417 16.6477 0.247892 19.8308C-0.0608318 21.4808 -0.0849792 24.3159 0.196738 25.8271C0.808255 29.1069 2.22616 31.9678 4.39306 34.2941C6.93984 37.0285 9.79144 38.355 14.0813 38.8008C15.5514 38.9537 25.6863 38.9638 25.6863 38.8124C25.6863 38.7012 25.6181 38.629 25.1568 38.2522L24.892 38.036L24.8624 25.6369C24.8462 18.8173 24.87 13.2396 24.9153 13.242C24.9607 13.2444 25.2124 13.6486 25.4745 14.1402C25.7366 14.6319 29.0481 20.4342 32.8332 27.0342L39.7152 39.0343H42.1002H44.4851V23.0811V7.128H41.6521C40.0883 7.128 38.819 7.17269 38.819 7.22767C38.819 7.28255 38.9838 7.46177 39.1852 7.62582C39.4127 7.81127 39.5931 8.08416 39.6613 8.34643C39.8086 8.91316 39.8153 29.4171 39.6682 29.4171C39.6109 29.4171 39.4061 29.0734 39.2128 28.6534C39.0196 28.2334 37.1221 24.8858 34.9963 21.2143C29.9317 12.4673 29.1813 11.1482 29.1813 10.9923C29.1813 10.9204 29.1415 10.8617 29.0928 10.8617C29.0442 10.8617 28.5079 9.99616 27.9013 8.93839L26.7984 7.01508L23.0651 7.01497C19.955 7.01485 19.3318 7.04099 19.3318 7.17156C19.3318 7.25777 19.45 7.41097 19.5943 7.512C20.1802 7.92214 20.1517 7.26445 20.1935 21.3462C20.2147 28.5128 20.2082 34.3938 20.1791 34.4151C20.1499 34.4363 18.744 34.422 17.0548 34.3832C12.9195 34.2884 11.7952 34.0458 9.8589 32.8304C8.88115 32.2166 7.29326 30.6103 6.65262 29.5868C4.87738 26.7508 4.26787 23.6767 4.87219 20.6078C5.77442 16.0255 9.2262 12.4697 13.5068 11.713C15.8597 11.2971 17.2409 11.3882 17.8959 12.0025C18.0894 12.1841 18.301 12.3326 18.3661 12.3326C18.45 12.3326 18.4845 11.5588 18.4845 9.67699V7.02141L17.0812 6.98985L15.6779 6.95828L18.5904 4.87792C20.1923 3.73371 21.5226 2.77924 21.5467 2.75695C21.5707 2.73455 21.2162 2.11781 20.7589 1.38645C20.3016 0.654984 19.9196 0.0428812 19.9101 0.0262492C19.9005 0.00950403 18.8053 0.786003 17.4762 1.75168C16.147 2.71735 15.0168 3.50743 14.9644 3.50743C14.9121 3.50743 13.8519 2.71826 12.6083 1.75371C11.3647 0.789171 10.3266 0 10.3014 0C10.2762 0 9.82416 0.547272 9.29674 1.21628ZM45.3854 23.0149V39.0343H50.4453C53.3487 39.0343 55.8877 38.9835 56.4026 38.9151C60.2725 38.4016 62.8407 36.5088 64.1137 33.2323C64.7427 31.6135 64.9478 29.4285 64.605 27.9983C64.3818 27.0667 63.7282 25.6496 63.136 24.8133C62.1932 23.4819 61.0455 22.6556 59.3653 22.0984C59.2696 22.0666 59.4168 21.9469 59.736 21.797C61.7881 20.8331 62.9988 19.3747 63.5619 17.1879C63.6932 16.6785 63.7467 16.0746 63.7419 15.1611C63.7306 13.0499 63.1859 11.5972 61.8251 10.0504C60.616 8.67568 59.0753 7.76827 57.1412 7.29183C56.4596 7.12392 55.5692 7.08907 50.8661 7.04585L45.3854 6.99562V23.0149ZM56.2668 11.8009C57.5424 12.1945 58.3866 12.8772 58.8556 13.8945C59.0621 14.3423 59.1005 14.6033 59.1005 15.5571C59.1005 16.5199 59.0629 16.77 58.8487 17.2352C58.499 17.9939 57.7329 18.7727 56.9211 19.1948C56.2967 19.5195 55.9536 19.6426 55.1025 19.8474L54.8112 19.9174V22.176C54.8112 24.4282 54.8119 24.4347 55.0495 24.4835C55.1805 24.5106 55.5738 24.5926 55.9233 24.6659C57.441 24.9841 59.1112 26.2542 59.6538 27.5027C60.7524 30.0308 59.5463 33.1289 57.1103 34.0361C56.105 34.4103 55.19 34.5039 52.5077 34.5063L50.0453 34.5085V23.0879V11.6674L50.4425 11.6166C50.661 11.5888 51.9358 11.5802 53.2756 11.5977C55.0616 11.621 55.8596 11.6752 56.2668 11.8009ZM76.0716 24.6885L75.3558 25.2597L74.9066 24.9479C74.6595 24.7765 74.3525 24.5344 74.2244 24.41C73.9515 24.1451 73.7443 24.201 73.4955 24.6067C73.3247 24.8852 73.3258 24.9083 73.5158 25.0664C73.9222 25.4047 75.2717 26.3623 75.342 26.3623C75.4659 26.3623 77.2779 24.9178 77.2805 24.8169C77.2836 24.6964 76.9112 24.0971 76.8402 24.1087C76.8111 24.1134 76.4652 24.3744 76.0716 24.6885ZM105.657 25.0099C104.876 25.3796 104.22 25.7 104.199 25.722C104.179 25.7439 104.234 25.9457 104.322 26.1703L104.481 26.5788L105.197 26.2896C105.59 26.1307 106.246 25.8729 106.654 25.7169C107.061 25.5609 107.431 25.398 107.474 25.3548C107.558 25.2717 107.248 24.3215 107.141 24.3316C107.106 24.3349 106.438 24.64 105.657 25.0099ZM74.5342 26.8314C73.1889 27.0375 71.9275 27.7548 70.9466 28.8716C69.9952 29.9549 69.5357 31.2747 69.5357 32.9245C69.5357 35.9948 71.3099 38.4437 74.0862 39.2056C74.7872 39.3979 76.703 39.4714 77.1413 39.3228C77.3438 39.2541 77.3698 39.1635 77.3698 38.5233V37.8012L77.0169 37.9587C75.6963 38.5482 73.4815 37.9751 72.2641 36.729C71.4342 35.8795 70.9985 34.9704 70.8095 33.6935C70.4354 31.1666 72.0135 28.7908 74.5222 28.1036C75.4004 27.8632 76.5405 27.9474 76.9671 28.2843L77.2639 28.5188V27.6834V26.848L76.4536 26.7749C75.524 26.6909 75.4341 26.6936 74.5342 26.8314ZM88.539 26.9292C87.1939 27.1342 86.3792 28.1382 86.3744 29.597C86.3708 30.6715 86.7633 31.3818 88.3518 33.1752C90.0345 35.0748 90.2907 35.4863 90.2907 36.29C90.2907 36.989 90.1143 37.4162 89.6557 37.8284C89.0617 38.3624 88.119 38.4942 87.1327 38.1813C86.7787 38.069 86.5839 37.9451 86.5839 37.8325C86.5839 37.7363 86.5275 37.6778 86.4587 37.7022C86.325 37.7499 86.3253 39.139 86.459 39.2797C86.5747 39.4015 87.7401 39.6 88.3396 39.6C90.2353 39.6 91.5926 38.2374 91.6085 36.3188C91.6188 35.0659 91.2749 34.451 89.3744 32.3242C87.6437 30.3873 87.3479 29.6961 87.8834 28.8399C88.3824 28.0418 89.4936 27.8195 90.4362 28.3294L90.9352 28.5993L90.9042 27.8562C90.8756 27.1714 90.8524 27.1073 90.6084 27.0389C90.1222 26.9023 89.0786 26.847 88.539 26.9292ZM79.3127 27.2481C79.4709 27.4349 79.488 28.0111 79.488 33.1741C79.488 38.12 79.4665 38.9124 79.3291 39.0343C79.2417 39.1118 79.1702 39.2198 79.1702 39.2743C79.1702 39.329 80.3141 39.3737 81.7121 39.3737H84.2539V38.6207C84.2539 37.8984 84.246 37.8753 84.0602 38.055C83.8985 38.2114 83.6099 38.2423 82.3127 38.2423H80.7589V35.8097V33.3771H82.2709C83.4681 33.3771 83.8321 33.4138 84.0184 33.5533L84.2539 33.7293V32.7437C84.2539 31.796 84.2465 31.7653 84.0602 31.9453C83.8984 32.1017 83.6097 32.1326 82.3101 32.1326H80.7538L80.7828 30.2374L80.8118 28.3423L82.2145 28.3107C83.3199 28.2858 83.6845 28.3165 83.9355 28.4551L84.2539 28.6309V27.8361V27.0411H81.6956C79.2239 27.0411 79.1433 27.0481 79.3127 27.2481ZM93.4122 27.3749C93.5506 27.6608 93.5738 28.5036 93.5738 33.243C93.5738 38.5744 93.5662 38.7878 93.3656 39.0603L93.1574 39.343L93.6569 39.4006C93.9316 39.4323 94.3881 39.4264 94.6714 39.3876L95.1865 39.3171L94.9626 39.1016C94.7405 38.8876 94.7388 38.844 94.7388 33.2151C94.7388 28.2654 94.7598 27.512 94.9037 27.2926L95.0685 27.0411H94.1596H93.2507L93.4122 27.3749ZM98.2315 27.2628C98.3258 27.451 98.1064 27.8637 96.7723 30.0065C95.9087 31.3936 95.164 32.5963 95.1178 32.6791C95.0643 32.7745 95.1284 32.9405 95.2924 33.1317C95.4349 33.2978 96.2725 34.6821 97.1539 36.208C98.2598 38.1227 98.7393 39.0517 98.7015 39.2062C98.6491 39.4211 98.7026 39.43 100.002 39.4251C101.879 39.4178 101.975 39.4067 101.903 39.2054C101.87 39.1129 102.064 38.2974 102.335 37.3931L102.827 35.7489L105.208 35.7794L107.589 35.8097L108.048 37.3937C108.301 38.2649 108.49 39.0624 108.467 39.166C108.419 39.3865 108.676 39.483 109.319 39.4852C110.035 39.4877 110.113 39.4208 109.888 38.9973C109.559 38.3797 106.472 27.7117 106.52 27.3604L106.564 27.0411H105.214H103.865L103.862 27.522C103.86 27.8238 103.243 30.066 102.204 33.5451C101.294 36.5933 100.536 39.1011 100.521 39.1181C100.45 39.1932 100.055 38.5611 98.3958 35.7208C97.4221 34.0538 96.651 32.6188 96.6823 32.5319C96.7135 32.4451 97.3536 31.3904 98.1046 30.1884C98.8557 28.9863 99.5978 27.7864 99.7536 27.522L100.037 27.0411H99.0787C98.16 27.0411 98.125 27.0503 98.2315 27.2628ZM106.236 31.2626L107.196 34.452L105.242 34.4829C104.167 34.4998 103.269 34.494 103.246 34.47C103.147 34.3638 105.113 27.9051 105.214 28.0082C105.248 28.0439 105.709 29.5084 106.236 31.2626ZM85.8449 41.3116C85.0598 41.6845 84.4018 42.0065 84.3824 42.0271C84.3632 42.0478 84.4191 42.2481 84.5068 42.4722L84.6662 42.8799L85.4927 42.5524C85.9472 42.3724 86.5574 42.1261 86.8486 42.0053C87.1399 41.8844 87.46 41.7542 87.56 41.716C87.7285 41.6516 87.7297 41.6147 87.5768 41.2172C87.4859 40.9811 87.3802 40.7532 87.3418 40.7107C87.3036 40.6683 86.6299 40.9386 85.8449 41.3116ZM35.324 41.2534C34.7124 41.5362 34.0567 41.8375 33.867 41.9229L33.5221 42.0783L33.7051 42.4881C33.8468 42.8054 33.9365 42.8853 34.103 42.8417C34.3134 42.7868 36.9443 41.7535 36.9853 41.7099C37.0364 41.6552 36.5962 40.7319 36.5207 40.7354C36.4742 40.7375 35.9356 40.9706 35.324 41.2534ZM52.9578 43.319C51.3634 43.8092 49.9031 45.0626 49.1701 46.5699C47.2647 50.4878 49.3352 55.1445 53.3908 56.0624C54.3146 56.2714 54.8831 56.2713 55.8174 56.0618C58.1303 55.543 60.0436 53.5556 60.583 51.1117C60.9137 49.6136 60.6875 47.9007 59.9668 46.4459C59.2502 44.9994 57.6134 43.6697 56.0712 43.2813C55.1764 43.056 53.7571 43.0731 52.9578 43.319ZM33.2768 43.7135C33.321 44.0036 32.9539 45.3727 31.7224 49.5121C30.8357 52.4924 30.0195 55.1218 29.9084 55.3551L29.7065 55.7794H30.5461C31.3281 55.7794 31.3819 55.7642 31.3313 55.5573C31.3013 55.4352 31.4822 54.6206 31.7331 53.747L32.1894 52.1588H34.58H36.9706L37.4325 53.7351C37.6864 54.6021 37.8685 55.4168 37.837 55.5454C37.7827 55.7674 37.8227 55.7794 38.6198 55.7794H39.4599L39.3105 55.4683C39.2285 55.2971 38.4194 52.6369 37.5127 49.5565C36.3577 45.6329 35.8822 43.8629 35.9242 43.6448L35.9841 43.3337H34.6016H33.2192L33.2768 43.7135ZM19.8084 43.5123C19.7391 43.5435 19.7127 45.605 19.7317 49.463C19.7512 53.3897 19.7246 55.405 19.6523 55.4823C19.4266 55.7234 19.5681 55.7794 20.4022 55.7794C21.1838 55.7794 21.2527 55.7616 21.1703 55.5814C21.0924 55.4114 20.9268 44.944 20.9999 44.8139C21.0144 44.788 21.0433 44.788 21.064 44.8139C21.2217 45.0114 27.001 55.4243 27.039 55.5797C27.0792 55.7441 27.2068 55.7794 27.7612 55.7794H28.4344L28.4637 49.8677C28.4798 46.6162 28.5338 43.8668 28.5837 43.758C28.6663 43.5777 28.5978 43.56 27.8212 43.56H26.968L27.1215 43.9524C27.2472 44.2737 27.2738 45.1599 27.2687 48.8458C27.2648 51.6955 27.226 53.2846 27.1632 53.1771C26.1146 51.3855 22.1187 44.1809 22.0018 43.8711L21.8415 43.4468L20.8779 43.4558C20.3479 43.4606 19.8666 43.4861 19.8084 43.5123ZM40.6664 43.6983C40.8103 43.9177 40.8313 44.6667 40.8313 49.5743C40.8313 52.9551 40.7901 55.3147 40.728 55.4892L40.6248 55.7794H41.4731C42.279 55.7794 42.316 55.7684 42.2118 55.5606C42.1457 55.4285 42.1022 54.3452 42.1022 52.8307V50.3196L42.5523 50.3938C42.7998 50.4346 43.121 50.5608 43.266 50.6742C43.5642 50.9072 45.3099 53.8562 45.8346 55.0128L46.1797 55.7736L47.0126 55.7766L47.8456 55.7794L47.6535 55.4683C47.5478 55.2971 46.9197 54.2152 46.2575 53.064C45.5955 51.9127 44.89 50.7905 44.69 50.5701C44.4899 50.3497 44.3263 50.1372 44.3263 50.0979C44.3263 50.0588 44.489 49.9693 44.688 49.8991C45.2102 49.7151 45.9644 48.9602 46.2469 48.339C46.7631 47.2039 46.5051 45.5264 45.6712 44.5965C44.9123 43.7501 43.8944 43.4468 41.812 43.4468H40.5016L40.6664 43.6983ZM62.8046 43.7806C62.9429 44.0664 62.9662 44.9056 62.9662 49.6131C62.9662 54.3206 62.9429 55.1598 62.8046 55.4456L62.6431 55.7794H64.3788C66.4526 55.7794 67.0081 55.683 68.0348 55.145C69.0198 54.6288 69.8767 53.7288 70.4033 52.6572C70.9218 51.6019 71.1212 50.741 71.1212 49.5565C71.1212 47.7095 70.6309 46.4281 69.4293 45.1346C68.6076 44.2501 67.8905 43.7913 66.9789 43.5669C66.7233 43.5039 65.6431 43.4511 64.5786 43.4495L62.6431 43.4468L62.8046 43.7806ZM72.9216 43.5373C72.9216 43.5871 72.9813 43.6914 73.054 43.7693C73.1553 43.8773 73.1951 45.2081 73.2235 49.4255C73.2557 54.2104 73.2388 54.996 73.0965 55.36L72.9324 55.7794H73.8333H74.734L74.5693 55.5279C74.4256 55.3089 74.4044 54.5886 74.4044 49.9584V44.6403L74.8615 45.4861C75.1129 45.9514 76.3603 48.1903 77.6335 50.4617C78.9067 52.733 80.0867 54.8586 80.2557 55.1854L80.5629 55.7794H81.1877H81.8124L81.8417 49.8677C81.8578 46.6162 81.9118 43.8668 81.9617 43.758C82.0444 43.5776 81.9749 43.56 81.1809 43.56C80.3824 43.56 80.3215 43.5757 80.4547 43.7469C80.5715 43.8974 80.606 44.8538 80.6309 48.6349L80.662 53.336L78.2085 48.9854C76.8591 46.5925 75.6383 44.3675 75.4955 44.0408L75.2361 43.4468H74.0789C73.4424 43.4468 72.9216 43.4876 72.9216 43.5373ZM84.8557 43.7014C84.9738 44.0489 84.8902 55.3327 84.7676 55.5814C84.6786 55.7622 84.7439 55.7794 85.5184 55.7794H86.3667L86.2635 55.4892C86.119 55.0832 86.1249 43.9548 86.2698 43.6656C86.3737 43.4583 86.3375 43.4468 85.5743 43.4468C84.7843 43.4468 84.7708 43.4516 84.8557 43.7014ZM35.5726 47.4068C36.0694 49.0559 36.4907 50.5043 36.5089 50.6256C36.5407 50.8375 36.466 50.8459 34.5827 50.8435C33.4414 50.8422 32.6293 50.7974 32.6375 50.7363C32.6958 50.3052 34.5447 44.2672 34.5995 44.3293C34.6379 44.3729 35.0758 45.7578 35.5726 47.4068ZM56.3066 44.6822C57.6024 45.2062 58.7789 46.4569 59.255 47.8162C59.8902 49.6299 59.4856 51.7579 58.2339 53.1875C55.8432 55.918 51.7578 55.2565 50.1987 51.8864C49.8511 51.1351 49.7982 50.9085 49.7526 49.9773C49.6669 48.2277 50.1237 46.9786 51.2669 45.8361C52.3373 44.7663 53.4355 44.3276 54.8642 44.3992C55.3834 44.4251 55.9419 44.5347 56.3066 44.6822ZM66.1435 44.6982C67.1115 44.8644 67.8563 45.262 68.5117 45.9621C70.2983 47.8707 70.3808 51.0817 68.6922 52.9891C67.7715 54.029 66.5758 54.5297 65.0049 54.5331L64.2371 54.5348V49.5565V44.5783L64.8461 44.5792C65.1811 44.5796 65.7648 44.6331 66.1435 44.6982ZM44.1776 45.036C45.0237 45.4737 45.447 46.5483 45.1841 47.5913C44.9274 48.6094 44.2196 49.1111 42.923 49.1938L42.1022 49.2462V46.9524V44.6587L42.8997 44.7232C43.3978 44.7634 43.8774 44.8809 44.1776 45.036ZM29.7839 59.9374C29.8257 60.2718 29.4876 61.5329 28.1871 65.8941C27.2798 68.9369 26.464 71.5463 26.3742 71.6927L26.211 71.9588H27.0574C27.7896 71.9588 27.8949 71.9344 27.8387 71.7779C27.803 71.6783 27.9833 70.864 28.2393 69.9684L28.7047 68.3399L31.1141 68.339C32.4393 68.3386 33.5236 68.3599 33.5236 68.3863C33.5236 68.4128 33.7142 69.0978 33.9472 69.9084C34.1802 70.7192 34.3708 71.5121 34.3708 71.6706C34.3708 71.9559 34.3796 71.9588 35.2345 71.9588C36.0775 71.9588 36.0939 71.9536 35.9154 71.743C35.6732 71.4571 32.4645 60.6037 32.4645 60.0704C32.4645 59.6792 32.442 59.6519 32.0673 59.5857C31.8489 59.5472 31.2338 59.515 30.7006 59.5143L29.731 59.5131L29.7839 59.9374ZM48.7187 59.8469C48.8573 60.133 48.8803 60.988 48.8803 65.8354C48.8803 70.8957 48.8623 71.5093 48.7089 71.6732C48.6145 71.7741 48.5622 71.8829 48.5924 71.9151C48.6227 71.9475 49.0335 71.9833 49.5053 71.9947C50.2593 72.0129 50.3633 71.9914 50.3632 71.8174C50.3631 71.7085 50.3154 71.6194 50.2572 71.6194C50.1879 71.6194 50.1512 69.5851 50.1512 65.7426C50.1512 61.9468 50.1887 59.8411 50.2572 59.796C50.5437 59.6068 50.2797 59.5131 49.4601 59.5131H48.5572L48.7187 59.8469ZM59.0476 60.0112C59.0476 60.3352 58.6019 62.0046 57.7716 64.7914C57.0697 67.1466 56.3492 69.5828 56.1705 70.2051C55.9916 70.8274 55.8108 71.3769 55.7686 71.4261C55.6571 71.5565 55.6034 71.4728 53.7399 68.2659C52.8047 66.6566 52.0189 65.3053 51.9938 65.2629C51.9687 65.2205 52.7116 63.9597 53.6445 62.4612C54.5775 60.9625 55.3408 59.7116 55.3408 59.6813C55.3408 59.651 54.9401 59.6262 54.4505 59.6262C53.6483 59.6262 53.565 59.6463 53.6096 59.828C53.6409 59.9564 53.0643 60.9955 52.024 62.6848C50.8041 64.6662 50.4218 65.3687 50.5178 65.4531C50.5885 65.5153 51.4218 66.9044 52.3696 68.5397C53.5576 70.5898 54.0759 71.5825 54.0383 71.736C53.9859 71.9503 54.0443 71.9588 55.5748 71.9588C57.1213 71.9588 57.1643 71.9524 57.1098 71.7292C57.0788 71.603 57.2563 70.8011 57.5042 69.9472L57.9547 68.3948L60.3483 68.3644L62.742 68.3341L63.2254 69.9658C63.4912 70.8634 63.6795 71.6789 63.6438 71.7782C63.5878 71.9344 63.6946 71.9588 64.434 71.9588H65.2891L65.0919 71.5911C64.9833 71.3888 64.1695 68.7604 63.2833 65.75C62.0516 61.5662 61.6856 60.1866 61.7299 59.8949L61.7879 59.5131H60.4177H59.0476V60.0112ZM19.5742 59.9393C19.7502 60.147 19.7627 60.5418 19.7575 65.7305C19.7526 70.464 19.7278 71.3483 19.592 71.6288L19.4323 71.9588H21.2692C23.3527 71.9588 23.9169 71.8396 24.6467 71.2449C25.9181 70.2089 26.2485 68.1423 25.3674 66.7366C25.0838 66.284 24.9203 66.1386 24.0618 65.5754L23.7611 65.3781L24.1959 65.1483C24.4349 65.0219 24.7232 64.7927 24.8365 64.6389C24.9497 64.4852 25.0958 64.3945 25.1611 64.4376C25.2353 64.4866 25.2697 64.437 25.2526 64.3057C25.2377 64.1901 25.2811 63.8917 25.3493 63.6428C25.6341 62.6033 25.4385 61.6699 24.7693 60.8747C23.9987 59.9591 23.5387 59.8117 21.2914 59.7601C19.4004 59.7168 19.3869 59.7182 19.5742 59.9393ZM37.138 59.9265C37.3439 60.1916 37.3515 71.3167 37.1461 71.7042L37.0112 71.9588H37.9211H38.831L38.6662 71.7073C38.5225 71.4881 38.5021 70.7803 38.5075 66.1916C38.5116 62.7288 38.549 60.9854 38.617 61.0971C38.7997 61.3974 44.2667 71.2409 44.4537 71.6063C44.6248 71.9405 44.6672 71.9588 45.2718 71.9588H45.9094L45.9386 66.0471C45.9547 62.7957 46.0087 60.0462 46.0586 59.9374C46.1412 59.7572 46.0725 59.7394 45.2908 59.7394C44.8185 59.7394 44.4337 59.7775 44.4356 59.8242C44.4374 59.871 44.5089 60.008 44.5944 60.1287C44.7254 60.3138 44.7489 61.0703 44.7437 64.9373C44.7397 67.8749 44.7013 69.4651 44.637 69.3565C43.6525 67.6921 39.5126 60.1795 39.4777 59.994C39.4314 59.7476 39.3901 59.7394 38.2112 59.7394C37.0897 59.7394 37.0042 59.7543 37.138 59.9265ZM32.1405 63.7391C32.6759 65.5343 33.0938 67.0248 33.0692 67.051C33.0447 67.0773 32.1425 67.085 31.0645 67.068L29.1043 67.0371L29.8616 64.4914C30.767 61.4472 31.0995 60.3915 31.1382 60.4393C31.1541 60.4589 31.605 61.9438 32.1405 63.7391ZM62.2778 66.7541L62.3476 67.0937H60.3798C59.1179 67.0937 58.4121 67.0525 58.4121 66.9787C58.4121 66.9155 58.7177 65.8336 59.091 64.5744C59.4644 63.3153 59.8746 61.9032 60.0027 61.4365C60.1306 60.9698 60.2644 60.537 60.2998 60.4748C60.3579 60.373 62.1084 65.9305 62.2778 66.7541ZM22.8899 61.0375C24.1721 61.4442 24.6227 62.9396 23.7741 63.9721C23.3354 64.5059 22.8603 64.7133 21.8939 64.7929L21.0586 64.8617L20.9895 64.4926C20.8987 64.0079 20.9 61.0435 20.9911 60.9463C21.1198 60.8087 22.3562 60.8681 22.8899 61.0375ZM22.7718 66.0885C23.8656 66.4129 24.5213 67.3111 24.5213 68.4848C24.5213 70.0617 23.8591 70.6573 21.953 70.7942L21.0263 70.8609V68.4116V65.9622L21.6883 65.9629C22.0524 65.9633 22.5399 66.0197 22.7718 66.0885Z" fill="url(#paint0_linear_5_2997)" fill-opacity="0.5"/>
<path fill-rule="evenodd" clip-rule="evenodd" d="M9.29674 1.21628C8.76931 1.8853 8.35606 2.46414 8.3783 2.50272C8.40054 2.5413 9.70808 3.55959 11.284 4.76546L14.1493 6.95806L12.8674 7.15085C9.03016 7.72788 6.34178 9.14929 3.97175 11.8542C2.0656 14.0298 0.843417 16.6477 0.247892 19.8308C-0.0608318 21.4808 -0.0849792 24.3159 0.196738 25.8271C0.808255 29.1069 2.22616 31.9678 4.39306 34.2941C6.93984 37.0285 9.79144 38.355 14.0813 38.8008C15.5514 38.9537 25.6863 38.9638 25.6863 38.8124C25.6863 38.7012 25.6181 38.629 25.1568 38.2522L24.892 38.036L24.8624 25.6369C24.8462 18.8173 24.87 13.2396 24.9153 13.242C24.9607 13.2444 25.2124 13.6486 25.4745 14.1402C25.7366 14.6319 29.0481 20.4342 32.8332 27.0342L39.7152 39.0343H42.1002H44.4851V23.0811V7.128H41.6521C40.0883 7.128 38.819 7.17269 38.819 7.22767C38.819 7.28255 38.9838 7.46177 39.1852 7.62582C39.4127 7.81127 39.5931 8.08416 39.6613 8.34643C39.8086 8.91316 39.8153 29.4171 39.6682 29.4171C39.6109 29.4171 39.4061 29.0734 39.2128 28.6534C39.0196 28.2334 37.1221 24.8858 34.9963 21.2143C29.9317 12.4673 29.1813 11.1482 29.1813 10.9923C29.1813 10.9204 29.1415 10.8617 29.0928 10.8617C29.0442 10.8617 28.5079 9.99616 27.9013 8.93839L26.7984 7.01508L23.0651 7.01497C19.955 7.01485 19.3318 7.04099 19.3318 7.17156C19.3318 7.25777 19.45 7.41097 19.5943 7.512C20.1802 7.92214 20.1517 7.26445 20.1935 21.3462C20.2147 28.5128 20.2082 34.3938 20.1791 34.4151C20.1499 34.4363 18.744 34.422 17.0548 34.3832C12.9195 34.2884 11.7952 34.0458 9.8589 32.8304C8.88115 32.2166 7.29326 30.6103 6.65262 29.5868C4.87738 26.7508 4.26787 23.6767 4.87219 20.6078C5.77442 16.0255 9.2262 12.4697 13.5068 11.713C15.8597 11.2971 17.2409 11.3882 17.8959 12.0025C18.0894 12.1841 18.301 12.3326 18.3661 12.3326C18.45 12.3326 18.4845 11.5588 18.4845 9.67699V7.02141L17.0812 6.98985L15.6779 6.95828L18.5904 4.87792C20.1923 3.73371 21.5226 2.77924 21.5467 2.75695C21.5707 2.73455 21.2162 2.11781 20.7589 1.38645C20.3016 0.654984 19.9196 0.0428812 19.9101 0.0262492C19.9005 0.00950403 18.8053 0.786003 17.4762 1.75168C16.147 2.71735 15.0168 3.50743 14.9644 3.50743C14.9121 3.50743 13.8519 2.71826 12.6083 1.75371C11.3647 0.789171 10.3266 0 10.3014 0C10.2762 0 9.82416 0.547272 9.29674 1.21628ZM45.3854 23.0149V39.0343H50.4453C53.3487 39.0343 55.8877 38.9835 56.4026 38.9151C60.2725 38.4016 62.8407 36.5088 64.1137 33.2323C64.7427 31.6135 64.9478 29.4285 64.605 27.9983C64.3818 27.0667 63.7282 25.6496 63.136 24.8133C62.1932 23.4819 61.0455 22.6556 59.3653 22.0984C59.2696 22.0666 59.4168 21.9469 59.736 21.797C61.7881 20.8331 62.9988 19.3747 63.5619 17.1879C63.6932 16.6785 63.7467 16.0746 63.7419 15.1611C63.7306 13.0499 63.1859 11.5972 61.8251 10.0504C60.616 8.67568 59.0753 7.76827 57.1412 7.29183C56.4596 7.12392 55.5692 7.08907 50.8661 7.04585L45.3854 6.99562V23.0149ZM56.2668 11.8009C57.5424 12.1945 58.3866 12.8772 58.8556 13.8945C59.0621 14.3423 59.1005 14.6033 59.1005 15.5571C59.1005 16.5199 59.0629 16.77 58.8487 17.2352C58.499 17.9939 57.7329 18.7727 56.9211 19.1948C56.2967 19.5195 55.9536 19.6426 55.1025 19.8474L54.8112 19.9174V22.176C54.8112 24.4282 54.8119 24.4347 55.0495 24.4835C55.1805 24.5106 55.5738 24.5926 55.9233 24.6659C57.441 24.9841 59.1112 26.2542 59.6538 27.5027C60.7524 30.0308 59.5463 33.1289 57.1103 34.0361C56.105 34.4103 55.19 34.5039 52.5077 34.5063L50.0453 34.5085V23.0879V11.6674L50.4425 11.6166C50.661 11.5888 51.9358 11.5802 53.2756 11.5977C55.0616 11.621 55.8596 11.6752 56.2668 11.8009ZM76.0716 24.6885L75.3558 25.2597L74.9066 24.9479C74.6595 24.7765 74.3525 24.5344 74.2244 24.41C73.9515 24.1451 73.7443 24.201 73.4955 24.6067C73.3247 24.8852 73.3258 24.9083 73.5158 25.0664C73.9222 25.4047 75.2717 26.3623 75.342 26.3623C75.4659 26.3623 77.2779 24.9178 77.2805 24.8169C77.2836 24.6964 76.9112 24.0971 76.8402 24.1087C76.8111 24.1134 76.4652 24.3744 76.0716 24.6885ZM105.657 25.0099C104.876 25.3796 104.22 25.7 104.199 25.722C104.179 25.7439 104.234 25.9457 104.322 26.1703L104.481 26.5788L105.197 26.2896C105.59 26.1307 106.246 25.8729 106.654 25.7169C107.061 25.5609 107.431 25.398 107.474 25.3548C107.558 25.2717 107.248 24.3215 107.141 24.3316C107.106 24.3349 106.438 24.64 105.657 25.0099ZM74.5342 26.8314C73.1889 27.0375 71.9275 27.7548 70.9466 28.8716C69.9952 29.9549 69.5357 31.2747 69.5357 32.9245C69.5357 35.9948 71.3099 38.4437 74.0862 39.2056C74.7872 39.3979 76.703 39.4714 77.1413 39.3228C77.3438 39.2541 77.3698 39.1635 77.3698 38.5233V37.8012L77.0169 37.9587C75.6963 38.5482 73.4815 37.9751 72.2641 36.729C71.4342 35.8795 70.9985 34.9704 70.8095 33.6935C70.4354 31.1666 72.0135 28.7908 74.5222 28.1036C75.4004 27.8632 76.5405 27.9474 76.9671 28.2843L77.2639 28.5188V27.6834V26.848L76.4536 26.7749C75.524 26.6909 75.4341 26.6936 74.5342 26.8314ZM88.539 26.9292C87.1939 27.1342 86.3792 28.1382 86.3744 29.597C86.3708 30.6715 86.7633 31.3818 88.3518 33.1752C90.0345 35.0748 90.2907 35.4863 90.2907 36.29C90.2907 36.989 90.1143 37.4162 89.6557 37.8284C89.0617 38.3624 88.119 38.4942 87.1327 38.1813C86.7787 38.069 86.5839 37.9451 86.5839 37.8325C86.5839 37.7363 86.5275 37.6778 86.4587 37.7022C86.325 37.7499 86.3253 39.139 86.459 39.2797C86.5747 39.4015 87.7401 39.6 88.3396 39.6C90.2353 39.6 91.5926 38.2374 91.6085 36.3188C91.6188 35.0659 91.2749 34.451 89.3744 32.3242C87.6437 30.3873 87.3479 29.6961 87.8834 28.8399C88.3824 28.0418 89.4936 27.8195 90.4362 28.3294L90.9352 28.5993L90.9042 27.8562C90.8756 27.1714 90.8524 27.1073 90.6084 27.0389C90.1222 26.9023 89.0786 26.847 88.539 26.9292ZM79.3127 27.2481C79.4709 27.4349 79.488 28.0111 79.488 33.1741C79.488 38.12 79.4665 38.9124 79.3291 39.0343C79.2417 39.1118 79.1702 39.2198 79.1702 39.2743C79.1702 39.329 80.3141 39.3737 81.7121 39.3737H84.2539V38.6207C84.2539 37.8984 84.246 37.8753 84.0602 38.055C83.8985 38.2114 83.6099 38.2423 82.3127 38.2423H80.7589V35.8097V33.3771H82.2709C83.4681 33.3771 83.8321 33.4138 84.0184 33.5533L84.2539 33.7293V32.7437C84.2539 31.796 84.2465 31.7653 84.0602 31.9453C83.8984 32.1017 83.6097 32.1326 82.3101 32.1326H80.7538L80.7828 30.2374L80.8118 28.3423L82.2145 28.3107C83.3199 28.2858 83.6845 28.3165 83.9355 28.4551L84.2539 28.6309V27.8361V27.0411H81.6956C79.2239 27.0411 79.1433 27.0481 79.3127 27.2481ZM93.4122 27.3749C93.5506 27.6608 93.5738 28.5036 93.5738 33.243C93.5738 38.5744 93.5662 38.7878 93.3656 39.0603L93.1574 39.343L93.6569 39.4006C93.9316 39.4323 94.3881 39.4264 94.6714 39.3876L95.1865 39.3171L94.9626 39.1016C94.7405 38.8876 94.7388 38.844 94.7388 33.2151C94.7388 28.2654 94.7598 27.512 94.9037 27.2926L95.0685 27.0411H94.1596H93.2507L93.4122 27.3749ZM98.2315 27.2628C98.3258 27.451 98.1064 27.8637 96.7723 30.0065C95.9087 31.3936 95.164 32.5963 95.1178 32.6791C95.0643 32.7745 95.1284 32.9405 95.2924 33.1317C95.4349 33.2978 96.2725 34.6821 97.1539 36.208C98.2598 38.1227 98.7393 39.0517 98.7015 39.2062C98.6491 39.4211 98.7026 39.43 100.002 39.4251C101.879 39.4178 101.975 39.4067 101.903 39.2054C101.87 39.1129 102.064 38.2974 102.335 37.3931L102.827 35.7489L105.208 35.7794L107.589 35.8097L108.048 37.3937C108.301 38.2649 108.49 39.0624 108.467 39.166C108.419 39.3865 108.676 39.483 109.319 39.4852C110.035 39.4877 110.113 39.4208 109.888 38.9973C109.559 38.3797 106.472 27.7117 106.52 27.3604L106.564 27.0411H105.214H103.865L103.862 27.522C103.86 27.8238 103.243 30.066 102.204 33.5451C101.294 36.5933 100.536 39.1011 100.521 39.1181C100.45 39.1932 100.055 38.5611 98.3958 35.7208C97.4221 34.0538 96.651 32.6188 96.6823 32.5319C96.7135 32.4451 97.3536 31.3904 98.1046 30.1884C98.8557 28.9863 99.5978 27.7864 99.7536 27.522L100.037 27.0411H99.0787C98.16 27.0411 98.125 27.0503 98.2315 27.2628ZM106.236 31.2626L107.196 34.452L105.242 34.4829C104.167 34.4998 103.269 34.494 103.246 34.47C103.147 34.3638 105.113 27.9051 105.214 28.0082C105.248 28.0439 105.709 29.5084 106.236 31.2626ZM85.8449 41.3116C85.0598 41.6845 84.4018 42.0065 84.3824 42.0271C84.3632 42.0478 84.4191 42.2481 84.5068 42.4722L84.6662 42.8799L85.4927 42.5524C85.9472 42.3724 86.5574 42.1261 86.8486 42.0053C87.1399 41.8844 87.46 41.7542 87.56 41.716C87.7285 41.6516 87.7297 41.6147 87.5768 41.2172C87.4859 40.9811 87.3802 40.7532 87.3418 40.7107C87.3036 40.6683 86.6299 40.9386 85.8449 41.3116ZM35.324 41.2534C34.7124 41.5362 34.0567 41.8375 33.867 41.9229L33.5221 42.0783L33.7051 42.4881C33.8468 42.8054 33.9365 42.8853 34.103 42.8417C34.3134 42.7868 36.9443 41.7535 36.9853 41.7099C37.0364 41.6552 36.5962 40.7319 36.5207 40.7354C36.4742 40.7375 35.9356 40.9706 35.324 41.2534ZM52.9578 43.319C51.3634 43.8092 49.9031 45.0626 49.1701 46.5699C47.2647 50.4878 49.3352 55.1445 53.3908 56.0624C54.3146 56.2714 54.8831 56.2713 55.8174 56.0618C58.1303 55.543 60.0436 53.5556 60.583 51.1117C60.9137 49.6136 60.6875 47.9007 59.9668 46.4459C59.2502 44.9994 57.6134 43.6697 56.0712 43.2813C55.1764 43.056 53.7571 43.0731 52.9578 43.319ZM33.2768 43.7135C33.321 44.0036 32.9539 45.3727 31.7224 49.5121C30.8357 52.4924 30.0195 55.1218 29.9084 55.3551L29.7065 55.7794H30.5461C31.3281 55.7794 31.3819 55.7642 31.3313 55.5573C31.3013 55.4352 31.4822 54.6206 31.7331 53.747L32.1894 52.1588H34.58H36.9706L37.4325 53.7351C37.6864 54.6021 37.8685 55.4168 37.837 55.5454C37.7827 55.7674 37.8227 55.7794 38.6198 55.7794H39.4599L39.3105 55.4683C39.2285 55.2971 38.4194 52.6369 37.5127 49.5565C36.3577 45.6329 35.8822 43.8629 35.9242 43.6448L35.9841 43.3337H34.6016H33.2192L33.2768 43.7135ZM19.8084 43.5123C19.7391 43.5435 19.7127 45.605 19.7317 49.463C19.7512 53.3897 19.7246 55.405 19.6523 55.4823C19.4266 55.7234 19.5681 55.7794 20.4022 55.7794C21.1838 55.7794 21.2527 55.7616 21.1703 55.5814C21.0924 55.4114 20.9268 44.944 20.9999 44.8139C21.0144 44.788 21.0433 44.788 21.064 44.8139C21.2217 45.0114 27.001 55.4243 27.039 55.5797C27.0792 55.7441 27.2068 55.7794 27.7612 55.7794H28.4344L28.4637 49.8677C28.4798 46.6162 28.5338 43.8668 28.5837 43.758C28.6663 43.5777 28.5978 43.56 27.8212 43.56H26.968L27.1215 43.9524C27.2472 44.2737 27.2738 45.1599 27.2687 48.8458C27.2648 51.6955 27.226 53.2846 27.1632 53.1771C26.1146 51.3855 22.1187 44.1809 22.0018 43.8711L21.8415 43.4468L20.8779 43.4558C20.3479 43.4606 19.8666 43.4861 19.8084 43.5123ZM40.6664 43.6983C40.8103 43.9177 40.8313 44.6667 40.8313 49.5743C40.8313 52.9551 40.7901 55.3147 40.728 55.4892L40.6248 55.7794H41.4731C42.279 55.7794 42.316 55.7684 42.2118 55.5606C42.1457 55.4285 42.1022 54.3452 42.1022 52.8307V50.3196L42.5523 50.3938C42.7998 50.4346 43.121 50.5608 43.266 50.6742C43.5642 50.9072 45.3099 53.8562 45.8346 55.0128L46.1797 55.7736L47.0126 55.7766L47.8456 55.7794L47.6535 55.4683C47.5478 55.2971 46.9197 54.2152 46.2575 53.064C45.5955 51.9127 44.89 50.7905 44.69 50.5701C44.4899 50.3497 44.3263 50.1372 44.3263 50.0979C44.3263 50.0588 44.489 49.9693 44.688 49.8991C45.2102 49.7151 45.9644 48.9602 46.2469 48.339C46.7631 47.2039 46.5051 45.5264 45.6712 44.5965C44.9123 43.7501 43.8944 43.4468 41.812 43.4468H40.5016L40.6664 43.6983ZM62.8046 43.7806C62.9429 44.0664 62.9662 44.9056 62.9662 49.6131C62.9662 54.3206 62.9429 55.1598 62.8046 55.4456L62.6431 55.7794H64.3788C66.4526 55.7794 67.0081 55.683 68.0348 55.145C69.0198 54.6288 69.8767 53.7288 70.4033 52.6572C70.9218 51.6019 71.1212 50.741 71.1212 49.5565C71.1212 47.7095 70.6309 46.4281 69.4293 45.1346C68.6076 44.2501 67.8905 43.7913 66.9789 43.5669C66.7233 43.5039 65.6431 43.4511 64.5786 43.4495L62.6431 43.4468L62.8046 43.7806ZM72.9216 43.5373C72.9216 43.5871 72.9813 43.6914 73.054 43.7693C73.1553 43.8773 73.1951 45.2081 73.2235 49.4255C73.2557 54.2104 73.2388 54.996 73.0965 55.36L72.9324 55.7794H73.8333H74.734L74.5693 55.5279C74.4256 55.3089 74.4044 54.5886 74.4044 49.9584V44.6403L74.8615 45.4861C75.1129 45.9514 76.3603 48.1903 77.6335 50.4617C78.9067 52.733 80.0867 54.8586 80.2557 55.1854L80.5629 55.7794H81.1877H81.8124L81.8417 49.8677C81.8578 46.6162 81.9118 43.8668 81.9617 43.758C82.0444 43.5776 81.9749 43.56 81.1809 43.56C80.3824 43.56 80.3215 43.5757 80.4547 43.7469C80.5715 43.8974 80.606 44.8538 80.6309 48.6349L80.662 53.336L78.2085 48.9854C76.8591 46.5925 75.6383 44.3675 75.4955 44.0408L75.2361 43.4468H74.0789C73.4424 43.4468 72.9216 43.4876 72.9216 43.5373ZM84.8557 43.7014C84.9738 44.0489 84.8902 55.3327 84.7676 55.5814C84.6786 55.7622 84.7439 55.7794 85.5184 55.7794H86.3667L86.2635 55.4892C86.119 55.0832 86.1249 43.9548 86.2698 43.6656C86.3737 43.4583 86.3375 43.4468 85.5743 43.4468C84.7843 43.4468 84.7708 43.4516 84.8557 43.7014ZM35.5726 47.4068C36.0694 49.0559 36.4907 50.5043 36.5089 50.6256C36.5407 50.8375 36.466 50.8459 34.5827 50.8435C33.4414 50.8422 32.6293 50.7974 32.6375 50.7363C32.6958 50.3052 34.5447 44.2672 34.5995 44.3293C34.6379 44.3729 35.0758 45.7578 35.5726 47.4068ZM56.3066 44.6822C57.6024 45.2062 58.7789 46.4569 59.255 47.8162C59.8902 49.6299 59.4856 51.7579 58.2339 53.1875C55.8432 55.918 51.7578 55.2565 50.1987 51.8864C49.8511 51.1351 49.7982 50.9085 49.7526 49.9773C49.6669 48.2277 50.1237 46.9786 51.2669 45.8361C52.3373 44.7663 53.4355 44.3276 54.8642 44.3992C55.3834 44.4251 55.9419 44.5347 56.3066 44.6822ZM66.1435 44.6982C67.1115 44.8644 67.8563 45.262 68.5117 45.9621C70.2983 47.8707 70.3808 51.0817 68.6922 52.9891C67.7715 54.029 66.5758 54.5297 65.0049 54.5331L64.2371 54.5348V49.5565V44.5783L64.8461 44.5792C65.1811 44.5796 65.7648 44.6331 66.1435 44.6982ZM44.1776 45.036C45.0237 45.4737 45.447 46.5483 45.1841 47.5913C44.9274 48.6094 44.2196 49.1111 42.923 49.1938L42.1022 49.2462V46.9524V44.6587L42.8997 44.7232C43.3978 44.7634 43.8774 44.8809 44.1776 45.036ZM29.7839 59.9374C29.8257 60.2718 29.4876 61.5329 28.1871 65.8941C27.2798 68.9369 26.464 71.5463 26.3742 71.6927L26.211 71.9588H27.0574C27.7896 71.9588 27.8949 71.9344 27.8387 71.7779C27.803 71.6783 27.9833 70.864 28.2393 69.9684L28.7047 68.3399L31.1141 68.339C32.4393 68.3386 33.5236 68.3599 33.5236 68.3863C33.5236 68.4128 33.7142 69.0978 33.9472 69.9084C34.1802 70.7192 34.3708 71.5121 34.3708 71.6706C34.3708 71.9559 34.3796 71.9588 35.2345 71.9588C36.0775 71.9588 36.0939 71.9536 35.9154 71.743C35.6732 71.4571 32.4645 60.6037 32.4645 60.0704C32.4645 59.6792 32.442 59.6519 32.0673 59.5857C31.8489 59.5472 31.2338 59.515 30.7006 59.5143L29.731 59.5131L29.7839 59.9374ZM48.7187 59.8469C48.8573 60.133 48.8803 60.988 48.8803 65.8354C48.8803 70.8957 48.8623 71.5093 48.7089 71.6732C48.6145 71.7741 48.5622 71.8829 48.5924 71.9151C48.6227 71.9475 49.0335 71.9833 49.5053 71.9947C50.2593 72.0129 50.3633 71.9914 50.3632 71.8174C50.3631 71.7085 50.3154 71.6194 50.2572 71.6194C50.1879 71.6194 50.1512 69.5851 50.1512 65.7426C50.1512 61.9468 50.1887 59.8411 50.2572 59.796C50.5437 59.6068 50.2797 59.5131 49.4601 59.5131H48.5572L48.7187 59.8469ZM59.0476 60.0112C59.0476 60.3352 58.6019 62.0046 57.7716 64.7914C57.0697 67.1466 56.3492 69.5828 56.1705 70.2051C55.9916 70.8274 55.8108 71.3769 55.7686 71.4261C55.6571 71.5565 55.6034 71.4728 53.7399 68.2659C52.8047 66.6566 52.0189 65.3053 51.9938 65.2629C51.9687 65.2205 52.7116 63.9597 53.6445 62.4612C54.5775 60.9625 55.3408 59.7116 55.3408 59.6813C55.3408 59.651 54.9401 59.6262 54.4505 59.6262C53.6483 59.6262 53.565 59.6463 53.6096 59.828C53.6409 59.9564 53.0643 60.9955 52.024 62.6848C50.8041 64.6662 50.4218 65.3687 50.5178 65.4531C50.5885 65.5153 51.4218 66.9044 52.3696 68.5397C53.5576 70.5898 54.0759 71.5825 54.0383 71.736C53.9859 71.9503 54.0443 71.9588 55.5748 71.9588C57.1213 71.9588 57.1643 71.9524 57.1098 71.7292C57.0788 71.603 57.2563 70.8011 57.5042 69.9472L57.9547 68.3948L60.3483 68.3644L62.742 68.3341L63.2254 69.9658C63.4912 70.8634 63.6795 71.6789 63.6438 71.7782C63.5878 71.9344 63.6946 71.9588 64.434 71.9588H65.2891L65.0919 71.5911C64.9833 71.3888 64.1695 68.7604 63.2833 65.75C62.0516 61.5662 61.6856 60.1866 61.7299 59.8949L61.7879 59.5131H60.4177H59.0476V60.0112ZM19.5742 59.9393C19.7502 60.147 19.7627 60.5418 19.7575 65.7305C19.7526 70.464 19.7278 71.3483 19.592 71.6288L19.4323 71.9588H21.2692C23.3527 71.9588 23.9169 71.8396 24.6467 71.2449C25.9181 70.2089 26.2485 68.1423 25.3674 66.7366C25.0838 66.284 24.9203 66.1386 24.0618 65.5754L23.7611 65.3781L24.1959 65.1483C24.4349 65.0219 24.7232 64.7927 24.8365 64.6389C24.9497 64.4852 25.0958 64.3945 25.1611 64.4376C25.2353 64.4866 25.2697 64.437 25.2526 64.3057C25.2377 64.1901 25.2811 63.8917 25.3493 63.6428C25.6341 62.6033 25.4385 61.6699 24.7693 60.8747C23.9987 59.9591 23.5387 59.8117 21.2914 59.7601C19.4004 59.7168 19.3869 59.7182 19.5742 59.9393ZM37.138 59.9265C37.3439 60.1916 37.3515 71.3167 37.1461 71.7042L37.0112 71.9588H37.9211H38.831L38.6662 71.7073C38.5225 71.4881 38.5021 70.7803 38.5075 66.1916C38.5116 62.7288 38.549 60.9854 38.617 61.0971C38.7997 61.3974 44.2667 71.2409 44.4537 71.6063C44.6248 71.9405 44.6672 71.9588 45.2718 71.9588H45.9094L45.9386 66.0471C45.9547 62.7957 46.0087 60.0462 46.0586 59.9374C46.1412 59.7572 46.0725 59.7394 45.2908 59.7394C44.8185 59.7394 44.4337 59.7775 44.4356 59.8242C44.4374 59.871 44.5089 60.008 44.5944 60.1287C44.7254 60.3138 44.7489 61.0703 44.7437 64.9373C44.7397 67.8749 44.7013 69.4651 44.637 69.3565C43.6525 67.6921 39.5126 60.1795 39.4777 59.994C39.4314 59.7476 39.3901 59.7394 38.2112 59.7394C37.0897 59.7394 37.0042 59.7543 37.138 59.9265ZM32.1405 63.7391C32.6759 65.5343 33.0938 67.0248 33.0692 67.051C33.0447 67.0773 32.1425 67.085 31.0645 67.068L29.1043 67.0371L29.8616 64.4914C30.767 61.4472 31.0995 60.3915 31.1382 60.4393C31.1541 60.4589 31.605 61.9438 32.1405 63.7391ZM62.2778 66.7541L62.3476 67.0937H60.3798C59.1179 67.0937 58.4121 67.0525 58.4121 66.9787C58.4121 66.9155 58.7177 65.8336 59.091 64.5744C59.4644 63.3153 59.8746 61.9032 60.0027 61.4365C60.1306 60.9698 60.2644 60.537 60.2998 60.4748C60.3579 60.373 62.1084 65.9305 62.2778 66.7541ZM22.8899 61.0375C24.1721 61.4442 24.6227 62.9396 23.7741 63.9721C23.3354 64.5059 22.8603 64.7133 21.8939 64.7929L21.0586 64.8617L20.9895 64.4926C20.8987 64.0079 20.9 61.0435 20.9911 60.9463C21.1198 60.8087 22.3562 60.8681 22.8899 61.0375ZM22.7718 66.0885C23.8656 66.4129 24.5213 67.3111 24.5213 68.4848C24.5213 70.0617 23.8591 70.6573 21.953 70.7942L21.0263 70.8609V68.4116V65.9622L21.6883 65.9629C22.0524 65.9633 22.5399 66.0197 22.7718 66.0885Z" fill="url(#paint1_linear_5_2997)" fill-opacity="0.3"/>
<path fill-rule="evenodd" clip-rule="evenodd" d="M9.29674 1.21628C8.76931 1.8853 8.35606 2.46414 8.3783 2.50272C8.40054 2.5413 9.70808 3.55959 11.284 4.76546L14.1493 6.95806L12.8674 7.15085C9.03016 7.72788 6.34178 9.14929 3.97175 11.8542C2.0656 14.0298 0.843417 16.6477 0.247892 19.8308C-0.0608318 21.4808 -0.0849792 24.3159 0.196738 25.8271C0.808255 29.1069 2.22616 31.9678 4.39306 34.2941C6.93984 37.0285 9.79144 38.355 14.0813 38.8008C15.5514 38.9537 25.6863 38.9638 25.6863 38.8124C25.6863 38.7012 25.6181 38.629 25.1568 38.2522L24.892 38.036L24.8624 25.6369C24.8462 18.8173 24.87 13.2396 24.9153 13.242C24.9607 13.2444 25.2124 13.6486 25.4745 14.1402C25.7366 14.6319 29.0481 20.4342 32.8332 27.0342L39.7152 39.0343H42.1002H44.4851V23.0811V7.128H41.6521C40.0883 7.128 38.819 7.17269 38.819 7.22767C38.819 7.28255 38.9838 7.46177 39.1852 7.62582C39.4127 7.81127 39.5931 8.08416 39.6613 8.34643C39.8086 8.91316 39.8153 29.4171 39.6682 29.4171C39.6109 29.4171 39.4061 29.0734 39.2128 28.6534C39.0196 28.2334 37.1221 24.8858 34.9963 21.2143C29.9317 12.4673 29.1813 11.1482 29.1813 10.9923C29.1813 10.9204 29.1415 10.8617 29.0928 10.8617C29.0442 10.8617 28.5079 9.99616 27.9013 8.93839L26.7984 7.01508L23.0651 7.01497C19.955 7.01485 19.3318 7.04099 19.3318 7.17156C19.3318 7.25777 19.45 7.41097 19.5943 7.512C20.1802 7.92214 20.1517 7.26445 20.1935 21.3462C20.2147 28.5128 20.2082 34.3938 20.1791 34.4151C20.1499 34.4363 18.744 34.422 17.0548 34.3832C12.9195 34.2884 11.7952 34.0458 9.8589 32.8304C8.88115 32.2166 7.29326 30.6103 6.65262 29.5868C4.87738 26.7508 4.26787 23.6767 4.87219 20.6078C5.77442 16.0255 9.2262 12.4697 13.5068 11.713C15.8597 11.2971 17.2409 11.3882 17.8959 12.0025C18.0894 12.1841 18.301 12.3326 18.3661 12.3326C18.45 12.3326 18.4845 11.5588 18.4845 9.67699V7.02141L17.0812 6.98985L15.6779 6.95828L18.5904 4.87792C20.1923 3.73371 21.5226 2.77924 21.5467 2.75695C21.5707 2.73455 21.2162 2.11781 20.7589 1.38645C20.3016 0.654984 19.9196 0.0428812 19.9101 0.0262492C19.9005 0.00950403 18.8053 0.786003 17.4762 1.75168C16.147 2.71735 15.0168 3.50743 14.9644 3.50743C14.9121 3.50743 13.8519 2.71826 12.6083 1.75371C11.3647 0.789171 10.3266 0 10.3014 0C10.2762 0 9.82416 0.547272 9.29674 1.21628ZM45.3854 23.0149V39.0343H50.4453C53.3487 39.0343 55.8877 38.9835 56.4026 38.9151C60.2725 38.4016 62.8407 36.5088 64.1137 33.2323C64.7427 31.6135 64.9478 29.4285 64.605 27.9983C64.3818 27.0667 63.7282 25.6496 63.136 24.8133C62.1932 23.4819 61.0455 22.6556 59.3653 22.0984C59.2696 22.0666 59.4168 21.9469 59.736 21.797C61.7881 20.8331 62.9988 19.3747 63.5619 17.1879C63.6932 16.6785 63.7467 16.0746 63.7419 15.1611C63.7306 13.0499 63.1859 11.5972 61.8251 10.0504C60.616 8.67568 59.0753 7.76827 57.1412 7.29183C56.4596 7.12392 55.5692 7.08907 50.8661 7.04585L45.3854 6.99562V23.0149ZM56.2668 11.8009C57.5424 12.1945 58.3866 12.8772 58.8556 13.8945C59.0621 14.3423 59.1005 14.6033 59.1005 15.5571C59.1005 16.5199 59.0629 16.77 58.8487 17.2352C58.499 17.9939 57.7329 18.7727 56.9211 19.1948C56.2967 19.5195 55.9536 19.6426 55.1025 19.8474L54.8112 19.9174V22.176C54.8112 24.4282 54.8119 24.4347 55.0495 24.4835C55.1805 24.5106 55.5738 24.5926 55.9233 24.6659C57.441 24.9841 59.1112 26.2542 59.6538 27.5027C60.7524 30.0308 59.5463 33.1289 57.1103 34.0361C56.105 34.4103 55.19 34.5039 52.5077 34.5063L50.0453 34.5085V23.0879V11.6674L50.4425 11.6166C50.661 11.5888 51.9358 11.5802 53.2756 11.5977C55.0616 11.621 55.8596 11.6752 56.2668 11.8009ZM76.0716 24.6885L75.3558 25.2597L74.9066 24.9479C74.6595 24.7765 74.3525 24.5344 74.2244 24.41C73.9515 24.1451 73.7443 24.201 73.4955 24.6067C73.3247 24.8852 73.3258 24.9083 73.5158 25.0664C73.9222 25.4047 75.2717 26.3623 75.342 26.3623C75.4659 26.3623 77.2779 24.9178 77.2805 24.8169C77.2836 24.6964 76.9112 24.0971 76.8402 24.1087C76.8111 24.1134 76.4652 24.3744 76.0716 24.6885ZM105.657 25.0099C104.876 25.3796 104.22 25.7 104.199 25.722C104.179 25.7439 104.234 25.9457 104.322 26.1703L104.481 26.5788L105.197 26.2896C105.59 26.1307 106.246 25.8729 106.654 25.7169C107.061 25.5609 107.431 25.398 107.474 25.3548C107.558 25.2717 107.248 24.3215 107.141 24.3316C107.106 24.3349 106.438 24.64 105.657 25.0099ZM74.5342 26.8314C73.1889 27.0375 71.9275 27.7548 70.9466 28.8716C69.9952 29.9549 69.5357 31.2747 69.5357 32.9245C69.5357 35.9948 71.3099 38.4437 74.0862 39.2056C74.7872 39.3979 76.703 39.4714 77.1413 39.3228C77.3438 39.2541 77.3698 39.1635 77.3698 38.5233V37.8012L77.0169 37.9587C75.6963 38.5482 73.4815 37.9751 72.2641 36.729C71.4342 35.8795 70.9985 34.9704 70.8095 33.6935C70.4354 31.1666 72.0135 28.7908 74.5222 28.1036C75.4004 27.8632 76.5405 27.9474 76.9671 28.2843L77.2639 28.5188V27.6834V26.848L76.4536 26.7749C75.524 26.6909 75.4341 26.6936 74.5342 26.8314ZM88.539 26.9292C87.1939 27.1342 86.3792 28.1382 86.3744 29.597C86.3708 30.6715 86.7633 31.3818 88.3518 33.1752C90.0345 35.0748 90.2907 35.4863 90.2907 36.29C90.2907 36.989 90.1143 37.4162 89.6557 37.8284C89.0617 38.3624 88.119 38.4942 87.1327 38.1813C86.7787 38.069 86.5839 37.9451 86.5839 37.8325C86.5839 37.7363 86.5275 37.6778 86.4587 37.7022C86.325 37.7499 86.3253 39.139 86.459 39.2797C86.5747 39.4015 87.7401 39.6 88.3396 39.6C90.2353 39.6 91.5926 38.2374 91.6085 36.3188C91.6188 35.0659 91.2749 34.451 89.3744 32.3242C87.6437 30.3873 87.3479 29.6961 87.8834 28.8399C88.3824 28.0418 89.4936 27.8195 90.4362 28.3294L90.9352 28.5993L90.9042 27.8562C90.8756 27.1714 90.8524 27.1073 90.6084 27.0389C90.1222 26.9023 89.0786 26.847 88.539 26.9292ZM79.3127 27.2481C79.4709 27.4349 79.488 28.0111 79.488 33.1741C79.488 38.12 79.4665 38.9124 79.3291 39.0343C79.2417 39.1118 79.1702 39.2198 79.1702 39.2743C79.1702 39.329 80.3141 39.3737 81.7121 39.3737H84.2539V38.6207C84.2539 37.8984 84.246 37.8753 84.0602 38.055C83.8985 38.2114 83.6099 38.2423 82.3127 38.2423H80.7589V35.8097V33.3771H82.2709C83.4681 33.3771 83.8321 33.4138 84.0184 33.5533L84.2539 33.7293V32.7437C84.2539 31.796 84.2465 31.7653 84.0602 31.9453C83.8984 32.1017 83.6097 32.1326 82.3101 32.1326H80.7538L80.7828 30.2374L80.8118 28.3423L82.2145 28.3107C83.3199 28.2858 83.6845 28.3165 83.9355 28.4551L84.2539 28.6309V27.8361V27.0411H81.6956C79.2239 27.0411 79.1433 27.0481 79.3127 27.2481ZM93.4122 27.3749C93.5506 27.6608 93.5738 28.5036 93.5738 33.243C93.5738 38.5744 93.5662 38.7878 93.3656 39.0603L93.1574 39.343L93.6569 39.4006C93.9316 39.4323 94.3881 39.4264 94.6714 39.3876L95.1865 39.3171L94.9626 39.1016C94.7405 38.8876 94.7388 38.844 94.7388 33.2151C94.7388 28.2654 94.7598 27.512 94.9037 27.2926L95.0685 27.0411H94.1596H93.2507L93.4122 27.3749ZM98.2315 27.2628C98.3258 27.451 98.1064 27.8637 96.7723 30.0065C95.9087 31.3936 95.164 32.5963 95.1178 32.6791C95.0643 32.7745 95.1284 32.9405 95.2924 33.1317C95.4349 33.2978 96.2725 34.6821 97.1539 36.208C98.2598 38.1227 98.7393 39.0517 98.7015 39.2062C98.6491 39.4211 98.7026 39.43 100.002 39.4251C101.879 39.4178 101.975 39.4067 101.903 39.2054C101.87 39.1129 102.064 38.2974 102.335 37.3931L102.827 35.7489L105.208 35.7794L107.589 35.8097L108.048 37.3937C108.301 38.2649 108.49 39.0624 108.467 39.166C108.419 39.3865 108.676 39.483 109.319 39.4852C110.035 39.4877 110.113 39.4208 109.888 38.9973C109.559 38.3797 106.472 27.7117 106.52 27.3604L106.564 27.0411H105.214H103.865L103.862 27.522C103.86 27.8238 103.243 30.066 102.204 33.5451C101.294 36.5933 100.536 39.1011 100.521 39.1181C100.45 39.1932 100.055 38.5611 98.3958 35.7208C97.4221 34.0538 96.651 32.6188 96.6823 32.5319C96.7135 32.4451 97.3536 31.3904 98.1046 30.1884C98.8557 28.9863 99.5978 27.7864 99.7536 27.522L100.037 27.0411H99.0787C98.16 27.0411 98.125 27.0503 98.2315 27.2628ZM106.236 31.2626L107.196 34.452L105.242 34.4829C104.167 34.4998 103.269 34.494 103.246 34.47C103.147 34.3638 105.113 27.9051 105.214 28.0082C105.248 28.0439 105.709 29.5084 106.236 31.2626ZM85.8449 41.3116C85.0598 41.6845 84.4018 42.0065 84.3824 42.0271C84.3632 42.0478 84.4191 42.2481 84.5068 42.4722L84.6662 42.8799L85.4927 42.5524C85.9472 42.3724 86.5574 42.1261 86.8486 42.0053C87.1399 41.8844 87.46 41.7542 87.56 41.716C87.7285 41.6516 87.7297 41.6147 87.5768 41.2172C87.4859 40.9811 87.3802 40.7532 87.3418 40.7107C87.3036 40.6683 86.6299 40.9386 85.8449 41.3116ZM35.324 41.2534C34.7124 41.5362 34.0567 41.8375 33.867 41.9229L33.5221 42.0783L33.7051 42.4881C33.8468 42.8054 33.9365 42.8853 34.103 42.8417C34.3134 42.7868 36.9443 41.7535 36.9853 41.7099C37.0364 41.6552 36.5962 40.7319 36.5207 40.7354C36.4742 40.7375 35.9356 40.9706 35.324 41.2534ZM52.9578 43.319C51.3634 43.8092 49.9031 45.0626 49.1701 46.5699C47.2647 50.4878 49.3352 55.1445 53.3908 56.0624C54.3146 56.2714 54.8831 56.2713 55.8174 56.0618C58.1303 55.543 60.0436 53.5556 60.583 51.1117C60.9137 49.6136 60.6875 47.9007 59.9668 46.4459C59.2502 44.9994 57.6134 43.6697 56.0712 43.2813C55.1764 43.056 53.7571 43.0731 52.9578 43.319ZM33.2768 43.7135C33.321 44.0036 32.9539 45.3727 31.7224 49.5121C30.8357 52.4924 30.0195 55.1218 29.9084 55.3551L29.7065 55.7794H30.5461C31.3281 55.7794 31.3819 55.7642 31.3313 55.5573C31.3013 55.4352 31.4822 54.6206 31.7331 53.747L32.1894 52.1588H34.58H36.9706L37.4325 53.7351C37.6864 54.6021 37.8685 55.4168 37.837 55.5454C37.7827 55.7674 37.8227 55.7794 38.6198 55.7794H39.4599L39.3105 55.4683C39.2285 55.2971 38.4194 52.6369 37.5127 49.5565C36.3577 45.6329 35.8822 43.8629 35.9242 43.6448L35.9841 43.3337H34.6016H33.2192L33.2768 43.7135ZM19.8084 43.5123C19.7391 43.5435 19.7127 45.605 19.7317 49.463C19.7512 53.3897 19.7246 55.405 19.6523 55.4823C19.4266 55.7234 19.5681 55.7794 20.4022 55.7794C21.1838 55.7794 21.2527 55.7616 21.1703 55.5814C21.0924 55.4114 20.9268 44.944 20.9999 44.8139C21.0144 44.788 21.0433 44.788 21.064 44.8139C21.2217 45.0114 27.001 55.4243 27.039 55.5797C27.0792 55.7441 27.2068 55.7794 27.7612 55.7794H28.4344L28.4637 49.8677C28.4798 46.6162 28.5338 43.8668 28.5837 43.758C28.6663 43.5777 28.5978 43.56 27.8212 43.56H26.968L27.1215 43.9524C27.2472 44.2737 27.2738 45.1599 27.2687 48.8458C27.2648 51.6955 27.226 53.2846 27.1632 53.1771C26.1146 51.3855 22.1187 44.1809 22.0018 43.8711L21.8415 43.4468L20.8779 43.4558C20.3479 43.4606 19.8666 43.4861 19.8084 43.5123ZM40.6664 43.6983C40.8103 43.9177 40.8313 44.6667 40.8313 49.5743C40.8313 52.9551 40.7901 55.3147 40.728 55.4892L40.6248 55.7794H41.4731C42.279 55.7794 42.316 55.7684 42.2118 55.5606C42.1457 55.4285 42.1022 54.3452 42.1022 52.8307V50.3196L42.5523 50.3938C42.7998 50.4346 43.121 50.5608 43.266 50.6742C43.5642 50.9072 45.3099 53.8562 45.8346 55.0128L46.1797 55.7736L47.0126 55.7766L47.8456 55.7794L47.6535 55.4683C47.5478 55.2971 46.9197 54.2152 46.2575 53.064C45.5955 51.9127 44.89 50.7905 44.69 50.5701C44.4899 50.3497 44.3263 50.1372 44.3263 50.0979C44.3263 50.0588 44.489 49.9693 44.688 49.8991C45.2102 49.7151 45.9644 48.9602 46.2469 48.339C46.7631 47.2039 46.5051 45.5264 45.6712 44.5965C44.9123 43.7501 43.8944 43.4468 41.812 43.4468H40.5016L40.6664 43.6983ZM62.8046 43.7806C62.9429 44.0664 62.9662 44.9056 62.9662 49.6131C62.9662 54.3206 62.9429 55.1598 62.8046 55.4456L62.6431 55.7794H64.3788C66.4526 55.7794 67.0081 55.683 68.0348 55.145C69.0198 54.6288 69.8767 53.7288 70.4033 52.6572C70.9218 51.6019 71.1212 50.741 71.1212 49.5565C71.1212 47.7095 70.6309 46.4281 69.4293 45.1346C68.6076 44.2501 67.8905 43.7913 66.9789 43.5669C66.7233 43.5039 65.6431 43.4511 64.5786 43.4495L62.6431 43.4468L62.8046 43.7806ZM72.9216 43.5373C72.9216 43.5871 72.9813 43.6914 73.054 43.7693C73.1553 43.8773 73.1951 45.2081 73.2235 49.4255C73.2557 54.2104 73.2388 54.996 73.0965 55.36L72.9324 55.7794H73.8333H74.734L74.5693 55.5279C74.4256 55.3089 74.4044 54.5886 74.4044 49.9584V44.6403L74.8615 45.4861C75.1129 45.9514 76.3603 48.1903 77.6335 50.4617C78.9067 52.733 80.0867 54.8586 80.2557 55.1854L80.5629 55.7794H81.1877H81.8124L81.8417 49.8677C81.8578 46.6162 81.9118 43.8668 81.9617 43.758C82.0444 43.5776 81.9749 43.56 81.1809 43.56C80.3824 43.56 80.3215 43.5757 80.4547 43.7469C80.5715 43.8974 80.606 44.8538 80.6309 48.6349L80.662 53.336L78.2085 48.9854C76.8591 46.5925 75.6383 44.3675 75.4955 44.0408L75.2361 43.4468H74.0789C73.4424 43.4468 72.9216 43.4876 72.9216 43.5373ZM84.8557 43.7014C84.9738 44.0489 84.8902 55.3327 84.7676 55.5814C84.6786 55.7622 84.7439 55.7794 85.5184 55.7794H86.3667L86.2635 55.4892C86.119 55.0832 86.1249 43.9548 86.2698 43.6656C86.3737 43.4583 86.3375 43.4468 85.5743 43.4468C84.7843 43.4468 84.7708 43.4516 84.8557 43.7014ZM35.5726 47.4068C36.0694 49.0559 36.4907 50.5043 36.5089 50.6256C36.5407 50.8375 36.466 50.8459 34.5827 50.8435C33.4414 50.8422 32.6293 50.7974 32.6375 50.7363C32.6958 50.3052 34.5447 44.2672 34.5995 44.3293C34.6379 44.3729 35.0758 45.7578 35.5726 47.4068ZM56.3066 44.6822C57.6024 45.2062 58.7789 46.4569 59.255 47.8162C59.8902 49.6299 59.4856 51.7579 58.2339 53.1875C55.8432 55.918 51.7578 55.2565 50.1987 51.8864C49.8511 51.1351 49.7982 50.9085 49.7526 49.9773C49.6669 48.2277 50.1237 46.9786 51.2669 45.8361C52.3373 44.7663 53.4355 44.3276 54.8642 44.3992C55.3834 44.4251 55.9419 44.5347 56.3066 44.6822ZM66.1435 44.6982C67.1115 44.8644 67.8563 45.262 68.5117 45.9621C70.2983 47.8707 70.3808 51.0817 68.6922 52.9891C67.7715 54.029 66.5758 54.5297 65.0049 54.5331L64.2371 54.5348V49.5565V44.5783L64.8461 44.5792C65.1811 44.5796 65.7648 44.6331 66.1435 44.6982ZM44.1776 45.036C45.0237 45.4737 45.447 46.5483 45.1841 47.5913C44.9274 48.6094 44.2196 49.1111 42.923 49.1938L42.1022 49.2462V46.9524V44.6587L42.8997 44.7232C43.3978 44.7634 43.8774 44.8809 44.1776 45.036ZM29.7839 59.9374C29.8257 60.2718 29.4876 61.5329 28.1871 65.8941C27.2798 68.9369 26.464 71.5463 26.3742 71.6927L26.211 71.9588H27.0574C27.7896 71.9588 27.8949 71.9344 27.8387 71.7779C27.803 71.6783 27.9833 70.864 28.2393 69.9684L28.7047 68.3399L31.1141 68.339C32.4393 68.3386 33.5236 68.3599 33.5236 68.3863C33.5236 68.4128 33.7142 69.0978 33.9472 69.9084C34.1802 70.7192 34.3708 71.5121 34.3708 71.6706C34.3708 71.9559 34.3796 71.9588 35.2345 71.9588C36.0775 71.9588 36.0939 71.9536 35.9154 71.743C35.6732 71.4571 32.4645 60.6037 32.4645 60.0704C32.4645 59.6792 32.442 59.6519 32.0673 59.5857C31.8489 59.5472 31.2338 59.515 30.7006 59.5143L29.731 59.5131L29.7839 59.9374ZM48.7187 59.8469C48.8573 60.133 48.8803 60.988 48.8803 65.8354C48.8803 70.8957 48.8623 71.5093 48.7089 71.6732C48.6145 71.7741 48.5622 71.8829 48.5924 71.9151C48.6227 71.9475 49.0335 71.9833 49.5053 71.9947C50.2593 72.0129 50.3633 71.9914 50.3632 71.8174C50.3631 71.7085 50.3154 71.6194 50.2572 71.6194C50.1879 71.6194 50.1512 69.5851 50.1512 65.7426C50.1512 61.9468 50.1887 59.8411 50.2572 59.796C50.5437 59.6068 50.2797 59.5131 49.4601 59.5131H48.5572L48.7187 59.8469ZM59.0476 60.0112C59.0476 60.3352 58.6019 62.0046 57.7716 64.7914C57.0697 67.1466 56.3492 69.5828 56.1705 70.2051C55.9916 70.8274 55.8108 71.3769 55.7686 71.4261C55.6571 71.5565 55.6034 71.4728 53.7399 68.2659C52.8047 66.6566 52.0189 65.3053 51.9938 65.2629C51.9687 65.2205 52.7116 63.9597 53.6445 62.4612C54.5775 60.9625 55.3408 59.7116 55.3408 59.6813C55.3408 59.651 54.9401 59.6262 54.4505 59.6262C53.6483 59.6262 53.565 59.6463 53.6096 59.828C53.6409 59.9564 53.0643 60.9955 52.024 62.6848C50.8041 64.6662 50.4218 65.3687 50.5178 65.4531C50.5885 65.5153 51.4218 66.9044 52.3696 68.5397C53.5576 70.5898 54.0759 71.5825 54.0383 71.736C53.9859 71.9503 54.0443 71.9588 55.5748 71.9588C57.1213 71.9588 57.1643 71.9524 57.1098 71.7292C57.0788 71.603 57.2563 70.8011 57.5042 69.9472L57.9547 68.3948L60.3483 68.3644L62.742 68.3341L63.2254 69.9658C63.4912 70.8634 63.6795 71.6789 63.6438 71.7782C63.5878 71.9344 63.6946 71.9588 64.434 71.9588H65.2891L65.0919 71.5911C64.9833 71.3888 64.1695 68.7604 63.2833 65.75C62.0516 61.5662 61.6856 60.1866 61.7299 59.8949L61.7879 59.5131H60.4177H59.0476V60.0112ZM19.5742 59.9393C19.7502 60.147 19.7627 60.5418 19.7575 65.7305C19.7526 70.464 19.7278 71.3483 19.592 71.6288L19.4323 71.9588H21.2692C23.3527 71.9588 23.9169 71.8396 24.6467 71.2449C25.9181 70.2089 26.2485 68.1423 25.3674 66.7366C25.0838 66.284 24.9203 66.1386 24.0618 65.5754L23.7611 65.3781L24.1959 65.1483C24.4349 65.0219 24.7232 64.7927 24.8365 64.6389C24.9497 64.4852 25.0958 64.3945 25.1611 64.4376C25.2353 64.4866 25.2697 64.437 25.2526 64.3057C25.2377 64.1901 25.2811 63.8917 25.3493 63.6428C25.6341 62.6033 25.4385 61.6699 24.7693 60.8747C23.9987 59.9591 23.5387 59.8117 21.2914 59.7601C19.4004 59.7168 19.3869 59.7182 19.5742 59.9393ZM37.138 59.9265C37.3439 60.1916 37.3515 71.3167 37.1461 71.7042L37.0112 71.9588H37.9211H38.831L38.6662 71.7073C38.5225 71.4881 38.5021 70.7803 38.5075 66.1916C38.5116 62.7288 38.549 60.9854 38.617 61.0971C38.7997 61.3974 44.2667 71.2409 44.4537 71.6063C44.6248 71.9405 44.6672 71.9588 45.2718 71.9588H45.9094L45.9386 66.0471C45.9547 62.7957 46.0087 60.0462 46.0586 59.9374C46.1412 59.7572 46.0725 59.7394 45.2908 59.7394C44.8185 59.7394 44.4337 59.7775 44.4356 59.8242C44.4374 59.871 44.5089 60.008 44.5944 60.1287C44.7254 60.3138 44.7489 61.0703 44.7437 64.9373C44.7397 67.8749 44.7013 69.4651 44.637 69.3565C43.6525 67.6921 39.5126 60.1795 39.4777 59.994C39.4314 59.7476 39.3901 59.7394 38.2112 59.7394C37.0897 59.7394 37.0042 59.7543 37.138 59.9265ZM32.1405 63.7391C32.6759 65.5343 33.0938 67.0248 33.0692 67.051C33.0447 67.0773 32.1425 67.085 31.0645 67.068L29.1043 67.0371L29.8616 64.4914C30.767 61.4472 31.0995 60.3915 31.1382 60.4393C31.1541 60.4589 31.605 61.9438 32.1405 63.7391ZM62.2778 66.7541L62.3476 67.0937H60.3798C59.1179 67.0937 58.4121 67.0525 58.4121 66.9787C58.4121 66.9155 58.7177 65.8336 59.091 64.5744C59.4644 63.3153 59.8746 61.9032 60.0027 61.4365C60.1306 60.9698 60.2644 60.537 60.2998 60.4748C60.3579 60.373 62.1084 65.9305 62.2778 66.7541ZM22.8899 61.0375C24.1721 61.4442 24.6227 62.9396 23.7741 63.9721C23.3354 64.5059 22.8603 64.7133 21.8939 64.7929L21.0586 64.8617L20.9895 64.4926C20.8987 64.0079 20.9 61.0435 20.9911 60.9463C21.1198 60.8087 22.3562 60.8681 22.8899 61.0375ZM22.7718 66.0885C23.8656 66.4129 24.5213 67.3111 24.5213 68.4848C24.5213 70.0617 23.8591 70.6573 21.953 70.7942L21.0263 70.8609V68.4116V65.9622L21.6883 65.9629C22.0524 65.9633 22.5399 66.0197 22.7718 66.0885Z" fill="url(#paint2_linear_5_2997)"/>
<defs>
<linearGradient id="paint0_linear_5_2997" x1="55" y1="6.77562e-06" x2="126.456" y2="91.0209" gradientUnits="userSpaceOnUse">
<stop stop-color="white"/>
<stop offset="1" stop-color="white" stop-opacity="0"/>
</linearGradient>
<linearGradient id="paint1_linear_5_2997" x1="45.2692" y1="-42.48" x2="110.261" y2="-20.6426" gradientUnits="userSpaceOnUse">
<stop stop-color="#4A60DB"/>
<stop offset="0.387957" stop-color="#B2E2E4"/>
<stop offset="0.787325" stop-color="#E4F5F6"/>
<stop offset="1" stop-color="#CFC0C3"/>
</linearGradient>
<linearGradient id="paint2_linear_5_2997" x1="45.2692" y1="-42.48" x2="110.261" y2="-20.6426" gradientUnits="userSpaceOnUse">
<stop stop-color="#4A60DB"/>
<stop offset="0.387957" stop-color="#B2E2E4"/>
<stop offset="0.787325" stop-color="#E4F5F6"/>
<stop offset="1" stop-color="#CFC0C3"/>
</linearGradient>
</defs>
</svg>
