<svg width="61" height="85" viewBox="0 0 61 85" fill="none" xmlns="http://www.w3.org/2000/svg">
<path fill-rule="evenodd" clip-rule="evenodd" d="M21.4018 0.175669C15.9771 0.525582 8.45234 1.51558 7.52898 2.00076C7.34924 2.09533 7.14565 2.52604 7.0767 2.95796C6.59996 5.94417 3.95381 8.87388 1.17018 9.49797L0.0717302 9.74401L0.0246216 25.7596C-0.0303717 44.4686 -0.0390635 44.1033 0.506826 46.3314C2.61537 54.9379 9.61569 62.7279 23.5248 71.9457C26.5662 73.9613 30.3166 76.3008 30.5067 76.3008C30.707 76.3008 35.4896 73.3081 38.0818 71.5605C51.6609 62.4067 58.4186 54.7994 60.4932 46.3314C61.0391 44.1033 61.0304 44.4686 60.9754 25.7596L60.9283 9.74401L59.8422 9.50061C58.5031 9.20051 57.2577 8.42252 56.1131 7.1713C55.1449 6.11265 54.116 4.1215 53.9215 2.92921C53.836 2.40555 53.6558 2.09452 53.3683 1.97424C52.1835 1.47934 44.3284 0.523557 38.4835 0.163317C34.8602 -0.060036 24.9439 -0.052746 21.4018 0.175669ZM33.5127 8.0641C33.613 8.16211 33.7153 8.57844 33.7402 8.9893C33.7671 9.43095 33.9199 9.81184 34.114 9.92058C34.4733 10.1221 34.556 10.9025 34.2505 11.2085C34.1292 11.33 34.2375 11.4008 34.5448 11.4008C34.9185 11.4008 35.0157 11.3071 34.9648 10.9958C34.8679 10.4048 35.1694 9.9467 35.7515 9.8003C36.0398 9.72781 36.2622 9.52632 36.2622 9.33739C36.2622 8.87388 36.8552 8.26214 37.3044 8.26214C37.7688 8.26214 37.7763 8.19046 37.1671 9.56986C36.8865 10.2055 36.603 11.2421 36.5373 11.8733C36.4201 13.0005 36.4314 13.0334 37.1813 13.7295C39.2411 15.6419 39.2949 15.7083 39.2949 16.3417C39.2949 16.8411 39.2096 16.9695 38.8772 16.9695C38.6475 16.9695 38.2609 16.8733 38.0179 16.7558C37.5913 16.5495 37.5897 16.5529 37.9688 16.8571C38.1884 17.0333 38.748 17.172 39.2385 17.172H40.1157L39.6548 17.8064C39.4012 18.1553 38.9209 18.5617 38.5873 18.7097C38.2537 18.8575 38.1172 18.9807 38.284 18.9835C38.4508 18.9861 38.7217 18.9031 38.8859 18.799C39.4243 18.458 39.916 19.135 39.7745 20.0223C39.6794 20.6176 39.7498 20.9268 40.0893 21.4043L40.5268 22.0195L40.0009 22.1515C39.7118 22.2242 39.0175 22.2398 38.4581 22.186C37.864 22.1287 37.5533 22.1592 37.7108 22.2593C37.8592 22.3536 38.1756 22.432 38.414 22.4338C38.6524 22.4354 38.9025 22.581 38.97 22.7572C39.1435 23.21 39.0957 26.102 38.9069 26.5866C38.7634 26.9549 38.7199 26.9327 38.4105 26.3335C38.0161 25.5697 37.7814 25.4419 38.1135 26.1719C38.3058 26.5945 38.2634 26.7565 37.823 27.2808C37.5393 27.6183 37.2444 28.1813 37.1675 28.532C36.9894 29.344 36.3833 30.3925 35.4227 31.5496C34.0859 33.16 33.723 34.654 34.3206 36.0865C34.4935 36.5008 35.1799 37.2172 36.0897 37.9331C39.0472 40.2595 39.6772 41.0373 39.7267 42.4232C39.7419 42.8464 39.7923 42.9995 39.8386 42.7632C39.914 42.3787 40.0215 42.4366 40.8725 43.3209C41.6578 44.1369 42.0025 44.341 42.8636 44.5006C44.1567 44.74 45.8173 44.4962 46.5386 43.9612C48.0766 42.8203 48.3898 41.2771 47.3696 39.8663C46.6729 38.903 45.756 38.434 44.57 38.434C43.6576 38.434 43.5926 38.5027 43.2698 39.8074C43.0935 40.5206 42.8743 40.8569 42.386 41.1643C41.712 41.5881 41.532 42.2136 41.9602 42.6425C42.0919 42.7743 42.1404 42.9414 42.0682 43.0139C41.9958 43.0862 41.6153 42.8235 41.2223 42.4299C40.345 41.5513 40.2292 40.475 40.9574 39.9643C41.2045 39.791 41.3066 39.649 41.1843 39.649C41.0619 39.649 40.8486 39.7857 40.7102 39.9528C40.3616 40.3733 39.8305 40.3324 39.396 39.8515C39.0395 39.457 39.0428 39.4465 39.5219 39.4465C39.7925 39.4465 40.1814 39.2503 40.3867 39.0103C40.7494 38.5861 40.7492 38.5788 40.381 38.7398C39.6376 39.065 37.7969 38.691 36.8633 38.0252C35.6807 37.1818 35.2848 34.9126 36.0339 33.2704C36.4714 32.3112 38.1898 30.6596 38.5903 30.8135C38.7522 30.8759 38.9225 30.755 38.9949 30.5264C39.083 30.2481 39.303 30.1317 39.7401 30.1317H40.3604L39.8276 29.7119C39.1388 29.1694 39.1629 28.7715 39.9354 27.9202C40.5316 27.2631 40.5781 27.2469 40.8393 27.6046C40.9906 27.8119 41.1145 28.2193 41.1145 28.5099C41.1145 29.0234 41.434 29.5242 41.7615 29.5242C42.1212 29.5242 41.8941 28.1578 41.4178 27.4557C40.8561 26.6279 40.8017 26.2622 41.1446 25.6203L41.3769 25.1855L41.5377 25.6205C41.701 26.063 42.5298 26.6488 42.5298 26.3219C42.5298 26.2233 42.2585 25.7418 41.9269 25.2515C41.439 24.5305 41.3234 24.1461 41.3203 23.2359C41.3171 22.2305 41.3862 22.0438 41.9738 21.4744C42.5549 20.911 44.1472 20.0496 44.1472 20.2985C44.1472 20.3503 44.0486 20.6097 43.9281 20.8746C43.7429 21.2818 43.806 21.5098 44.3349 22.3453C45.1066 23.5642 45.3577 24.4341 45.3591 25.8939C45.3605 27.3113 44.941 28.5419 44.0324 29.7848C43.1772 30.9548 42.2678 31.5463 41.3167 31.5516C40.7852 31.5544 40.6845 31.6043 40.9123 31.7517C41.0791 31.8596 41.6113 31.9493 42.0947 31.9511L42.9738 31.9542L42.5599 32.6123C41.9465 33.5877 41.624 33.7309 41.0969 33.2619L40.6513 32.8654L40.8954 33.3309C41.0822 33.6873 41.0848 33.9623 40.9065 34.5032C40.7306 35.0368 40.7308 35.2787 40.9071 35.4916C41.0905 35.7127 41.0537 35.82 40.7364 35.9899C39.6495 36.5727 38.7868 35.8435 39.0709 34.5822C39.1592 34.1899 39.1612 33.6887 39.0751 33.4684C38.9417 33.1262 38.9168 33.1195 38.9047 33.4223C38.8879 33.843 38.8101 33.8562 38.2846 33.5276C37.6892 33.1552 37.2296 33.7159 37.2023 34.8484C37.1766 35.9051 37.5648 36.7503 38.1647 36.9437C38.7763 37.1407 40.3244 37.0765 40.9805 36.8266C41.291 36.7084 41.8577 36.6116 42.2397 36.6116C42.7957 36.6116 42.9342 36.532 42.9342 36.2131C42.9342 35.9869 42.7006 35.692 42.3945 35.5315L41.8549 35.2482L42.3931 34.895C42.7595 34.6546 43.1092 34.586 43.4887 34.68C43.9382 34.7911 43.9972 34.7678 43.7934 34.5605C43.5021 34.2638 43.4507 33.3716 43.7249 33.3716C44.0534 33.3716 44.956 34.6052 44.956 35.054C44.956 35.4849 47.1518 37.783 47.9958 38.2354C48.3427 38.4213 48.393 38.3824 48.393 37.9286C48.393 37.6427 48.5295 37.3563 48.6963 37.2924C48.8631 37.2282 48.9996 37.0911 48.9996 36.9878C48.9996 36.8815 48.8247 36.8936 48.597 37.0155C48.0673 37.2997 47.1735 36.8457 46.5063 35.9537C45.8698 35.1028 45.7022 34.5226 45.8708 33.7535L46.0071 33.1321L46.554 33.6567C47.311 34.3831 47.7277 34.3446 47.1965 33.5976C46.6541 32.8344 46.2932 31.1073 46.459 30.0683C46.6476 28.8874 47.5295 27.3794 48.5663 26.4655C49.3894 25.7398 49.556 25.6768 50.6506 25.6768C51.762 25.6768 51.854 25.6401 52.0513 25.1205C52.1676 24.8146 52.2234 24.3589 52.1754 24.1081C52.0766 23.5899 52.1114 23.5716 52.65 23.8604C53.6271 24.3841 53.9498 26.295 53.2543 27.4377C52.7624 28.2457 52.0592 28.7144 50.8497 29.0407C49.985 29.2739 49.9622 29.2954 50.5665 29.3081C51.333 29.3239 51.4065 29.5754 50.7741 30.0189C50.3894 30.289 50.3768 30.3342 50.6864 30.3342C50.8853 30.3342 51.2317 30.2358 51.4563 30.1153C52.0208 29.8128 52.1726 30.0456 51.7302 30.5355C51.3218 30.9872 50.4264 31.0668 49.7444 30.7119C49.5016 30.5853 49.3635 30.5474 49.4377 30.6274C49.5117 30.7074 49.3981 30.9476 49.185 31.161C48.6822 31.6646 48.6595 32.2583 49.1512 32.0501C49.3457 31.9675 49.7709 31.9149 50.096 31.9331C50.4211 31.9511 50.7574 31.8521 50.8433 31.7128C51.1122 31.2768 51.2782 31.7008 51.1358 32.4606C51.0442 32.949 50.8154 33.302 50.4403 33.5332L49.8811 33.8779L50.2499 36.1053C50.6654 38.6136 50.6049 39.3886 49.9314 40.2C49.6098 40.5876 49.427 41.1339 49.3447 41.9552C49.1413 43.984 47.8306 45.6137 45.9907 46.1256C44.6705 46.493 42.0573 46.3492 40.2795 45.8118C40.0424 45.7399 39.8584 45.9418 39.6224 46.532C39.0945 47.8537 39.1637 47.9999 40.81 49.0444C42.4873 50.1085 42.9342 50.6091 42.9342 51.4233C42.9342 51.7609 43.1663 52.2025 43.5407 52.5776C43.9447 52.9822 44.1472 53.3878 44.1472 53.7915C44.1472 54.1252 44.2024 54.5422 44.27 54.7184C44.4566 55.2052 43.7588 55.1203 43.1596 54.5831L42.6513 54.1275L42.991 54.6712C43.4143 55.3489 43.7736 56.8612 43.5112 56.8612C43.1026 56.8612 41.7304 56.0317 41.4311 55.6039C41.257 55.3548 41.1145 55.2467 41.1145 55.3633C41.1145 55.4801 41.3401 55.7879 41.6159 56.0473C41.9608 56.3719 42.083 56.6562 42.0074 56.9584C41.9408 57.2234 42.0227 57.5017 42.2136 57.6604C42.3874 57.805 42.5298 58.0644 42.5298 58.2369C42.5298 58.4095 42.6891 58.7308 42.8836 58.9511C43.2287 59.3419 43.2227 59.3482 42.6309 59.2057C42.2973 59.1255 41.7528 58.8157 41.421 58.5174C40.9572 58.1004 40.9081 58.0828 41.2089 58.441L41.6004 58.907L41.0037 59.3956C40.6754 59.6641 40.328 59.8873 40.2316 59.8913C40.1354 59.8954 40.1056 60.0871 40.1659 60.3174C40.3272 60.9356 39.9293 61.8875 39.4451 62.0412C38.9609 62.1953 38.4494 62.6538 38.1079 63.2398C37.9104 63.579 37.8792 63.4637 37.917 62.5321C37.952 61.6733 37.8922 61.4058 37.6554 61.36C37.3776 61.3066 36.2458 62.1684 36.2573 62.4245C36.2998 63.3623 36.2751 63.3992 35.8119 63.091C35.2911 62.7447 34.9306 61.3993 35.2541 61.0091C35.4045 60.8275 35.3762 60.7222 35.1536 60.6367C34.9686 60.5656 34.7426 60.6788 34.5942 60.9168C34.2466 61.4742 34.0372 61.4145 34.0438 60.7592C34.0473 60.4144 34.2782 59.9776 34.6504 59.6117C35.3501 58.924 35.3232 58.7918 34.5436 59.0886C34.2347 59.2063 33.929 59.2492 33.8639 59.184C33.7161 59.036 34.2865 58.0043 34.4931 58.0458C34.5766 58.0624 34.8267 57.8939 35.0491 57.6711C35.5392 57.1803 37.0005 57.1183 37.5883 57.5634C38.1542 57.9921 38.284 57.9445 38.284 57.3087C38.284 56.9981 38.4211 56.2164 38.5887 55.5721C38.9417 54.2149 38.8566 53.9758 37.7506 53.2166C37.2334 52.8617 36.9751 52.5332 36.9854 52.2441C36.9981 51.8903 36.9468 51.8524 36.7155 52.0446C36.5466 52.1849 36.4644 52.517 36.5143 52.8572C36.5857 53.3442 36.5343 53.4238 36.1799 53.375C35.8604 53.3311 35.708 53.4809 35.5367 54.0058C35.4027 54.4174 35.2547 54.6007 35.1688 54.4614C35.0899 54.3334 34.8032 54.2287 34.5317 54.2287C34.0746 54.2287 34.0382 54.1544 34.0382 53.2203C34.0382 52.6656 33.8849 51.8283 33.6977 51.3598C33.4476 50.7338 33.4211 50.486 33.5978 50.4271C33.7608 50.3726 33.7078 50.1806 33.4328 49.8305C33.1741 49.501 33.0176 48.976 33.0006 48.3796C32.9751 47.4842 32.9688 47.4747 32.8489 48.1538L32.724 48.8626H30.0625C28.5987 48.8626 27.3397 48.9237 27.2647 48.9984C27.1897 49.0734 27.3638 49.5369 27.6517 50.0288C28.0579 50.7231 28.1749 51.1959 28.1749 52.1436C28.1749 53.0717 28.2752 53.4918 28.594 53.8976C29.001 54.416 29.0018 54.4312 28.6211 54.4312C28.4058 54.4312 28.0069 54.2558 27.735 54.0416L27.2404 53.652L27.3682 54.6491C27.4384 55.1975 27.4525 55.6462 27.3996 55.6462C27.3466 55.6462 26.999 55.4137 26.627 55.1296L25.9509 54.6131V55.5346C25.9509 56.0415 25.8741 56.4562 25.7801 56.4562C25.5698 56.4562 25.0336 55.855 24.8773 55.4437C24.8139 55.2766 24.8128 55.6496 24.8751 56.2725C24.9968 57.4919 24.736 58.2786 24.2097 58.2786C23.9683 58.2786 23.9121 58.4722 23.9602 59.1392C23.9968 59.6481 23.9412 59.964 23.824 59.9122C23.5047 59.771 22.9182 58.9481 22.9182 58.6415C22.9182 58.4864 22.8125 58.1351 22.6835 57.8611L22.4485 57.3627L21.877 57.9352C21.5626 58.2501 21.2031 58.4445 21.0782 58.3673C20.7789 58.182 20.4718 58.6899 20.6113 59.1392C20.672 59.334 20.6396 59.4936 20.5397 59.4936C20.2219 59.4936 19.899 58.6085 19.9328 57.8293C19.9506 57.415 19.9245 57.0357 19.8748 56.9865C19.6493 56.7632 18.6107 57.1552 18.5214 57.4974C18.3847 58.0207 18.1332 57.9672 17.9868 57.3834C17.8526 56.8472 18.0082 56.2537 18.2834 56.2537C18.379 56.2537 18.4088 56.1263 18.3489 55.9704C18.2893 55.8147 18.3376 55.6269 18.4565 55.5534C18.9441 55.2515 18.6516 54.9976 17.9648 55.1266C17.1581 55.2783 17.0794 55.0932 17.6575 54.4031C17.9989 53.995 18.0875 53.9695 18.2608 54.2287C18.4361 54.4905 18.4644 54.4845 18.4672 54.1852C18.4712 53.7192 19.191 53.3598 19.9087 53.4653C20.2296 53.5125 20.492 53.4843 20.492 53.4029C20.492 53.3215 20.8333 53.3003 21.2502 53.356C21.8268 53.4331 22.1416 53.3521 22.5644 53.0184C23.0872 52.6055 23.1204 52.4838 23.1204 50.974C23.1204 49.6671 23.0628 49.3688 22.8106 49.3688C22.6402 49.3688 22.4219 49.5737 22.3254 49.8244C22.1687 50.2314 22.1346 50.242 22.006 49.923C21.9233 49.7179 21.9791 49.4217 22.1374 49.2261C22.2914 49.0357 22.3086 48.9486 22.1764 49.028C21.9483 49.1649 21.3008 48.6862 21.3008 48.3806C21.3008 48.1115 21.8942 47.4366 21.9008 47.6982C21.9045 47.8375 22.0037 47.9513 22.1214 47.9513C22.2391 47.9513 22.2781 47.8584 22.2081 47.7448C21.956 47.3362 22.5514 46.1457 23.3998 45.3624C24.1606 44.6602 26.1238 43.7034 26.8179 43.6965C27.2034 43.6929 30.2275 42.9256 30.3532 42.7996C30.4155 42.7375 30.292 42.686 30.0789 42.6856C29.8656 42.6852 29.4003 42.5072 29.0447 42.29C28.012 41.6594 24.94 39.0168 24.94 38.759C24.94 38.6298 25.0902 38.3095 25.2736 38.0471C25.4997 37.7237 25.5233 37.5981 25.3468 37.6571C25.2035 37.7048 24.9317 38.14 24.7427 38.6242C24.4912 39.2685 24.3646 39.4147 24.2706 39.1695C24.2 38.9854 24.1877 38.5395 24.2433 38.1787C24.3385 37.5607 24.3317 37.552 24.1258 38.029C24.0057 38.3075 23.5826 38.8698 23.1855 39.2784C22.598 39.8831 22.4803 40.138 22.5547 40.6453C22.6622 41.3801 22.4587 41.4462 22.0199 40.8188C21.5903 40.2047 21.6249 39.3854 22.122 38.4095C22.4829 37.701 22.5203 37.3788 22.4008 36.0069L22.2627 34.4226L22.8432 34.1077C23.1624 33.9346 23.3222 33.7892 23.1982 33.7847C22.8438 33.772 21.9073 34.5848 21.9073 34.9051C21.9073 35.2943 21.5763 35.2729 21.4235 34.8738C21.2171 34.3353 21.2862 33.4832 21.5705 33.0624C21.7187 32.8427 21.898 32.5029 21.969 32.3075C22.0864 31.9829 22.0284 31.9874 21.3024 32.3583C20.8651 32.5819 20.0092 33.171 19.4007 33.6673C18.491 34.4094 18.2784 34.5084 18.2066 34.2239C18.1205 33.8827 18.1839 34.4133 18.395 35.8016L18.5028 36.5103L18.0317 35.9646C17.6975 35.5774 17.3303 35.4015 16.7691 35.3593C16.0315 35.3039 15.962 35.346 15.7495 35.9784C15.5093 36.6926 14.8961 37.2832 14.591 37.0943C14.4915 37.033 14.2254 37.218 13.9994 37.5058C13.4549 38.1993 13.2135 38.1661 13.2135 37.3979C13.2135 36.8667 13.2774 36.7835 13.6177 36.8726C14.0202 36.9781 14.0202 36.9767 13.6233 36.4712C13.2592 36.0075 13.2495 35.9047 13.5121 35.2753C13.8785 34.3971 13.5172 34.3339 12.7584 35.1435C12.4713 35.4496 12.0014 35.8642 11.7141 36.0642C11.4268 36.2643 11.1917 36.6059 11.1917 36.8236C11.1917 37.3134 11.015 37.3272 10.6644 36.8647C10.363 36.467 10.2894 35.5991 10.557 35.5991C10.6529 35.5991 10.6897 35.3814 10.6389 35.1155C10.5882 34.8497 10.6448 34.4485 10.7647 34.2239C10.9697 33.8402 10.9349 33.8224 10.1774 33.9242C9.67433 33.9919 9.37207 33.9514 9.37207 33.8165C9.37207 33.3283 9.80615 32.5141 10.3304 32.0192C10.6957 31.6743 10.8011 31.4613 10.6357 31.4026C10.2046 31.2497 10.3385 30.1858 10.8324 29.8395C11.7139 29.2209 13.162 29.5886 13.9883 30.6408C14.2254 30.9425 14.448 31.0707 14.5234 30.9486C14.5946 30.8333 14.8623 30.7392 15.1185 30.7392C15.3744 30.7392 15.9217 30.4705 16.3346 30.1418C16.8008 29.7707 17.4429 29.492 18.0303 29.4062C18.8902 29.2802 21.3008 28.2432 21.3008 27.9992C21.3008 27.9431 20.8489 28.1268 20.2965 28.407C19.7444 28.6873 19.1985 28.9167 19.0834 28.9167C18.9686 28.9167 18.8707 28.5296 18.8661 28.0561L18.8576 27.1955L18.5032 27.8613C18.116 28.5885 17.871 28.5348 17.8509 27.7186C17.8392 27.2429 17.823 27.2328 17.6712 27.6076C17.5796 27.8342 17.3722 28.1296 17.2104 28.2641C16.9702 28.4637 16.874 28.416 16.6866 28.0039C16.5604 27.7263 16.3613 27.4993 16.244 27.4993C16.1269 27.4993 15.9571 27.299 15.8667 27.0544C15.7327 26.6919 15.6773 26.799 15.5667 27.6333C15.4832 28.2635 15.2768 28.7971 15.0299 29.0208C14.6377 29.3764 14.6288 29.3699 14.6288 28.7355C14.6288 28.3787 14.4856 27.8095 14.311 27.4709C14.1361 27.1323 14.0422 26.7267 14.1023 26.5698C14.1666 26.4023 14.0863 26.2843 13.9084 26.2843C13.7416 26.2843 13.5528 26.421 13.4889 26.588C13.2723 27.1528 13.0368 26.8964 12.8937 25.94C12.811 25.388 12.8411 24.7496 12.9652 24.4201L13.1793 23.8519L12.6638 24.2581C11.9952 24.7848 10.9082 24.7854 10.383 24.2593C9.89612 23.7717 9.8761 23.4935 10.2948 23.03C10.5835 22.7104 10.5793 22.6827 10.2443 22.7102C9.95819 22.7339 9.88702 22.6104 9.92038 22.1479C9.94404 21.8221 10.0914 21.427 10.2481 21.2703C10.4928 21.0251 10.5512 21.0585 10.6638 21.5084C10.736 21.7964 10.8955 22.0319 11.018 22.0319C11.1731 22.0319 11.1775 22.109 11.0324 22.285C10.8733 22.478 10.9756 22.5411 11.4626 22.5513C12.0055 22.5622 12.1086 22.4861 12.1484 22.045C12.314 20.2098 12.4725 19.266 12.6525 19.045C12.7936 18.8717 12.7907 18.7919 12.6436 18.7919C12.5255 18.7919 12.3672 18.8916 12.292 19.0135C12.2168 19.1354 11.9384 19.1935 11.6735 19.1429C11.1838 19.0491 11.0817 19.281 11.1812 20.26C11.2475 20.9127 10.8551 20.6233 10.5922 19.8261C10.3039 18.9513 10.4513 18.4953 10.9594 18.6889C11.2267 18.7907 11.2426 18.7654 11.0401 18.5609C10.901 18.4208 10.7873 18.1486 10.7873 17.9562C10.7873 17.4846 11.7337 16.767 12.3557 16.767C12.7511 16.767 12.811 16.7095 12.6355 16.4977C12.5034 16.3385 12.1632 16.2652 11.8021 16.3182C11.056 16.428 11.0263 16.1832 11.7079 15.5421C12.143 15.1324 12.2533 15.1031 12.4123 15.3548C12.5526 15.5769 12.6015 15.585 12.6039 15.3868C12.6058 15.2159 12.8065 15.1432 13.1626 15.1843C13.5809 15.2325 13.8087 15.4414 14.0843 16.0295C14.2857 16.4592 14.5034 16.7575 14.5683 16.6925C14.6332 16.6275 14.5867 16.4539 14.4648 16.3069C14.3431 16.1599 14.2547 15.8616 14.2685 15.6439C14.2824 15.4262 14.2264 15.0431 14.1444 14.7926C14.0239 14.4251 14.071 14.337 14.3882 14.337C14.6045 14.337 14.8946 14.4737 15.0331 14.6408C15.1716 14.8078 15.2351 14.9445 15.1745 14.9445C15.1138 14.9445 15.3392 15.2199 15.6753 15.5565C16.1015 15.9833 16.2422 16.2741 16.1407 16.5183C15.9029 17.0898 15.7828 18.7176 15.9231 19.4662C16.0837 20.3226 17.3647 21.8186 18.5214 22.4998C18.9937 22.7781 19.6022 23.244 19.8736 23.535C20.6611 24.3792 21.9079 24.6453 24.1388 24.4456C27.0467 24.185 27.3587 24.1028 27.5724 23.5396C27.7572 23.0529 28.1749 22.8499 28.1749 23.2468C28.1749 23.6166 28.7042 23.4564 29.1883 22.9405C29.5107 22.5966 29.7321 22.498 29.8706 22.6367C29.9832 22.7495 30.2165 22.8412 30.3888 22.8406C30.5613 22.8398 30.4422 22.7035 30.1244 22.5375C29.5768 22.2516 29.5255 22.2623 29.1492 22.7412C28.7016 23.311 28.3771 23.3959 28.3771 22.9431C28.3771 22.5636 28.4576 22.5488 27.2815 23.1464C26.2142 23.6887 24.9133 23.8106 24.5864 23.3987C24.4758 23.2596 24.3964 22.8593 24.4099 22.5091L24.4346 21.8727L23.6845 22.256C21.8493 23.1938 20.492 22.2546 20.492 20.0472C20.492 18.8952 20.697 18.8804 21.2126 19.9948C21.9823 21.6591 23.0893 21.8695 25.0007 20.715C25.6456 20.3256 26.2599 20.0069 26.3654 20.0069C26.4711 20.0069 26.5575 19.9257 26.5575 19.8263C26.5575 19.5501 25.6005 19.3709 24.8642 19.5094C24.2718 19.6205 24.2146 19.6924 24.2926 20.225C24.3933 20.9121 24.0561 21.0151 23.68 20.4119C23.5411 20.1892 23.3428 20.0069 23.2393 20.0069C22.8361 20.0069 22.3117 19.3091 22.3117 18.7725C22.3117 18.4623 22.2207 18.152 22.1095 18.0832C21.9983 18.0143 21.9073 17.7987 21.9073 17.6041C21.9073 17.3613 22.3436 17.0557 23.2947 16.6327C24.5957 16.0536 24.6911 15.9663 24.829 15.2268C25.032 14.1394 25.2603 13.932 26.2542 13.932C27.1861 13.932 27.7143 13.5276 27.6074 12.8959C27.5518 12.5666 27.7465 12.5229 29.5281 12.4631L31.5109 12.3969L29.477 12.3544L27.4432 12.3121L26.6121 10.4896C25.8731 8.86943 25.8229 8.66713 26.1596 8.66713C26.8118 8.66713 27.5734 9.12295 27.6885 9.58221C27.7704 9.90924 27.9159 10.0006 28.252 9.93617C28.8328 9.825 29.2618 10.3385 29.1365 10.9946C29.0467 11.4654 29.0961 11.5021 29.8221 11.5021C30.5544 11.5021 30.5884 11.4762 30.3516 11.0965C30.0342 10.5876 30.3427 10.0129 30.9844 9.91755C31.3249 9.86692 31.3979 9.75818 31.2992 9.44735C31.1013 8.82224 31.3744 8.06167 31.8708 7.85695C32.3483 7.65972 33.2106 7.76866 33.5127 8.0641ZM34.1619 14.5029C34.1055 14.5942 34.3277 14.6292 34.6554 14.5812C34.9832 14.533 35.2513 14.4583 35.2513 14.4154C35.2513 14.2611 34.262 14.3405 34.1619 14.5029ZM26.6586 16.1605C26.3056 16.3132 26.3229 16.3316 26.7956 16.3057C27.0935 16.2895 27.2928 16.2042 27.2386 16.1166C27.1844 16.0289 27.1228 15.9635 27.1015 15.9712C27.0803 15.9791 26.881 16.0641 26.6586 16.1605ZM33.6743 16.2C33.3799 16.4948 33.3599 16.9012 33.6316 17.0693C33.7464 17.1404 33.7798 17.0584 33.71 16.8761C33.6431 16.702 33.7009 16.4237 33.8382 16.2581C34.1366 15.8979 34.018 15.8557 33.6743 16.2ZM26.9578 16.9188C27.0791 17.1695 27.3343 17.3672 27.5249 17.3585C27.8059 17.3455 27.8142 17.3202 27.5684 17.2244C27.4016 17.1594 27.1464 16.9616 27.0013 16.7848C26.7774 16.512 26.7708 16.5323 26.9578 16.9188ZM28.149 16.9188C27.8977 17.24 27.9048 17.2471 28.2255 16.9954C28.5623 16.7307 28.6693 16.5645 28.5029 16.5645C28.461 16.5645 28.3017 16.7238 28.149 16.9188ZM31.2076 18.3363C31.2076 18.4625 31.2986 18.6218 31.4098 18.6907C31.521 18.7595 31.612 19.0084 31.612 19.2435C31.612 19.4788 31.7626 19.8378 31.9466 20.0415C32.2606 20.3892 32.2551 20.4119 31.8574 20.4119C31.3767 20.4119 31.097 20.7246 31.4066 20.9161C31.5196 20.986 31.612 20.9566 31.612 20.8507C31.612 20.745 31.8623 20.5935 32.168 20.5146L32.724 20.3708L32.2691 20.063C32.0188 19.8935 31.8113 19.561 31.8077 19.3241C31.8043 19.0872 31.6678 18.7162 31.5044 18.5001C31.3413 18.2839 31.2076 18.2102 31.2076 18.3363ZM26.0338 21.3452C25.9325 21.3693 25.5995 21.4442 25.2938 21.5119C24.9685 21.5835 24.7378 21.7698 24.7378 21.9602C24.7378 22.2297 24.9152 22.2688 25.7639 22.1872C26.3282 22.1329 26.9275 21.9505 27.0959 21.782C27.369 21.5084 27.3383 21.4663 26.8098 21.3885C26.4843 21.3407 26.1349 21.3211 26.0338 21.3452ZM31.2582 21.3648C31.0079 21.413 30.8033 21.5246 30.8033 21.6129C30.8033 21.8199 31.7857 21.6346 31.9302 21.4003C31.9907 21.3021 31.9666 21.2342 31.8767 21.2494C31.7867 21.2646 31.5085 21.3164 31.2582 21.3648ZM22.8171 25.4743C23.0183 25.697 23.2286 25.8793 23.2842 25.8793C23.3398 25.8793 23.2205 25.697 23.0193 25.4743C22.8181 25.2516 22.6079 25.0693 22.5523 25.0693C22.4967 25.0693 22.6159 25.2516 22.8171 25.4743ZM24.2957 26.2201C24.4414 26.2786 24.6159 26.2713 24.683 26.2041C24.7502 26.1369 24.6309 26.0891 24.4178 26.0978C24.1822 26.1075 24.1343 26.1555 24.2957 26.2201ZM25.1582 26.6048C25.1679 26.8407 25.2158 26.8887 25.2803 26.7273C25.3387 26.5811 25.3314 26.4064 25.2643 26.3392C25.1972 26.2719 25.1495 26.3914 25.1582 26.6048ZM35.6045 28.4143C35.5416 28.9692 35.5121 29.4456 35.539 29.4734C35.6886 29.6277 35.9728 28.1314 35.857 27.8004C35.7602 27.5244 35.6843 27.7086 35.6045 28.4143ZM33.6591 28.5271C33.6316 29.3154 33.1771 29.8549 32.0669 30.417C31.7054 30.5999 31.4098 30.7947 31.4098 30.8498C31.4098 31.03 33.0343 30.1246 33.4399 29.7184C33.6579 29.5001 33.836 29.428 33.836 29.558C33.836 29.6878 33.87 29.7563 33.9114 29.7099C33.9529 29.6635 33.9187 29.2154 33.8356 28.7142C33.69 27.8366 33.6835 27.8297 33.6591 28.5271ZM24.0175 28.7649L23.4237 29.423L24.0807 28.8282C24.6932 28.2738 24.8308 28.1067 24.6746 28.1067C24.6398 28.1067 24.344 28.403 24.0175 28.7649ZM29.1858 28.8762C29.1858 29.1881 29.0722 29.5659 28.9331 29.716C28.7707 29.8911 28.7645 29.9414 28.9159 29.8563C29.0453 29.7836 29.1973 29.8387 29.2538 29.9786C29.31 30.1185 29.3633 29.8002 29.372 29.2711C29.3807 28.742 29.3425 28.3092 29.2869 28.3092C29.2313 28.3092 29.1858 28.5644 29.1858 28.8762ZM36.06 28.5883C36.06 28.6302 36.2193 28.7898 36.4138 28.9426C36.7345 29.1943 36.7415 29.1873 36.4902 28.8661C36.226 28.5287 36.06 28.4216 36.06 28.5883ZM26.3911 29.3165C26.1466 29.6477 25.6519 30.0039 25.2916 30.1082C24.8317 30.2413 24.7641 30.303 25.0644 30.316C25.5466 30.3366 26.4544 29.6905 26.7681 29.1034C27.0744 28.53 26.8981 28.6298 26.3911 29.3165ZM22.3117 29.8063C22.3117 29.85 22.4528 29.9401 22.6255 30.0066C22.8054 30.0756 22.8865 30.0416 22.8157 29.927C22.697 29.7344 22.3117 29.6423 22.3117 29.8063ZM31.2052 30.3401C31.0627 30.6845 30.6638 31.1752 30.3186 31.4303C29.2283 32.2368 29.1824 32.2403 29.292 31.5087C29.3931 30.8325 29.3033 30.9769 28.9723 32.0222L28.7904 32.5963L29.443 32.2091C29.8019 31.9961 30.3069 31.6921 30.5651 31.5336C30.9943 31.2701 31.7214 29.9713 31.5408 29.7903C31.4988 29.7482 31.3478 29.9956 31.2052 30.3401ZM35.1752 30.0384C34.9801 30.5474 35.0376 30.6788 35.2759 30.2684C35.394 30.0651 35.448 29.8561 35.3958 29.8041C35.3439 29.7518 35.2444 29.8573 35.1752 30.0384ZM10.1808 30.5367C10.1808 30.9866 10.0864 31.1442 9.81687 31.1442C9.61671 31.1442 9.34376 31.2535 9.21032 31.3872C8.75077 31.8474 8.94021 30.8957 9.40725 30.3978C9.99297 29.7735 10.1808 29.8071 10.1808 30.5367ZM26.9137 30.2749C27.1652 30.3233 27.5292 30.3214 27.7224 30.2708C27.9157 30.2202 27.7099 30.1805 27.2651 30.1827C26.8203 30.185 26.6622 30.2265 26.9137 30.2749ZM32.8411 43.2095C32.8508 43.4454 32.8987 43.4934 32.9632 43.332C33.0216 43.1858 33.0143 43.0111 32.9472 42.9438C32.8801 42.8766 32.8324 42.9961 32.8411 43.2095ZM32.2185 44.3184C32.2185 44.4362 32.3095 44.4765 32.4207 44.4077C32.5319 44.3388 32.6229 44.2424 32.6229 44.1932C32.6229 44.144 32.5319 44.1039 32.4207 44.1039C32.3095 44.1039 32.2185 44.2005 32.2185 44.3184ZM32.0058 46.0163C32.2727 46.301 32.5216 46.5339 32.5588 46.5339C32.741 46.5339 32.0865 45.7164 31.8233 45.6153C31.6567 45.5514 31.7388 45.7318 32.0058 46.0163ZM35.7484 52.2173C35.675 52.336 35.6585 52.4767 35.7114 52.5298C35.7644 52.5828 35.8616 52.4856 35.9276 52.3137C36.0642 51.9569 35.9478 51.8941 35.7484 52.2173ZM56.5676 58.633C54.7828 61.2681 49.0418 66.5065 43.7582 70.3211C39.7805 73.1931 30.8465 78.9332 30.3546 78.9332C30.1076 78.9332 23.9936 75.0864 21.0986 73.1094C17.9965 70.9911 14.3192 68.2283 11.8993 66.1981C9.46891 64.1587 5.1853 59.8411 4.34362 58.5824L3.66651 57.5699L3.80804 58.57C4.11212 60.7203 5.51869 63.7794 7.44487 66.4797C11.2855 71.8637 19.6493 78.8075 28.241 83.7449L30.425 85L31.8779 84.2734C36.1496 82.1371 42.5079 77.9351 46.404 74.6735C52.5101 69.5615 56.6475 63.4366 57.3759 58.4305C57.453 57.9014 57.4801 57.4687 57.436 57.4687C57.3921 57.4687 57.0013 57.9925 56.5676 58.633ZM37.1637 59.7097C36.9462 60.0622 37.1938 60.1369 37.4712 59.8022C37.6307 59.6098 37.6461 59.4936 37.5119 59.4936C37.3938 59.4936 37.2369 59.5908 37.1637 59.7097Z" fill="url(#paint0_linear_188_1368)" fill-opacity="0.5"/>
<path fill-rule="evenodd" clip-rule="evenodd" d="M21.4018 0.175669C15.9771 0.525582 8.45234 1.51558 7.52898 2.00076C7.34924 2.09533 7.14565 2.52604 7.0767 2.95796C6.59996 5.94417 3.95381 8.87388 1.17018 9.49797L0.0717302 9.74401L0.0246216 25.7596C-0.0303717 44.4686 -0.0390635 44.1033 0.506826 46.3314C2.61537 54.9379 9.61569 62.7279 23.5248 71.9457C26.5662 73.9613 30.3166 76.3008 30.5067 76.3008C30.707 76.3008 35.4896 73.3081 38.0818 71.5605C51.6609 62.4067 58.4186 54.7994 60.4932 46.3314C61.0391 44.1033 61.0304 44.4686 60.9754 25.7596L60.9283 9.74401L59.8422 9.50061C58.5031 9.20051 57.2577 8.42252 56.1131 7.1713C55.1449 6.11265 54.116 4.1215 53.9215 2.92921C53.836 2.40555 53.6558 2.09452 53.3683 1.97424C52.1835 1.47934 44.3284 0.523557 38.4835 0.163317C34.8602 -0.060036 24.9439 -0.052746 21.4018 0.175669ZM33.5127 8.0641C33.613 8.16211 33.7153 8.57844 33.7402 8.9893C33.7671 9.43095 33.9199 9.81184 34.114 9.92058C34.4733 10.1221 34.556 10.9025 34.2505 11.2085C34.1292 11.33 34.2375 11.4008 34.5448 11.4008C34.9185 11.4008 35.0157 11.3071 34.9648 10.9958C34.8679 10.4048 35.1694 9.9467 35.7515 9.8003C36.0398 9.72781 36.2622 9.52632 36.2622 9.33739C36.2622 8.87388 36.8552 8.26214 37.3044 8.26214C37.7688 8.26214 37.7763 8.19046 37.1671 9.56986C36.8865 10.2055 36.603 11.2421 36.5373 11.8733C36.4201 13.0005 36.4314 13.0334 37.1813 13.7295C39.2411 15.6419 39.2949 15.7083 39.2949 16.3417C39.2949 16.8411 39.2096 16.9695 38.8772 16.9695C38.6475 16.9695 38.2609 16.8733 38.0179 16.7558C37.5913 16.5495 37.5897 16.5529 37.9688 16.8571C38.1884 17.0333 38.748 17.172 39.2385 17.172H40.1157L39.6548 17.8064C39.4012 18.1553 38.9209 18.5617 38.5873 18.7097C38.2537 18.8575 38.1172 18.9807 38.284 18.9835C38.4508 18.9861 38.7217 18.9031 38.8859 18.799C39.4243 18.458 39.916 19.135 39.7745 20.0223C39.6794 20.6176 39.7498 20.9268 40.0893 21.4043L40.5268 22.0195L40.0009 22.1515C39.7118 22.2242 39.0175 22.2398 38.4581 22.186C37.864 22.1287 37.5533 22.1592 37.7108 22.2593C37.8592 22.3536 38.1756 22.432 38.414 22.4338C38.6524 22.4354 38.9025 22.581 38.97 22.7572C39.1435 23.21 39.0957 26.102 38.9069 26.5866C38.7634 26.9549 38.7199 26.9327 38.4105 26.3335C38.0161 25.5697 37.7814 25.4419 38.1135 26.1719C38.3058 26.5945 38.2634 26.7565 37.823 27.2808C37.5393 27.6183 37.2444 28.1813 37.1675 28.532C36.9894 29.344 36.3833 30.3925 35.4227 31.5496C34.0859 33.16 33.723 34.654 34.3206 36.0865C34.4935 36.5008 35.1799 37.2172 36.0897 37.9331C39.0472 40.2595 39.6772 41.0373 39.7267 42.4232C39.7419 42.8464 39.7923 42.9995 39.8386 42.7632C39.914 42.3787 40.0215 42.4366 40.8725 43.3209C41.6578 44.1369 42.0025 44.341 42.8636 44.5006C44.1567 44.74 45.8173 44.4962 46.5386 43.9612C48.0766 42.8203 48.3898 41.2771 47.3696 39.8663C46.6729 38.903 45.756 38.434 44.57 38.434C43.6576 38.434 43.5926 38.5027 43.2698 39.8074C43.0935 40.5206 42.8743 40.8569 42.386 41.1643C41.712 41.5881 41.532 42.2136 41.9602 42.6425C42.0919 42.7743 42.1404 42.9414 42.0682 43.0139C41.9958 43.0862 41.6153 42.8235 41.2223 42.4299C40.345 41.5513 40.2292 40.475 40.9574 39.9643C41.2045 39.791 41.3066 39.649 41.1843 39.649C41.0619 39.649 40.8486 39.7857 40.7102 39.9528C40.3616 40.3733 39.8305 40.3324 39.396 39.8515C39.0395 39.457 39.0428 39.4465 39.5219 39.4465C39.7925 39.4465 40.1814 39.2503 40.3867 39.0103C40.7494 38.5861 40.7492 38.5788 40.381 38.7398C39.6376 39.065 37.7969 38.691 36.8633 38.0252C35.6807 37.1818 35.2848 34.9126 36.0339 33.2704C36.4714 32.3112 38.1898 30.6596 38.5903 30.8135C38.7522 30.8759 38.9225 30.755 38.9949 30.5264C39.083 30.2481 39.303 30.1317 39.7401 30.1317H40.3604L39.8276 29.7119C39.1388 29.1694 39.1629 28.7715 39.9354 27.9202C40.5316 27.2631 40.5781 27.2469 40.8393 27.6046C40.9906 27.8119 41.1145 28.2193 41.1145 28.5099C41.1145 29.0234 41.434 29.5242 41.7615 29.5242C42.1212 29.5242 41.8941 28.1578 41.4178 27.4557C40.8561 26.6279 40.8017 26.2622 41.1446 25.6203L41.3769 25.1855L41.5377 25.6205C41.701 26.063 42.5298 26.6488 42.5298 26.3219C42.5298 26.2233 42.2585 25.7418 41.9269 25.2515C41.439 24.5305 41.3234 24.1461 41.3203 23.2359C41.3171 22.2305 41.3862 22.0438 41.9738 21.4744C42.5549 20.911 44.1472 20.0496 44.1472 20.2985C44.1472 20.3503 44.0486 20.6097 43.9281 20.8746C43.7429 21.2818 43.806 21.5098 44.3349 22.3453C45.1066 23.5642 45.3577 24.4341 45.3591 25.8939C45.3605 27.3113 44.941 28.5419 44.0324 29.7848C43.1772 30.9548 42.2678 31.5463 41.3167 31.5516C40.7852 31.5544 40.6845 31.6043 40.9123 31.7517C41.0791 31.8596 41.6113 31.9493 42.0947 31.9511L42.9738 31.9542L42.5599 32.6123C41.9465 33.5877 41.624 33.7309 41.0969 33.2619L40.6513 32.8654L40.8954 33.3309C41.0822 33.6873 41.0848 33.9623 40.9065 34.5032C40.7306 35.0368 40.7308 35.2787 40.9071 35.4916C41.0905 35.7127 41.0537 35.82 40.7364 35.9899C39.6495 36.5727 38.7868 35.8435 39.0709 34.5822C39.1592 34.1899 39.1612 33.6887 39.0751 33.4684C38.9417 33.1262 38.9168 33.1195 38.9047 33.4223C38.8879 33.843 38.8101 33.8562 38.2846 33.5276C37.6892 33.1552 37.2296 33.7159 37.2023 34.8484C37.1766 35.9051 37.5648 36.7503 38.1647 36.9437C38.7763 37.1407 40.3244 37.0765 40.9805 36.8266C41.291 36.7084 41.8577 36.6116 42.2397 36.6116C42.7957 36.6116 42.9342 36.532 42.9342 36.2131C42.9342 35.9869 42.7006 35.692 42.3945 35.5315L41.8549 35.2482L42.3931 34.895C42.7595 34.6546 43.1092 34.586 43.4887 34.68C43.9382 34.7911 43.9972 34.7678 43.7934 34.5605C43.5021 34.2638 43.4507 33.3716 43.7249 33.3716C44.0534 33.3716 44.956 34.6052 44.956 35.054C44.956 35.4849 47.1518 37.783 47.9958 38.2354C48.3427 38.4213 48.393 38.3824 48.393 37.9286C48.393 37.6427 48.5295 37.3563 48.6963 37.2924C48.8631 37.2282 48.9996 37.0911 48.9996 36.9878C48.9996 36.8815 48.8247 36.8936 48.597 37.0155C48.0673 37.2997 47.1735 36.8457 46.5063 35.9537C45.8698 35.1028 45.7022 34.5226 45.8708 33.7535L46.0071 33.1321L46.554 33.6567C47.311 34.3831 47.7277 34.3446 47.1965 33.5976C46.6541 32.8344 46.2932 31.1073 46.459 30.0683C46.6476 28.8874 47.5295 27.3794 48.5663 26.4655C49.3894 25.7398 49.556 25.6768 50.6506 25.6768C51.762 25.6768 51.854 25.6401 52.0513 25.1205C52.1676 24.8146 52.2234 24.3589 52.1754 24.1081C52.0766 23.5899 52.1114 23.5716 52.65 23.8604C53.6271 24.3841 53.9498 26.295 53.2543 27.4377C52.7624 28.2457 52.0592 28.7144 50.8497 29.0407C49.985 29.2739 49.9622 29.2954 50.5665 29.3081C51.333 29.3239 51.4065 29.5754 50.7741 30.0189C50.3894 30.289 50.3768 30.3342 50.6864 30.3342C50.8853 30.3342 51.2317 30.2358 51.4563 30.1153C52.0208 29.8128 52.1726 30.0456 51.7302 30.5355C51.3218 30.9872 50.4264 31.0668 49.7444 30.7119C49.5016 30.5853 49.3635 30.5474 49.4377 30.6274C49.5117 30.7074 49.3981 30.9476 49.185 31.161C48.6822 31.6646 48.6595 32.2583 49.1512 32.0501C49.3457 31.9675 49.7709 31.9149 50.096 31.9331C50.4211 31.9511 50.7574 31.8521 50.8433 31.7128C51.1122 31.2768 51.2782 31.7008 51.1358 32.4606C51.0442 32.949 50.8154 33.302 50.4403 33.5332L49.8811 33.8779L50.2499 36.1053C50.6654 38.6136 50.6049 39.3886 49.9314 40.2C49.6098 40.5876 49.427 41.1339 49.3447 41.9552C49.1413 43.984 47.8306 45.6137 45.9907 46.1256C44.6705 46.493 42.0573 46.3492 40.2795 45.8118C40.0424 45.7399 39.8584 45.9418 39.6224 46.532C39.0945 47.8537 39.1637 47.9999 40.81 49.0444C42.4873 50.1085 42.9342 50.6091 42.9342 51.4233C42.9342 51.7609 43.1663 52.2025 43.5407 52.5776C43.9447 52.9822 44.1472 53.3878 44.1472 53.7915C44.1472 54.1252 44.2024 54.5422 44.27 54.7184C44.4566 55.2052 43.7588 55.1203 43.1596 54.5831L42.6513 54.1275L42.991 54.6712C43.4143 55.3489 43.7736 56.8612 43.5112 56.8612C43.1026 56.8612 41.7304 56.0317 41.4311 55.6039C41.257 55.3548 41.1145 55.2467 41.1145 55.3633C41.1145 55.4801 41.3401 55.7879 41.6159 56.0473C41.9608 56.3719 42.083 56.6562 42.0074 56.9584C41.9408 57.2234 42.0227 57.5017 42.2136 57.6604C42.3874 57.805 42.5298 58.0644 42.5298 58.2369C42.5298 58.4095 42.6891 58.7308 42.8836 58.9511C43.2287 59.3419 43.2227 59.3482 42.6309 59.2057C42.2973 59.1255 41.7528 58.8157 41.421 58.5174C40.9572 58.1004 40.9081 58.0828 41.2089 58.441L41.6004 58.907L41.0037 59.3956C40.6754 59.6641 40.328 59.8873 40.2316 59.8913C40.1354 59.8954 40.1056 60.0871 40.1659 60.3174C40.3272 60.9356 39.9293 61.8875 39.4451 62.0412C38.9609 62.1953 38.4494 62.6538 38.1079 63.2398C37.9104 63.579 37.8792 63.4637 37.917 62.5321C37.952 61.6733 37.8922 61.4058 37.6554 61.36C37.3776 61.3066 36.2458 62.1684 36.2573 62.4245C36.2998 63.3623 36.2751 63.3992 35.8119 63.091C35.2911 62.7447 34.9306 61.3993 35.2541 61.0091C35.4045 60.8275 35.3762 60.7222 35.1536 60.6367C34.9686 60.5656 34.7426 60.6788 34.5942 60.9168C34.2466 61.4742 34.0372 61.4145 34.0438 60.7592C34.0473 60.4144 34.2782 59.9776 34.6504 59.6117C35.3501 58.924 35.3232 58.7918 34.5436 59.0886C34.2347 59.2063 33.929 59.2492 33.8639 59.184C33.7161 59.036 34.2865 58.0043 34.4931 58.0458C34.5766 58.0624 34.8267 57.8939 35.0491 57.6711C35.5392 57.1803 37.0005 57.1183 37.5883 57.5634C38.1542 57.9921 38.284 57.9445 38.284 57.3087C38.284 56.9981 38.4211 56.2164 38.5887 55.5721C38.9417 54.2149 38.8566 53.9758 37.7506 53.2166C37.2334 52.8617 36.9751 52.5332 36.9854 52.2441C36.9981 51.8903 36.9468 51.8524 36.7155 52.0446C36.5466 52.1849 36.4644 52.517 36.5143 52.8572C36.5857 53.3442 36.5343 53.4238 36.1799 53.375C35.8604 53.3311 35.708 53.4809 35.5367 54.0058C35.4027 54.4174 35.2547 54.6007 35.1688 54.4614C35.0899 54.3334 34.8032 54.2287 34.5317 54.2287C34.0746 54.2287 34.0382 54.1544 34.0382 53.2203C34.0382 52.6656 33.8849 51.8283 33.6977 51.3598C33.4476 50.7338 33.4211 50.486 33.5978 50.4271C33.7608 50.3726 33.7078 50.1806 33.4328 49.8305C33.1741 49.501 33.0176 48.976 33.0006 48.3796C32.9751 47.4842 32.9688 47.4747 32.8489 48.1538L32.724 48.8626H30.0625C28.5987 48.8626 27.3397 48.9237 27.2647 48.9984C27.1897 49.0734 27.3638 49.5369 27.6517 50.0288C28.0579 50.7231 28.1749 51.1959 28.1749 52.1436C28.1749 53.0717 28.2752 53.4918 28.594 53.8976C29.001 54.416 29.0018 54.4312 28.6211 54.4312C28.4058 54.4312 28.0069 54.2558 27.735 54.0416L27.2404 53.652L27.3682 54.6491C27.4384 55.1975 27.4525 55.6462 27.3996 55.6462C27.3466 55.6462 26.999 55.4137 26.627 55.1296L25.9509 54.6131V55.5346C25.9509 56.0415 25.8741 56.4562 25.7801 56.4562C25.5698 56.4562 25.0336 55.855 24.8773 55.4437C24.8139 55.2766 24.8128 55.6496 24.8751 56.2725C24.9968 57.4919 24.736 58.2786 24.2097 58.2786C23.9683 58.2786 23.9121 58.4722 23.9602 59.1392C23.9968 59.6481 23.9412 59.964 23.824 59.9122C23.5047 59.771 22.9182 58.9481 22.9182 58.6415C22.9182 58.4864 22.8125 58.1351 22.6835 57.8611L22.4485 57.3627L21.877 57.9352C21.5626 58.2501 21.2031 58.4445 21.0782 58.3673C20.7789 58.182 20.4718 58.6899 20.6113 59.1392C20.672 59.334 20.6396 59.4936 20.5397 59.4936C20.2219 59.4936 19.899 58.6085 19.9328 57.8293C19.9506 57.415 19.9245 57.0357 19.8748 56.9865C19.6493 56.7632 18.6107 57.1552 18.5214 57.4974C18.3847 58.0207 18.1332 57.9672 17.9868 57.3834C17.8526 56.8472 18.0082 56.2537 18.2834 56.2537C18.379 56.2537 18.4088 56.1263 18.3489 55.9704C18.2893 55.8147 18.3376 55.6269 18.4565 55.5534C18.9441 55.2515 18.6516 54.9976 17.9648 55.1266C17.1581 55.2783 17.0794 55.0932 17.6575 54.4031C17.9989 53.995 18.0875 53.9695 18.2608 54.2287C18.4361 54.4905 18.4644 54.4845 18.4672 54.1852C18.4712 53.7192 19.191 53.3598 19.9087 53.4653C20.2296 53.5125 20.492 53.4843 20.492 53.4029C20.492 53.3215 20.8333 53.3003 21.2502 53.356C21.8268 53.4331 22.1416 53.3521 22.5644 53.0184C23.0872 52.6055 23.1204 52.4838 23.1204 50.974C23.1204 49.6671 23.0628 49.3688 22.8106 49.3688C22.6402 49.3688 22.4219 49.5737 22.3254 49.8244C22.1687 50.2314 22.1346 50.242 22.006 49.923C21.9233 49.7179 21.9791 49.4217 22.1374 49.2261C22.2914 49.0357 22.3086 48.9486 22.1764 49.028C21.9483 49.1649 21.3008 48.6862 21.3008 48.3806C21.3008 48.1115 21.8942 47.4366 21.9008 47.6982C21.9045 47.8375 22.0037 47.9513 22.1214 47.9513C22.2391 47.9513 22.2781 47.8584 22.2081 47.7448C21.956 47.3362 22.5514 46.1457 23.3998 45.3624C24.1606 44.6602 26.1238 43.7034 26.8179 43.6965C27.2034 43.6929 30.2275 42.9256 30.3532 42.7996C30.4155 42.7375 30.292 42.686 30.0789 42.6856C29.8656 42.6852 29.4003 42.5072 29.0447 42.29C28.012 41.6594 24.94 39.0168 24.94 38.759C24.94 38.6298 25.0902 38.3095 25.2736 38.0471C25.4997 37.7237 25.5233 37.5981 25.3468 37.6571C25.2035 37.7048 24.9317 38.14 24.7427 38.6242C24.4912 39.2685 24.3646 39.4147 24.2706 39.1695C24.2 38.9854 24.1877 38.5395 24.2433 38.1787C24.3385 37.5607 24.3317 37.552 24.1258 38.029C24.0057 38.3075 23.5826 38.8698 23.1855 39.2784C22.598 39.8831 22.4803 40.138 22.5547 40.6453C22.6622 41.3801 22.4587 41.4462 22.0199 40.8188C21.5903 40.2047 21.6249 39.3854 22.122 38.4095C22.4829 37.701 22.5203 37.3788 22.4008 36.0069L22.2627 34.4226L22.8432 34.1077C23.1624 33.9346 23.3222 33.7892 23.1982 33.7847C22.8438 33.772 21.9073 34.5848 21.9073 34.9051C21.9073 35.2943 21.5763 35.2729 21.4235 34.8738C21.2171 34.3353 21.2862 33.4832 21.5705 33.0624C21.7187 32.8427 21.898 32.5029 21.969 32.3075C22.0864 31.9829 22.0284 31.9874 21.3024 32.3583C20.8651 32.5819 20.0092 33.171 19.4007 33.6673C18.491 34.4094 18.2784 34.5084 18.2066 34.2239C18.1205 33.8827 18.1839 34.4133 18.395 35.8016L18.5028 36.5103L18.0317 35.9646C17.6975 35.5774 17.3303 35.4015 16.7691 35.3593C16.0315 35.3039 15.962 35.346 15.7495 35.9784C15.5093 36.6926 14.8961 37.2832 14.591 37.0943C14.4915 37.033 14.2254 37.218 13.9994 37.5058C13.4549 38.1993 13.2135 38.1661 13.2135 37.3979C13.2135 36.8667 13.2774 36.7835 13.6177 36.8726C14.0202 36.9781 14.0202 36.9767 13.6233 36.4712C13.2592 36.0075 13.2495 35.9047 13.5121 35.2753C13.8785 34.3971 13.5172 34.3339 12.7584 35.1435C12.4713 35.4496 12.0014 35.8642 11.7141 36.0642C11.4268 36.2643 11.1917 36.6059 11.1917 36.8236C11.1917 37.3134 11.015 37.3272 10.6644 36.8647C10.363 36.467 10.2894 35.5991 10.557 35.5991C10.6529 35.5991 10.6897 35.3814 10.6389 35.1155C10.5882 34.8497 10.6448 34.4485 10.7647 34.2239C10.9697 33.8402 10.9349 33.8224 10.1774 33.9242C9.67433 33.9919 9.37207 33.9514 9.37207 33.8165C9.37207 33.3283 9.80615 32.5141 10.3304 32.0192C10.6957 31.6743 10.8011 31.4613 10.6357 31.4026C10.2046 31.2497 10.3385 30.1858 10.8324 29.8395C11.7139 29.2209 13.162 29.5886 13.9883 30.6408C14.2254 30.9425 14.448 31.0707 14.5234 30.9486C14.5946 30.8333 14.8623 30.7392 15.1185 30.7392C15.3744 30.7392 15.9217 30.4705 16.3346 30.1418C16.8008 29.7707 17.4429 29.492 18.0303 29.4062C18.8902 29.2802 21.3008 28.2432 21.3008 27.9992C21.3008 27.9431 20.8489 28.1268 20.2965 28.407C19.7444 28.6873 19.1985 28.9167 19.0834 28.9167C18.9686 28.9167 18.8707 28.5296 18.8661 28.0561L18.8576 27.1955L18.5032 27.8613C18.116 28.5885 17.871 28.5348 17.8509 27.7186C17.8392 27.2429 17.823 27.2328 17.6712 27.6076C17.5796 27.8342 17.3722 28.1296 17.2104 28.2641C16.9702 28.4637 16.874 28.416 16.6866 28.0039C16.5604 27.7263 16.3613 27.4993 16.244 27.4993C16.1269 27.4993 15.9571 27.299 15.8667 27.0544C15.7327 26.6919 15.6773 26.799 15.5667 27.6333C15.4832 28.2635 15.2768 28.7971 15.0299 29.0208C14.6377 29.3764 14.6288 29.3699 14.6288 28.7355C14.6288 28.3787 14.4856 27.8095 14.311 27.4709C14.1361 27.1323 14.0422 26.7267 14.1023 26.5698C14.1666 26.4023 14.0863 26.2843 13.9084 26.2843C13.7416 26.2843 13.5528 26.421 13.4889 26.588C13.2723 27.1528 13.0368 26.8964 12.8937 25.94C12.811 25.388 12.8411 24.7496 12.9652 24.4201L13.1793 23.8519L12.6638 24.2581C11.9952 24.7848 10.9082 24.7854 10.383 24.2593C9.89612 23.7717 9.8761 23.4935 10.2948 23.03C10.5835 22.7104 10.5793 22.6827 10.2443 22.7102C9.95819 22.7339 9.88702 22.6104 9.92038 22.1479C9.94404 21.8221 10.0914 21.427 10.2481 21.2703C10.4928 21.0251 10.5512 21.0585 10.6638 21.5084C10.736 21.7964 10.8955 22.0319 11.018 22.0319C11.1731 22.0319 11.1775 22.109 11.0324 22.285C10.8733 22.478 10.9756 22.5411 11.4626 22.5513C12.0055 22.5622 12.1086 22.4861 12.1484 22.045C12.314 20.2098 12.4725 19.266 12.6525 19.045C12.7936 18.8717 12.7907 18.7919 12.6436 18.7919C12.5255 18.7919 12.3672 18.8916 12.292 19.0135C12.2168 19.1354 11.9384 19.1935 11.6735 19.1429C11.1838 19.0491 11.0817 19.281 11.1812 20.26C11.2475 20.9127 10.8551 20.6233 10.5922 19.8261C10.3039 18.9513 10.4513 18.4953 10.9594 18.6889C11.2267 18.7907 11.2426 18.7654 11.0401 18.5609C10.901 18.4208 10.7873 18.1486 10.7873 17.9562C10.7873 17.4846 11.7337 16.767 12.3557 16.767C12.7511 16.767 12.811 16.7095 12.6355 16.4977C12.5034 16.3385 12.1632 16.2652 11.8021 16.3182C11.056 16.428 11.0263 16.1832 11.7079 15.5421C12.143 15.1324 12.2533 15.1031 12.4123 15.3548C12.5526 15.5769 12.6015 15.585 12.6039 15.3868C12.6058 15.2159 12.8065 15.1432 13.1626 15.1843C13.5809 15.2325 13.8087 15.4414 14.0843 16.0295C14.2857 16.4592 14.5034 16.7575 14.5683 16.6925C14.6332 16.6275 14.5867 16.4539 14.4648 16.3069C14.3431 16.1599 14.2547 15.8616 14.2685 15.6439C14.2824 15.4262 14.2264 15.0431 14.1444 14.7926C14.0239 14.4251 14.071 14.337 14.3882 14.337C14.6045 14.337 14.8946 14.4737 15.0331 14.6408C15.1716 14.8078 15.2351 14.9445 15.1745 14.9445C15.1138 14.9445 15.3392 15.2199 15.6753 15.5565C16.1015 15.9833 16.2422 16.2741 16.1407 16.5183C15.9029 17.0898 15.7828 18.7176 15.9231 19.4662C16.0837 20.3226 17.3647 21.8186 18.5214 22.4998C18.9937 22.7781 19.6022 23.244 19.8736 23.535C20.6611 24.3792 21.9079 24.6453 24.1388 24.4456C27.0467 24.185 27.3587 24.1028 27.5724 23.5396C27.7572 23.0529 28.1749 22.8499 28.1749 23.2468C28.1749 23.6166 28.7042 23.4564 29.1883 22.9405C29.5107 22.5966 29.7321 22.498 29.8706 22.6367C29.9832 22.7495 30.2165 22.8412 30.3888 22.8406C30.5613 22.8398 30.4422 22.7035 30.1244 22.5375C29.5768 22.2516 29.5255 22.2623 29.1492 22.7412C28.7016 23.311 28.3771 23.3959 28.3771 22.9431C28.3771 22.5636 28.4576 22.5488 27.2815 23.1464C26.2142 23.6887 24.9133 23.8106 24.5864 23.3987C24.4758 23.2596 24.3964 22.8593 24.4099 22.5091L24.4346 21.8727L23.6845 22.256C21.8493 23.1938 20.492 22.2546 20.492 20.0472C20.492 18.8952 20.697 18.8804 21.2126 19.9948C21.9823 21.6591 23.0893 21.8695 25.0007 20.715C25.6456 20.3256 26.2599 20.0069 26.3654 20.0069C26.4711 20.0069 26.5575 19.9257 26.5575 19.8263C26.5575 19.5501 25.6005 19.3709 24.8642 19.5094C24.2718 19.6205 24.2146 19.6924 24.2926 20.225C24.3933 20.9121 24.0561 21.0151 23.68 20.4119C23.5411 20.1892 23.3428 20.0069 23.2393 20.0069C22.8361 20.0069 22.3117 19.3091 22.3117 18.7725C22.3117 18.4623 22.2207 18.152 22.1095 18.0832C21.9983 18.0143 21.9073 17.7987 21.9073 17.6041C21.9073 17.3613 22.3436 17.0557 23.2947 16.6327C24.5957 16.0536 24.6911 15.9663 24.829 15.2268C25.032 14.1394 25.2603 13.932 26.2542 13.932C27.1861 13.932 27.7143 13.5276 27.6074 12.8959C27.5518 12.5666 27.7465 12.5229 29.5281 12.4631L31.5109 12.3969L29.477 12.3544L27.4432 12.3121L26.6121 10.4896C25.8731 8.86943 25.8229 8.66713 26.1596 8.66713C26.8118 8.66713 27.5734 9.12295 27.6885 9.58221C27.7704 9.90924 27.9159 10.0006 28.252 9.93617C28.8328 9.825 29.2618 10.3385 29.1365 10.9946C29.0467 11.4654 29.0961 11.5021 29.8221 11.5021C30.5544 11.5021 30.5884 11.4762 30.3516 11.0965C30.0342 10.5876 30.3427 10.0129 30.9844 9.91755C31.3249 9.86692 31.3979 9.75818 31.2992 9.44735C31.1013 8.82224 31.3744 8.06167 31.8708 7.85695C32.3483 7.65972 33.2106 7.76866 33.5127 8.0641ZM34.1619 14.5029C34.1055 14.5942 34.3277 14.6292 34.6554 14.5812C34.9832 14.533 35.2513 14.4583 35.2513 14.4154C35.2513 14.2611 34.262 14.3405 34.1619 14.5029ZM26.6586 16.1605C26.3056 16.3132 26.3229 16.3316 26.7956 16.3057C27.0935 16.2895 27.2928 16.2042 27.2386 16.1166C27.1844 16.0289 27.1228 15.9635 27.1015 15.9712C27.0803 15.9791 26.881 16.0641 26.6586 16.1605ZM33.6743 16.2C33.3799 16.4948 33.3599 16.9012 33.6316 17.0693C33.7464 17.1404 33.7798 17.0584 33.71 16.8761C33.6431 16.702 33.7009 16.4237 33.8382 16.2581C34.1366 15.8979 34.018 15.8557 33.6743 16.2ZM26.9578 16.9188C27.0791 17.1695 27.3343 17.3672 27.5249 17.3585C27.8059 17.3455 27.8142 17.3202 27.5684 17.2244C27.4016 17.1594 27.1464 16.9616 27.0013 16.7848C26.7774 16.512 26.7708 16.5323 26.9578 16.9188ZM28.149 16.9188C27.8977 17.24 27.9048 17.2471 28.2255 16.9954C28.5623 16.7307 28.6693 16.5645 28.5029 16.5645C28.461 16.5645 28.3017 16.7238 28.149 16.9188ZM31.2076 18.3363C31.2076 18.4625 31.2986 18.6218 31.4098 18.6907C31.521 18.7595 31.612 19.0084 31.612 19.2435C31.612 19.4788 31.7626 19.8378 31.9466 20.0415C32.2606 20.3892 32.2551 20.4119 31.8574 20.4119C31.3767 20.4119 31.097 20.7246 31.4066 20.9161C31.5196 20.986 31.612 20.9566 31.612 20.8507C31.612 20.745 31.8623 20.5935 32.168 20.5146L32.724 20.3708L32.2691 20.063C32.0188 19.8935 31.8113 19.561 31.8077 19.3241C31.8043 19.0872 31.6678 18.7162 31.5044 18.5001C31.3413 18.2839 31.2076 18.2102 31.2076 18.3363ZM26.0338 21.3452C25.9325 21.3693 25.5995 21.4442 25.2938 21.5119C24.9685 21.5835 24.7378 21.7698 24.7378 21.9602C24.7378 22.2297 24.9152 22.2688 25.7639 22.1872C26.3282 22.1329 26.9275 21.9505 27.0959 21.782C27.369 21.5084 27.3383 21.4663 26.8098 21.3885C26.4843 21.3407 26.1349 21.3211 26.0338 21.3452ZM31.2582 21.3648C31.0079 21.413 30.8033 21.5246 30.8033 21.6129C30.8033 21.8199 31.7857 21.6346 31.9302 21.4003C31.9907 21.3021 31.9666 21.2342 31.8767 21.2494C31.7867 21.2646 31.5085 21.3164 31.2582 21.3648ZM22.8171 25.4743C23.0183 25.697 23.2286 25.8793 23.2842 25.8793C23.3398 25.8793 23.2205 25.697 23.0193 25.4743C22.8181 25.2516 22.6079 25.0693 22.5523 25.0693C22.4967 25.0693 22.6159 25.2516 22.8171 25.4743ZM24.2957 26.2201C24.4414 26.2786 24.6159 26.2713 24.683 26.2041C24.7502 26.1369 24.6309 26.0891 24.4178 26.0978C24.1822 26.1075 24.1343 26.1555 24.2957 26.2201ZM25.1582 26.6048C25.1679 26.8407 25.2158 26.8887 25.2803 26.7273C25.3387 26.5811 25.3314 26.4064 25.2643 26.3392C25.1972 26.2719 25.1495 26.3914 25.1582 26.6048ZM35.6045 28.4143C35.5416 28.9692 35.5121 29.4456 35.539 29.4734C35.6886 29.6277 35.9728 28.1314 35.857 27.8004C35.7602 27.5244 35.6843 27.7086 35.6045 28.4143ZM33.6591 28.5271C33.6316 29.3154 33.1771 29.8549 32.0669 30.417C31.7054 30.5999 31.4098 30.7947 31.4098 30.8498C31.4098 31.03 33.0343 30.1246 33.4399 29.7184C33.6579 29.5001 33.836 29.428 33.836 29.558C33.836 29.6878 33.87 29.7563 33.9114 29.7099C33.9529 29.6635 33.9187 29.2154 33.8356 28.7142C33.69 27.8366 33.6835 27.8297 33.6591 28.5271ZM24.0175 28.7649L23.4237 29.423L24.0807 28.8282C24.6932 28.2738 24.8308 28.1067 24.6746 28.1067C24.6398 28.1067 24.344 28.403 24.0175 28.7649ZM29.1858 28.8762C29.1858 29.1881 29.0722 29.5659 28.9331 29.716C28.7707 29.8911 28.7645 29.9414 28.9159 29.8563C29.0453 29.7836 29.1973 29.8387 29.2538 29.9786C29.31 30.1185 29.3633 29.8002 29.372 29.2711C29.3807 28.742 29.3425 28.3092 29.2869 28.3092C29.2313 28.3092 29.1858 28.5644 29.1858 28.8762ZM36.06 28.5883C36.06 28.6302 36.2193 28.7898 36.4138 28.9426C36.7345 29.1943 36.7415 29.1873 36.4902 28.8661C36.226 28.5287 36.06 28.4216 36.06 28.5883ZM26.3911 29.3165C26.1466 29.6477 25.6519 30.0039 25.2916 30.1082C24.8317 30.2413 24.7641 30.303 25.0644 30.316C25.5466 30.3366 26.4544 29.6905 26.7681 29.1034C27.0744 28.53 26.8981 28.6298 26.3911 29.3165ZM22.3117 29.8063C22.3117 29.85 22.4528 29.9401 22.6255 30.0066C22.8054 30.0756 22.8865 30.0416 22.8157 29.927C22.697 29.7344 22.3117 29.6423 22.3117 29.8063ZM31.2052 30.3401C31.0627 30.6845 30.6638 31.1752 30.3186 31.4303C29.2283 32.2368 29.1824 32.2403 29.292 31.5087C29.3931 30.8325 29.3033 30.9769 28.9723 32.0222L28.7904 32.5963L29.443 32.2091C29.8019 31.9961 30.3069 31.6921 30.5651 31.5336C30.9943 31.2701 31.7214 29.9713 31.5408 29.7903C31.4988 29.7482 31.3478 29.9956 31.2052 30.3401ZM35.1752 30.0384C34.9801 30.5474 35.0376 30.6788 35.2759 30.2684C35.394 30.0651 35.448 29.8561 35.3958 29.8041C35.3439 29.7518 35.2444 29.8573 35.1752 30.0384ZM10.1808 30.5367C10.1808 30.9866 10.0864 31.1442 9.81687 31.1442C9.61671 31.1442 9.34376 31.2535 9.21032 31.3872C8.75077 31.8474 8.94021 30.8957 9.40725 30.3978C9.99297 29.7735 10.1808 29.8071 10.1808 30.5367ZM26.9137 30.2749C27.1652 30.3233 27.5292 30.3214 27.7224 30.2708C27.9157 30.2202 27.7099 30.1805 27.2651 30.1827C26.8203 30.185 26.6622 30.2265 26.9137 30.2749ZM32.8411 43.2095C32.8508 43.4454 32.8987 43.4934 32.9632 43.332C33.0216 43.1858 33.0143 43.0111 32.9472 42.9438C32.8801 42.8766 32.8324 42.9961 32.8411 43.2095ZM32.2185 44.3184C32.2185 44.4362 32.3095 44.4765 32.4207 44.4077C32.5319 44.3388 32.6229 44.2424 32.6229 44.1932C32.6229 44.144 32.5319 44.1039 32.4207 44.1039C32.3095 44.1039 32.2185 44.2005 32.2185 44.3184ZM32.0058 46.0163C32.2727 46.301 32.5216 46.5339 32.5588 46.5339C32.741 46.5339 32.0865 45.7164 31.8233 45.6153C31.6567 45.5514 31.7388 45.7318 32.0058 46.0163ZM35.7484 52.2173C35.675 52.336 35.6585 52.4767 35.7114 52.5298C35.7644 52.5828 35.8616 52.4856 35.9276 52.3137C36.0642 51.9569 35.9478 51.8941 35.7484 52.2173ZM56.5676 58.633C54.7828 61.2681 49.0418 66.5065 43.7582 70.3211C39.7805 73.1931 30.8465 78.9332 30.3546 78.9332C30.1076 78.9332 23.9936 75.0864 21.0986 73.1094C17.9965 70.9911 14.3192 68.2283 11.8993 66.1981C9.46891 64.1587 5.1853 59.8411 4.34362 58.5824L3.66651 57.5699L3.80804 58.57C4.11212 60.7203 5.51869 63.7794 7.44487 66.4797C11.2855 71.8637 19.6493 78.8075 28.241 83.7449L30.425 85L31.8779 84.2734C36.1496 82.1371 42.5079 77.9351 46.404 74.6735C52.5101 69.5615 56.6475 63.4366 57.3759 58.4305C57.453 57.9014 57.4801 57.4687 57.436 57.4687C57.3921 57.4687 57.0013 57.9925 56.5676 58.633ZM37.1637 59.7097C36.9462 60.0622 37.1938 60.1369 37.4712 59.8022C37.6307 59.6098 37.6461 59.4936 37.5119 59.4936C37.3938 59.4936 37.2369 59.5908 37.1637 59.7097Z" fill="url(#paint1_linear_188_1368)" fill-opacity="0.3"/>
<defs>
<linearGradient id="paint0_linear_188_1368" x1="30.5" y1="5.88162e-06" x2="87.482" y2="35.0247" gradientUnits="userSpaceOnUse">
<stop stop-color="white"/>
<stop offset="1" stop-color="white" stop-opacity="0"/>
</linearGradient>
<linearGradient id="paint1_linear_188_1368" x1="25.1038" y1="-50.15" x2="64.2387" y2="-43.9733" gradientUnits="userSpaceOnUse">
<stop stop-color="#4A60DB"/>
<stop offset="0.387957" stop-color="#B2E2E4"/>
<stop offset="0.787325" stop-color="#E4F5F6"/>
<stop offset="1" stop-color="#CFC0C3"/>
</linearGradient>
</defs>
</svg>
