<svg width="79" height="76" viewBox="0 0 79 76" fill="none" xmlns="http://www.w3.org/2000/svg">
<path d="M0 45.2152L7.25195 52.2454C3.16309 14.5044 40.6572 4.44012 55.1611 6.9562L62.4902 0H44.5918C12.9609 4.88413 0 28.4167 0 45.2152Z" fill="url(#paint0_linear_5_3002)" fill-opacity="0.5"/>
<path d="M0 45.2152L7.25195 52.2454C3.16309 14.5044 40.6572 4.44012 55.1611 6.9562L62.4902 0H44.5918C12.9609 4.88413 0 28.4167 0 45.2152Z" fill="url(#paint1_linear_5_3002)" fill-opacity="0.3"/>
<path d="M0 45.2152L7.25195 52.2454C3.16309 14.5044 40.6572 4.44012 55.1611 6.9562L62.4902 0H44.5918C12.9609 4.88413 0 28.4167 0 45.2152Z" fill="url(#paint2_linear_5_3002)"/>
<path d="M0 45.2152L7.25195 52.2454C3.16309 14.5044 40.6572 4.44012 55.1611 6.9562L62.4902 0H44.5918C12.9609 4.88413 0 28.4167 0 45.2152Z" fill="black" fill-opacity="0.2"/>
<path d="M55.1611 6.9562L48.6035 13.0243L48.9893 45.5112H38.4971V51.9494H55.3154L55.2 18.2785L55.1819 13.0243L55.1611 6.9562Z" fill="url(#paint3_linear_5_3002)" fill-opacity="0.5"/>
<path d="M55.1611 6.9562L48.6035 13.0243L48.9893 45.5112H38.4971V51.9494H55.3154L55.2 18.2785L55.1819 13.0243L55.1611 6.9562Z" fill="url(#paint4_linear_5_3002)" fill-opacity="0.3"/>
<path d="M55.1611 6.9562L48.6035 13.0243L48.9893 45.5112H38.4971V51.9494H55.3154L55.2 18.2785L55.1819 13.0243L55.1611 6.9562Z" fill="url(#paint5_linear_5_3002)"/>
<path d="M55.1611 6.9562L48.6035 13.0243L48.9893 45.5112H38.4971V51.9494H55.3154L55.2 18.2785L55.1819 13.0243L55.1611 6.9562Z" fill="black" fill-opacity="0.2"/>
<path d="M38.4971 51.9494V45.5112V23.0146L32.0166 29.2308V51.9494C32.068 55.8221 31.1217 65.0625 26.9248 71.0419L32.0166 76C37.6484 68.5258 38.4971 56.9815 38.4971 51.9494Z" fill="url(#paint6_linear_5_3002)" fill-opacity="0.5"/>
<path d="M38.4971 51.9494V45.5112V23.0146L32.0166 29.2308V51.9494C32.068 55.8221 31.1217 65.0625 26.9248 71.0419L32.0166 76C37.6484 68.5258 38.4971 56.9815 38.4971 51.9494Z" fill="url(#paint7_linear_5_3002)" fill-opacity="0.3"/>
<path d="M38.4971 51.9494V45.5112V23.0146L32.0166 29.2308V51.9494C32.068 55.8221 31.1217 65.0625 26.9248 71.0419L32.0166 76C37.6484 68.5258 38.4971 56.9815 38.4971 51.9494Z" fill="url(#paint8_linear_5_3002)"/>
<path d="M38.4971 51.9494V45.5112V23.0146L32.0166 29.2308V51.9494C32.068 55.8221 31.1217 65.0625 26.9248 71.0419L32.0166 76C37.6484 68.5258 38.4971 56.9815 38.4971 51.9494Z" fill="black" fill-opacity="0.2"/>
<path d="M79 9.91626L55.1819 13.0243L55.2 18.2785L79 9.91626Z" fill="url(#paint9_linear_5_3002)" fill-opacity="0.5"/>
<path d="M79 9.91626L55.1819 13.0243L55.2 18.2785L79 9.91626Z" fill="url(#paint10_linear_5_3002)" fill-opacity="0.3"/>
<path d="M79 9.91626L55.1819 13.0243L55.2 18.2785L79 9.91626Z" fill="url(#paint11_linear_5_3002)"/>
<path d="M79 9.91626L55.1819 13.0243L55.2 18.2785L79 9.91626Z" fill="black" fill-opacity="0.2"/>
<defs>
<linearGradient id="paint0_linear_5_3002" x1="39.5" y1="7.15205e-06" x2="116.357" y2="66.6101" gradientUnits="userSpaceOnUse">
<stop stop-color="white"/>
<stop offset="1" stop-color="white" stop-opacity="0"/>
</linearGradient>
<linearGradient id="paint1_linear_5_3002" x1="32.5115" y1="-44.84" x2="81.877" y2="-33.5545" gradientUnits="userSpaceOnUse">
<stop stop-color="#4A60DB"/>
<stop offset="0.387957" stop-color="#B2E2E4"/>
<stop offset="0.787325" stop-color="#E4F5F6"/>
<stop offset="1" stop-color="#CFC0C3"/>
</linearGradient>
<linearGradient id="paint2_linear_5_3002" x1="32.5115" y1="-44.84" x2="81.877" y2="-33.5545" gradientUnits="userSpaceOnUse">
<stop stop-color="#4A60DB"/>
<stop offset="0.387957" stop-color="#B2E2E4"/>
<stop offset="0.787325" stop-color="#E4F5F6"/>
<stop offset="1" stop-color="#CFC0C3"/>
</linearGradient>
<linearGradient id="paint3_linear_5_3002" x1="39.5" y1="7.15205e-06" x2="116.357" y2="66.6101" gradientUnits="userSpaceOnUse">
<stop stop-color="white"/>
<stop offset="1" stop-color="white" stop-opacity="0"/>
</linearGradient>
<linearGradient id="paint4_linear_5_3002" x1="32.5115" y1="-44.84" x2="81.877" y2="-33.5545" gradientUnits="userSpaceOnUse">
<stop stop-color="#4A60DB"/>
<stop offset="0.387957" stop-color="#B2E2E4"/>
<stop offset="0.787325" stop-color="#E4F5F6"/>
<stop offset="1" stop-color="#CFC0C3"/>
</linearGradient>
<linearGradient id="paint5_linear_5_3002" x1="32.5115" y1="-44.84" x2="81.877" y2="-33.5545" gradientUnits="userSpaceOnUse">
<stop stop-color="#4A60DB"/>
<stop offset="0.387957" stop-color="#B2E2E4"/>
<stop offset="0.787325" stop-color="#E4F5F6"/>
<stop offset="1" stop-color="#CFC0C3"/>
</linearGradient>
<linearGradient id="paint6_linear_5_3002" x1="39.5" y1="7.15205e-06" x2="116.357" y2="66.6101" gradientUnits="userSpaceOnUse">
<stop stop-color="white"/>
<stop offset="1" stop-color="white" stop-opacity="0"/>
</linearGradient>
<linearGradient id="paint7_linear_5_3002" x1="32.5115" y1="-44.84" x2="81.877" y2="-33.5545" gradientUnits="userSpaceOnUse">
<stop stop-color="#4A60DB"/>
<stop offset="0.387957" stop-color="#B2E2E4"/>
<stop offset="0.787325" stop-color="#E4F5F6"/>
<stop offset="1" stop-color="#CFC0C3"/>
</linearGradient>
<linearGradient id="paint8_linear_5_3002" x1="32.5115" y1="-44.84" x2="81.877" y2="-33.5545" gradientUnits="userSpaceOnUse">
<stop stop-color="#4A60DB"/>
<stop offset="0.387957" stop-color="#B2E2E4"/>
<stop offset="0.787325" stop-color="#E4F5F6"/>
<stop offset="1" stop-color="#CFC0C3"/>
</linearGradient>
<linearGradient id="paint9_linear_5_3002" x1="39.5" y1="7.15205e-06" x2="116.357" y2="66.6101" gradientUnits="userSpaceOnUse">
<stop stop-color="white"/>
<stop offset="1" stop-color="white" stop-opacity="0"/>
</linearGradient>
<linearGradient id="paint10_linear_5_3002" x1="32.5115" y1="-44.84" x2="81.877" y2="-33.5545" gradientUnits="userSpaceOnUse">
<stop stop-color="#4A60DB"/>
<stop offset="0.387957" stop-color="#B2E2E4"/>
<stop offset="0.787325" stop-color="#E4F5F6"/>
<stop offset="1" stop-color="#CFC0C3"/>
</linearGradient>
<linearGradient id="paint11_linear_5_3002" x1="32.5115" y1="-44.84" x2="81.877" y2="-33.5545" gradientUnits="userSpaceOnUse">
<stop stop-color="#4A60DB"/>
<stop offset="0.387957" stop-color="#B2E2E4"/>
<stop offset="0.787325" stop-color="#E4F5F6"/>
<stop offset="1" stop-color="#CFC0C3"/>
</linearGradient>
</defs>
</svg>
