<svg width="79" height="79" viewBox="0 0 79 79" fill="none" xmlns="http://www.w3.org/2000/svg">
<path fill-rule="evenodd" clip-rule="evenodd" d="M40.1791 1.92973L40.7928 3.85946L42.7842 3.89497L44.7758 3.93047L43.2703 5.02779C42.4424 5.63131 41.7169 6.15738 41.6581 6.19675C41.5994 6.23626 41.8385 7.13244 42.1893 8.18845C42.5403 9.24459 42.8137 10.1212 42.7968 10.1365C42.78 10.1519 42.0619 9.64776 41.201 9.01622C40.34 8.38468 39.5759 7.86791 39.5029 7.86791C39.4298 7.86791 38.665 8.38571 37.8031 9.01854C36.9412 9.65137 36.2224 10.1555 36.2057 10.1388C36.1887 10.1222 36.4621 9.24459 36.8131 8.18845C37.1639 7.13244 37.4046 6.23626 37.3479 6.19675C37.2912 6.15738 36.5697 5.63131 35.7446 5.02779L34.2443 3.93047L36.2269 3.89497L38.2096 3.85946L38.8234 1.92973C39.161 0.868431 39.466 0 39.5012 0C39.5364 0 39.8414 0.868431 40.1791 1.92973ZM23.0604 6.44785L23.6673 8.38429H25.7018C26.8451 8.38429 27.7058 8.43425 27.6666 8.49828C27.6282 8.56089 26.9045 9.11666 26.0585 9.73322C25.2124 10.3498 24.5202 10.8965 24.5202 10.9479C24.5202 10.9994 24.7799 11.8221 25.0973 12.7763C25.4147 13.7303 25.6594 14.5563 25.6411 14.6115C25.6228 14.6669 24.8943 14.1883 24.0221 13.5481C23.0121 12.8067 22.3846 12.4246 22.2939 12.4956C21.4172 13.1815 19.2364 14.7187 19.1967 14.6786C19.1683 14.6501 19.4037 13.8491 19.7199 12.8987C20.0361 11.9483 20.2925 11.0811 20.2897 10.9716C20.2868 10.8622 19.5547 10.2497 18.6626 9.61071L17.0406 8.44884L19.1145 8.41334L21.1885 8.37797L21.7935 6.44462C22.1263 5.38138 22.4108 4.5114 22.4259 4.5114C22.441 4.5114 22.7266 5.3828 23.0604 6.44785ZM59.8884 8.41334L61.9598 8.44884L60.3877 9.59444C59.523 10.2244 58.7856 10.8183 58.7493 10.9141C58.7128 11.01 58.9469 11.8846 59.2696 12.858C59.5923 13.8313 59.8336 14.6505 59.8059 14.6785C59.7781 14.7065 59.2171 14.3307 58.5592 13.8434C57.9015 13.3561 57.1847 12.8311 56.9665 12.677L56.57 12.3967L54.9829 13.5565C54.1101 14.1944 53.3807 14.6701 53.362 14.6137C53.3433 14.5572 53.5877 13.7303 53.9051 12.7763C54.2226 11.8221 54.4822 10.9999 54.4822 10.9492C54.4822 10.8983 53.7482 10.3149 52.851 9.65279L51.2196 8.44884L53.2784 8.41347L55.337 8.37809L55.9551 6.41247L56.573 4.44685L57.1951 6.41235L57.8171 8.37797L59.8884 8.41334ZM13.271 21.0357H15.3234L13.8078 22.1453C12.9742 22.7556 12.2276 23.3219 12.1487 23.404C12.0423 23.5146 12.1645 24.0355 12.6218 25.4214C12.9609 26.4489 13.2234 27.3048 13.2049 27.3232C13.1866 27.3418 12.4561 26.8341 11.5817 26.1951C10.7072 25.556 9.9214 25.0603 9.83535 25.0936C9.74931 25.1269 9.01319 25.6508 8.19948 26.2578C7.38589 26.8648 6.69907 27.3615 6.67346 27.3615C6.64773 27.3615 6.90151 26.5046 7.23737 25.4573C7.9521 23.2287 8.09384 23.6084 5.97883 22.0849L4.53118 21.0422L6.61136 21.0067L8.69142 20.9712L9.21934 19.2875C9.50974 18.3615 9.79041 17.491 9.84291 17.353C9.91269 17.1697 10.1105 17.6309 10.5785 19.069L11.2187 21.0357H13.271ZM69.7474 19.1638L70.3106 20.9712L72.3968 21.0067L74.4832 21.0423L72.9656 22.1427C72.1309 22.7479 71.382 23.3129 71.3015 23.3981C71.1908 23.5153 71.3046 24.0197 71.7671 25.4626L72.3792 27.3719L72.0415 27.1496C71.8558 27.0272 71.1672 26.5279 70.5113 26.0398C69.8552 25.5517 69.2491 25.1254 69.1645 25.0927C69.0799 25.0599 68.2952 25.556 67.4207 26.1951C66.5463 26.8341 65.8158 27.3418 65.7975 27.3232C65.7791 27.3048 66.0415 26.4489 66.3806 25.4214C66.8408 24.0272 66.9608 23.5137 66.8537 23.3981C66.7748 23.3129 66.0254 22.7465 65.1881 22.1394L63.6661 21.0357H65.7258H67.7854L68.4002 19.1112C68.7384 18.0526 69.0531 17.2247 69.0996 17.2715C69.1461 17.3183 69.4375 18.1698 69.7474 19.1638ZM8.67605 38.2346L10.7498 38.2701L9.12638 39.432C8.23354 40.071 7.50177 40.681 7.50011 40.7875C7.49857 40.894 7.75299 41.7625 8.06567 42.7177C8.37823 43.6728 8.61293 44.4755 8.58706 44.5015C8.56133 44.5274 7.88629 44.0621 7.08704 43.4675C6.2878 42.8729 5.56833 42.3468 5.48817 42.2983C5.40738 42.2494 4.64078 42.7252 3.76651 43.367C2.89978 44.0031 2.16828 44.5012 2.14101 44.4738C2.11386 44.4463 2.35752 43.6033 2.68262 42.6004C3.00772 41.5974 3.24461 40.7294 3.20901 40.6713C3.17341 40.6133 2.43678 40.0493 1.57211 39.4179L0 38.2701L2.05931 38.2347L4.1185 38.1994L4.73694 36.2337L5.35526 34.2681L5.97883 36.2336L6.6024 38.1992L8.67605 38.2346ZM74.2807 36.266L74.8839 38.1994L76.942 38.2347L79 38.2701L77.3686 39.474C76.4714 40.1362 75.7373 40.7196 75.7373 40.7704C75.7373 40.8212 75.997 41.6434 76.3144 42.5975C76.6318 43.5516 76.8767 44.374 76.8586 44.425C76.8406 44.476 76.1122 43.9994 75.2403 43.3659L73.655 42.2141L73.2556 42.4963C73.036 42.6516 72.3181 43.1773 71.6603 43.6646C71.0024 44.152 70.4412 44.5277 70.4132 44.4994C70.3851 44.4711 70.6209 43.6703 70.937 42.7199C71.2533 41.7695 71.5091 40.9024 71.5055 40.7929C71.5021 40.6834 70.7753 40.071 69.8905 39.432L68.2819 38.2701L70.3438 38.2346L72.4057 38.1992L73.0107 36.2659C73.3434 35.2026 73.6296 34.3327 73.6467 34.3327C73.6636 34.3327 73.949 35.2026 74.2807 36.266ZM10.5984 53.5663L11.2095 55.4979L13.2036 55.5335L15.1979 55.569L13.6924 56.6663C12.8645 57.2699 12.139 57.7959 12.0802 57.8353C12.0216 57.8748 12.2606 58.771 12.6114 59.827C12.9624 60.8831 13.2358 61.7605 13.2189 61.777C13.2021 61.7934 12.497 61.2915 11.6519 60.6615C10.8068 60.0316 10.0452 59.5141 9.95943 59.5114C9.87364 59.5086 9.09706 60.0258 8.23392 60.6607C7.37066 61.2955 6.65157 61.8019 6.63582 61.7862C6.6202 61.7703 6.89229 60.8878 7.24057 59.8251C7.58884 58.7623 7.87387 57.8902 7.87412 57.8871C7.87438 57.884 7.15234 57.3611 6.26949 56.7252L4.66422 55.569L6.64799 55.5335L8.63175 55.498L9.24546 53.5683C9.58311 52.507 9.88811 51.6376 9.92332 51.6366C9.95853 51.6356 10.2624 52.5039 10.5984 53.5663ZM69.757 53.5683L70.3707 55.498L72.3534 55.5335L74.336 55.569L72.8358 56.6663C72.0107 57.2699 71.2905 57.795 71.2356 57.8334C71.1805 57.8717 71.4172 58.7721 71.7612 59.8344C72.1053 60.8966 72.3772 61.7751 72.3655 61.7867C72.3538 61.7982 71.6391 61.2899 70.7772 60.6571C69.9154 60.0243 69.1512 59.5064 69.0791 59.5064C69.007 59.5064 68.2429 60.0243 67.381 60.6571C66.5191 61.2899 65.8003 61.794 65.7835 61.7774C65.7666 61.7607 66.04 60.8831 66.391 59.827C66.7418 58.771 66.9825 57.8748 66.9258 57.8353C66.8691 57.7959 66.1476 57.2699 65.3225 56.6663L63.8222 55.569L65.8075 55.5335L67.7929 55.4979L68.4041 53.5663C68.7401 52.5039 69.0439 51.6356 69.0791 51.6366C69.1143 51.6376 69.4193 52.507 69.757 53.5683ZM23.0636 66.0873L23.6668 68.0206L25.7197 68.056L27.7726 68.0914L26.1463 69.294C25.252 69.9554 24.5202 70.5163 24.5202 70.5403C24.5202 70.5643 24.7835 71.4085 25.1054 72.4162C25.4271 73.4239 25.6707 74.2684 25.6465 74.2928C25.6223 74.3173 24.8945 73.8165 24.0292 73.1802C23.104 72.4999 22.3932 72.0613 22.3037 72.1155C22.2199 72.1662 21.4975 72.6942 20.6983 73.2888C19.899 73.8834 19.224 74.3487 19.1982 74.3227C19.1724 74.2968 19.4071 73.494 19.7196 72.539C20.0323 71.5838 20.288 70.7152 20.288 70.6087C20.288 70.5022 19.5639 69.8923 18.679 69.2532L17.07 68.0914L19.126 68.0559L21.182 68.0205L21.7851 66.0871C22.1168 65.0239 22.4046 64.1539 22.4243 64.1539C22.4441 64.1539 22.7318 65.0239 23.0636 66.0873ZM59.8786 68.0559L61.9376 68.0914L60.329 69.2532C59.4443 69.8923 58.719 70.5022 58.7174 70.6087C58.7158 70.7152 58.9701 71.5838 59.2828 72.539C59.5954 73.494 59.8345 74.2921 59.8144 74.3125C59.7942 74.3328 59.1172 73.8675 58.3099 73.2785C57.5028 72.6895 56.7787 72.168 56.701 72.1196C56.6232 72.071 55.8504 72.552 54.9836 73.1882C54.1169 73.8244 53.3854 74.3224 53.3581 74.2951C53.331 74.2676 53.5747 73.4246 53.8998 72.4216C54.2249 71.4187 54.4608 70.5492 54.4242 70.4894C54.3876 70.4298 53.6511 69.8658 52.7874 69.2361L51.2171 68.0914L53.2744 68.056L55.3318 68.0206L55.951 66.055L56.5702 64.0894L57.1948 66.0549L57.8195 68.0205L59.8786 68.0559ZM40.1711 70.7701L40.7633 72.6097L42.8319 72.6452L44.9003 72.6807L43.2571 73.8868C42.3534 74.55 41.6225 75.144 41.633 75.2068C41.6435 75.2694 41.9114 76.1484 42.2283 77.16C42.5452 78.1715 42.7383 78.9592 42.6573 78.9104C42.5764 78.8616 41.8884 78.3652 41.1284 77.8074C40.3683 77.2495 39.6751 76.7655 39.5878 76.7317C39.5006 76.698 38.7237 77.1945 37.8618 77.8352C36.9996 78.4759 36.2731 79 36.2473 79C36.2214 79 36.4749 78.1311 36.8105 77.0691C37.369 75.3023 37.4032 75.1226 37.2126 74.9545C37.0981 74.8534 36.3496 74.3005 35.5493 73.7258L34.0942 72.6809L36.1736 72.6452L38.2529 72.6097L38.8358 70.7701C39.1564 69.7584 39.4546 68.9305 39.4986 68.9305C39.5427 68.9305 39.8453 69.7584 40.1711 70.7701Z" fill="url(#paint0_linear_188_1372)" fill-opacity="0.5"/>
<path fill-rule="evenodd" clip-rule="evenodd" d="M40.1791 1.92973L40.7928 3.85946L42.7842 3.89497L44.7758 3.93047L43.2703 5.02779C42.4424 5.63131 41.7169 6.15738 41.6581 6.19675C41.5994 6.23626 41.8385 7.13244 42.1893 8.18845C42.5403 9.24459 42.8137 10.1212 42.7968 10.1365C42.78 10.1519 42.0619 9.64776 41.201 9.01622C40.34 8.38468 39.5759 7.86791 39.5029 7.86791C39.4298 7.86791 38.665 8.38571 37.8031 9.01854C36.9412 9.65137 36.2224 10.1555 36.2057 10.1388C36.1887 10.1222 36.4621 9.24459 36.8131 8.18845C37.1639 7.13244 37.4046 6.23626 37.3479 6.19675C37.2912 6.15738 36.5697 5.63131 35.7446 5.02779L34.2443 3.93047L36.2269 3.89497L38.2096 3.85946L38.8234 1.92973C39.161 0.868431 39.466 0 39.5012 0C39.5364 0 39.8414 0.868431 40.1791 1.92973ZM23.0604 6.44785L23.6673 8.38429H25.7018C26.8451 8.38429 27.7058 8.43425 27.6666 8.49828C27.6282 8.56089 26.9045 9.11666 26.0585 9.73322C25.2124 10.3498 24.5202 10.8965 24.5202 10.9479C24.5202 10.9994 24.7799 11.8221 25.0973 12.7763C25.4147 13.7303 25.6594 14.5563 25.6411 14.6115C25.6228 14.6669 24.8943 14.1883 24.0221 13.5481C23.0121 12.8067 22.3846 12.4246 22.2939 12.4956C21.4172 13.1815 19.2364 14.7187 19.1967 14.6786C19.1683 14.6501 19.4037 13.8491 19.7199 12.8987C20.0361 11.9483 20.2925 11.0811 20.2897 10.9716C20.2868 10.8622 19.5547 10.2497 18.6626 9.61071L17.0406 8.44884L19.1145 8.41334L21.1885 8.37797L21.7935 6.44462C22.1263 5.38138 22.4108 4.5114 22.4259 4.5114C22.441 4.5114 22.7266 5.3828 23.0604 6.44785ZM59.8884 8.41334L61.9598 8.44884L60.3877 9.59444C59.523 10.2244 58.7856 10.8183 58.7493 10.9141C58.7128 11.01 58.9469 11.8846 59.2696 12.858C59.5923 13.8313 59.8336 14.6505 59.8059 14.6785C59.7781 14.7065 59.2171 14.3307 58.5592 13.8434C57.9015 13.3561 57.1847 12.8311 56.9665 12.677L56.57 12.3967L54.9829 13.5565C54.1101 14.1944 53.3807 14.6701 53.362 14.6137C53.3433 14.5572 53.5877 13.7303 53.9051 12.7763C54.2226 11.8221 54.4822 10.9999 54.4822 10.9492C54.4822 10.8983 53.7482 10.3149 52.851 9.65279L51.2196 8.44884L53.2784 8.41347L55.337 8.37809L55.9551 6.41247L56.573 4.44685L57.1951 6.41235L57.8171 8.37797L59.8884 8.41334ZM13.271 21.0357H15.3234L13.8078 22.1453C12.9742 22.7556 12.2276 23.3219 12.1487 23.404C12.0423 23.5146 12.1645 24.0355 12.6218 25.4214C12.9609 26.4489 13.2234 27.3048 13.2049 27.3232C13.1866 27.3418 12.4561 26.8341 11.5817 26.1951C10.7072 25.556 9.9214 25.0603 9.83535 25.0936C9.74931 25.1269 9.01319 25.6508 8.19948 26.2578C7.38589 26.8648 6.69907 27.3615 6.67346 27.3615C6.64773 27.3615 6.90151 26.5046 7.23737 25.4573C7.9521 23.2287 8.09384 23.6084 5.97883 22.0849L4.53118 21.0422L6.61136 21.0067L8.69142 20.9712L9.21934 19.2875C9.50974 18.3615 9.79041 17.491 9.84291 17.353C9.91269 17.1697 10.1105 17.6309 10.5785 19.069L11.2187 21.0357H13.271ZM69.7474 19.1638L70.3106 20.9712L72.3968 21.0067L74.4832 21.0423L72.9656 22.1427C72.1309 22.7479 71.382 23.3129 71.3015 23.3981C71.1908 23.5153 71.3046 24.0197 71.7671 25.4626L72.3792 27.3719L72.0415 27.1496C71.8558 27.0272 71.1672 26.5279 70.5113 26.0398C69.8552 25.5517 69.2491 25.1254 69.1645 25.0927C69.0799 25.0599 68.2952 25.556 67.4207 26.1951C66.5463 26.8341 65.8158 27.3418 65.7975 27.3232C65.7791 27.3048 66.0415 26.4489 66.3806 25.4214C66.8408 24.0272 66.9608 23.5137 66.8537 23.3981C66.7748 23.3129 66.0254 22.7465 65.1881 22.1394L63.6661 21.0357H65.7258H67.7854L68.4002 19.1112C68.7384 18.0526 69.0531 17.2247 69.0996 17.2715C69.1461 17.3183 69.4375 18.1698 69.7474 19.1638ZM8.67605 38.2346L10.7498 38.2701L9.12638 39.432C8.23354 40.071 7.50177 40.681 7.50011 40.7875C7.49857 40.894 7.75299 41.7625 8.06567 42.7177C8.37823 43.6728 8.61293 44.4755 8.58706 44.5015C8.56133 44.5274 7.88629 44.0621 7.08704 43.4675C6.2878 42.8729 5.56833 42.3468 5.48817 42.2983C5.40738 42.2494 4.64078 42.7252 3.76651 43.367C2.89978 44.0031 2.16828 44.5012 2.14101 44.4738C2.11386 44.4463 2.35752 43.6033 2.68262 42.6004C3.00772 41.5974 3.24461 40.7294 3.20901 40.6713C3.17341 40.6133 2.43678 40.0493 1.57211 39.4179L0 38.2701L2.05931 38.2347L4.1185 38.1994L4.73694 36.2337L5.35526 34.2681L5.97883 36.2336L6.6024 38.1992L8.67605 38.2346ZM74.2807 36.266L74.8839 38.1994L76.942 38.2347L79 38.2701L77.3686 39.474C76.4714 40.1362 75.7373 40.7196 75.7373 40.7704C75.7373 40.8212 75.997 41.6434 76.3144 42.5975C76.6318 43.5516 76.8767 44.374 76.8586 44.425C76.8406 44.476 76.1122 43.9994 75.2403 43.3659L73.655 42.2141L73.2556 42.4963C73.036 42.6516 72.3181 43.1773 71.6603 43.6646C71.0024 44.152 70.4412 44.5277 70.4132 44.4994C70.3851 44.4711 70.6209 43.6703 70.937 42.7199C71.2533 41.7695 71.5091 40.9024 71.5055 40.7929C71.5021 40.6834 70.7753 40.071 69.8905 39.432L68.2819 38.2701L70.3438 38.2346L72.4057 38.1992L73.0107 36.2659C73.3434 35.2026 73.6296 34.3327 73.6467 34.3327C73.6636 34.3327 73.949 35.2026 74.2807 36.266ZM10.5984 53.5663L11.2095 55.4979L13.2036 55.5335L15.1979 55.569L13.6924 56.6663C12.8645 57.2699 12.139 57.7959 12.0802 57.8353C12.0216 57.8748 12.2606 58.771 12.6114 59.827C12.9624 60.8831 13.2358 61.7605 13.2189 61.777C13.2021 61.7934 12.497 61.2915 11.6519 60.6615C10.8068 60.0316 10.0452 59.5141 9.95943 59.5114C9.87364 59.5086 9.09706 60.0258 8.23392 60.6607C7.37066 61.2955 6.65157 61.8019 6.63582 61.7862C6.6202 61.7703 6.89229 60.8878 7.24057 59.8251C7.58884 58.7623 7.87387 57.8902 7.87412 57.8871C7.87438 57.884 7.15234 57.3611 6.26949 56.7252L4.66422 55.569L6.64799 55.5335L8.63175 55.498L9.24546 53.5683C9.58311 52.507 9.88811 51.6376 9.92332 51.6366C9.95853 51.6356 10.2624 52.5039 10.5984 53.5663ZM69.757 53.5683L70.3707 55.498L72.3534 55.5335L74.336 55.569L72.8358 56.6663C72.0107 57.2699 71.2905 57.795 71.2356 57.8334C71.1805 57.8717 71.4172 58.7721 71.7612 59.8344C72.1053 60.8966 72.3772 61.7751 72.3655 61.7867C72.3538 61.7982 71.6391 61.2899 70.7772 60.6571C69.9154 60.0243 69.1512 59.5064 69.0791 59.5064C69.007 59.5064 68.2429 60.0243 67.381 60.6571C66.5191 61.2899 65.8003 61.794 65.7835 61.7774C65.7666 61.7607 66.04 60.8831 66.391 59.827C66.7418 58.771 66.9825 57.8748 66.9258 57.8353C66.8691 57.7959 66.1476 57.2699 65.3225 56.6663L63.8222 55.569L65.8075 55.5335L67.7929 55.4979L68.4041 53.5663C68.7401 52.5039 69.0439 51.6356 69.0791 51.6366C69.1143 51.6376 69.4193 52.507 69.757 53.5683ZM23.0636 66.0873L23.6668 68.0206L25.7197 68.056L27.7726 68.0914L26.1463 69.294C25.252 69.9554 24.5202 70.5163 24.5202 70.5403C24.5202 70.5643 24.7835 71.4085 25.1054 72.4162C25.4271 73.4239 25.6707 74.2684 25.6465 74.2928C25.6223 74.3173 24.8945 73.8165 24.0292 73.1802C23.104 72.4999 22.3932 72.0613 22.3037 72.1155C22.2199 72.1662 21.4975 72.6942 20.6983 73.2888C19.899 73.8834 19.224 74.3487 19.1982 74.3227C19.1724 74.2968 19.4071 73.494 19.7196 72.539C20.0323 71.5838 20.288 70.7152 20.288 70.6087C20.288 70.5022 19.5639 69.8923 18.679 69.2532L17.07 68.0914L19.126 68.0559L21.182 68.0205L21.7851 66.0871C22.1168 65.0239 22.4046 64.1539 22.4243 64.1539C22.4441 64.1539 22.7318 65.0239 23.0636 66.0873ZM59.8786 68.0559L61.9376 68.0914L60.329 69.2532C59.4443 69.8923 58.719 70.5022 58.7174 70.6087C58.7158 70.7152 58.9701 71.5838 59.2828 72.539C59.5954 73.494 59.8345 74.2921 59.8144 74.3125C59.7942 74.3328 59.1172 73.8675 58.3099 73.2785C57.5028 72.6895 56.7787 72.168 56.701 72.1196C56.6232 72.071 55.8504 72.552 54.9836 73.1882C54.1169 73.8244 53.3854 74.3224 53.3581 74.2951C53.331 74.2676 53.5747 73.4246 53.8998 72.4216C54.2249 71.4187 54.4608 70.5492 54.4242 70.4894C54.3876 70.4298 53.6511 69.8658 52.7874 69.2361L51.2171 68.0914L53.2744 68.056L55.3318 68.0206L55.951 66.055L56.5702 64.0894L57.1948 66.0549L57.8195 68.0205L59.8786 68.0559ZM40.1711 70.7701L40.7633 72.6097L42.8319 72.6452L44.9003 72.6807L43.2571 73.8868C42.3534 74.55 41.6225 75.144 41.633 75.2068C41.6435 75.2694 41.9114 76.1484 42.2283 77.16C42.5452 78.1715 42.7383 78.9592 42.6573 78.9104C42.5764 78.8616 41.8884 78.3652 41.1284 77.8074C40.3683 77.2495 39.6751 76.7655 39.5878 76.7317C39.5006 76.698 38.7237 77.1945 37.8618 77.8352C36.9996 78.4759 36.2731 79 36.2473 79C36.2214 79 36.4749 78.1311 36.8105 77.0691C37.369 75.3023 37.4032 75.1226 37.2126 74.9545C37.0981 74.8534 36.3496 74.3005 35.5493 73.7258L34.0942 72.6809L36.1736 72.6452L38.2529 72.6097L38.8358 70.7701C39.1564 69.7584 39.4546 68.9305 39.4986 68.9305C39.5427 68.9305 39.8453 69.7584 40.1711 70.7701Z" fill="url(#paint1_linear_188_1372)" fill-opacity="0.3"/>
<defs>
<linearGradient id="paint0_linear_188_1372" x1="30.6466" y1="21.2956" x2="106.414" y2="66.8091" gradientUnits="userSpaceOnUse">
<stop stop-color="white"/>
<stop offset="1" stop-color="white" stop-opacity="0"/>
</linearGradient>
<linearGradient id="paint1_linear_188_1372" x1="32.5115" y1="-46.61" x2="82.0604" y2="-35.7127" gradientUnits="userSpaceOnUse">
<stop stop-color="#4A60DB"/>
<stop offset="0.387957" stop-color="#B2E2E4"/>
<stop offset="0.787325" stop-color="#E4F5F6"/>
<stop offset="1" stop-color="#CFC0C3"/>
</linearGradient>
</defs>
</svg>
