<svg width="57" height="53" viewBox="0 0 57 53" fill="none" xmlns="http://www.w3.org/2000/svg">
<path d="M0 31.5317L5.23242 36.4343C2.28223 10.1149 29.335 3.0964 39.7998 4.85104L45.0879 0H32.1738C9.35156 3.40604 0 19.8169 0 31.5317Z" fill="white"/>
<path d="M0 31.5317L5.23242 36.4343C2.28223 10.1149 29.335 3.0964 39.7998 4.85104L45.0879 0H32.1738C9.35156 3.40604 0 19.8169 0 31.5317Z" fill="url(#paint0_linear_6_863)"/>
<path d="M39.7998 4.85104L35.0684 9.08277L35.3467 31.7381H27.7764V36.2278H39.9111L39.8278 12.7468L39.8148 9.08277L39.7998 4.85104Z" fill="white"/>
<path d="M39.7998 4.85104L35.0684 9.08277L35.3467 31.7381H27.7764V36.2278H39.9111L39.8278 12.7468L39.8148 9.08277L39.7998 4.85104Z" fill="url(#paint1_linear_6_863)"/>
<path d="M27.7764 36.2278V31.7381V16.0497L23.1006 20.3846V36.2278C23.1377 38.9286 22.4549 45.3725 19.4268 49.5424L23.1006 53C27.1641 47.7877 27.7764 39.7371 27.7764 36.2278Z" fill="white"/>
<path d="M27.7764 36.2278V31.7381V16.0497L23.1006 20.3846V36.2278C23.1377 38.9286 22.4549 45.3725 19.4268 49.5424L23.1006 53C27.1641 47.7877 27.7764 39.7371 27.7764 36.2278Z" fill="url(#paint2_linear_6_863)"/>
<path d="M57 6.91529L39.8148 9.08277L39.8278 12.7468L57 6.91529Z" fill="white"/>
<path d="M57 6.91529L39.8148 9.08277L39.8278 12.7468L57 6.91529Z" fill="url(#paint3_linear_6_863)"/>
<defs>
<linearGradient id="paint0_linear_6_863" x1="8.80618" y1="-45.05" x2="60.7531" y2="-33.5803" gradientUnits="userSpaceOnUse">
<stop stop-color="#4A60DB"/>
<stop offset="0.387957" stop-color="#B2E2E4"/>
<stop offset="0.787325" stop-color="#E4F5F6"/>
<stop offset="1" stop-color="#CFC0C3"/>
</linearGradient>
<linearGradient id="paint1_linear_6_863" x1="8.80618" y1="-45.05" x2="60.7531" y2="-33.5803" gradientUnits="userSpaceOnUse">
<stop stop-color="#4A60DB"/>
<stop offset="0.387957" stop-color="#B2E2E4"/>
<stop offset="0.787325" stop-color="#E4F5F6"/>
<stop offset="1" stop-color="#CFC0C3"/>
</linearGradient>
<linearGradient id="paint2_linear_6_863" x1="8.80618" y1="-45.05" x2="60.7531" y2="-33.5803" gradientUnits="userSpaceOnUse">
<stop stop-color="#4A60DB"/>
<stop offset="0.387957" stop-color="#B2E2E4"/>
<stop offset="0.787325" stop-color="#E4F5F6"/>
<stop offset="1" stop-color="#CFC0C3"/>
</linearGradient>
<linearGradient id="paint3_linear_6_863" x1="8.80618" y1="-45.05" x2="60.7531" y2="-33.5803" gradientUnits="userSpaceOnUse">
<stop stop-color="#4A60DB"/>
<stop offset="0.387957" stop-color="#B2E2E4"/>
<stop offset="0.787325" stop-color="#E4F5F6"/>
<stop offset="1" stop-color="#CFC0C3"/>
</linearGradient>
</defs>
</svg>
