<svg width="236" height="20" viewBox="0 0 236 20" fill="none" xmlns="http://www.w3.org/2000/svg">
<path d="M5.22754 10.5117L218.501 10.0248" stroke="#7DA9FF" stroke-width="2"/>
<ellipse cx="173.271" cy="11" rx="5.94203" ry="5.94203" transform="rotate(-90.5618 173.271 11)" fill="#111111" stroke="#353535" stroke-width="1.32045"/>
<ellipse cx="173.243" cy="10.9738" rx="3.16908" ry="3.16908" transform="rotate(-90.5618 173.243 10.9738)" fill="#7DA9FF"/>
<path d="M131.4 5.7188C134.318 5.69003 136.705 8.03125 136.734 10.9479C136.762 13.8646 134.42 16.2524 131.503 16.2812C128.586 16.31 126.198 13.9687 126.17 11.0521C126.141 8.13545 128.483 5.74758 131.4 5.7188Z" fill="#111111" stroke="#353535" stroke-width="1.32045"/>
<ellipse rx="3.16889" ry="3.16927" transform="matrix(-0.00980546 -0.999952 0.999952 -0.00980311 131.421 10.974)" fill="#7DA9FF"/>
<ellipse cx="89.6308" cy="11" rx="5.94203" ry="5.94203" transform="rotate(-90.5618 89.6308 11)" fill="#111111" stroke="#353535" stroke-width="1.32045"/>
<ellipse cx="89.6025" cy="10.9738" rx="3.16908" ry="3.16908" transform="rotate(-90.5618 89.6025 10.9738)" fill="#7DA9FF"/>
<path d="M47.7656 5.7188C50.6828 5.69003 53.0705 8.03125 53.0989 10.9479C53.1274 13.8646 50.7857 16.2524 47.8685 16.2812C44.9513 16.31 42.5636 13.9687 42.5351 11.0521C42.5067 8.13545 44.8484 5.74758 47.7656 5.7188Z" fill="#111111" stroke="#353535" stroke-width="1.32045"/>
<ellipse rx="3.16889" ry="3.16927" transform="matrix(-0.00980546 -0.999952 0.999952 -0.00980311 47.7865 10.974)" fill="#7DA9FF"/>
<ellipse cx="5.99994" cy="11" rx="5.94203" ry="5.94203" transform="rotate(-90.5618 5.99994 11)" fill="#111111" stroke="#353535" stroke-width="1.32045"/>
<ellipse cx="5.9716" cy="10.9738" rx="3.16908" ry="3.16908" transform="rotate(-90.5618 5.9716 10.9738)" fill="#7DA9FF"/>
<circle cx="226.001" cy="10" r="8.90338" transform="rotate(-90.5618 226.001 10)" fill="#111111" stroke="#353535" stroke-width="2"/>
<ellipse cx="225.951" cy="9.95573" rx="5.2818" ry="5.2818" transform="rotate(-90.5618 225.951 9.95573)" fill="#7DA9FF"/>
</svg>
