<svg width="28" height="28" viewBox="0 0 28 28" fill="none" xmlns="http://www.w3.org/2000/svg">
<path d="M15.6947 18.1944C15.6536 18.1537 15.5981 18.1309 15.5402 18.1309C15.4824 18.1309 15.4269 18.1537 15.3857 18.1944L12.2084 21.3718C10.7373 22.8429 8.25449 22.9987 6.63027 21.3718C5.00332 19.7448 5.15918 17.2647 6.63027 15.7937L9.80762 12.6163C9.89238 12.5315 9.89238 12.3921 9.80762 12.3073L8.71934 11.219C8.67822 11.1783 8.6227 11.1555 8.56484 11.1555C8.50699 11.1555 8.45147 11.1783 8.41035 11.219L5.23301 14.3964C2.91973 16.7097 2.91973 20.453 5.23301 22.7636C7.54629 25.0741 11.2896 25.0769 13.6002 22.7636L16.7775 19.5862C16.8623 19.5015 16.8623 19.362 16.7775 19.2772L15.6947 18.1944ZM22.7658 5.2335C20.4525 2.92021 16.7092 2.92021 14.3986 5.2335L11.2186 8.41084C11.1778 8.45195 11.155 8.50747 11.155 8.56533C11.155 8.62319 11.1778 8.67871 11.2186 8.71982L12.3041 9.80537C12.3889 9.89014 12.5283 9.89014 12.6131 9.80537L15.7904 6.62803C17.2615 5.15693 19.7443 5.00107 21.3686 6.62803C22.9955 8.25498 22.8396 10.7351 21.3686 12.2062L18.1912 15.3835C18.1505 15.4246 18.1277 15.4801 18.1277 15.538C18.1277 15.5958 18.1505 15.6514 18.1912 15.6925L19.2795 16.7808C19.3643 16.8655 19.5037 16.8655 19.5885 16.7808L22.7658 13.6034C25.0764 11.2901 25.0764 7.54678 22.7658 5.2335ZM16.6818 10.18C16.6407 10.1393 16.5852 10.1164 16.5273 10.1164C16.4695 10.1164 16.414 10.1393 16.3729 10.18L10.1795 16.3706C10.1388 16.4117 10.1159 16.4672 10.1159 16.5251C10.1159 16.583 10.1388 16.6385 10.1795 16.6796L11.2623 17.7624C11.3471 17.8472 11.4865 17.8472 11.5713 17.7624L17.7619 11.5718C17.8467 11.487 17.8467 11.3476 17.7619 11.2628L16.6818 10.18Z" fill="white"/>
</svg>
