<svg width="20" height="20" viewBox="0 0 20 20" fill="none" xmlns="http://www.w3.org/2000/svg">
<path d="M10 10.0001C9.08337 10.0001 8.33337 9.25008 8.33337 8.33341C8.33337 7.41675 9.08337 6.66675 10 6.66675C10.9167 6.66675 11.6667 7.41675 11.6667 8.33341C11.6667 9.25008 10.9167 10.0001 10 10.0001ZM15 8.50008C15 5.47508 12.7917 3.33341 10 3.33341C7.20837 3.33341 5.00004 5.47508 5.00004 8.50008C5.00004 10.4501 6.62504 13.0334 10 16.1167C13.375 13.0334 15 10.4501 15 8.50008ZM10 1.66675C13.5 1.66675 16.6667 4.35008 16.6667 8.50008C16.6667 11.2667 14.4417 14.5417 10 18.3334C5.55837 14.5417 3.33337 11.2667 3.33337 8.50008C3.33337 4.35008 6.50004 1.66675 10 1.66675Z" fill="white"/>
</svg>
