<svg width="20" height="20" viewBox="0 0 20 20" fill="none" xmlns="http://www.w3.org/2000/svg">
<path d="M15.1026 4.35889H5.4103C4.85946 4.35889 4.33119 4.58176 3.94169 4.97847C3.55219 5.37518 3.33337 5.91324 3.33337 6.47427V13.5256C3.33337 14.0866 3.55219 14.6246 3.94169 15.0214C4.33119 15.4181 4.85946 15.6409 5.4103 15.6409H15.1026C15.6534 15.6409 16.1817 15.4181 16.5712 15.0214C16.9607 14.6246 17.1795 14.0866 17.1795 13.5256V6.47427C17.1795 5.91324 16.9607 5.37518 16.5712 4.97847C16.1817 4.58176 15.6534 4.35889 15.1026 4.35889ZM14.6388 5.76914L10.2565 9.1185L5.87414 5.76914H14.6388ZM15.1026 14.2307H5.4103C5.22669 14.2307 5.05059 14.1564 4.92076 14.0242C4.79093 13.8919 4.71799 13.7126 4.71799 13.5256V6.65055L9.84107 10.564C9.9609 10.6556 10.1067 10.705 10.2565 10.705C10.4062 10.705 10.552 10.6556 10.6718 10.564L15.7949 6.65055V13.5256C15.7949 13.7126 15.722 13.8919 15.5921 14.0242C15.4623 14.1564 15.2862 14.2307 15.1026 14.2307Z" fill="white"/>
</svg>
