<svg width="21" height="20" viewBox="0 0 21 20" fill="none" xmlns="http://www.w3.org/2000/svg">
<path d="M16.75 18.125H16.6437C4.36247 17.4187 2.61872 7.05625 2.37497 3.89375C2.35533 3.64786 2.3844 3.40052 2.46052 3.16588C2.53663 2.93125 2.6583 2.71394 2.81855 2.52641C2.97879 2.33888 3.17446 2.1848 3.39435 2.07302C3.61424 1.96124 3.85403 1.89395 4.09997 1.875H7.54372C7.79407 1.87476 8.03872 1.94969 8.24599 2.0901C8.45326 2.23051 8.61359 2.42992 8.70622 2.6625L9.65622 5C9.74769 5.22722 9.77039 5.4763 9.7215 5.71631C9.67261 5.95631 9.55428 6.17667 9.38122 6.35L8.04997 7.69375C8.25792 8.87547 8.82384 9.96479 9.67116 10.8143C10.5185 11.6639 11.6063 12.2327 12.7875 12.4438L14.1437 11.1C14.3197 10.9288 14.5421 10.8133 14.7833 10.7677C15.0245 10.7221 15.2737 10.7486 15.5 10.8438L17.8562 11.7875C18.0853 11.8831 18.2807 12.0446 18.4176 12.2517C18.5546 12.4587 18.6267 12.7018 18.625 12.95V16.25C18.625 16.7473 18.4274 17.2242 18.0758 17.5758C17.7242 17.9275 17.2473 18.125 16.75 18.125ZM4.24997 3.125C4.08421 3.125 3.92524 3.19085 3.80803 3.30806C3.69082 3.42527 3.62497 3.58424 3.62497 3.75V3.8C3.91247 7.5 5.75622 16.25 16.7125 16.875C16.7946 16.8801 16.8769 16.8689 16.9547 16.8421C17.0324 16.8153 17.1042 16.7734 17.1657 16.7188C17.2273 16.6642 17.2774 16.598 17.3133 16.524C17.3492 16.45 17.3702 16.3696 17.375 16.2875V12.95L15.0187 12.0062L13.225 13.7875L12.925 13.75C7.48747 13.0688 6.74997 7.63125 6.74997 7.575L6.71247 7.275L8.48747 5.48125L7.54997 3.125H4.24997Z" fill="white"/>
</svg>
