<svg width="18" height="18" viewBox="0 0 18 18" fill="none" xmlns="http://www.w3.org/2000/svg">
<path d="M13.6334 8.88889C13.631 8.14187 13.551 7.39711 13.3945 6.66667H15.3945C15.2915 6.36198 15.1671 6.06494 15.0223 5.77778H13.1611C12.8113 4.60892 12.2686 3.50672 11.5556 2.51667C11.1 2.32511 10.625 2.18354 10.1389 2.09444C11.1158 3.14402 11.8531 4.39316 12.3 5.75556H9.30559V2H8.47225V5.76111H5.47781C5.92563 4.39625 6.66494 3.14511 7.64448 2.09444C7.16046 2.18206 6.68734 2.32176 6.23337 2.51111C5.51751 3.49701 4.97112 4.59542 4.6167 5.76111H2.74448C2.59701 6.05352 2.47076 6.35615 2.3667 6.66667H4.38337C4.22686 7.39711 4.1468 8.14187 4.14448 8.88889C4.14601 9.70599 4.23919 10.5203 4.42225 11.3167H2.45559C2.57052 11.6281 2.70792 11.9307 2.8667 12.2222H4.66114C5.00126 13.2865 5.50548 14.2912 6.15559 15.2C6.62113 15.3997 7.10746 15.5469 7.60559 15.6389C6.69888 14.6499 6.00156 13.4877 5.55559 12.2222H8.47781V15.7444H9.31114V12.2222H12.2223C11.7748 13.4882 11.0755 14.6505 10.1667 15.6389C10.6672 15.5437 11.1554 15.3928 11.6223 15.1889C12.2713 14.2835 12.7755 13.2827 13.1167 12.2222H14.8945C15.0525 11.9361 15.1899 11.6391 15.3056 11.3333H13.3334C13.5252 10.5324 13.6258 9.7124 13.6334 8.88889ZM8.47225 11.3167H5.28337C4.89224 9.78769 4.87509 8.18701 5.23337 6.65H8.47225V11.3167ZM12.4945 11.3167H9.30559V6.66667H12.5445C12.7041 7.39652 12.7823 8.1418 12.7778 8.88889C12.7823 9.70665 12.6872 10.5219 12.4945 11.3167Z" fill="white"/>
<path d="M8.88889 0C7.13084 0 5.41226 0.521324 3.95049 1.49805C2.48872 2.47477 1.34941 3.86303 0.67663 5.48726C0.00385139 7.11149 -0.172178 8.89875 0.170802 10.623C0.513781 12.3473 1.36037 13.9312 2.6035 15.1743C3.84663 16.4174 5.43048 17.264 7.15476 17.607C8.87903 17.95 10.6663 17.7739 12.2905 17.1012C13.9148 16.4284 15.303 15.2891 16.2797 13.8273C17.2565 12.3655 17.7778 10.6469 17.7778 8.88889C17.7778 6.53141 16.8413 4.27049 15.1743 2.6035C13.5073 0.936505 11.2464 0 8.88889 0ZM8.88889 16.6667C7.35059 16.6667 5.84684 16.2105 4.56779 15.3559C3.28874 14.5012 2.29184 13.2865 1.70316 11.8653C1.11448 10.4441 0.960456 8.88026 1.26056 7.37152C1.56067 5.86278 2.30143 4.47691 3.38917 3.38917C4.47692 2.30143 5.86278 1.56067 7.37152 1.26056C8.88027 0.960452 10.4441 1.11448 11.8653 1.70316C13.2865 2.29184 14.5012 3.28874 15.3559 4.56779C16.2105 5.84684 16.6667 7.35059 16.6667 8.88889C16.6667 10.9517 15.8472 12.93 14.3886 14.3886C12.93 15.8472 10.9517 16.6667 8.88889 16.6667Z" fill="white"/>
</svg>
