<svg width="39" height="43" viewBox="0 0 39 43" fill="none" xmlns="http://www.w3.org/2000/svg">
<path d="M17.8397 17.8916C17.9062 18.1577 18.2609 19.9091 18.4715 20.7849C20.8926 21.2904 25.799 23.3899 27.9495 24.3765C26.0872 28.5668 21.775 32.5132 18.9704 34.2868C11.9534 29.3649 6.93174 22.3812 7.63011 11.0409L0.247273 8.979C-1.2825 21.45 4.20474 36.0161 18.9704 42.9999C22.296 41.969 34.4345 34.1538 36.7956 21.45C35.5652 20.7516 30.1112 17.8584 26.5528 16.7277L17.4073 13.6016C17.3408 13.7014 17.7399 17.4925 17.8397 17.8916Z" fill="url(#paint0_linear_4_951)"/>
<path d="M37.5458 3.82231C37.6899 4.72022 37.9914 6.82866 38.0446 8.07909C33.442 5.52505 19.4878 0.430166 1.39648 3.42324C11.4731 -0.600771 26.2387 -1.79799 37.5458 3.82231Z" fill="url(#paint1_linear_4_951)"/>
<path d="M1.39648 3.42336C5.62665 3.47657 26.4383 8.27874 37.8783 14.3646C37.9559 12.7905 38.0978 9.32963 38.0446 8.07921C33.442 5.52517 19.4878 0.430289 1.39648 3.42336Z" fill="url(#paint2_linear_4_951)"/>
<defs>
<linearGradient id="paint0_linear_4_951" x1="32.5" y1="26" x2="-16.5" y2="0.500003" gradientUnits="userSpaceOnUse">
<stop stop-color="white"/>
<stop offset="1" stop-color="#858585"/>
</linearGradient>
<linearGradient id="paint1_linear_4_951" x1="39.3749" y1="4.05723" x2="4.09022" y2="2.02862" gradientUnits="userSpaceOnUse">
<stop stop-color="#343433"/>
<stop offset="0.35422" stop-color="#818181"/>
<stop offset="1" stop-color="#D7D7D7"/>
</linearGradient>
<linearGradient id="paint2_linear_4_951" x1="3.32533" y1="2.52758" x2="37.579" y2="11.0744" gradientUnits="userSpaceOnUse">
<stop stop-color="#757474"/>
<stop offset="1" stop-color="#EEEEEE"/>
</linearGradient>
</defs>
</svg>
