<svg width="45" height="50" viewBox="0 0 45 50" fill="none" xmlns="http://www.w3.org/2000/svg">
<path d="M20.7438 20.8042C20.8211 21.1135 21.2336 23.1501 21.4785 24.1684C24.2937 24.7562 29.9988 27.1976 32.4995 28.3448C30.334 33.2172 25.3198 37.806 22.0586 39.8684C13.8993 34.1453 8.06016 26.0246 8.87222 12.8382L0.287527 10.4407C-1.49128 24.9418 4.88924 41.8792 22.0586 49.9999C25.9256 48.8011 40.0401 39.7137 42.7856 24.9418C41.3548 24.1298 35.013 20.7655 30.8753 19.4507L20.2411 15.8158C20.1638 15.9318 20.6278 20.3401 20.7438 20.8042Z" fill="url(#paint0_linear_403_2224)"/>
<path d="M43.6581 4.44455C43.8256 5.48863 44.1763 7.9403 44.2381 9.39428C38.8862 6.42448 22.6604 0.500193 1.62402 3.98051C13.341 -0.698571 30.5104 -2.09069 43.6581 4.44455Z" fill="url(#paint1_linear_403_2224)"/>
<path d="M1.62402 3.98069C6.54282 4.04257 30.7424 9.62648 44.0448 16.7031C44.135 14.8727 44.3 10.8485 44.2381 9.39447C38.8862 6.42466 22.6604 0.500376 1.62402 3.98069Z" fill="url(#paint2_linear_403_2224)"/>
<defs>
<linearGradient id="paint0_linear_403_2224" x1="37.7907" y1="30.2325" x2="-19.186" y2="0.581373" gradientUnits="userSpaceOnUse">
<stop stop-color="white"/>
<stop offset="1" stop-color="#858585"/>
</linearGradient>
<linearGradient id="paint1_linear_403_2224" x1="45.7849" y1="4.71771" x2="4.75628" y2="2.35885" gradientUnits="userSpaceOnUse">
<stop stop-color="#343433"/>
<stop offset="0.35422" stop-color="#818181"/>
<stop offset="1" stop-color="#D7D7D7"/>
</linearGradient>
<linearGradient id="paint2_linear_403_2224" x1="3.86687" y1="2.93908" x2="43.6967" y2="12.8772" gradientUnits="userSpaceOnUse">
<stop stop-color="#757474"/>
<stop offset="1" stop-color="#EEEEEE"/>
</linearGradient>
</defs>
</svg>
