<svg width="19" height="19" viewBox="0 0 19 19" fill="none" xmlns="http://www.w3.org/2000/svg">
<path d="M3.16667 3.16667H5.27778V5.27778H3.16667V3.16667Z" fill="white"/>
<path d="M0 8.44444V0H8.44444V8.44444H0ZM2.11111 2.11111V6.33333H6.33333V2.11111H2.11111ZM10.5556 10.5556H13.7222V12.6667H10.5556V10.5556Z" fill="white"/>
<path d="M13.7222 12.6667H15.8333V10.5556H19V13.7222H15.8333V14.7778H16.8889V15.8333H19V19H16.8889V16.8889H14.7778V19H10.5556V14.7778H12.6667V16.8889H13.7222V12.6667ZM15.8333 3.16667H13.7222V5.27778H15.8333V3.16667Z" fill="white"/>
<path d="M10.5556 0V8.44444H19V0H10.5556ZM16.8889 2.11111V6.33333H12.6667V2.11111H16.8889ZM3.16667 13.7222H5.27778V15.8333H3.16667V13.7222Z" fill="white"/>
<path d="M0 19V10.5556H8.44444V19H0ZM2.11111 12.6667V16.8889H6.33333V12.6667H2.11111Z" fill="white"/>
</svg>
