<svg width="180" height="43" viewBox="0 0 180 43" fill="none" xmlns="http://www.w3.org/2000/svg">
<path fill-rule="evenodd" clip-rule="evenodd" d="M15.7801 0.0661068C14.9891 0.200273 14.2155 0.819131 13.8482 1.61133L13.6598 2.01788L13.6246 5.32689L13.5894 8.63583L10.9888 7.11741C9.55855 6.28227 8.19774 5.53372 7.96482 5.45402C7.10396 5.15924 6.11862 5.39451 5.41079 6.06392C4.34289 7.07383 4.28508 8.70914 5.27978 9.77152C5.59413 10.1073 6.27229 10.526 10.3544 12.9048C12.9459 14.415 15.1454 15.6814 15.2421 15.7191C16.7654 16.3121 18.517 15.2798 18.8225 13.6091C18.9282 13.0303 18.9282 2.80816 18.8225 2.22933C18.6142 1.09038 17.767 0.251039 16.6389 0.0659646C16.3928 0.0256507 16.1757 -0.00385589 16.1563 0.00041013C16.137 0.00474725 15.9676 0.0342539 15.7801 0.0661068ZM25.7116 0.0631206C24.9263 0.199064 24.1288 0.80875 23.7696 1.54777L23.5757 1.94678L23.5553 7.81256C23.5399 12.2359 23.5558 13.7551 23.6199 13.9904C23.8196 14.7227 24.5251 15.4608 25.2987 15.7466C25.742 15.9104 26.5746 15.9003 27.0217 15.7258C27.3975 15.5792 36.4325 10.328 36.812 10.0357C37.1217 9.79711 37.4966 9.20634 37.633 8.7417C38.1574 6.95623 36.7482 5.1913 34.9217 5.34616C34.6598 5.36834 34.3101 5.44719 34.1445 5.52128C33.9789 5.59544 32.711 6.31732 31.3271 7.12538C29.9432 7.9335 28.796 8.59466 28.7778 8.59466C28.7596 8.59466 28.7447 7.16071 28.7447 5.40809C28.7447 1.83188 28.7381 1.77387 28.2568 1.12628C27.6512 0.311474 26.6625 -0.101548 25.7116 0.0631206ZM128.91 6.81403C128.787 6.89025 128.629 7.0407 128.559 7.14834C128.438 7.33491 128.432 7.85081 128.432 18.0479C128.432 28.1468 128.439 28.7646 128.556 28.9815C128.878 29.5764 129.798 29.5752 130.158 28.9792C130.292 28.7562 130.295 28.5389 130.295 18.0854C130.296 7.89091 130.29 7.40857 130.167 7.17707C129.923 6.71626 129.341 6.54833 128.91 6.81403ZM151.764 6.7804C151.639 6.83529 151.473 6.98602 151.395 7.11528C151.253 7.34884 151.253 7.42137 151.27 18.1454L151.288 28.9403L151.551 29.1837C151.778 29.3947 151.861 29.4271 152.174 29.4271C152.5 29.4271 152.562 29.4 152.808 29.1511L153.081 28.875L153.083 26.9292L153.085 24.9833L154.613 23.4846L156.14 21.9859L158.989 25.4668C160.555 27.3814 161.935 29.0556 162.056 29.1874C162.25 29.3991 162.317 29.4271 162.633 29.4271C163.102 29.4271 163.299 29.3282 163.481 29.0012C163.663 28.6732 163.669 28.4665 163.505 28.1445C163.406 27.9514 158.137 21.4126 157.57 20.781L157.436 20.6313L160.429 17.7005C162.074 16.0885 163.468 14.6777 163.525 14.5652C163.874 13.8835 163.213 13.0888 162.47 13.2963C162.227 13.3641 161.062 14.4875 154.628 20.8558L153.116 22.3526L153.081 14.8128C153.048 7.66339 153.039 7.26274 152.917 7.07468C152.78 6.86273 152.414 6.67318 152.152 6.67773C152.063 6.67929 151.889 6.72544 151.764 6.7804ZM123.052 6.85697C121.943 7.09864 121.085 7.77353 120.614 8.77448C120.25 9.54748 120.161 10.0816 120.118 11.7409L120.081 13.2162H118.996C118.164 13.2162 117.863 13.2413 117.705 13.324C117.122 13.6287 117.163 14.6368 117.771 14.9547C117.934 15.0398 118.222 15.0648 119.04 15.0648H120.098L120.099 21.9438C120.099 28.641 120.102 28.8288 120.236 29.0503C120.61 29.6696 121.504 29.6298 121.809 28.9803C121.916 28.752 121.927 28.1328 121.927 21.8975V15.0648H123.055C124.315 15.0648 124.503 15.015 124.743 14.6169C124.823 14.4833 124.88 14.2612 124.88 14.0788C124.88 13.8127 124.841 13.7287 124.607 13.4922L124.334 13.2162H123.122H121.91L121.944 11.812C121.972 10.6204 122.001 10.3343 122.132 9.92332C122.441 8.95664 122.883 8.69058 124.306 8.61521C125.25 8.56516 125.486 8.45218 125.652 7.97019C125.743 7.70648 125.743 7.63424 125.652 7.37053C125.585 7.17771 125.463 7.01268 125.31 6.90838C125.095 6.76255 124.991 6.74662 124.29 6.75167C123.86 6.7548 123.303 6.80215 123.052 6.85697ZM52.7831 13.5061C51.3666 13.7162 50.182 14.2889 49.3711 15.1558C48.7372 15.8335 48.4397 16.666 48.4372 17.7695C48.4337 19.2831 49.1044 20.245 50.7186 21.0412C51.2315 21.2943 51.9537 21.5737 52.5501 21.7499C55.6029 22.6518 56.7697 23.2052 57.2886 23.9973C57.4058 24.1761 57.5221 24.4605 57.5472 24.6294C57.7878 26.2518 56.0596 27.5785 53.7054 27.5785C52.3892 27.5785 51.4661 27.3295 50.2293 26.6409C49.2805 26.1127 49.0039 26.0566 48.7172 26.3343C48.1593 26.8747 48.5059 27.5212 49.7622 28.2838C50.4412 28.6959 51.208 29.0098 52.0784 29.232C52.5992 29.3649 52.8798 29.3879 53.9566 29.3858C55.4363 29.3828 55.9341 29.2793 56.9806 28.7572C58.7004 27.8991 59.6214 26.4062 59.5284 24.6278C59.4888 23.8704 59.3163 23.3306 58.9312 22.7586C58.2816 21.7939 57.2374 21.2284 54.187 20.1891C51.3946 19.2377 50.9163 18.989 50.5844 18.3156C49.8576 16.8412 51.6272 15.1804 53.9214 15.1837C55.0567 15.1853 55.955 15.5252 56.9615 16.3338C57.7915 17.0006 58.1294 17.12 58.4814 16.8707C58.9547 16.5355 58.8139 16.018 58.0385 15.2425C57.2185 14.4223 56.1209 13.8133 54.9672 13.5383C54.4867 13.4239 53.4419 13.4084 52.7831 13.5061ZM63.0169 13.5068C62.8944 13.543 62.7125 13.6709 62.6125 13.791L62.4309 14.0092V21.4764V28.9436L62.67 29.1853C62.8719 29.3895 62.9589 29.4271 63.2293 29.4271C63.6225 29.4271 63.8671 29.3206 64.0298 29.0784C64.1444 28.9078 64.1565 28.5262 64.189 24.059L64.2242 19.2242L64.4228 18.6554C64.7007 17.8592 64.9808 17.3959 65.5516 16.7884C66.8555 15.4006 68.7647 14.9421 70.4971 15.6009C71.683 16.0518 72.6991 17.0464 73.1723 18.2195C73.5188 19.0786 73.5373 19.3817 73.5404 24.2723C73.5432 28.6483 73.5485 28.8307 73.6793 29.0313C73.8635 29.3138 74.0787 29.4215 74.4647 29.4246C74.8478 29.4275 75.1262 29.2416 75.2739 28.8841C75.4186 28.534 75.4143 20.0185 75.2688 19.0432C75.0552 17.6106 74.4305 16.374 73.4028 15.3492C71.4747 13.4268 68.6059 12.9183 66.1778 14.0687C65.5396 14.3711 64.8447 14.8423 64.5099 15.1997C64.3964 15.321 64.2776 15.4203 64.2462 15.4203C64.2148 15.4203 64.1889 15.1244 64.1888 14.7626C64.1885 14.2368 64.1611 14.0595 64.0519 13.8784C63.8393 13.5259 63.4385 13.382 63.0169 13.5068ZM84.1265 13.5338C79.798 14.3378 76.9787 19.0037 78.1126 23.4863C78.6872 25.7579 80.2083 27.6793 82.2277 28.6846C83.4186 29.2775 83.8815 29.3812 85.3572 29.386C86.433 29.3895 86.6631 29.3693 87.1857 29.2253C90.5625 28.2946 92.8821 25.1197 92.8821 21.4283C92.8821 17.9409 90.7571 14.8502 87.632 13.7924C86.6117 13.447 85.1673 13.3404 84.1265 13.5338ZM94.9596 13.4813C94.6014 13.5733 94.2886 13.9831 94.2886 14.3601C94.2886 14.5023 99.4717 28.6875 99.6459 29.0221C99.7576 29.2366 100.14 29.4265 100.461 29.4268C101.042 29.4274 101.051 29.4114 102.906 24.9122C104.464 21.1314 104.755 20.4489 104.766 20.5395C104.769 20.5591 105.571 22.4948 106.549 24.8411C108.167 28.7214 108.349 29.1215 108.562 29.2671C108.991 29.5601 109.601 29.435 109.854 29.002C109.916 28.896 111.138 25.6189 112.571 21.7195C114.306 16.9964 115.175 14.5396 115.175 14.36C115.175 13.9755 114.925 13.63 114.562 13.513C114.299 13.4283 114.238 13.4333 113.947 13.5635C113.671 13.6867 113.599 13.7644 113.461 14.0843C113.372 14.2912 112.355 17.0771 111.202 20.2753C110.048 23.4735 109.081 26.0651 109.052 26.0344C109.024 26.0038 108.238 24.139 107.306 21.8904C105.399 17.2933 105.425 17.34 104.779 17.34C104.539 17.34 104.365 17.3886 104.197 17.5025C103.978 17.6518 103.816 18.0086 102.206 21.8778C101.243 24.1948 100.431 26.0654 100.404 26.0346C100.376 26.0039 99.3653 23.2591 98.1584 19.9352C96.8767 16.4053 95.9031 13.8251 95.8173 13.7315C95.6946 13.5979 95.257 13.4104 95.1325 13.4382C95.1132 13.4424 95.0354 13.4619 94.9596 13.4813ZM139.25 13.5348C137.251 13.9015 135.493 15.1056 134.313 16.9172C132.162 20.2175 132.672 24.6953 135.506 27.4008C136.408 28.2619 137.348 28.8088 138.594 29.1973C139.144 29.3688 139.293 29.3838 140.458 29.3848C141.93 29.3862 142.401 29.2886 143.497 28.7553C144.361 28.3352 144.905 27.9524 145.606 27.2713L146.189 26.7056V27.6776C146.189 28.7487 146.254 29.0163 146.577 29.2729C146.716 29.3832 146.868 29.4271 147.114 29.4271C147.407 29.4271 147.496 29.3912 147.72 29.1837L147.983 28.9403L148.001 21.5388C148.022 13.3565 148.049 13.8609 147.575 13.5688C147.285 13.3903 146.919 13.3922 146.625 13.5735C146.263 13.7966 146.189 14.0675 146.189 15.179V16.1509L145.606 15.5853C144.717 14.7224 143.852 14.1787 142.778 13.8081C141.721 13.4431 140.335 13.3357 139.25 13.5348ZM171.049 13.5438C168.456 14.0119 166.242 15.849 165.249 18.3569C164.229 20.9322 164.549 23.8576 166.098 26.1232C166.603 26.863 167.684 27.8826 168.449 28.3424C169.797 29.1521 170.86 29.4247 172.676 29.4261C173.721 29.4269 173.968 29.4043 174.554 29.2542C175.371 29.0445 176.24 28.6425 176.973 28.1348C178.077 27.3693 179.492 25.7167 179.574 25.0953C179.647 24.5452 179.257 24.0777 178.715 24.0655C178.322 24.0566 178.113 24.2148 177.699 24.836C176.846 26.113 175.521 27.0982 174.195 27.4411C173.519 27.6159 171.907 27.6318 171.151 27.471C169.412 27.101 167.825 25.7886 167.039 24.0702C166.783 23.5092 166.515 22.5145 166.514 22.1215L166.513 21.8904H172.88C179.892 21.8904 179.592 21.9093 179.878 21.4503C180.005 21.2465 180.019 21.1454 179.982 20.6955C179.852 19.1175 179.115 17.3556 178.054 16.0849C177.241 15.1108 175.883 14.1918 174.671 13.7959C173.579 13.4389 172.173 13.341 171.049 13.5438ZM39.2233 13.6676C38.7318 13.7819 38.838 13.7242 35.1405 15.8833C33.4214 16.8872 31.4023 18.0655 30.6536 18.5019C29.039 19.4429 28.7591 19.6725 28.4484 20.3107C28.2314 20.7563 28.2173 20.8312 28.2173 21.5349C28.2173 22.2386 28.2314 22.3135 28.4484 22.7591C28.587 23.0439 28.8016 23.3421 28.9845 23.5042C29.2972 23.7814 38.0204 28.9129 38.7712 29.2613C39.3213 29.5165 40.1073 29.5277 40.7202 29.2891C41.2875 29.0681 41.8859 28.494 42.1488 27.9185C42.3287 27.5246 42.3528 27.3918 42.3528 26.7949C42.3528 26.1748 42.3336 26.0785 42.1242 25.6485C41.9976 25.3886 41.7623 25.0556 41.5968 24.9022C41.4324 24.7498 40.119 23.9383 38.6783 23.0987C37.2375 22.2592 36.0589 21.5559 36.0592 21.5359C36.0595 21.5158 37.2383 20.8122 38.6788 19.9722C40.1193 19.1323 41.4324 18.3203 41.5968 18.1679C41.7622 18.0145 41.9977 17.6811 42.1242 17.4213C42.3336 16.9914 42.3528 16.8951 42.3528 16.275C42.3528 15.678 42.3287 15.5453 42.1488 15.1514C41.6418 14.0414 40.3763 13.3996 39.2233 13.6676ZM2.04499 13.7127C0.437755 14.0569 -0.445118 15.8121 0.227199 17.3266C0.546761 18.0465 0.870401 18.2887 3.76136 19.971C5.20221 20.8094 6.38101 21.5135 6.38101 21.5354C6.38101 21.5574 5.20221 22.2621 3.76136 23.1013C0.874129 24.7831 0.549293 25.026 0.218619 25.7496C0.0422417 26.1356 0.016854 26.2736 0.0193858 26.8319C0.0219175 27.3885 0.0487117 27.5271 0.225511 27.8968C0.61343 28.7084 1.29763 29.2211 2.20146 29.3777C3.05241 29.525 3.08286 29.5105 8.27785 26.4915C13.4514 23.485 13.5865 23.3909 13.9086 22.5654C14.1418 21.9679 14.142 21.1023 13.9089 20.5052C13.5924 19.6943 13.4386 19.5867 8.3853 16.6429C5.87115 15.1783 3.66157 13.9194 3.47514 13.8454C3.06957 13.6842 2.44739 13.6265 2.04499 13.7127ZM86.623 15.3972C87.2286 15.5372 88.2399 16.0485 88.787 16.4913C89.6924 17.2239 90.5673 18.6288 90.8876 19.8641C91.0885 20.6392 91.0723 22.3744 90.8569 23.1347C90.2474 25.2865 88.6204 26.9443 86.6256 27.4464C85.8379 27.6447 84.5129 27.6066 83.8115 27.3655C82.4676 26.9036 81.3844 26.0295 80.6209 24.7911C79.9723 23.739 79.6009 22.2492 79.6941 21.0728C79.8845 18.6674 81.1911 16.6753 83.1883 15.7454C84.3 15.2278 85.4058 15.1157 86.623 15.3972ZM141.759 15.3993C142.01 15.4585 142.469 15.6266 142.778 15.7728C144.315 16.4989 145.401 17.8279 145.952 19.6564C146.123 20.2254 146.143 20.4041 146.147 21.3927C146.151 22.5908 146.074 23.0274 145.693 23.9616C145.053 25.531 143.687 26.8323 142.145 27.3411C141.464 27.566 140.187 27.6474 139.489 27.5102C136.587 26.94 134.49 23.8777 134.854 20.7414C135.282 17.0602 138.44 14.6165 141.759 15.3993ZM173.461 15.3907C175.59 15.833 177.279 17.4504 177.93 19.6685L178.039 20.0418H172.339H166.638L166.687 19.7752C166.768 19.3364 167.146 18.4896 167.502 17.9516C168.841 15.9288 171.191 14.919 173.461 15.3907ZM20.4462 16.6364C20.234 16.7203 16.5409 20.4236 16.3978 20.6959C16.2644 20.9501 16.2625 22.0276 16.3949 22.3371C16.5195 22.6281 20.1332 26.2646 20.398 26.3655C20.5069 26.4069 20.8609 26.4409 21.1846 26.4409C21.5084 26.4409 21.8624 26.4069 21.9712 26.3655C22.225 26.2688 25.8246 22.6456 25.9658 22.3446C26.1074 22.0431 26.1111 20.9617 25.9715 20.6959C25.817 20.4017 22.1259 16.717 21.9009 16.6323C21.6551 16.5399 20.6835 16.5426 20.4462 16.6364ZM21.4086 19.8323C21.6451 19.9217 22.6622 20.9161 22.8135 21.2058C23.0052 21.573 22.8967 21.7979 22.18 22.5194C21.6096 23.0937 21.4847 23.186 21.2304 23.2205C20.9386 23.26 20.9358 23.2582 20.2357 22.5628C19.4699 21.8021 19.3595 21.5819 19.5558 21.2058C19.698 20.9334 20.7167 19.9245 20.9385 19.8363C21.1686 19.7448 21.1772 19.7448 21.4086 19.8323ZM15.7771 27.2306C15.588 27.2606 15.3348 27.3257 15.2145 27.3752C15.0943 27.4247 12.8914 28.6916 10.3193 30.1905C5.17126 33.1905 5.07541 33.2577 4.77033 34.082C4.37384 35.1534 4.56273 36.1055 5.33582 36.9319C5.98374 37.6244 6.99777 37.9054 7.89668 37.6412C8.15745 37.5645 9.26086 36.9655 10.8656 36.0294C12.2702 35.21 13.4656 34.5217 13.522 34.4998C13.611 34.4652 13.6246 34.8753 13.6246 37.5831C13.6246 41.0542 13.637 41.1693 14.0842 41.8341C14.3734 42.264 14.693 42.5286 15.2271 42.7802C15.5678 42.9407 15.7252 42.9696 16.2633 42.9705C16.8393 42.9716 16.9408 42.9502 17.3664 42.7384C18.1666 42.3401 18.6985 41.609 18.8353 40.7192C18.8774 40.445 18.8964 38.1361 18.8839 34.7951C18.8611 28.6903 18.8936 29.0935 18.3613 28.3074C17.8259 27.517 16.7637 27.0744 15.7771 27.2306ZM25.7367 27.2289C24.9387 27.3366 24.1459 27.9334 23.7681 28.711L23.5757 29.1071L23.557 34.9327C23.5361 41.3753 23.5229 41.1617 23.9855 41.8434C24.3031 42.3114 24.8195 42.696 25.3589 42.8662C25.9257 43.0451 26.362 43.0446 26.9264 42.8647C27.7253 42.6099 28.3073 42.0508 28.6018 41.2551C28.7377 40.8879 28.7447 40.7118 28.7447 37.672C28.7447 35.9138 28.7581 34.4752 28.7744 34.4752C28.7908 34.4752 29.9063 35.1201 31.2534 35.9084C32.6005 36.6966 33.8738 37.4212 34.0829 37.5184C35.1558 38.0176 36.5888 37.6215 37.2557 36.6415C38.0119 35.5303 37.879 34.0981 36.9335 33.1698C36.6358 32.8774 27.4177 27.4761 26.9696 27.3314C26.5654 27.2008 26.1814 27.1689 25.7367 27.2289Z" fill="white"/>
</svg>
