<svg width="262" height="63" viewBox="0 0 262 63" fill="none" xmlns="http://www.w3.org/2000/svg">
<path fill-rule="evenodd" clip-rule="evenodd" d="M0 0.000862031C0 0.279929 0.559926 1.74886 1.12408 2.9499C3.93278 8.92894 10.7678 15.3858 21.1701 21.8866C23.9468 23.6218 26.1964 25.2117 27.5079 26.3657C28.5713 27.3013 30.1982 29.0701 30.9986 30.1611C31.9002 31.3899 31.9263 31.4108 31.675 30.7069C30.7807 28.2014 29.6419 26.4049 27.4037 23.9687C25.0144 21.368 23.4401 20.0632 18.37 16.4815C11.0521 11.3117 7.72682 8.41987 2.50768 2.68672C1.12851 1.17172 0 -0.0369151 0 0.000862031ZM11.7212 2.893C12.1038 4.04901 13.0401 6.06202 13.6763 7.09617C15.3658 9.84273 16.9633 11.4666 22.182 15.7415C25.8018 18.7067 27.3729 20.1242 28.932 21.8318C30.9336 24.024 31.8516 25.4282 33.4154 28.6892C33.8704 29.6382 34.8582 31.504 35.6106 32.8354C38.2069 37.4303 39.354 39.0697 41.0654 40.6317C43.717 43.0516 45.3249 43.9008 47.9977 44.2931C48.5162 44.3692 50.6913 44.4137 53.541 44.4064C58.5134 44.3939 59.741 44.4836 61.5759 44.994C64.149 45.7098 66.7233 47.0854 69.1215 49.0259C70.2279 49.9212 71.8998 51.6193 72.5464 52.5045C72.7665 52.8061 72.9743 53.0038 73.0081 52.9442C73.1733 52.6528 73.25 51.6785 73.158 51.0396C72.9801 49.8031 72.032 47.9919 70.7724 46.4829C70.3353 45.9591 70.2368 45.7592 70.1905 45.3026C70.1171 44.5782 69.7027 43.9419 68.9005 43.3216C67.7095 42.4008 66.404 41.8112 63.0324 40.6714C61.7853 40.2499 60.5241 39.7861 60.2296 39.6407C59.1686 39.1173 59.0866 38.1541 59.9091 35.8736C60.4971 34.2438 60.6423 33.5464 60.5881 32.6164C60.4212 29.7582 56.8353 27.1987 48.8293 24.2232C46.9718 23.5328 45.8161 23.1471 40.1229 21.3179C27.2879 17.194 19.0899 11.9164 12.5745 3.58336C12.0297 2.88655 11.5634 2.29087 11.5383 2.25954C11.5132 2.22822 11.5954 2.51327 11.7212 2.893ZM2.79044 11.3287C2.82792 11.503 3.06455 12.112 3.31627 12.6821C5.01209 16.5236 9.2611 20.6637 15.838 24.8826C16.7962 25.4973 19.3382 26.9481 21.4869 28.1066C27.2629 31.2209 28.8283 32.3148 31.217 34.9065C32.4624 36.2577 32.4923 36.2817 32.2347 35.72C31.1466 33.3476 28.9048 30.7611 26.067 28.6039C24.3241 27.279 22.8319 26.2963 19.4279 24.2316C15.352 21.7594 14.3773 21.1277 12.0897 19.4765C9.02406 17.2636 6.41945 14.978 3.97248 12.353C2.97374 11.2816 2.73596 11.0756 2.79044 11.3287ZM16.9733 35.8482C19.4057 38.9491 23.1977 41.727 27.2941 43.4088C28.5755 43.9349 29.2252 44.144 32.943 45.227C35.4569 45.9593 36.7873 46.4521 39.1119 47.5118C40.0948 47.96 40.9174 48.3064 40.9401 48.2818C41.0105 48.2048 37.8111 45.0515 36.4801 43.8862C33.591 41.3565 29.9649 39.091 27.208 38.093C26.4637 37.8236 25.8077 37.6203 25.7501 37.6413C25.6926 37.6621 26.0021 37.9004 26.4376 38.1709C27.4231 38.7824 28.5879 39.7683 28.9692 40.3137L29.2582 40.7271H28.3164C25.0565 40.7271 21.0669 38.8973 16.7883 35.4397C16.4615 35.1757 16.4829 35.2229 16.9733 35.8482ZM36.3745 40.9118C39.1376 43.5859 44.3293 49.2125 46.2432 51.6072L47.2426 52.8577L46.7711 52.7784C46.1385 52.672 44.726 51.9254 43.7029 51.1568C43.2438 50.8118 42.8681 50.558 42.8681 50.5926C42.8681 50.7635 44.3647 52.5792 45.3799 53.64C46.556 54.8691 47.9251 55.9988 49.1775 56.7738C49.5692 57.0161 49.9263 57.2531 49.9711 57.3004C50.0765 57.4115 48.6119 57.2275 48.2095 57.079C47.6966 56.8898 47.7747 57.0456 48.4176 57.4942C49.4843 58.2385 50.1939 58.4976 51.315 58.5523C52.203 58.5956 52.4013 58.567 53.0434 58.3023C53.4423 58.1377 53.7853 58.0032 53.8057 58.0032C53.8261 58.0032 54.0094 58.3966 54.213 58.8774C54.6727 59.9625 55.4021 61.0909 55.9502 61.5644C56.7196 62.2292 57.905 62.6249 58.5727 62.4398L58.8645 62.3591L58.4492 62.1255C58.2208 61.9971 57.7916 61.626 57.4953 61.3009C56.5145 60.2244 56.4912 59.2131 57.4248 58.2335C57.7019 57.9428 58.1495 57.6223 58.4443 57.5036C59.137 57.2246 60.5652 57.1221 61.1728 57.3076C62.1047 57.5922 62.7746 58.4929 62.8977 59.6269C62.9318 59.9411 62.9947 60.2218 63.0375 60.2507C63.1761 60.3441 63.5925 58.7026 63.6044 58.0161C63.6294 56.5641 63.0449 56.2112 60.2371 55.9834C58.4262 55.8364 57.1694 55.4348 56.2722 54.7165C55.8359 54.3671 55.2217 53.5747 55.2217 53.3612C55.2217 53.3171 55.7153 53.281 56.3186 53.281C57.6268 53.281 58.7078 52.9824 60.3427 52.1693C62.8649 50.9148 63.242 50.745 64.1232 50.4677C65.4587 50.0474 67.0646 49.8765 68.4499 50.0071C69.0723 50.0657 69.5815 50.1028 69.5815 50.0893C69.5815 50.0759 68.9045 49.5739 68.0769 48.9741C65.448 47.0683 63.2816 45.9793 60.8706 45.3518C59.7817 45.0683 59.551 45.0497 57.1751 45.0529C54.8642 45.056 54.4225 45.0907 52.1597 45.4462C46.051 46.4061 43.2435 45.7189 37.9856 41.9772C36.9253 41.2226 36.2003 40.7432 36.3745 40.9118ZM67.7337 44.2617C68.4927 44.4661 69.1028 44.82 69.3204 45.1822C69.5093 45.4968 69.6545 46.4858 69.5117 46.4858C69.4575 46.4858 69.2254 46.2756 68.9958 46.0186C68.7663 45.7617 68.1508 45.2355 67.6282 44.8494C66.2321 43.8181 66.2253 43.8556 67.7337 44.2617Z" fill="white"/>
<path fill-rule="evenodd" clip-rule="evenodd" d="M90.597 31.4525C87.783 31.9677 85.4548 33.8126 84.3063 36.4372C83.7629 37.679 83.5586 38.7388 83.5586 40.3154C83.5586 41.8358 83.7584 42.9173 84.2599 44.1108C85.006 45.8865 86.2241 47.2579 87.8918 48.1997C89.1548 48.9129 90.1146 49.1854 91.636 49.2626C93.664 49.3656 95.2948 48.9317 96.7859 47.8928C97.5811 47.3389 98.7631 46.1004 98.7631 45.8212C98.7631 45.5621 96.0388 42.9644 95.7669 42.9644C95.6555 42.9644 95.3596 43.1476 95.1091 43.3713C93.2569 45.0268 90.788 44.9605 89.3435 43.2163C87.6047 41.1169 88.1743 37.7413 90.4757 36.5055C91.9713 35.7022 93.829 36.0349 95.1247 37.3376C95.3779 37.5922 95.6603 37.7834 95.752 37.7623C95.8438 37.7413 96.5561 37.128 97.3349 36.3995C98.3058 35.4913 98.7528 34.9979 98.757 34.8298C98.7648 34.5141 97.545 33.2486 96.6811 32.676C95.0034 31.5644 92.6123 31.0835 90.597 31.4525ZM123.576 31.4085C122.047 31.6709 120.393 32.4141 119.267 33.3447C118.01 34.3842 116.927 36.1879 116.485 37.9789C116.164 39.2809 116.165 41.4142 116.489 42.6765C117.289 45.8002 119.43 48.087 122.393 48.9807C123.604 49.3461 126.242 49.3455 127.408 48.9796C129.951 48.1807 131.73 46.6241 132.767 44.2889C134.888 39.5125 132.901 33.9093 128.418 32.0234C127.079 31.4602 124.893 31.1826 123.576 31.4085ZM183.074 31.4142C181.847 31.5991 180.431 32.2737 179.616 33.0608C177.588 35.0196 177.726 38.7109 179.895 40.5361C180.965 41.4369 181.836 41.8364 184.667 42.7249C185.626 43.0258 185.977 43.3187 185.977 43.8165C185.977 44.8535 184.329 45.251 182.617 44.6269C181.833 44.341 180.442 43.4945 180.171 43.1385C179.888 42.7659 179.653 42.9605 178.539 44.4905C177.927 45.3299 177.427 46.1012 177.426 46.2047C177.424 46.5971 178.774 47.7073 180.014 48.3322C181.377 49.0189 182.41 49.2342 184.341 49.2339C186.26 49.2337 186.888 49.0981 188.185 48.4049C189.21 47.857 189.998 47.015 190.441 45.9952C190.766 45.2465 190.782 45.1466 190.782 43.8282C190.782 42.5029 190.767 42.4131 190.432 41.6399C189.767 40.1057 188.579 39.2448 185.819 38.2953C184.948 37.9957 184.069 37.6589 183.866 37.5469C182.934 37.0336 182.75 36.2432 183.443 35.7302C183.777 35.4828 183.901 35.4609 184.727 35.5023C185.519 35.5419 185.746 35.6043 186.417 35.9663C186.843 36.1963 187.389 36.5693 187.631 36.7951C187.872 37.021 188.144 37.2057 188.234 37.2057C188.455 37.2057 190.623 34.3701 190.623 34.0818C190.623 33.6131 189.297 32.582 187.981 32.0289C186.61 31.4518 184.541 31.1928 183.074 31.4142ZM100.875 40.3086V48.9535H103.196H105.517L105.545 45.9302L105.573 42.9068L105.975 42.9205C106.696 42.9451 107.592 43.9644 108.874 46.2217C109.72 47.7093 110.387 48.4829 111.199 48.9181C111.755 49.2155 111.9 49.2414 113.017 49.2414C114.081 49.2414 114.288 49.2086 114.684 48.9776C115.395 48.5636 115.414 48.4247 115.017 46.5203C114.638 44.7082 114.538 44.4824 114.198 44.6807C113.671 44.9883 113.251 44.7128 112.574 43.616C112.333 43.226 111.98 42.7442 111.79 42.5454L111.444 42.1841L112.055 41.7727C113.399 40.8678 114.163 39.5037 114.258 37.8393C114.428 34.8594 113.083 32.796 110.412 31.9433C109.886 31.7751 109.153 31.7408 105.336 31.7052L100.875 31.6638V40.3086ZM134.19 31.8977C134.15 32.0367 135.189 35.2231 137.008 40.5385L139.889 48.959L141.356 48.9275L142.823 48.8959L144.418 44.2669C145.295 41.721 146.046 39.6738 146.086 39.7176C146.126 39.7613 146.87 41.8444 147.739 44.3465L149.32 48.8959L150.786 48.9277L152.253 48.9595L155.132 40.5466C156.716 35.9195 157.996 32.0439 157.977 31.9343C157.945 31.7536 157.724 31.7321 155.617 31.704L153.292 31.6731L151.928 36.3474C151.177 38.9182 150.531 41.0433 150.492 41.0697C150.453 41.0962 149.769 38.9937 148.971 36.3975L147.522 31.6773H146.069H144.615L143.154 36.398C142.35 38.9944 141.662 41.0805 141.626 41.0338C141.59 40.9871 140.95 38.8628 140.205 36.3131L138.849 31.6773H136.552C134.382 31.6773 134.251 31.6896 134.19 31.8977ZM160.32 40.3154V48.9535H164.601C169.198 48.9535 169.736 48.9015 171.15 48.3211C173.314 47.4328 174.994 45.34 175.589 42.7917C175.849 41.6764 175.853 38.9683 175.596 37.8392C175.08 35.5775 173.689 33.6669 171.829 32.6682C170.13 31.7557 169.579 31.6807 164.57 31.6788L160.32 31.6773V40.3154ZM192.313 33.7483V35.8192L194.662 35.8502L197.011 35.8812L197.039 42.4173L197.066 48.9535H199.387H201.708L201.735 42.4173L201.763 35.8812L204.112 35.8502L206.461 35.8192V33.7483V31.6773H199.387H192.313V33.7483ZM208.151 40.3077V48.9535H210.526H212.902V45.9014V42.8493H213.432C214.064 42.8493 213.855 42.5296 215.645 46.2326L216.963 48.9576L219.392 48.9268C221.499 48.9 221.826 48.8719 221.853 48.7154C221.871 48.6161 221.194 47.1327 220.35 45.4187C219.506 43.7048 218.815 42.2569 218.815 42.2013C218.815 42.1458 219.038 41.9712 219.311 41.8134C220.026 41.3991 220.753 40.5524 221.153 39.6656C221.461 38.9833 221.506 38.7607 221.544 37.7432C221.569 37.068 221.532 36.3266 221.455 35.9489C221.146 34.4345 220.235 33.1525 218.994 32.4863C217.646 31.7625 217.603 31.7571 212.664 31.7073L208.151 31.6619V40.3077ZM224.939 40.3154V48.9535H227.262H229.585V40.3154V31.6773H227.262H224.939V40.3154ZM233.491 40.3154V48.9535H235.867H238.243V46.2976V43.6418L238.635 43.1303C238.85 42.849 239.057 42.6189 239.094 42.6189C239.131 42.6189 240.051 44.0451 241.139 45.7883L243.117 48.9575L245.669 48.9268C248.173 48.8965 248.221 48.8914 248.214 48.6574C248.211 48.5262 246.957 46.4319 245.428 44.0032C243.899 41.5745 242.643 39.5247 242.636 39.4483C242.63 39.3718 243.789 37.7093 245.212 35.7538C246.653 33.7725 247.798 32.0958 247.798 31.9667C247.798 31.7416 247.724 31.734 245.205 31.7042L242.612 31.6734L240.428 34.7413L238.243 37.8093V34.7433V31.6773H235.867H233.491V40.3154ZM250.068 40.3154V48.9535H256.034H262V46.8818V44.8102L258.383 44.7799L254.767 44.7496L254.737 43.5115L254.707 42.2734H257.456H260.205V40.3154V38.3575H257.456H254.707L254.737 37.1193L254.767 35.8812L258.331 35.8509L261.894 35.8205V33.749V31.6773H255.981H250.068V40.3154ZM108.14 35.9447C109.603 36.2871 109.951 38.4913 108.661 39.243C108.388 39.4017 108.039 39.4433 106.946 39.447L105.573 39.4516L105.544 37.7869C105.528 36.8712 105.538 36.055 105.567 35.9729C105.633 35.7857 107.378 35.7666 108.14 35.9447ZM168.629 36.1037C169.402 36.3655 170.231 37.218 170.62 38.1512C170.873 38.7599 170.929 39.0652 170.965 40.0601C171.002 41.0647 170.972 41.3706 170.765 42.0756C170.559 42.7804 170.425 43.0134 169.882 43.607C169.011 44.5599 168.611 44.7037 166.629 44.7776L165.071 44.8358V40.3138V35.7918L166.576 35.8549C167.505 35.894 168.29 35.989 168.629 36.1037ZM215.915 36.1226C216.736 36.5788 217.05 37.91 216.519 38.6873C216.091 39.3139 215.712 39.448 214.248 39.4919L212.902 39.5323V37.6641V35.7959L214.199 35.8429C215.231 35.8804 215.581 35.9374 215.915 36.1226ZM126.012 36.2369C127.919 36.8454 129.097 38.9104 128.746 41.0332C128.414 43.0385 127.021 44.4251 125.21 44.5519C123.52 44.6703 122.101 43.7595 121.39 42.1006C121.132 41.496 121.095 41.2729 121.095 40.3154C121.095 39.3529 121.131 39.1349 121.399 38.5033C122.199 36.6143 124.165 35.648 126.012 36.2369Z" fill="white"/>
</svg>
