<svg width="150" height="42" viewBox="0 0 150 42" fill="none" xmlns="http://www.w3.org/2000/svg">
<path fill-rule="evenodd" clip-rule="evenodd" d="M20.4211 0.103655C18.5067 0.410132 16.6906 1.42192 15.4728 2.86039C14.7878 3.66965 14.284 4.46159 12.6515 7.29582C7.84236 15.6448 2.18849 26.059 0.856001 29.0227C-0.124596 31.2036 -0.261366 33.2608 0.438834 35.2969C1.21129 37.5429 3.1423 39.5466 5.53238 40.5824C6.9145 41.1814 8.06527 41.4401 9.5255 41.4803C11.5261 41.5354 13.2111 41.1966 15.144 40.3507C17.0581 39.513 18.4765 38.5659 20.5304 36.7543L21.6977 35.7247L22.9623 36.8304C25.4381 38.9953 27.482 40.2223 29.8085 40.9406C31.9743 41.6091 34.5549 41.6743 36.4311 41.1077C38.8127 40.3885 40.6313 39.138 41.879 37.3615C42.5315 36.4325 42.9687 35.4236 43.2528 34.1912C43.6479 32.4777 43.5126 31.0423 42.7964 29.3464C42.5614 28.7898 41.5696 26.7947 41.0582 25.8497C40.8803 25.521 40.4846 24.7726 40.1788 24.1866C37.4768 19.0085 34.0466 12.8181 30.6608 7.00997C28.952 4.07871 28.5796 3.49663 27.9898 2.83565C26.6296 1.31132 24.9799 0.392098 23.0869 0.103707C22.406 -2.90163e-05 21.0689 -8.09841e-05 20.4211 0.103655ZM23.0391 2.87463C24.2923 3.15892 25.2916 3.82161 26.1088 4.91031C27.3417 6.55293 35.5029 21.2183 38.7593 27.6428C38.9766 28.0715 39.2865 28.6796 39.4479 28.994C40.1043 30.2728 40.3697 31.0582 40.4824 32.0558C40.7678 34.5803 39.3125 37.0271 36.8288 38.1989C35.6895 38.7364 34.8332 38.9184 33.4562 38.9156C32.612 38.9138 32.4001 38.8953 31.7861 38.7693C29.3807 38.2756 27.0976 36.9335 24.3768 34.4139C23.9369 34.0064 23.7344 33.7829 23.765 33.7382C23.79 33.7015 23.9985 33.461 24.2282 33.2037C25.6126 31.6533 27.0044 29.7582 27.816 28.3184C29.7576 24.8742 30.1988 21.7948 29.0879 19.4428C28.2759 17.7238 26.6256 16.3587 24.5894 15.7215C23.6175 15.4174 23.0057 15.3324 21.7657 15.3288C20.806 15.3261 20.5683 15.3423 20.044 15.4463C18.4669 15.7593 17.207 16.3357 16.137 17.234C14.0655 18.973 13.3201 21.4965 14.0376 24.3407C14.7398 27.1246 16.4243 29.9955 19.2587 33.2394C19.5256 33.5449 19.744 33.8108 19.744 33.8303C19.744 33.9035 18.516 35.0354 17.8102 35.6128C14.3863 38.4137 11.3087 39.4383 8.26661 38.79C5.04495 38.1034 2.83114 35.4512 3.00114 32.4816C3.05915 31.4672 3.35566 30.5179 4.04168 29.1499C4.52208 28.1921 7.21505 23.0962 8.49105 20.7305C10.0266 17.8837 13.1505 12.3165 14.9069 9.29673C17.3644 5.07153 17.5312 4.81323 18.2335 4.14737C19.4791 2.96647 21.3082 2.48204 23.0391 2.87463ZM75.4921 7.7659C73.857 8.02223 72.7614 9.36258 73.0041 10.8097C73.2267 12.1371 74.5124 13.1183 76.0261 13.116C76.855 13.1148 77.5269 12.8606 78.1434 12.3151C80.0134 10.6602 78.8207 7.93065 76.1456 7.74319C75.9522 7.72963 75.6581 7.73987 75.4921 7.7659ZM93.5202 19.3533V30.943L95.3514 30.9417C96.3587 30.941 97.2881 30.9189 97.4171 30.8924C97.8002 30.8138 97.9145 30.6375 97.9149 30.1244C97.915 29.8886 97.9362 29.6956 97.9619 29.6956C97.9875 29.6956 98.1128 29.7911 98.2402 29.9077C98.5666 30.2065 99.3951 30.6876 99.912 30.8785C101.53 31.4759 103.631 31.4679 105.611 30.8566C108.202 30.0565 110.243 28.1895 111.09 25.8435C111.466 24.8018 111.533 24.3851 111.534 23.0692C111.535 21.7345 111.464 21.3002 111.07 20.2534C110.053 17.5444 107.572 15.6146 104.361 15.0342C103.515 14.8812 102.185 14.8474 101.428 14.9596C100.268 15.1315 99.2724 15.53 98.422 16.162L97.9738 16.4952V12.1294V7.76356H95.747H93.5202V19.3533ZM131.917 19.3403L131.932 30.917H133.901C135.426 30.917 135.903 30.9014 136.015 30.848C136.27 30.7267 136.356 30.5277 136.356 30.0562V29.6272L136.724 29.9406C137.501 30.6026 138.582 31.0629 139.812 31.2559C140.347 31.34 141.688 31.3263 142.371 31.2299C145.306 30.8152 147.693 29.2794 149.002 26.9626C150.334 24.6052 150.333 21.5932 149 19.246C148.084 17.6347 146.781 16.4825 145 15.7115C143.769 15.1789 142.76 14.9519 141.393 14.9007C139.48 14.829 137.961 15.2706 136.722 16.259L136.415 16.5044V12.134V7.76356H134.159H131.902L131.917 19.3403ZM60.9684 14.9179C57.3626 15.3015 54.5615 17.2482 53.4198 20.1636C52.5278 22.4416 52.7082 24.9411 53.9171 27.0549C54.9207 28.8099 56.6814 30.19 58.7417 30.8366C59.8349 31.1797 60.703 31.3104 61.906 31.3126C63.701 31.3161 65.2318 30.8046 66.2518 29.8605L66.5061 29.6251V30.0527C66.5061 30.3198 66.5372 30.5338 66.589 30.6226C66.7562 30.9094 66.8169 30.917 68.9613 30.917H70.9303L70.9451 23.1063L70.9599 15.2956L68.9101 15.3105L66.8602 15.3255L66.6978 15.4695C66.5504 15.6003 66.5334 15.6542 66.5147 16.0543L66.494 16.4949L66.1924 16.2542C65.3435 15.5769 64.2736 15.132 63.0812 14.9605C62.6063 14.8921 61.433 14.8686 60.9684 14.9179ZM88.7444 14.9566C87.6514 15.1808 86.5438 15.677 85.8646 16.2467L85.5508 16.5099L85.5504 16.2295C85.55 15.8323 85.4578 15.5867 85.2515 15.4327L85.073 15.2995H83.0851H81.0972V23.1212V30.943H83.324H85.5508V25.4922V20.0415L85.956 19.7025C86.5708 19.1881 87.2961 18.8488 88.2256 18.6407C88.8253 18.5065 90.4369 18.517 91.133 18.6598L91.6465 18.7651L91.6311 16.9153L91.6158 15.0656L91.2642 14.9996C90.7159 14.8967 89.1656 14.8702 88.7444 14.9566ZM121.327 14.9381C120.781 15.0141 120.081 15.187 119.601 15.364C119.1 15.5489 118.257 16.0343 117.959 16.3086C117.848 16.411 117.739 16.4948 117.716 16.4948C117.694 16.4948 117.666 16.2965 117.654 16.0542C117.636 15.6543 117.619 15.6003 117.471 15.4695L117.309 15.3255L115.376 15.3104L113.444 15.2954L113.458 23.1062L113.473 30.917H115.7H117.927L117.942 25.4519L117.957 19.9869L118.293 19.7132C119.412 18.8036 120.734 18.4006 122.196 18.5234C123.735 18.6527 124.523 19.2156 124.876 20.4367C125.067 21.096 125.103 22.0932 125.104 26.6163L125.105 30.943H127.334H129.564L129.541 25.5249C129.517 19.7765 129.523 19.9107 129.237 18.9375C128.988 18.0878 128.44 17.2722 127.696 16.6417C126.706 15.8032 125.586 15.2867 124.168 15.0148C123.644 14.9145 121.845 14.8659 121.327 14.9381ZM73.7723 23.1218V30.9442L76.0138 30.9306L78.2552 30.917L78.27 23.1082L78.2848 15.2995H76.0286H73.7723V23.1218ZM23.1427 17.975C23.3522 18.0234 23.7894 18.1764 24.1141 18.3149C25.3909 18.8594 26.2862 19.9133 26.5811 21.2189C26.7048 21.7664 26.7011 22.8374 26.5733 23.485C26.2291 25.229 25.1739 27.2819 23.4345 29.5917C22.7429 30.51 21.8159 31.6186 21.7395 31.6186C21.7088 31.6186 21.422 31.3087 21.1022 30.93C18.7244 28.1134 17.3226 25.6128 16.9031 23.4392C16.7761 22.7809 16.7881 21.7325 16.9298 21.1203C17.2974 19.5323 18.7197 18.3013 20.623 17.9238C21.1356 17.8221 22.6115 17.8521 23.1427 17.975ZM103.381 18.7498C103.996 18.8898 104.729 19.1888 105.186 19.4859C105.95 19.9834 106.606 20.8428 106.893 21.7215C107.01 22.0813 107.027 22.2495 107.027 23.0433C107.027 24.0622 106.961 24.3849 106.612 25.0618C105.973 26.2997 104.766 27.1169 103.101 27.4383C102.407 27.5722 101.196 27.5615 100.581 27.416C99.6672 27.1996 98.8035 26.7286 98.2614 26.1509L97.9738 25.8443V23.0627V20.2811L98.3107 19.967C99.0506 19.2773 100.051 18.8053 101.197 18.606C101.574 18.5404 102.821 18.6224 103.381 18.7498ZM141.747 18.7324C142.307 18.8581 143.062 19.1527 143.486 19.4109C144.369 19.9478 144.961 20.6861 145.302 21.676C145.448 22.0979 145.46 22.2051 145.461 23.0433C145.462 23.8242 145.444 24.0115 145.332 24.3685C144.775 26.1516 143.204 27.2745 140.927 27.517C139.31 27.6893 137.762 27.2042 136.743 26.2061L136.415 25.884V23.0803V20.2765L136.599 20.0877C137.256 19.4152 138.378 18.838 139.397 18.6482C139.945 18.5461 141.104 18.5877 141.747 18.7324ZM63.6225 18.708C64.5705 18.8808 65.5004 19.3391 66.1471 19.9522L66.5061 20.2926V23.0924V25.8922L66.2445 26.177C65.7272 26.7401 64.7798 27.2472 63.8398 27.464C63.24 27.6023 62.1226 27.6129 61.4408 27.4867C59.4515 27.1186 58.1246 26.0646 57.5932 24.4306C57.5057 24.1614 57.4632 23.8457 57.4415 23.3031C57.4017 22.3052 57.5219 21.7588 57.9543 20.9738C58.2216 20.4884 58.3214 20.3669 58.7931 19.953C59.3952 19.4246 59.775 19.2064 60.5302 18.9548C61.4882 18.6356 62.6966 18.5392 63.6225 18.708Z" fill="white"/>
</svg>
