<svg width="58" height="58" viewBox="0 0 58 58" fill="none" xmlns="http://www.w3.org/2000/svg">
<path fill-rule="evenodd" clip-rule="evenodd" d="M29.4986 1.41677L29.9491 2.83353L31.4112 2.8596L32.8734 2.88566L31.7681 3.69129C31.1602 4.13438 30.6276 4.52061 30.5844 4.54952C30.5414 4.57852 30.7169 5.23648 30.9745 6.01178C31.2321 6.78717 31.4328 7.43072 31.4204 7.442C31.4081 7.45328 30.8809 7.08317 30.2488 6.6195C29.6167 6.15584 29.0557 5.77644 29.0021 5.77644C28.9484 5.77644 28.3869 6.1566 27.7542 6.62121C27.1214 7.08582 26.5937 7.45593 26.5814 7.44371C26.569 7.43148 26.7697 6.78717 27.0273 6.01178C27.2849 5.23648 27.4616 4.57852 27.42 4.54952C27.3783 4.52061 26.8486 4.13438 26.2428 3.69129L25.1414 2.88566L26.597 2.8596L28.0527 2.83353L28.5032 1.41677C28.7511 0.637582 28.975 0 29.0009 0C29.0267 0 29.2507 0.637582 29.4986 1.41677ZM16.9304 4.73386L17.376 6.15556H18.8697C19.709 6.15556 20.341 6.19224 20.3122 6.23925C20.284 6.28521 19.7527 6.69324 19.1316 7.14591C18.5104 7.59858 18.0022 7.99997 18.0022 8.03769C18.0022 8.07551 18.1928 8.67954 18.4259 9.38005C18.6589 10.0805 18.8385 10.6869 18.8251 10.7274C18.8117 10.7681 18.2769 10.4168 17.6365 9.94674C16.895 9.40242 16.4342 9.12187 16.3677 9.174C15.724 9.67757 14.1229 10.8061 14.0938 10.7767C14.0729 10.7558 14.2458 10.1677 14.4779 9.4699C14.7101 8.77214 14.8983 8.1355 14.8962 8.05513C14.8941 7.97476 14.3566 7.52512 13.7017 7.05596L12.5108 6.20295L14.0334 6.17688L15.5561 6.15091L16.0003 4.73149C16.2446 3.95089 16.4535 3.31217 16.4646 3.31217C16.4757 3.31217 16.6853 3.95193 16.9304 4.73386ZM43.9687 6.17688L45.4895 6.20295L44.3353 7.04402C43.7004 7.50654 43.1591 7.94253 43.1324 8.01286C43.1056 8.08328 43.2775 8.72541 43.5144 9.44005C43.7513 10.1546 43.9285 10.7561 43.9081 10.7766C43.8877 10.7972 43.4759 10.5213 42.9929 10.1635C42.51 9.80571 41.9837 9.42033 41.8235 9.30717L41.5324 9.1014L40.3672 9.9529C39.7264 10.4212 39.1909 10.7705 39.1772 10.7291C39.1634 10.6875 39.3429 10.0805 39.5759 9.38005C39.809 8.67954 39.9996 8.07589 39.9996 8.03864C39.9996 8.00129 39.4607 7.57299 38.802 7.08686L37.6042 6.20295L39.1158 6.17698L40.6272 6.15101L41.081 4.70789L41.5346 3.26478L41.9913 4.7078L42.448 6.15091L43.9687 6.17688ZM9.74327 15.444H11.2501L10.1373 16.2586C9.52536 16.7066 8.97721 17.1224 8.9193 17.1827C8.84118 17.2639 8.93087 17.6464 9.26666 18.6638C9.51558 19.4182 9.7083 20.0466 9.69476 20.0601C9.68132 20.0738 9.14501 19.701 8.50304 19.2318C7.86098 18.7627 7.28406 18.3987 7.22089 18.4232C7.15772 18.4476 6.61728 18.8322 6.01987 19.2779C5.42255 19.7235 4.91831 20.0882 4.8995 20.0882C4.88061 20.0882 5.06693 19.4591 5.31351 18.6902C5.83825 17.054 5.94232 17.3327 4.38952 16.2142L3.32669 15.4487L4.85391 15.4226L6.38104 15.3966L6.76863 14.1605C6.98184 13.4806 7.1879 12.8415 7.22644 12.7402C7.27767 12.6056 7.42291 12.9442 7.76651 14L8.23654 15.444H9.74327ZM51.2069 14.0697L51.6205 15.3966L53.1521 15.4226L54.6838 15.4488L53.5697 16.2567C52.9569 16.701 52.407 17.1158 52.348 17.1783C52.2667 17.2644 52.3502 17.6347 52.6898 18.694L53.1391 20.0958L52.8912 19.9326C52.7549 19.8428 52.2494 19.4762 51.7678 19.1178C51.2861 18.7594 50.8411 18.4465 50.779 18.4225C50.7169 18.3984 50.1408 18.7627 49.4987 19.2318C48.8568 19.701 48.3205 20.0738 48.307 20.0601C48.2935 20.0466 48.4862 19.4182 48.7351 18.6638C49.073 17.6402 49.1611 17.2633 49.0825 17.1783C49.0246 17.1158 48.4744 16.7 47.8597 16.2542L46.7422 15.444H48.2544H49.7665L50.2179 14.031C50.4662 13.2538 50.6972 12.646 50.7313 12.6804C50.7655 12.7147 50.9794 13.3399 51.2069 14.0697ZM6.36976 28.071L7.89228 28.097L6.70038 28.9501C6.04488 29.4192 5.50763 29.867 5.50641 29.9452C5.50528 30.0234 5.69207 30.6611 5.92164 31.3624C6.1511 32.0636 6.32342 32.6529 6.30443 32.672C6.28553 32.691 5.78993 32.3494 5.20315 31.9129C4.61636 31.4763 4.08814 31.0901 4.02929 31.0544C3.96997 31.0185 3.40716 31.3679 2.76528 31.839C2.12896 32.3061 1.5919 32.6718 1.57188 32.6517C1.55195 32.6315 1.73084 32.0126 1.96952 31.2762C2.2082 30.5399 2.38212 29.9026 2.35598 29.8599C2.32985 29.8174 1.78903 29.4033 1.15421 28.9397L0 28.097L1.5119 28.0711L3.02371 28.0451L3.47776 26.602L3.93171 25.1589L4.38952 26.6019L4.84733 28.045L6.36976 28.071ZM54.5352 26.6257L54.9781 28.0451L56.489 28.0711L58 28.097L56.8023 28.9809C56.1436 29.4671 55.6046 29.8954 55.6046 29.9327C55.6046 29.97 55.7953 30.5736 56.0283 31.2741C56.2614 31.9746 56.4411 32.5784 56.4278 32.6158C56.4146 32.6533 55.8799 32.3034 55.2397 31.8383L54.0758 30.9926L53.7826 31.1998C53.6214 31.3139 53.0943 31.6998 52.6114 32.0576C52.1284 32.4154 51.7163 32.6912 51.6958 32.6704C51.6752 32.6497 51.8482 32.0618 52.0803 31.364C52.3125 30.6662 52.5004 30.0296 52.4977 29.9492C52.4952 29.8688 51.9616 29.4192 51.312 28.9501L50.131 28.097L51.6448 28.071L53.1586 28.045L53.6028 26.6256C53.8471 25.845 54.0572 25.2063 54.0697 25.2063C54.0821 25.2063 54.2916 25.845 54.5352 26.6257ZM7.78108 39.3272L8.22977 40.7453L9.69382 40.7714L11.158 40.7975L10.0526 41.6031C9.4448 42.0462 8.91216 42.4324 8.86901 42.4614C8.82595 42.4904 9.00146 43.1483 9.25904 43.9236C9.51671 44.699 9.71741 45.3431 9.70501 45.3553C9.69269 45.3673 9.175 44.9988 8.55456 44.5363C7.93412 44.0738 7.37497 43.6939 7.31199 43.6919C7.249 43.6899 6.67885 44.0696 6.04516 44.5357C5.41137 45.0017 4.88343 45.3736 4.87187 45.362C4.8604 45.3503 5.06016 44.7024 5.31586 43.9222C5.57156 43.142 5.78081 42.5016 5.781 42.4994C5.78119 42.4971 5.25109 42.1132 4.60292 41.6463L3.42436 40.7975L4.8808 40.7714L6.33723 40.7454L6.78781 39.3286C7.0357 38.5494 7.25962 37.9112 7.28548 37.9104C7.31133 37.9097 7.5344 38.5471 7.78108 39.3272ZM51.214 39.3286L51.6645 40.7454L53.1202 40.7714L54.5758 40.7975L53.4744 41.6031C52.8686 42.0462 52.3399 42.4318 52.2996 42.4599C52.2591 42.4881 52.4329 43.1492 52.6855 43.929C52.9381 44.7089 53.1377 45.3538 53.1291 45.3624C53.1205 45.3708 52.5958 44.9977 51.963 44.5331C51.3303 44.0684 50.7692 43.6883 50.7163 43.6883C50.6634 43.6883 50.1024 44.0684 49.4696 44.5331C48.8368 44.9977 48.3091 45.3678 48.2968 45.3555C48.2844 45.3433 48.4851 44.699 48.7427 43.9236C49.0003 43.1483 49.1771 42.4904 49.1354 42.4614C49.0938 42.4324 48.564 42.0462 47.9583 41.6031L46.8568 40.7975L48.3144 40.7714L49.772 40.7453L50.2207 39.3272C50.4674 38.5471 50.6905 37.9097 50.7163 37.9104C50.7422 37.9112 50.9661 38.5494 51.214 39.3286ZM16.9328 48.5198L17.3756 49.9392L18.8828 49.9652L20.39 49.9911L19.1961 50.8741C18.5394 51.3596 18.0022 51.7715 18.0022 51.7891C18.0022 51.8067 18.1955 52.4265 18.4318 53.1663C18.668 53.9062 18.8468 54.5261 18.8291 54.5441C18.8113 54.5621 18.277 54.1944 17.6417 53.7272C16.9625 53.2278 16.4405 52.9058 16.3748 52.9456C16.3134 52.9827 15.783 53.3704 15.1962 53.807C14.6094 54.2435 14.1138 54.5851 14.0949 54.566C14.0759 54.547 14.2482 53.9577 14.4777 53.2565C14.7073 52.5552 14.895 51.9175 14.895 51.8393C14.895 51.7611 14.3634 51.3133 13.7137 50.8441L12.5324 49.9911L14.0419 49.9651L15.5513 49.9391L15.9941 48.5197C16.2377 47.7391 16.4489 47.1003 16.4634 47.1003C16.478 47.1003 16.6892 47.7391 16.9328 48.5198ZM43.9615 49.9651L45.4732 49.9911L44.2922 50.8441C43.6426 51.3133 43.1102 51.7611 43.109 51.8393C43.1078 51.9175 43.2945 52.5552 43.5241 53.2565C43.7536 53.9577 43.9292 54.5436 43.9144 54.5586C43.8995 54.5734 43.4025 54.2318 42.8098 53.7994C42.2172 53.367 41.6856 52.9841 41.6285 52.9485C41.5715 52.9129 41.0041 53.266 40.3677 53.7331C39.7314 54.2002 39.1944 54.5659 39.1743 54.5458C39.1544 54.5256 39.3333 53.9067 39.572 53.1703C39.8107 52.434 39.9839 51.7956 39.957 51.7518C39.9301 51.708 39.3894 51.2939 38.7553 50.8315L37.6025 49.9911L39.1129 49.9652L40.6233 49.9392L41.078 48.4961L41.5326 47.053L41.9911 48.496L42.4498 49.9391L43.9615 49.9651ZM29.4927 51.9578L29.9275 53.3084L31.4462 53.3345L32.9648 53.3605L31.7584 54.246C31.0949 54.733 30.5583 55.169 30.566 55.2151C30.5737 55.2611 30.7704 55.9064 31.003 56.6491C31.2357 57.3917 31.3775 57.9701 31.318 57.9342C31.2586 57.8984 30.7535 57.534 30.1955 57.1244C29.6375 56.7148 29.1286 56.3595 29.0644 56.3346C29.0004 56.3099 28.4301 56.6744 27.7972 57.1448C27.1643 57.6152 26.6309 58 26.6119 58C26.5929 58 26.7791 57.362 27.0254 56.5824C27.4355 55.2852 27.4606 55.1533 27.3206 55.0299C27.2366 54.9557 26.687 54.5497 26.0995 54.1278L25.0312 53.3606L26.5579 53.3345L28.0844 53.3084L28.5123 51.9578C28.7477 51.215 28.9667 50.6072 28.999 50.6072C29.0313 50.6072 29.2535 51.215 29.4927 51.9578Z" fill="url(#paint0_linear_271_4653)" fill-opacity="0.5"/>
<path fill-rule="evenodd" clip-rule="evenodd" d="M29.4986 1.41677L29.9491 2.83353L31.4112 2.8596L32.8734 2.88566L31.7681 3.69129C31.1602 4.13438 30.6276 4.52061 30.5844 4.54952C30.5414 4.57852 30.7169 5.23648 30.9745 6.01178C31.2321 6.78717 31.4328 7.43072 31.4204 7.442C31.4081 7.45328 30.8809 7.08317 30.2488 6.6195C29.6167 6.15584 29.0557 5.77644 29.0021 5.77644C28.9484 5.77644 28.3869 6.1566 27.7542 6.62121C27.1214 7.08582 26.5937 7.45593 26.5814 7.44371C26.569 7.43148 26.7697 6.78717 27.0273 6.01178C27.2849 5.23648 27.4616 4.57852 27.42 4.54952C27.3783 4.52061 26.8486 4.13438 26.2428 3.69129L25.1414 2.88566L26.597 2.8596L28.0527 2.83353L28.5032 1.41677C28.7511 0.637582 28.975 0 29.0009 0C29.0267 0 29.2507 0.637582 29.4986 1.41677ZM16.9304 4.73386L17.376 6.15556H18.8697C19.709 6.15556 20.341 6.19224 20.3122 6.23925C20.284 6.28521 19.7527 6.69324 19.1316 7.14591C18.5104 7.59858 18.0022 7.99997 18.0022 8.03769C18.0022 8.07551 18.1928 8.67954 18.4259 9.38005C18.6589 10.0805 18.8385 10.6869 18.8251 10.7274C18.8117 10.7681 18.2769 10.4168 17.6365 9.94674C16.895 9.40242 16.4342 9.12187 16.3677 9.174C15.724 9.67757 14.1229 10.8061 14.0938 10.7767C14.0729 10.7558 14.2458 10.1677 14.4779 9.4699C14.7101 8.77214 14.8983 8.1355 14.8962 8.05513C14.8941 7.97476 14.3566 7.52512 13.7017 7.05596L12.5108 6.20295L14.0334 6.17688L15.5561 6.15091L16.0003 4.73149C16.2446 3.95089 16.4535 3.31217 16.4646 3.31217C16.4757 3.31217 16.6853 3.95193 16.9304 4.73386ZM43.9687 6.17688L45.4895 6.20295L44.3353 7.04402C43.7004 7.50654 43.1591 7.94253 43.1324 8.01286C43.1056 8.08328 43.2775 8.72541 43.5144 9.44005C43.7513 10.1546 43.9285 10.7561 43.9081 10.7766C43.8877 10.7972 43.4759 10.5213 42.9929 10.1635C42.51 9.80571 41.9837 9.42033 41.8235 9.30717L41.5324 9.1014L40.3672 9.9529C39.7264 10.4212 39.1909 10.7705 39.1772 10.7291C39.1634 10.6875 39.3429 10.0805 39.5759 9.38005C39.809 8.67954 39.9996 8.07589 39.9996 8.03864C39.9996 8.00129 39.4607 7.57299 38.802 7.08686L37.6042 6.20295L39.1158 6.17698L40.6272 6.15101L41.081 4.70789L41.5346 3.26478L41.9913 4.7078L42.448 6.15091L43.9687 6.17688ZM9.74327 15.444H11.2501L10.1373 16.2586C9.52536 16.7066 8.97721 17.1224 8.9193 17.1827C8.84118 17.2639 8.93087 17.6464 9.26666 18.6638C9.51558 19.4182 9.7083 20.0466 9.69476 20.0601C9.68132 20.0738 9.14501 19.701 8.50304 19.2318C7.86098 18.7627 7.28406 18.3987 7.22089 18.4232C7.15772 18.4476 6.61728 18.8322 6.01987 19.2779C5.42255 19.7235 4.91831 20.0882 4.8995 20.0882C4.88061 20.0882 5.06693 19.4591 5.31351 18.6902C5.83825 17.054 5.94232 17.3327 4.38952 16.2142L3.32669 15.4487L4.85391 15.4226L6.38104 15.3966L6.76863 14.1605C6.98184 13.4806 7.1879 12.8415 7.22644 12.7402C7.27767 12.6056 7.42291 12.9442 7.76651 14L8.23654 15.444H9.74327ZM51.2069 14.0697L51.6205 15.3966L53.1521 15.4226L54.6838 15.4488L53.5697 16.2567C52.9569 16.701 52.407 17.1158 52.348 17.1783C52.2667 17.2644 52.3502 17.6347 52.6898 18.694L53.1391 20.0958L52.8912 19.9326C52.7549 19.8428 52.2494 19.4762 51.7678 19.1178C51.2861 18.7594 50.8411 18.4465 50.779 18.4225C50.7169 18.3984 50.1408 18.7627 49.4987 19.2318C48.8568 19.701 48.3205 20.0738 48.307 20.0601C48.2935 20.0466 48.4862 19.4182 48.7351 18.6638C49.073 17.6402 49.1611 17.2633 49.0825 17.1783C49.0246 17.1158 48.4744 16.7 47.8597 16.2542L46.7422 15.444H48.2544H49.7665L50.2179 14.031C50.4662 13.2538 50.6972 12.646 50.7313 12.6804C50.7655 12.7147 50.9794 13.3399 51.2069 14.0697ZM6.36976 28.071L7.89228 28.097L6.70038 28.9501C6.04488 29.4192 5.50763 29.867 5.50641 29.9452C5.50528 30.0234 5.69207 30.6611 5.92164 31.3624C6.1511 32.0636 6.32342 32.6529 6.30443 32.672C6.28553 32.691 5.78993 32.3494 5.20315 31.9129C4.61636 31.4763 4.08814 31.0901 4.02929 31.0544C3.96997 31.0185 3.40716 31.3679 2.76528 31.839C2.12896 32.3061 1.5919 32.6718 1.57188 32.6517C1.55195 32.6315 1.73084 32.0126 1.96952 31.2762C2.2082 30.5399 2.38212 29.9026 2.35598 29.8599C2.32985 29.8174 1.78903 29.4033 1.15421 28.9397L0 28.097L1.5119 28.0711L3.02371 28.0451L3.47776 26.602L3.93171 25.1589L4.38952 26.6019L4.84733 28.045L6.36976 28.071ZM54.5352 26.6257L54.9781 28.0451L56.489 28.0711L58 28.097L56.8023 28.9809C56.1436 29.4671 55.6046 29.8954 55.6046 29.9327C55.6046 29.97 55.7953 30.5736 56.0283 31.2741C56.2614 31.9746 56.4411 32.5784 56.4278 32.6158C56.4146 32.6533 55.8799 32.3034 55.2397 31.8383L54.0758 30.9926L53.7826 31.1998C53.6214 31.3139 53.0943 31.6998 52.6114 32.0576C52.1284 32.4154 51.7163 32.6912 51.6958 32.6704C51.6752 32.6497 51.8482 32.0618 52.0803 31.364C52.3125 30.6662 52.5004 30.0296 52.4977 29.9492C52.4952 29.8688 51.9616 29.4192 51.312 28.9501L50.131 28.097L51.6448 28.071L53.1586 28.045L53.6028 26.6256C53.8471 25.845 54.0572 25.2063 54.0697 25.2063C54.0821 25.2063 54.2916 25.845 54.5352 26.6257ZM7.78108 39.3272L8.22977 40.7453L9.69382 40.7714L11.158 40.7975L10.0526 41.6031C9.4448 42.0462 8.91216 42.4324 8.86901 42.4614C8.82595 42.4904 9.00146 43.1483 9.25904 43.9236C9.51671 44.699 9.71741 45.3431 9.70501 45.3553C9.69269 45.3673 9.175 44.9988 8.55456 44.5363C7.93412 44.0738 7.37497 43.6939 7.31199 43.6919C7.249 43.6899 6.67885 44.0696 6.04516 44.5357C5.41137 45.0017 4.88343 45.3736 4.87187 45.362C4.8604 45.3503 5.06016 44.7024 5.31586 43.9222C5.57156 43.142 5.78081 42.5016 5.781 42.4994C5.78119 42.4971 5.25109 42.1132 4.60292 41.6463L3.42436 40.7975L4.8808 40.7714L6.33723 40.7454L6.78781 39.3286C7.0357 38.5494 7.25962 37.9112 7.28548 37.9104C7.31133 37.9097 7.5344 38.5471 7.78108 39.3272ZM51.214 39.3286L51.6645 40.7454L53.1202 40.7714L54.5758 40.7975L53.4744 41.6031C52.8686 42.0462 52.3399 42.4318 52.2996 42.4599C52.2591 42.4881 52.4329 43.1492 52.6855 43.929C52.9381 44.7089 53.1377 45.3538 53.1291 45.3624C53.1205 45.3708 52.5958 44.9977 51.963 44.5331C51.3303 44.0684 50.7692 43.6883 50.7163 43.6883C50.6634 43.6883 50.1024 44.0684 49.4696 44.5331C48.8368 44.9977 48.3091 45.3678 48.2968 45.3555C48.2844 45.3433 48.4851 44.699 48.7427 43.9236C49.0003 43.1483 49.1771 42.4904 49.1354 42.4614C49.0938 42.4324 48.564 42.0462 47.9583 41.6031L46.8568 40.7975L48.3144 40.7714L49.772 40.7453L50.2207 39.3272C50.4674 38.5471 50.6905 37.9097 50.7163 37.9104C50.7422 37.9112 50.9661 38.5494 51.214 39.3286ZM16.9328 48.5198L17.3756 49.9392L18.8828 49.9652L20.39 49.9911L19.1961 50.8741C18.5394 51.3596 18.0022 51.7715 18.0022 51.7891C18.0022 51.8067 18.1955 52.4265 18.4318 53.1663C18.668 53.9062 18.8468 54.5261 18.8291 54.5441C18.8113 54.5621 18.277 54.1944 17.6417 53.7272C16.9625 53.2278 16.4405 52.9058 16.3748 52.9456C16.3134 52.9827 15.783 53.3704 15.1962 53.807C14.6094 54.2435 14.1138 54.5851 14.0949 54.566C14.0759 54.547 14.2482 53.9577 14.4777 53.2565C14.7073 52.5552 14.895 51.9175 14.895 51.8393C14.895 51.7611 14.3634 51.3133 13.7137 50.8441L12.5324 49.9911L14.0419 49.9651L15.5513 49.9391L15.9941 48.5197C16.2377 47.7391 16.4489 47.1003 16.4634 47.1003C16.478 47.1003 16.6892 47.7391 16.9328 48.5198ZM43.9615 49.9651L45.4732 49.9911L44.2922 50.8441C43.6426 51.3133 43.1102 51.7611 43.109 51.8393C43.1078 51.9175 43.2945 52.5552 43.5241 53.2565C43.7536 53.9577 43.9292 54.5436 43.9144 54.5586C43.8995 54.5734 43.4025 54.2318 42.8098 53.7994C42.2172 53.367 41.6856 52.9841 41.6285 52.9485C41.5715 52.9129 41.0041 53.266 40.3677 53.7331C39.7314 54.2002 39.1944 54.5659 39.1743 54.5458C39.1544 54.5256 39.3333 53.9067 39.572 53.1703C39.8107 52.434 39.9839 51.7956 39.957 51.7518C39.9301 51.708 39.3894 51.2939 38.7553 50.8315L37.6025 49.9911L39.1129 49.9652L40.6233 49.9392L41.078 48.4961L41.5326 47.053L41.9911 48.496L42.4498 49.9391L43.9615 49.9651ZM29.4927 51.9578L29.9275 53.3084L31.4462 53.3345L32.9648 53.3605L31.7584 54.246C31.0949 54.733 30.5583 55.169 30.566 55.2151C30.5737 55.2611 30.7704 55.9064 31.003 56.6491C31.2357 57.3917 31.3775 57.9701 31.318 57.9342C31.2586 57.8984 30.7535 57.534 30.1955 57.1244C29.6375 56.7148 29.1286 56.3595 29.0644 56.3346C29.0004 56.3099 28.4301 56.6744 27.7972 57.1448C27.1643 57.6152 26.6309 58 26.6119 58C26.5929 58 26.7791 57.362 27.0254 56.5824C27.4355 55.2852 27.4606 55.1533 27.3206 55.0299C27.2366 54.9557 26.687 54.5497 26.0995 54.1278L25.0312 53.3606L26.5579 53.3345L28.0844 53.3084L28.5123 51.9578C28.7477 51.215 28.9667 50.6072 28.999 50.6072C29.0313 50.6072 29.2535 51.215 29.4927 51.9578Z" fill="url(#paint1_linear_271_4653)" fill-opacity="0.3"/>
<defs>
<linearGradient id="paint0_linear_271_4653" x1="22.5" y1="15.6348" x2="78.1265" y2="49.0497" gradientUnits="userSpaceOnUse">
<stop stop-color="white"/>
<stop offset="1" stop-color="white" stop-opacity="0"/>
</linearGradient>
<linearGradient id="paint1_linear_271_4653" x1="23.8692" y1="-34.22" x2="60.2469" y2="-26.2195" gradientUnits="userSpaceOnUse">
<stop stop-color="#4A60DB"/>
<stop offset="0.387957" stop-color="#B2E2E4"/>
<stop offset="0.787325" stop-color="#E4F5F6"/>
<stop offset="1" stop-color="#CFC0C3"/>
</linearGradient>
</defs>
</svg>
