<svg width="88" height="54" viewBox="0 0 88 54" fill="none" xmlns="http://www.w3.org/2000/svg">
<path fill-rule="evenodd" clip-rule="evenodd" d="M7.40324 0.912214C6.98324 1.41397 6.65415 1.8481 6.67186 1.87704C6.68957 1.90597 7.73081 2.66969 8.98576 3.5741L11.2674 5.21854L10.2467 5.36314C7.19096 5.79591 5.05013 6.86197 3.16281 8.89065C1.6449 10.5224 0.671636 12.4858 0.197403 14.8731C-0.048442 16.1106 -0.0676712 18.2369 0.156668 19.3703C0.643635 21.8302 1.77275 23.9759 3.49831 25.7206C5.52638 27.7713 7.79718 28.7662 11.2133 29.1006C12.384 29.2153 20.4547 29.2228 20.4547 29.1093C20.4547 29.0259 20.4004 28.9717 20.033 28.6892L19.8222 28.527L19.7986 19.2277C19.7857 14.113 19.8046 9.92972 19.8407 9.9315C19.8769 9.93328 20.0773 10.2365 20.286 10.6052C20.4948 10.9739 23.1318 15.3256 26.1459 20.2757L31.6263 29.2757H33.5255H35.4247V17.3108V5.346H33.1687C31.9234 5.346 30.9126 5.37951 30.9126 5.42075C30.9126 5.46191 31.0439 5.59632 31.2043 5.71937C31.3854 5.85845 31.529 6.06312 31.5834 6.25982C31.7007 6.68487 31.706 22.0628 31.5888 22.0628C31.5432 22.0628 31.3801 21.805 31.2262 21.4901C31.0724 21.1751 29.5614 18.6643 27.8685 15.9107C23.8354 9.35049 23.2379 8.36114 23.2379 8.24421C23.2379 8.19032 23.2062 8.14628 23.1674 8.14628C23.1286 8.14628 22.7016 7.49712 22.2186 6.70379L21.3403 5.26131L18.3673 5.26122C15.8907 5.26114 15.3944 5.28074 15.3944 5.37867C15.3944 5.44333 15.4886 5.55822 15.6035 5.634C16.0701 5.94161 16.0474 5.44833 16.0806 16.0096C16.0975 21.3846 16.0923 25.7954 16.0691 25.8113C16.0459 25.8272 14.9264 25.8165 13.5812 25.7874C10.2881 25.7163 9.39286 25.5343 7.85091 24.6228C7.0723 24.1625 5.80782 22.9577 5.29766 22.1901C3.88399 20.0631 3.39862 17.7575 3.87985 15.4559C4.59833 12.0192 7.34707 9.35227 10.7558 8.78475C12.6295 8.47281 13.7294 8.54112 14.251 9.00189C14.4051 9.13809 14.5736 9.24942 14.6254 9.24942C14.6922 9.24942 14.7197 8.66908 14.7197 7.25774V5.26606L13.6023 5.24239L12.4848 5.21871L14.8041 3.65844C16.0797 2.80028 17.139 2.08443 17.1582 2.06771C17.1773 2.05091 16.8951 1.58836 16.5309 1.03984C16.1667 0.491238 15.8625 0.0321609 15.8549 0.0196869C15.8473 0.00712802 14.9752 0.589502 13.9167 1.31376C12.8583 2.03801 11.9583 2.63057 11.9166 2.63057C11.8749 2.63057 11.0306 2.03869 10.0403 1.31528C9.05002 0.591878 8.22334 0 8.20327 0C8.1832 0 7.82324 0.410454 7.40324 0.912214ZM36.1416 17.2612V29.2757H40.1709C42.483 29.2757 44.5049 29.2376 44.9149 29.1863C47.9966 28.8012 50.0417 27.3816 51.0555 24.9242C51.5564 23.7101 51.7196 22.0714 51.4467 20.9987C51.2689 20.3 50.7485 19.2372 50.2769 18.61C49.5261 17.6114 48.6122 16.9917 47.2742 16.5738C47.1979 16.5499 47.3152 16.4602 47.5694 16.3477C49.2035 15.6248 50.1677 14.531 50.6161 12.8909C50.7206 12.5089 50.7632 12.056 50.7594 11.3708C50.7504 9.78742 50.3166 8.69794 49.233 7.53777C48.2701 6.50676 47.0433 5.8262 45.5031 5.46887C44.9603 5.34294 44.2513 5.31681 40.5061 5.28439L36.1416 5.24671V17.2612ZM44.8068 8.85068C45.8226 9.1459 46.4948 9.65792 46.8683 10.4209C47.0327 10.7567 47.0633 10.9525 47.0633 11.6678C47.0633 12.3899 47.0334 12.5775 46.8628 12.9264C46.5843 13.4954 45.9743 14.0795 45.3278 14.3961C44.8306 14.6396 44.5573 14.732 43.8796 14.8855L43.6477 14.9381V16.632C43.6477 18.3212 43.6482 18.326 43.8374 18.3626C43.9417 18.3829 44.2549 18.4445 44.5332 18.4994C45.7419 18.7381 47.0719 19.6907 47.5039 20.6271C48.3788 22.5231 47.4183 24.8467 45.4785 25.527C44.6779 25.8078 43.9492 25.8779 41.8133 25.8797L39.8524 25.8814V17.3159V8.75055L40.1687 8.71245C40.3427 8.69157 41.3579 8.68512 42.4248 8.69828C43.847 8.71576 44.4825 8.7564 44.8068 8.85068ZM60.5778 18.5164L60.0079 18.9448L59.6501 18.7109C59.4534 18.5823 59.2089 18.4008 59.1069 18.3075C58.8896 18.1088 58.7246 18.1508 58.5265 18.4551C58.3904 18.6639 58.3913 18.6812 58.5426 18.7998C58.8663 19.0536 59.9409 19.7717 59.9968 19.7717C60.0955 19.7717 61.5384 18.6883 61.5405 18.6126C61.543 18.5223 61.2465 18.0729 61.19 18.0815C61.1668 18.0851 60.8913 18.2808 60.5778 18.5164ZM84.1374 18.7574C83.5153 19.0347 82.9929 19.275 82.9767 19.2915C82.9603 19.308 83.0042 19.4593 83.0741 19.6277L83.2014 19.9341L83.771 19.7172C84.0843 19.598 84.6064 19.4047 84.9311 19.2877C85.2558 19.1707 85.5499 19.0485 85.5846 19.0161C85.6515 18.9538 85.4048 18.2411 85.3189 18.2487C85.2911 18.2511 84.7595 18.48 84.1374 18.7574ZM59.3536 20.1235C58.2823 20.2781 57.2778 20.8161 56.4967 21.6537C55.739 22.4662 55.3732 23.456 55.3732 24.6934C55.3732 26.9961 56.786 28.8327 58.9968 29.4042C59.5551 29.5484 61.0807 29.6036 61.4297 29.4921C61.591 29.4406 61.6116 29.3726 61.6116 28.8925V28.3509L61.3306 28.469C60.279 28.9111 58.5153 28.4813 57.5459 27.5467C56.885 26.9096 56.538 26.2278 56.3875 25.2701C56.0896 23.375 57.3463 21.5931 59.3441 21.0777C60.0434 20.8974 60.9513 20.9605 61.291 21.2133L61.5273 21.3891V20.7626V20.136L60.882 20.0812C60.1418 20.0182 60.0702 20.0202 59.3536 20.1235ZM70.506 20.1969C69.4348 20.3507 68.7861 21.1036 68.7822 22.1978C68.7794 23.0037 69.0919 23.5364 70.3569 24.8814C71.6969 26.3061 71.9009 26.6147 71.9009 27.2175C71.9009 27.7417 71.7605 28.0622 71.3953 28.3713C70.9222 28.7718 70.1715 28.8707 69.3861 28.636C69.1042 28.5518 68.949 28.4589 68.949 28.3743C68.949 28.3022 68.9042 28.2583 68.8494 28.2767C68.7429 28.3124 68.7432 29.3543 68.8496 29.4598C68.9418 29.5511 69.8698 29.7 70.3472 29.7C71.8568 29.7 72.9376 28.678 72.9503 27.2391C72.9585 26.2994 72.6846 25.8382 71.1713 24.2432C69.793 22.7905 69.5575 22.2721 69.9839 21.6299C70.3813 21.0313 71.2662 20.8647 72.0168 21.247L72.4142 21.4495L72.3895 20.8922C72.3667 20.3785 72.3482 20.3305 72.1539 20.2791C71.7667 20.1767 70.9357 20.1352 70.506 20.1969ZM63.1588 20.436C63.2848 20.5761 63.2984 21.0083 63.2984 24.8806C63.2984 28.59 63.2813 29.1843 63.1719 29.2757C63.1023 29.3338 63.0454 29.4149 63.0454 29.4558C63.0454 29.4967 63.9562 29.5303 65.0695 29.5303H67.0936V28.9655C67.0936 28.4238 67.0874 28.4065 66.9394 28.5413C66.8107 28.6585 66.5808 28.6817 65.5478 28.6817H64.3105V26.8573V25.0328H65.5145C66.4679 25.0328 66.7578 25.0603 66.9061 25.165L67.0936 25.297V24.5578C67.0936 23.847 67.0877 23.824 66.9394 23.959C66.8106 24.0762 66.5807 24.0994 65.5458 24.0994H64.3064L64.3295 22.6781L64.3526 21.2567L65.4696 21.233C66.3498 21.2144 66.6402 21.2374 66.8401 21.3413L67.0936 21.4732V20.8771V20.2808H65.0564C63.0881 20.2808 63.024 20.2861 63.1588 20.436ZM74.3867 20.5312C74.4969 20.7456 74.5154 21.3777 74.5154 24.9323C74.5154 28.9308 74.5093 29.0909 74.3495 29.2952L74.1837 29.5073L74.5815 29.5505C74.8002 29.5742 75.1637 29.5698 75.3894 29.5407L75.7996 29.4878L75.6213 29.3262C75.4444 29.1657 75.4431 29.133 75.4431 24.9113C75.4431 21.1991 75.4598 20.634 75.5744 20.4695L75.7056 20.2808H74.9818H74.258L74.3867 20.5312ZM78.2244 20.4471C78.2995 20.5883 78.1248 20.8978 77.0624 22.5049C76.3747 23.5452 75.7817 24.4472 75.7448 24.5094C75.7022 24.5809 75.7533 24.7054 75.8839 24.8488C75.9973 24.9734 76.6644 26.0116 77.3662 27.156C78.2469 28.592 78.6288 29.2888 78.5987 29.4047C78.5569 29.5658 78.5995 29.5725 79.6347 29.5688C81.129 29.5634 81.2055 29.555 81.1479 29.4041C81.1215 29.3347 81.2763 28.723 81.492 28.0448L81.884 26.8117L83.7799 26.8345L85.6757 26.8573L86.0419 28.0453C86.2432 28.6987 86.3933 29.2968 86.3751 29.3745C86.3366 29.5399 86.5418 29.6122 87.0537 29.6139C87.6239 29.6158 87.6861 29.5656 87.5066 29.2479C87.2449 28.7848 84.7864 20.7838 84.8247 20.5203L84.8597 20.2808H83.785H82.7102L82.7079 20.6415C82.7065 20.8679 82.2152 22.5495 81.388 25.1589C80.6632 27.445 80.0599 29.3258 80.0473 29.3386C79.9912 29.3949 79.6764 28.9208 78.3552 26.7906C77.5799 25.5404 76.9658 24.4641 76.9907 24.399C77.0156 24.3338 77.5253 23.5428 78.1233 22.6413C78.7215 21.7397 79.3124 20.8398 79.4365 20.6415L79.6621 20.2808H78.899C78.1674 20.2808 78.1396 20.2877 78.2244 20.4471ZM84.599 23.4469L85.3632 25.839L83.8067 25.8621C82.9506 25.8749 82.2355 25.8705 82.2176 25.8525C82.1384 25.7729 83.7045 20.9288 83.7843 21.0061C83.812 21.0329 84.1786 22.1313 84.599 23.4469ZM68.3606 30.9837C67.7354 31.2634 67.2114 31.5049 67.196 31.5203C67.1806 31.5359 67.2252 31.6861 67.295 31.8542L67.4219 32.1599L68.0801 31.9143C68.4421 31.7793 68.928 31.5946 69.1599 31.504C69.3918 31.4133 69.6468 31.3157 69.7264 31.287C69.8606 31.2387 69.8615 31.211 69.7397 30.9129C69.6674 30.7358 69.5832 30.5649 69.5527 30.533C69.5222 30.5012 68.9857 30.7039 68.3606 30.9837ZM28.1295 30.9401C27.6424 31.1521 27.1203 31.3781 26.9692 31.4422L26.6945 31.5587L26.8403 31.866C26.9531 32.1041 27.0246 32.164 27.1571 32.1313C27.3247 32.0901 29.4198 31.3152 29.4524 31.2824C29.493 31.2414 29.1425 30.5489 29.0824 30.5515C29.0454 30.5531 28.6165 30.7279 28.1295 30.9401ZM42.1717 32.4892C40.902 32.8569 39.7392 33.797 39.1555 34.9274C37.6382 37.8659 39.287 41.3584 42.5165 42.0468C43.2522 42.2036 43.7049 42.2035 44.4489 42.0463C46.2907 41.6573 47.8144 40.1667 48.2439 38.3338C48.5072 37.2102 48.3271 35.9255 47.7531 34.8344C47.1825 33.7495 45.8791 32.7523 44.651 32.461C43.9384 32.292 42.8082 32.3048 42.1717 32.4892ZM26.4992 32.7851C26.5344 33.0027 26.2421 34.0296 25.2614 37.1341C24.5553 39.3693 23.9053 41.3414 23.8168 41.5163L23.6561 41.8345H24.3246C24.9474 41.8345 24.9902 41.8232 24.9499 41.668C24.9261 41.5764 25.0701 40.9654 25.2699 40.3103L25.6333 39.1191H27.537H29.4407L29.8085 40.3013C30.0107 40.9516 30.1557 41.5626 30.1306 41.6591C30.0874 41.8256 30.1193 41.8345 30.754 41.8345H31.423L31.304 41.6012C31.2387 41.4728 30.5944 39.4776 29.8724 37.1674C28.9526 34.2246 28.5739 32.8971 28.6074 32.7336L28.6551 32.5003H27.5542H26.4533L26.4992 32.7851ZM15.774 32.6343C15.7188 32.6576 15.6977 34.2038 15.7129 37.0972C15.7284 40.0423 15.7072 41.5538 15.6496 41.6117C15.4699 41.7925 15.5826 41.8345 16.2468 41.8345C16.8693 41.8345 16.9241 41.8212 16.8585 41.686C16.7965 41.5586 16.6646 33.708 16.7228 33.6105C16.7343 33.591 16.7573 33.591 16.7739 33.6105C16.8994 33.7585 21.5016 41.5683 21.5319 41.6848C21.5639 41.8081 21.6655 41.8345 22.107 41.8345H22.6431L22.6664 37.4008C22.6792 34.9621 22.7222 32.9001 22.7619 32.8185C22.8277 32.6833 22.7732 32.67 22.1548 32.67H21.4754L21.5976 32.9643C21.6977 33.2053 21.7189 33.8699 21.7148 36.6343C21.7117 38.7716 21.6808 39.9634 21.6308 39.8828C20.7958 38.5391 17.6137 33.1357 17.5206 32.9033L17.393 32.5851L16.6256 32.5918C16.2036 32.5955 15.8203 32.6146 15.774 32.6343ZM32.3837 32.7738C32.4983 32.9383 32.515 33.5001 32.515 37.1807C32.515 39.7163 32.4822 41.486 32.4328 41.6169L32.3506 41.8345H33.0261C33.6679 41.8345 33.6974 41.8263 33.6144 41.6704C33.5618 41.5714 33.5271 40.7589 33.5271 39.623V37.7397L33.8855 37.7953C34.0826 37.826 34.3384 37.9206 34.4539 38.0056C34.6913 38.1804 36.0815 40.3921 36.4993 41.2596L36.7741 41.8302L37.4374 41.8324L38.1007 41.8345L37.9478 41.6012C37.8636 41.4728 37.3634 40.6614 36.8361 39.798C36.3089 38.9346 35.7471 38.0929 35.5878 37.9276C35.4285 37.7623 35.2982 37.6029 35.2982 37.5734C35.2982 37.5441 35.4278 37.477 35.5863 37.4244C36.0021 37.2863 36.6027 36.7201 36.8277 36.2543C37.2387 35.4029 37.0333 34.1448 36.3692 33.4474C35.7648 32.8125 34.9543 32.5851 33.296 32.5851H32.2525L32.3837 32.7738ZM50.013 32.8354C50.1231 33.0498 50.1417 33.6792 50.1417 37.2098C50.1417 40.7405 50.1231 41.3699 50.013 41.5842L49.8844 41.8345H51.2666C52.918 41.8345 53.3604 41.7622 54.1779 41.3587C54.9623 40.9716 55.6447 40.2966 56.0641 39.4929C56.477 38.7015 56.6357 38.0558 56.6357 37.1674C56.6357 35.7821 56.2453 34.8211 55.2884 33.8509C54.6341 33.1876 54.0631 32.8435 53.3371 32.6752C53.1336 32.6279 52.2734 32.5883 51.4256 32.5872L49.8844 32.5851L50.013 32.8354ZM58.0695 32.653C58.0695 32.6903 58.1169 32.7686 58.1749 32.827C58.2555 32.908 58.2872 33.9061 58.3098 37.0691C58.3354 40.6578 58.322 41.247 58.2087 41.52L58.078 41.8345H58.7954H59.5127L59.3815 41.6459C59.2671 41.4817 59.2502 40.9414 59.2502 37.4688V33.4802L59.6142 34.1146C59.8144 34.4635 60.8077 36.1428 61.8216 37.8463C62.8356 39.5498 63.7752 41.144 63.9098 41.389L64.1544 41.8345H64.6519H65.1495L65.1727 37.4008C65.1856 34.9621 65.2286 32.9001 65.2683 32.8185C65.3342 32.6832 65.2788 32.67 64.6465 32.67C64.0106 32.67 63.9621 32.6818 64.0682 32.8102C64.1613 32.923 64.1888 33.6403 64.2086 36.4762L64.2333 40.002L62.2795 36.739C61.205 34.9444 60.2328 33.2756 60.1191 33.0306L59.9125 32.5851H58.991C58.4841 32.5851 58.0695 32.6157 58.0695 32.653ZM67.5729 32.7761C67.6669 33.0366 67.6003 41.4995 67.5027 41.686C67.4318 41.8216 67.4838 41.8345 68.1006 41.8345H68.7762L68.6939 41.6169C68.5789 41.3124 68.5836 32.9661 68.699 32.7492C68.7817 32.5937 68.7529 32.5851 68.1451 32.5851C67.516 32.5851 67.5053 32.5887 67.5729 32.7761ZM28.3274 35.5551C28.723 36.7919 29.0585 37.8783 29.073 37.9692C29.0983 38.1282 29.0389 38.1344 27.5391 38.1327C26.6303 38.1316 25.9836 38.098 25.9902 38.0522C26.0365 37.7289 27.5089 33.2004 27.5525 33.247C27.5831 33.2797 27.9318 34.3183 28.3274 35.5551ZM44.8384 33.5117C45.8703 33.9046 46.8072 34.8427 47.1863 35.8621C47.6922 37.2224 47.37 38.8184 46.3732 39.8906C44.4694 41.9385 41.2161 41.4423 39.9746 38.9148C39.6978 38.3513 39.6556 38.1814 39.6193 37.483C39.5511 36.1708 39.9149 35.2339 40.8252 34.377C41.6776 33.5747 42.5521 33.2457 43.6898 33.2994C44.1032 33.3188 44.548 33.401 44.8384 33.5117ZM52.6718 33.5236C53.4427 33.6483 54.0358 33.9465 54.5577 34.4716C55.9804 35.903 56.0461 38.3113 54.7014 39.7418C53.9683 40.5217 53.0161 40.8973 51.7652 40.8998L51.1537 40.9011V37.1674V33.4337L51.6387 33.4344C51.9054 33.4347 52.3703 33.4748 52.6718 33.5236ZM35.1798 33.777C35.8536 34.1053 36.1907 34.9112 35.9813 35.6934C35.7769 36.4571 35.2133 36.8333 34.1807 36.8954L33.5271 36.9346V35.2143V33.494L34.1622 33.5424C34.5588 33.5725 34.9408 33.6607 35.1798 33.777ZM23.7177 44.953C23.751 45.2039 23.4818 46.1497 22.4462 49.4206C21.7237 51.7027 21.074 53.6597 21.0025 53.7695L20.8725 53.9691H21.5466C22.1296 53.9691 22.2135 53.9508 22.1687 53.8334C22.1403 53.7587 22.2838 53.148 22.4877 52.4763L22.8583 51.255L24.777 51.2543C25.8323 51.2539 26.6957 51.2699 26.6957 51.2897C26.6957 51.3096 26.8475 51.8233 27.0331 52.4313C27.2186 53.0394 27.3704 53.6341 27.3704 53.753C27.3704 53.9669 27.3774 53.9691 28.0582 53.9691C28.7294 53.9691 28.7425 53.9652 28.6004 53.8073C28.4075 53.5928 25.8523 45.4528 25.8523 45.0528C25.8523 44.7594 25.8345 44.739 25.5361 44.6893C25.3622 44.6604 24.8723 44.6363 24.4477 44.6358L23.6756 44.6348L23.7177 44.953ZM38.796 44.8852C38.9063 45.0998 38.9247 45.741 38.9247 49.3766C38.9247 53.1718 38.9104 53.632 38.7882 53.7549C38.713 53.8305 38.6714 53.9122 38.6954 53.9364C38.7195 53.9606 39.0467 53.9874 39.4224 53.996C40.0228 54.0097 40.1056 53.9935 40.1055 53.863C40.1055 53.7814 40.0675 53.7145 40.0211 53.7145C39.966 53.7145 39.9368 52.1888 39.9368 49.307C39.9368 46.4601 39.9666 44.8808 40.0211 44.847C40.2493 44.7051 40.0391 44.6348 39.3864 44.6348H38.6674L38.796 44.8852ZM47.0212 45.0084C47.0212 45.2514 46.6663 46.5035 46.0051 48.5936C45.4462 50.36 44.8724 52.1871 44.73 52.6538C44.5876 53.1205 44.4436 53.5327 44.4101 53.5696C44.3213 53.6674 44.2785 53.6046 42.7945 51.1995C42.0498 49.9925 41.4241 48.979 41.4041 48.9472C41.3841 48.9154 41.9757 47.9698 42.7186 46.8459C43.4615 45.7219 44.0693 44.7837 44.0693 44.761C44.0693 44.7383 43.7503 44.7197 43.3604 44.7197C42.7216 44.7197 42.6553 44.7347 42.6908 44.871C42.7157 44.9673 42.2565 45.7466 41.4281 47.0136C40.4566 48.4996 40.1523 49.0265 40.2287 49.0898C40.285 49.1365 40.9486 50.1783 41.7033 51.4048C42.6493 52.9423 43.0621 53.6869 43.0322 53.802C42.9904 53.9627 43.037 53.9691 44.2557 53.9691C45.4872 53.9691 45.5215 53.9643 45.478 53.7969C45.4534 53.7022 45.5948 53.1008 45.7921 52.4604L46.1509 51.2961L48.057 51.2733L49.9631 51.2505L50.3481 52.4743C50.5597 53.1475 50.7097 53.7592 50.6813 53.8337C50.6367 53.9508 50.7218 53.9691 51.3105 53.9691H51.9915L51.8344 53.6933C51.748 53.5416 51.0999 51.5703 50.3942 49.3125C49.4133 46.1746 49.1219 45.14 49.1572 44.9211L49.2033 44.6348H48.1123H47.0212V45.0084ZM15.5875 44.9545C15.7277 45.1103 15.7376 45.4063 15.7334 49.2979C15.7295 52.848 15.7098 53.5112 15.6017 53.7216L15.4745 53.9691H16.9372C18.5964 53.9691 19.0457 53.8797 19.6269 53.4337C20.6392 52.6567 20.9024 51.1067 20.2008 50.0524C19.9749 49.713 19.8447 49.604 19.1611 49.1816L18.9216 49.0336L19.2678 48.8612C19.4582 48.7664 19.6877 48.5945 19.778 48.4792C19.8681 48.3639 19.9844 48.2959 20.0365 48.3282C20.0955 48.365 20.1229 48.3277 20.1093 48.2293C20.0975 48.1426 20.132 47.9188 20.1863 47.7321C20.4131 46.9524 20.2574 46.2525 19.7244 45.656C19.1108 44.9693 18.7445 44.8588 16.9549 44.8201C15.4491 44.7876 15.4383 44.7887 15.5875 44.9545ZM29.574 44.9449C29.738 45.1437 29.744 53.4875 29.5804 53.7782L29.473 53.9691H30.1976H30.9222L30.7909 53.7805C30.6765 53.6161 30.6603 53.0852 30.6646 49.6437C30.6678 47.0466 30.6976 45.7391 30.7518 45.8228C30.8973 46.048 35.2508 53.4307 35.3997 53.7047C35.5359 53.9554 35.5697 53.9691 36.0512 53.9691H36.5589L36.5822 49.5353C36.595 47.0968 36.638 45.0347 36.6777 44.953C36.7435 44.8179 36.6888 44.8045 36.0663 44.8045C35.6902 44.8045 35.3837 44.8331 35.3852 44.8682C35.3867 44.9032 35.4436 45.006 35.5117 45.0965C35.6161 45.2354 35.6348 45.8027 35.6306 48.703C35.6275 50.9062 35.5968 52.0989 35.5456 52.0174C34.7616 50.7691 31.465 45.1346 31.4371 44.9955C31.4003 44.8107 31.3674 44.8045 30.4286 44.8045C29.5355 44.8045 29.4674 44.8157 29.574 44.9449ZM25.5944 47.8043C26.0207 49.1508 26.3535 50.2686 26.3339 50.2883C26.3143 50.3079 25.596 50.3137 24.7375 50.301L23.1766 50.2778L23.7796 48.3685C24.5006 46.0854 24.7654 45.2937 24.7962 45.3295C24.8088 45.3441 25.1679 46.4578 25.5944 47.8043ZM49.5935 50.0656L49.6491 50.3203H48.0821C47.0772 50.3203 46.5151 50.2894 46.5151 50.234C46.5151 50.1866 46.7585 49.3752 47.0558 48.4308C47.3531 47.4865 47.6798 46.4274 47.7817 46.0774C47.8836 45.7274 47.9901 45.4028 48.0184 45.3561C48.0646 45.2797 49.4586 49.4478 49.5935 50.0656ZM18.2279 45.7781C19.2489 46.0832 19.6077 47.2047 18.932 47.979C18.5826 48.3794 18.2042 48.5349 17.4347 48.5947L16.7696 48.6463L16.7145 48.3695C16.6422 48.0059 16.6432 45.7826 16.7158 45.7097C16.8182 45.6065 17.8029 45.6511 18.2279 45.7781ZM18.1338 49.5664C19.0049 49.8097 19.527 50.4833 19.527 51.3636C19.527 52.5463 18.9996 52.993 17.4818 53.0957L16.7438 53.1457V51.3087V49.4717L17.271 49.4722C17.5609 49.4724 17.9491 49.5148 18.1338 49.5664Z" fill="url(#paint0_linear_271_4654)" fill-opacity="0.5"/>
<path fill-rule="evenodd" clip-rule="evenodd" d="M7.40324 0.912214C6.98324 1.41397 6.65415 1.8481 6.67186 1.87704C6.68957 1.90597 7.73081 2.66969 8.98576 3.5741L11.2674 5.21854L10.2467 5.36314C7.19096 5.79591 5.05013 6.86197 3.16281 8.89065C1.6449 10.5224 0.671636 12.4858 0.197403 14.8731C-0.048442 16.1106 -0.0676712 18.2369 0.156668 19.3703C0.643635 21.8302 1.77275 23.9759 3.49831 25.7206C5.52638 27.7713 7.79718 28.7662 11.2133 29.1006C12.384 29.2153 20.4547 29.2228 20.4547 29.1093C20.4547 29.0259 20.4004 28.9717 20.033 28.6892L19.8222 28.527L19.7986 19.2277C19.7857 14.113 19.8046 9.92972 19.8407 9.9315C19.8769 9.93328 20.0773 10.2365 20.286 10.6052C20.4948 10.9739 23.1318 15.3256 26.1459 20.2757L31.6263 29.2757H33.5255H35.4247V17.3108V5.346H33.1687C31.9234 5.346 30.9126 5.37951 30.9126 5.42075C30.9126 5.46191 31.0439 5.59632 31.2043 5.71937C31.3854 5.85845 31.529 6.06312 31.5834 6.25982C31.7007 6.68487 31.706 22.0628 31.5888 22.0628C31.5432 22.0628 31.3801 21.805 31.2262 21.4901C31.0724 21.1751 29.5614 18.6643 27.8685 15.9107C23.8354 9.35049 23.2379 8.36114 23.2379 8.24421C23.2379 8.19032 23.2062 8.14628 23.1674 8.14628C23.1286 8.14628 22.7016 7.49712 22.2186 6.70379L21.3403 5.26131L18.3673 5.26122C15.8907 5.26114 15.3944 5.28074 15.3944 5.37867C15.3944 5.44333 15.4886 5.55822 15.6035 5.634C16.0701 5.94161 16.0474 5.44833 16.0806 16.0096C16.0975 21.3846 16.0923 25.7954 16.0691 25.8113C16.0459 25.8272 14.9264 25.8165 13.5812 25.7874C10.2881 25.7163 9.39286 25.5343 7.85091 24.6228C7.0723 24.1625 5.80782 22.9577 5.29766 22.1901C3.88399 20.0631 3.39862 17.7575 3.87985 15.4559C4.59833 12.0192 7.34707 9.35227 10.7558 8.78475C12.6295 8.47281 13.7294 8.54112 14.251 9.00189C14.4051 9.13809 14.5736 9.24942 14.6254 9.24942C14.6922 9.24942 14.7197 8.66908 14.7197 7.25774V5.26606L13.6023 5.24239L12.4848 5.21871L14.8041 3.65844C16.0797 2.80028 17.139 2.08443 17.1582 2.06771C17.1773 2.05091 16.8951 1.58836 16.5309 1.03984C16.1667 0.491238 15.8625 0.0321609 15.8549 0.0196869C15.8473 0.00712802 14.9752 0.589502 13.9167 1.31376C12.8583 2.03801 11.9583 2.63057 11.9166 2.63057C11.8749 2.63057 11.0306 2.03869 10.0403 1.31528C9.05002 0.591878 8.22334 0 8.20327 0C8.1832 0 7.82324 0.410454 7.40324 0.912214ZM36.1416 17.2612V29.2757H40.1709C42.483 29.2757 44.5049 29.2376 44.9149 29.1863C47.9966 28.8012 50.0417 27.3816 51.0555 24.9242C51.5564 23.7101 51.7196 22.0714 51.4467 20.9987C51.2689 20.3 50.7485 19.2372 50.2769 18.61C49.5261 17.6114 48.6122 16.9917 47.2742 16.5738C47.1979 16.5499 47.3152 16.4602 47.5694 16.3477C49.2035 15.6248 50.1677 14.531 50.6161 12.8909C50.7206 12.5089 50.7632 12.056 50.7594 11.3708C50.7504 9.78742 50.3166 8.69794 49.233 7.53777C48.2701 6.50676 47.0433 5.8262 45.5031 5.46887C44.9603 5.34294 44.2513 5.31681 40.5061 5.28439L36.1416 5.24671V17.2612ZM44.8068 8.85068C45.8226 9.1459 46.4948 9.65792 46.8683 10.4209C47.0327 10.7567 47.0633 10.9525 47.0633 11.6678C47.0633 12.3899 47.0334 12.5775 46.8628 12.9264C46.5843 13.4954 45.9743 14.0795 45.3278 14.3961C44.8306 14.6396 44.5573 14.732 43.8796 14.8855L43.6477 14.9381V16.632C43.6477 18.3212 43.6482 18.326 43.8374 18.3626C43.9417 18.3829 44.2549 18.4445 44.5332 18.4994C45.7419 18.7381 47.0719 19.6907 47.5039 20.6271C48.3788 22.5231 47.4183 24.8467 45.4785 25.527C44.6779 25.8078 43.9492 25.8779 41.8133 25.8797L39.8524 25.8814V17.3159V8.75055L40.1687 8.71245C40.3427 8.69157 41.3579 8.68512 42.4248 8.69828C43.847 8.71576 44.4825 8.7564 44.8068 8.85068ZM60.5778 18.5164L60.0079 18.9448L59.6501 18.7109C59.4534 18.5823 59.2089 18.4008 59.1069 18.3075C58.8896 18.1088 58.7246 18.1508 58.5265 18.4551C58.3904 18.6639 58.3913 18.6812 58.5426 18.7998C58.8663 19.0536 59.9409 19.7717 59.9968 19.7717C60.0955 19.7717 61.5384 18.6883 61.5405 18.6126C61.543 18.5223 61.2465 18.0729 61.19 18.0815C61.1668 18.0851 60.8913 18.2808 60.5778 18.5164ZM84.1374 18.7574C83.5153 19.0347 82.9929 19.275 82.9767 19.2915C82.9603 19.308 83.0042 19.4593 83.0741 19.6277L83.2014 19.9341L83.771 19.7172C84.0843 19.598 84.6064 19.4047 84.9311 19.2877C85.2558 19.1707 85.5499 19.0485 85.5846 19.0161C85.6515 18.9538 85.4048 18.2411 85.3189 18.2487C85.2911 18.2511 84.7595 18.48 84.1374 18.7574ZM59.3536 20.1235C58.2823 20.2781 57.2778 20.8161 56.4967 21.6537C55.739 22.4662 55.3732 23.456 55.3732 24.6934C55.3732 26.9961 56.786 28.8327 58.9968 29.4042C59.5551 29.5484 61.0807 29.6036 61.4297 29.4921C61.591 29.4406 61.6116 29.3726 61.6116 28.8925V28.3509L61.3306 28.469C60.279 28.9111 58.5153 28.4813 57.5459 27.5467C56.885 26.9096 56.538 26.2278 56.3875 25.2701C56.0896 23.375 57.3463 21.5931 59.3441 21.0777C60.0434 20.8974 60.9513 20.9605 61.291 21.2133L61.5273 21.3891V20.7626V20.136L60.882 20.0812C60.1418 20.0182 60.0702 20.0202 59.3536 20.1235ZM70.506 20.1969C69.4348 20.3507 68.7861 21.1036 68.7822 22.1978C68.7794 23.0037 69.0919 23.5364 70.3569 24.8814C71.6969 26.3061 71.9009 26.6147 71.9009 27.2175C71.9009 27.7417 71.7605 28.0622 71.3953 28.3713C70.9222 28.7718 70.1715 28.8707 69.3861 28.636C69.1042 28.5518 68.949 28.4589 68.949 28.3743C68.949 28.3022 68.9042 28.2583 68.8494 28.2767C68.7429 28.3124 68.7432 29.3543 68.8496 29.4598C68.9418 29.5511 69.8698 29.7 70.3472 29.7C71.8568 29.7 72.9376 28.678 72.9503 27.2391C72.9585 26.2994 72.6846 25.8382 71.1713 24.2432C69.793 22.7905 69.5575 22.2721 69.9839 21.6299C70.3813 21.0313 71.2662 20.8647 72.0168 21.247L72.4142 21.4495L72.3895 20.8922C72.3667 20.3785 72.3482 20.3305 72.1539 20.2791C71.7667 20.1767 70.9357 20.1352 70.506 20.1969ZM63.1588 20.436C63.2848 20.5761 63.2984 21.0083 63.2984 24.8806C63.2984 28.59 63.2813 29.1843 63.1719 29.2757C63.1023 29.3338 63.0454 29.4149 63.0454 29.4558C63.0454 29.4967 63.9562 29.5303 65.0695 29.5303H67.0936V28.9655C67.0936 28.4238 67.0874 28.4065 66.9394 28.5413C66.8107 28.6585 66.5808 28.6817 65.5478 28.6817H64.3105V26.8573V25.0328H65.5145C66.4679 25.0328 66.7578 25.0603 66.9061 25.165L67.0936 25.297V24.5578C67.0936 23.847 67.0877 23.824 66.9394 23.959C66.8106 24.0762 66.5807 24.0994 65.5458 24.0994H64.3064L64.3295 22.6781L64.3526 21.2567L65.4696 21.233C66.3498 21.2144 66.6402 21.2374 66.8401 21.3413L67.0936 21.4732V20.8771V20.2808H65.0564C63.0881 20.2808 63.024 20.2861 63.1588 20.436ZM74.3867 20.5312C74.4969 20.7456 74.5154 21.3777 74.5154 24.9323C74.5154 28.9308 74.5093 29.0909 74.3495 29.2952L74.1837 29.5073L74.5815 29.5505C74.8002 29.5742 75.1637 29.5698 75.3894 29.5407L75.7996 29.4878L75.6213 29.3262C75.4444 29.1657 75.4431 29.133 75.4431 24.9113C75.4431 21.1991 75.4598 20.634 75.5744 20.4695L75.7056 20.2808H74.9818H74.258L74.3867 20.5312ZM78.2244 20.4471C78.2995 20.5883 78.1248 20.8978 77.0624 22.5049C76.3747 23.5452 75.7817 24.4472 75.7448 24.5094C75.7022 24.5809 75.7533 24.7054 75.8839 24.8488C75.9973 24.9734 76.6644 26.0116 77.3662 27.156C78.2469 28.592 78.6288 29.2888 78.5987 29.4047C78.5569 29.5658 78.5995 29.5725 79.6347 29.5688C81.129 29.5634 81.2055 29.555 81.1479 29.4041C81.1215 29.3347 81.2763 28.723 81.492 28.0448L81.884 26.8117L83.7799 26.8345L85.6757 26.8573L86.0419 28.0453C86.2432 28.6987 86.3933 29.2968 86.3751 29.3745C86.3366 29.5399 86.5418 29.6122 87.0537 29.6139C87.6239 29.6158 87.6861 29.5656 87.5066 29.2479C87.2449 28.7848 84.7864 20.7838 84.8247 20.5203L84.8597 20.2808H83.785H82.7102L82.7079 20.6415C82.7065 20.8679 82.2152 22.5495 81.388 25.1589C80.6632 27.445 80.0599 29.3258 80.0473 29.3386C79.9912 29.3949 79.6764 28.9208 78.3552 26.7906C77.5799 25.5404 76.9658 24.4641 76.9907 24.399C77.0156 24.3338 77.5253 23.5428 78.1233 22.6413C78.7215 21.7397 79.3124 20.8398 79.4365 20.6415L79.6621 20.2808H78.899C78.1674 20.2808 78.1396 20.2877 78.2244 20.4471ZM84.599 23.4469L85.3632 25.839L83.8067 25.8621C82.9506 25.8749 82.2355 25.8705 82.2176 25.8525C82.1384 25.7729 83.7045 20.9288 83.7843 21.0061C83.812 21.0329 84.1786 22.1313 84.599 23.4469ZM68.3606 30.9837C67.7354 31.2634 67.2114 31.5049 67.196 31.5203C67.1806 31.5359 67.2252 31.6861 67.295 31.8542L67.4219 32.1599L68.0801 31.9143C68.4421 31.7793 68.928 31.5946 69.1599 31.504C69.3918 31.4133 69.6468 31.3157 69.7264 31.287C69.8606 31.2387 69.8615 31.211 69.7397 30.9129C69.6674 30.7358 69.5832 30.5649 69.5527 30.533C69.5222 30.5012 68.9857 30.7039 68.3606 30.9837ZM28.1295 30.9401C27.6424 31.1521 27.1203 31.3781 26.9692 31.4422L26.6945 31.5587L26.8403 31.866C26.9531 32.1041 27.0246 32.164 27.1571 32.1313C27.3247 32.0901 29.4198 31.3152 29.4524 31.2824C29.493 31.2414 29.1425 30.5489 29.0824 30.5515C29.0454 30.5531 28.6165 30.7279 28.1295 30.9401ZM42.1717 32.4892C40.902 32.8569 39.7392 33.797 39.1555 34.9274C37.6382 37.8659 39.287 41.3584 42.5165 42.0468C43.2522 42.2036 43.7049 42.2035 44.4489 42.0463C46.2907 41.6573 47.8144 40.1667 48.2439 38.3338C48.5072 37.2102 48.3271 35.9255 47.7531 34.8344C47.1825 33.7495 45.8791 32.7523 44.651 32.461C43.9384 32.292 42.8082 32.3048 42.1717 32.4892ZM26.4992 32.7851C26.5344 33.0027 26.2421 34.0296 25.2614 37.1341C24.5553 39.3693 23.9053 41.3414 23.8168 41.5163L23.6561 41.8345H24.3246C24.9474 41.8345 24.9902 41.8232 24.9499 41.668C24.9261 41.5764 25.0701 40.9654 25.2699 40.3103L25.6333 39.1191H27.537H29.4407L29.8085 40.3013C30.0107 40.9516 30.1557 41.5626 30.1306 41.6591C30.0874 41.8256 30.1193 41.8345 30.754 41.8345H31.423L31.304 41.6012C31.2387 41.4728 30.5944 39.4776 29.8724 37.1674C28.9526 34.2246 28.5739 32.8971 28.6074 32.7336L28.6551 32.5003H27.5542H26.4533L26.4992 32.7851ZM15.774 32.6343C15.7188 32.6576 15.6977 34.2038 15.7129 37.0972C15.7284 40.0423 15.7072 41.5538 15.6496 41.6117C15.4699 41.7925 15.5826 41.8345 16.2468 41.8345C16.8693 41.8345 16.9241 41.8212 16.8585 41.686C16.7965 41.5586 16.6646 33.708 16.7228 33.6105C16.7343 33.591 16.7573 33.591 16.7739 33.6105C16.8994 33.7585 21.5016 41.5683 21.5319 41.6848C21.5639 41.8081 21.6655 41.8345 22.107 41.8345H22.6431L22.6664 37.4008C22.6792 34.9621 22.7222 32.9001 22.7619 32.8185C22.8277 32.6833 22.7732 32.67 22.1548 32.67H21.4754L21.5976 32.9643C21.6977 33.2053 21.7189 33.8699 21.7148 36.6343C21.7117 38.7716 21.6808 39.9634 21.6308 39.8828C20.7958 38.5391 17.6137 33.1357 17.5206 32.9033L17.393 32.5851L16.6256 32.5918C16.2036 32.5955 15.8203 32.6146 15.774 32.6343ZM32.3837 32.7738C32.4983 32.9383 32.515 33.5001 32.515 37.1807C32.515 39.7163 32.4822 41.486 32.4328 41.6169L32.3506 41.8345H33.0261C33.6679 41.8345 33.6974 41.8263 33.6144 41.6704C33.5618 41.5714 33.5271 40.7589 33.5271 39.623V37.7397L33.8855 37.7953C34.0826 37.826 34.3384 37.9206 34.4539 38.0056C34.6913 38.1804 36.0815 40.3921 36.4993 41.2596L36.7741 41.8302L37.4374 41.8324L38.1007 41.8345L37.9478 41.6012C37.8636 41.4728 37.3634 40.6614 36.8361 39.798C36.3089 38.9346 35.7471 38.0929 35.5878 37.9276C35.4285 37.7623 35.2982 37.6029 35.2982 37.5734C35.2982 37.5441 35.4278 37.477 35.5863 37.4244C36.0021 37.2863 36.6027 36.7201 36.8277 36.2543C37.2387 35.4029 37.0333 34.1448 36.3692 33.4474C35.7648 32.8125 34.9543 32.5851 33.296 32.5851H32.2525L32.3837 32.7738ZM50.013 32.8354C50.1231 33.0498 50.1417 33.6792 50.1417 37.2098C50.1417 40.7405 50.1231 41.3699 50.013 41.5842L49.8844 41.8345H51.2666C52.918 41.8345 53.3604 41.7622 54.1779 41.3587C54.9623 40.9716 55.6447 40.2966 56.0641 39.4929C56.477 38.7015 56.6357 38.0558 56.6357 37.1674C56.6357 35.7821 56.2453 34.8211 55.2884 33.8509C54.6341 33.1876 54.0631 32.8435 53.3371 32.6752C53.1336 32.6279 52.2734 32.5883 51.4256 32.5872L49.8844 32.5851L50.013 32.8354ZM58.0695 32.653C58.0695 32.6903 58.1169 32.7686 58.1749 32.827C58.2555 32.908 58.2872 33.9061 58.3098 37.0691C58.3354 40.6578 58.322 41.247 58.2087 41.52L58.078 41.8345H58.7954H59.5127L59.3815 41.6459C59.2671 41.4817 59.2502 40.9414 59.2502 37.4688V33.4802L59.6142 34.1146C59.8144 34.4635 60.8077 36.1428 61.8216 37.8463C62.8356 39.5498 63.7752 41.144 63.9098 41.389L64.1544 41.8345H64.6519H65.1495L65.1727 37.4008C65.1856 34.9621 65.2286 32.9001 65.2683 32.8185C65.3342 32.6832 65.2788 32.67 64.6465 32.67C64.0106 32.67 63.9621 32.6818 64.0682 32.8102C64.1613 32.923 64.1888 33.6403 64.2086 36.4762L64.2333 40.002L62.2795 36.739C61.205 34.9444 60.2328 33.2756 60.1191 33.0306L59.9125 32.5851H58.991C58.4841 32.5851 58.0695 32.6157 58.0695 32.653ZM67.5729 32.7761C67.6669 33.0366 67.6003 41.4995 67.5027 41.686C67.4318 41.8216 67.4838 41.8345 68.1006 41.8345H68.7762L68.6939 41.6169C68.5789 41.3124 68.5836 32.9661 68.699 32.7492C68.7817 32.5937 68.7529 32.5851 68.1451 32.5851C67.516 32.5851 67.5053 32.5887 67.5729 32.7761ZM28.3274 35.5551C28.723 36.7919 29.0585 37.8783 29.073 37.9692C29.0983 38.1282 29.0389 38.1344 27.5391 38.1327C26.6303 38.1316 25.9836 38.098 25.9902 38.0522C26.0365 37.7289 27.5089 33.2004 27.5525 33.247C27.5831 33.2797 27.9318 34.3183 28.3274 35.5551ZM44.8384 33.5117C45.8703 33.9046 46.8072 34.8427 47.1863 35.8621C47.6922 37.2224 47.37 38.8184 46.3732 39.8906C44.4694 41.9385 41.2161 41.4423 39.9746 38.9148C39.6978 38.3513 39.6556 38.1814 39.6193 37.483C39.5511 36.1708 39.9149 35.2339 40.8252 34.377C41.6776 33.5747 42.5521 33.2457 43.6898 33.2994C44.1032 33.3188 44.548 33.401 44.8384 33.5117ZM52.6718 33.5236C53.4427 33.6483 54.0358 33.9465 54.5577 34.4716C55.9804 35.903 56.0461 38.3113 54.7014 39.7418C53.9683 40.5217 53.0161 40.8973 51.7652 40.8998L51.1537 40.9011V37.1674V33.4337L51.6387 33.4344C51.9054 33.4347 52.3703 33.4748 52.6718 33.5236ZM35.1798 33.777C35.8536 34.1053 36.1907 34.9112 35.9813 35.6934C35.7769 36.4571 35.2133 36.8333 34.1807 36.8954L33.5271 36.9346V35.2143V33.494L34.1622 33.5424C34.5588 33.5725 34.9408 33.6607 35.1798 33.777ZM23.7177 44.953C23.751 45.2039 23.4818 46.1497 22.4462 49.4206C21.7237 51.7027 21.074 53.6597 21.0025 53.7695L20.8725 53.9691H21.5466C22.1296 53.9691 22.2135 53.9508 22.1687 53.8334C22.1403 53.7587 22.2838 53.148 22.4877 52.4763L22.8583 51.255L24.777 51.2543C25.8323 51.2539 26.6957 51.2699 26.6957 51.2897C26.6957 51.3096 26.8475 51.8233 27.0331 52.4313C27.2186 53.0394 27.3704 53.6341 27.3704 53.753C27.3704 53.9669 27.3774 53.9691 28.0582 53.9691C28.7294 53.9691 28.7425 53.9652 28.6004 53.8073C28.4075 53.5928 25.8523 45.4528 25.8523 45.0528C25.8523 44.7594 25.8345 44.739 25.5361 44.6893C25.3622 44.6604 24.8723 44.6363 24.4477 44.6358L23.6756 44.6348L23.7177 44.953ZM38.796 44.8852C38.9063 45.0998 38.9247 45.741 38.9247 49.3766C38.9247 53.1718 38.9104 53.632 38.7882 53.7549C38.713 53.8305 38.6714 53.9122 38.6954 53.9364C38.7195 53.9606 39.0467 53.9874 39.4224 53.996C40.0228 54.0097 40.1056 53.9935 40.1055 53.863C40.1055 53.7814 40.0675 53.7145 40.0211 53.7145C39.966 53.7145 39.9368 52.1888 39.9368 49.307C39.9368 46.4601 39.9666 44.8808 40.0211 44.847C40.2493 44.7051 40.0391 44.6348 39.3864 44.6348H38.6674L38.796 44.8852ZM47.0212 45.0084C47.0212 45.2514 46.6663 46.5035 46.0051 48.5936C45.4462 50.36 44.8724 52.1871 44.73 52.6538C44.5876 53.1205 44.4436 53.5327 44.4101 53.5696C44.3213 53.6674 44.2785 53.6046 42.7945 51.1995C42.0498 49.9925 41.4241 48.979 41.4041 48.9472C41.3841 48.9154 41.9757 47.9698 42.7186 46.8459C43.4615 45.7219 44.0693 44.7837 44.0693 44.761C44.0693 44.7383 43.7503 44.7197 43.3604 44.7197C42.7216 44.7197 42.6553 44.7347 42.6908 44.871C42.7157 44.9673 42.2565 45.7466 41.4281 47.0136C40.4566 48.4996 40.1523 49.0265 40.2287 49.0898C40.285 49.1365 40.9486 50.1783 41.7033 51.4048C42.6493 52.9423 43.0621 53.6869 43.0322 53.802C42.9904 53.9627 43.037 53.9691 44.2557 53.9691C45.4872 53.9691 45.5215 53.9643 45.478 53.7969C45.4534 53.7022 45.5948 53.1008 45.7921 52.4604L46.1509 51.2961L48.057 51.2733L49.9631 51.2505L50.3481 52.4743C50.5597 53.1475 50.7097 53.7592 50.6813 53.8337C50.6367 53.9508 50.7218 53.9691 51.3105 53.9691H51.9915L51.8344 53.6933C51.748 53.5416 51.0999 51.5703 50.3942 49.3125C49.4133 46.1746 49.1219 45.14 49.1572 44.9211L49.2033 44.6348H48.1123H47.0212V45.0084ZM15.5875 44.9545C15.7277 45.1103 15.7376 45.4063 15.7334 49.2979C15.7295 52.848 15.7098 53.5112 15.6017 53.7216L15.4745 53.9691H16.9372C18.5964 53.9691 19.0457 53.8797 19.6269 53.4337C20.6392 52.6567 20.9024 51.1067 20.2008 50.0524C19.9749 49.713 19.8447 49.604 19.1611 49.1816L18.9216 49.0336L19.2678 48.8612C19.4582 48.7664 19.6877 48.5945 19.778 48.4792C19.8681 48.3639 19.9844 48.2959 20.0365 48.3282C20.0955 48.365 20.1229 48.3277 20.1093 48.2293C20.0975 48.1426 20.132 47.9188 20.1863 47.7321C20.4131 46.9524 20.2574 46.2525 19.7244 45.656C19.1108 44.9693 18.7445 44.8588 16.9549 44.8201C15.4491 44.7876 15.4383 44.7887 15.5875 44.9545ZM29.574 44.9449C29.738 45.1437 29.744 53.4875 29.5804 53.7782L29.473 53.9691H30.1976H30.9222L30.7909 53.7805C30.6765 53.6161 30.6603 53.0852 30.6646 49.6437C30.6678 47.0466 30.6976 45.7391 30.7518 45.8228C30.8973 46.048 35.2508 53.4307 35.3997 53.7047C35.5359 53.9554 35.5697 53.9691 36.0512 53.9691H36.5589L36.5822 49.5353C36.595 47.0968 36.638 45.0347 36.6777 44.953C36.7435 44.8179 36.6888 44.8045 36.0663 44.8045C35.6902 44.8045 35.3837 44.8331 35.3852 44.8682C35.3867 44.9032 35.4436 45.006 35.5117 45.0965C35.6161 45.2354 35.6348 45.8027 35.6306 48.703C35.6275 50.9062 35.5968 52.0989 35.5456 52.0174C34.7616 50.7691 31.465 45.1346 31.4371 44.9955C31.4003 44.8107 31.3674 44.8045 30.4286 44.8045C29.5355 44.8045 29.4674 44.8157 29.574 44.9449ZM25.5944 47.8043C26.0207 49.1508 26.3535 50.2686 26.3339 50.2883C26.3143 50.3079 25.596 50.3137 24.7375 50.301L23.1766 50.2778L23.7796 48.3685C24.5006 46.0854 24.7654 45.2937 24.7962 45.3295C24.8088 45.3441 25.1679 46.4578 25.5944 47.8043ZM49.5935 50.0656L49.6491 50.3203H48.0821C47.0772 50.3203 46.5151 50.2894 46.5151 50.234C46.5151 50.1866 46.7585 49.3752 47.0558 48.4308C47.3531 47.4865 47.6798 46.4274 47.7817 46.0774C47.8836 45.7274 47.9901 45.4028 48.0184 45.3561C48.0646 45.2797 49.4586 49.4478 49.5935 50.0656ZM18.2279 45.7781C19.2489 46.0832 19.6077 47.2047 18.932 47.979C18.5826 48.3794 18.2042 48.5349 17.4347 48.5947L16.7696 48.6463L16.7145 48.3695C16.6422 48.0059 16.6432 45.7826 16.7158 45.7097C16.8182 45.6065 17.8029 45.6511 18.2279 45.7781ZM18.1338 49.5664C19.0049 49.8097 19.527 50.4833 19.527 51.3636C19.527 52.5463 18.9996 52.993 17.4818 53.0957L16.7438 53.1457V51.3087V49.4717L17.271 49.4722C17.5609 49.4724 17.9491 49.5148 18.1338 49.5664Z" fill="url(#paint1_linear_271_4654)" fill-opacity="0.3"/>
<defs>
<linearGradient id="paint0_linear_271_4654" x1="43.798" y1="5.08172e-06" x2="96.5443" y2="71.3386" gradientUnits="userSpaceOnUse">
<stop stop-color="white"/>
<stop offset="1" stop-color="white" stop-opacity="0"/>
</linearGradient>
<linearGradient id="paint1_linear_271_4654" x1="36.0491" y1="-31.86" x2="87.1436" y2="-13.6316" gradientUnits="userSpaceOnUse">
<stop stop-color="#4A60DB"/>
<stop offset="0.387957" stop-color="#B2E2E4"/>
<stop offset="0.787325" stop-color="#E4F5F6"/>
<stop offset="1" stop-color="#CFC0C3"/>
</linearGradient>
</defs>
</svg>
