<svg width="42" height="58" viewBox="0 0 42 58" fill="none" xmlns="http://www.w3.org/2000/svg">
<path fill-rule="evenodd" clip-rule="evenodd" d="M14.9806 0.119869C11.3344 0.358633 6.27679 1.03416 5.65617 1.36523C5.53536 1.42975 5.39852 1.72365 5.35218 2.01837C5.03174 4.05602 3.25318 6.05512 1.38222 6.48097L0.643915 6.64885L0.612252 17.5771C0.575289 30.3433 0.569447 30.094 0.936357 31.6144C2.35358 37.487 7.05871 42.8026 16.4074 49.0924C18.4516 50.4677 20.9724 52.0641 21.1002 52.0641C21.2349 52.0641 24.4494 50.022 26.1917 48.8296C35.3186 42.5834 39.8607 37.3925 41.2551 31.6144C41.622 30.094 41.6161 30.3433 41.5792 17.5771L41.5475 6.64885L40.8175 6.48277C39.9175 6.27799 39.0804 5.74713 38.3111 4.89335C37.6603 4.17098 36.9687 2.81232 36.838 1.99875C36.7805 1.64144 36.6594 1.4292 36.4662 1.34713C35.6699 1.00943 30.3902 0.357251 26.4617 0.11144C24.0264 -0.0409658 17.3612 -0.0359914 14.9806 0.119869ZM23.1206 5.50256C23.188 5.56944 23.2568 5.85352 23.2735 6.13388C23.2916 6.43524 23.3943 6.69514 23.5248 6.76934C23.7663 6.90682 23.8218 7.43934 23.6165 7.64812C23.535 7.73103 23.6078 7.77939 23.8144 7.77939C24.0655 7.77939 24.1309 7.71541 24.0966 7.50304C24.0315 7.09971 24.2341 6.78716 24.6254 6.68726C24.8192 6.6378 24.9686 6.50031 24.9686 6.3714C24.9686 6.05512 25.3672 5.6377 25.6692 5.6377C25.9813 5.6377 25.9863 5.58878 25.5769 6.53002C25.3883 6.96375 25.1977 7.67106 25.1536 8.10175C25.0748 8.87096 25.0824 8.89335 25.5864 9.36839C26.9709 10.6733 27.007 10.7186 27.007 11.1508C27.007 11.4916 26.9497 11.5792 26.7263 11.5792C26.5719 11.5792 26.3121 11.5135 26.1487 11.4334C25.862 11.2926 25.8609 11.2949 26.1157 11.5025C26.2633 11.6227 26.6394 11.7173 26.9691 11.7173H27.5587L27.2489 12.1502C27.0785 12.3883 26.7556 12.6656 26.5314 12.7666C26.3072 12.8675 26.2154 12.9515 26.3276 12.9534C26.4397 12.9552 26.6218 12.8986 26.7321 12.8276C27.094 12.5949 27.4245 13.0568 27.3294 13.6623C27.2655 14.0685 27.3128 14.2795 27.5409 14.6053L27.835 15.0251L27.4816 15.1152C27.2872 15.1648 26.8206 15.1754 26.4446 15.1387C26.0453 15.0996 25.8364 15.1204 25.9423 15.1887C26.042 15.2531 26.2547 15.3065 26.4149 15.3078C26.5752 15.3089 26.7433 15.4082 26.7886 15.5284C26.9052 15.8374 26.8732 17.8108 26.7462 18.1414C26.6498 18.3928 26.6205 18.3776 26.4126 17.9687C26.1475 17.4475 25.9897 17.3604 26.213 17.8585C26.3422 18.1468 26.3137 18.2574 26.0177 18.6151C25.8271 18.8454 25.6288 19.2296 25.5772 19.4689C25.4574 20.023 25.05 20.7384 24.4044 21.5279C23.5059 22.6268 23.262 23.6463 23.6637 24.6237C23.7799 24.9064 24.2412 25.3953 24.8527 25.8837C26.8406 27.4712 27.264 28.0019 27.2973 28.9476C27.3075 29.2364 27.3413 29.3408 27.3724 29.1796C27.4231 28.9172 27.4954 28.9567 28.0674 29.5601C28.5952 30.117 28.8269 30.2562 29.4057 30.3651C30.2748 30.5284 31.3909 30.3621 31.8758 29.997C32.9095 29.2186 33.12 28.1655 32.4343 27.2029C31.966 26.5456 31.3497 26.2256 30.5526 26.2256C29.9393 26.2256 29.8957 26.2724 29.6787 27.1627C29.5602 27.6493 29.4129 27.8788 29.0847 28.0886C28.6316 28.3778 28.5107 28.8046 28.7985 29.0972C28.887 29.1872 28.9196 29.3012 28.871 29.3507C28.8224 29.4 28.5667 29.2208 28.3025 28.9522C27.7128 28.3526 27.635 27.6182 28.1245 27.2698C28.2905 27.1515 28.3591 27.0546 28.2769 27.0546C28.1947 27.0546 28.0514 27.1479 27.9583 27.2619C27.724 27.5489 27.367 27.521 27.075 27.1928C26.8354 26.9236 26.8376 26.9164 27.1596 26.9164C27.3414 26.9164 27.6029 26.7826 27.7408 26.6188C27.9846 26.3293 27.9845 26.3244 27.737 26.4342C27.2374 26.6561 26.0002 26.4009 25.3726 25.9466C24.5778 25.3711 24.3117 23.8227 24.8152 22.7021C25.1093 22.0476 26.2642 20.9207 26.5334 21.0257C26.6423 21.0682 26.7567 20.9858 26.8054 20.8298C26.8646 20.6399 27.0125 20.5605 27.3063 20.5605H27.7232L27.3651 20.274C26.9021 19.9039 26.9183 19.6323 27.4375 19.0515C27.8383 18.6031 27.8695 18.592 28.0451 18.836C28.1467 18.9775 28.23 19.2555 28.23 19.4538C28.23 19.8042 28.4448 20.1459 28.6649 20.1459C28.9067 20.1459 28.754 19.2135 28.4339 18.7345C28.0564 18.1696 28.0198 17.9201 28.2503 17.4821L28.4064 17.1854L28.5145 17.4822C28.6243 17.7841 29.1813 18.1839 29.1813 17.9609C29.1813 17.8936 28.9989 17.565 28.7761 17.2305C28.4482 16.7384 28.3704 16.4762 28.3684 15.8551C28.3662 15.1691 28.4127 15.0417 28.8076 14.6531C29.1981 14.2687 30.2684 13.6809 30.2684 13.8507C30.2684 13.8861 30.2021 14.0631 30.1211 14.2438C29.9967 14.5217 30.039 14.6773 30.3945 15.2474C30.9132 16.0791 31.082 16.6727 31.083 17.6688C31.0839 18.636 30.8019 19.4757 30.1912 20.3238C29.6164 21.1221 29.0052 21.5257 28.3659 21.5293C28.0087 21.5313 27.941 21.5653 28.0942 21.6658C28.2063 21.7395 28.5639 21.8007 28.8889 21.8019L29.4797 21.804L29.2015 22.2531C28.7892 22.9187 28.5725 23.0164 28.2182 22.6963L27.9187 22.4258L28.0827 22.7435C28.2083 22.9866 28.2101 23.1743 28.0902 23.5433C27.972 23.9074 27.9721 24.0726 28.0906 24.2178C28.2139 24.3687 28.1891 24.4419 27.9759 24.5578C27.2454 24.9555 26.6655 24.4579 26.8564 23.5972C26.9158 23.3296 26.9172 22.9876 26.8593 22.8373C26.7696 22.6038 26.7529 22.5992 26.7447 22.8058C26.7335 23.0929 26.6811 23.1019 26.328 22.8776C25.9278 22.6235 25.6189 23.0061 25.6005 23.7789C25.5833 24.4999 25.8442 25.0767 26.2474 25.2086C26.6585 25.3431 27.699 25.2993 28.1399 25.1288C28.3487 25.0481 28.7296 24.982 28.9863 24.982C29.36 24.982 29.4531 24.9277 29.4531 24.7101C29.4531 24.5557 29.2961 24.3546 29.0904 24.245L28.7277 24.0517L29.0894 23.8107C29.3357 23.6467 29.5708 23.5999 29.8258 23.664C30.1279 23.7398 30.1676 23.7239 30.0306 23.5825C29.8348 23.38 29.8003 22.7712 29.9846 22.7712C30.2054 22.7712 30.812 23.613 30.812 23.9192C30.812 24.2132 32.2879 25.7813 32.8551 26.09C33.0883 26.2169 33.1222 26.1903 33.1222 25.8807C33.1222 25.6856 33.2139 25.4902 33.326 25.4466C33.4381 25.4028 33.5299 25.3092 33.5299 25.2387C33.5299 25.1662 33.4123 25.1745 33.2593 25.2577C32.9032 25.4515 32.3025 25.1417 31.854 24.5331C31.4262 23.9525 31.3136 23.5566 31.4269 23.0318L31.5185 22.6078L31.8861 22.9658C32.3949 23.4614 32.6749 23.4352 32.318 22.9254C31.9534 22.4047 31.7108 21.2262 31.8222 20.5172C31.949 19.7114 32.5418 18.6824 33.2386 18.0588C33.7918 17.5636 33.9038 17.5206 34.6395 17.5206C35.3865 17.5206 35.4484 17.4956 35.581 17.1411C35.6591 16.9323 35.6967 16.6214 35.6644 16.4502C35.598 16.0966 35.6214 16.0842 35.9834 16.2812C36.6401 16.6385 36.857 17.9425 36.3896 18.7222C36.0589 19.2735 35.5863 19.5934 34.7734 19.816C34.1922 19.9752 34.1768 19.9898 34.583 19.9985C35.0982 20.0093 35.1476 20.1809 34.7226 20.4835C34.464 20.6678 34.4556 20.6986 34.6636 20.6986C34.7973 20.6986 35.0301 20.6315 35.1811 20.5493C35.5605 20.3428 35.6625 20.5017 35.3652 20.836C35.0907 21.1442 34.4888 21.1985 34.0305 20.9563C33.8673 20.87 33.7745 20.8441 33.8243 20.8987C33.8741 20.9533 33.7977 21.1172 33.6545 21.2628C33.3165 21.6064 33.3013 22.0116 33.6318 21.8695C33.7625 21.8131 34.0483 21.7772 34.2668 21.7896C34.4853 21.8019 34.7113 21.7344 34.7691 21.6393C34.9498 21.3418 35.0614 21.6312 34.9657 22.1496C34.9041 22.4829 34.7503 22.7237 34.4982 22.8815L34.1223 23.1167L34.3702 24.6366C34.6495 26.3481 34.6088 26.8769 34.1562 27.4306C33.94 27.6951 33.8171 28.0678 33.7618 28.6283C33.6251 30.0126 32.7441 31.1247 31.5075 31.474C30.6201 31.7246 28.8637 31.6265 27.6688 31.2598C27.5094 31.2107 27.3857 31.3485 27.2272 31.7513C26.8723 32.6531 26.9188 32.7529 28.0254 33.4656C29.1528 34.1917 29.4531 34.5333 29.4531 35.0889C29.4531 35.3192 29.6091 35.6206 29.8608 35.8765C30.1323 36.1525 30.2684 36.4293 30.2684 36.7048C30.2684 36.9325 30.3055 37.217 30.3509 37.3372C30.4763 37.6694 30.0074 37.6115 29.6046 37.2449L29.263 36.934L29.4913 37.305C29.7758 37.7675 30.0173 38.7994 29.8409 38.7994C29.5663 38.7994 28.644 38.2334 28.4429 37.9415C28.3259 37.7715 28.23 37.6977 28.23 37.7773C28.23 37.857 28.3817 38.0671 28.5671 38.2441C28.7989 38.4656 28.881 38.6596 28.8302 38.8657C28.7854 39.0466 28.8405 39.2364 28.9688 39.3448C29.0856 39.4434 29.1813 39.6204 29.1813 39.7381C29.1813 39.8559 29.2884 40.0751 29.4191 40.2255C29.6511 40.4922 29.647 40.4964 29.2492 40.3992C29.025 40.3444 28.6591 40.133 28.4361 39.9295C28.1243 39.645 28.0913 39.633 28.2935 39.8774L28.5566 40.1954L28.1556 40.5288C27.9349 40.712 27.7014 40.8643 27.6366 40.867C27.5719 40.8698 27.5519 41.0006 27.5924 41.1577C27.7009 41.5796 27.4335 42.2291 27.108 42.334C26.7825 42.4392 26.4387 42.752 26.2092 43.1519C26.0764 43.3833 26.0555 43.3047 26.0809 42.6689C26.1044 42.0829 26.0642 41.9004 25.9051 41.8692C25.7184 41.8327 24.9576 42.4208 24.9654 42.5956C24.9939 43.2355 24.9773 43.2606 24.666 43.0503C24.3159 42.814 24.0736 41.896 24.2911 41.6297C24.3922 41.5058 24.3732 41.4339 24.2235 41.3756C24.0992 41.3271 23.9473 41.4044 23.8475 41.5667C23.6139 41.9471 23.4731 41.9064 23.4776 41.4592C23.4799 41.2239 23.6351 40.9259 23.8853 40.6762C24.3556 40.207 24.3376 40.1167 23.8136 40.3193C23.6059 40.3996 23.4004 40.4289 23.3567 40.3844C23.2573 40.2834 23.6407 39.5794 23.7796 39.6077C23.8357 39.619 24.0038 39.5041 24.1533 39.3521C24.4827 39.0171 25.4649 38.9749 25.86 39.2786C26.2403 39.5711 26.3276 39.5386 26.3276 39.1047C26.3276 38.8928 26.4197 38.3594 26.5323 37.9198C26.7696 36.9937 26.7124 36.8305 25.9691 36.3125C25.6215 36.0703 25.4478 35.8462 25.4547 35.6489C25.4633 35.4075 25.4288 35.3817 25.2733 35.5128C25.1598 35.6085 25.1045 35.8351 25.1381 36.0673C25.1861 36.3996 25.1515 36.4539 24.9133 36.4206C24.6986 36.3906 24.5962 36.4928 24.4811 36.851C24.391 37.1319 24.2915 37.257 24.2337 37.1619C24.1807 37.0746 23.988 37.0031 23.8055 37.0031C23.4983 37.0031 23.4738 36.9524 23.4738 36.315C23.4738 35.9366 23.3708 35.3652 23.245 35.0455C23.0769 34.6184 23.0591 34.4493 23.1778 34.4091C23.2874 34.3719 23.2518 34.2409 23.067 34.002C22.893 33.7772 22.7878 33.4189 22.7764 33.012C22.7593 32.401 22.7551 32.3945 22.6745 32.8579L22.5905 33.3415H20.8016C19.8178 33.3415 18.9716 33.3833 18.9212 33.4342C18.8707 33.4854 18.9877 33.8016 19.1813 34.1373C19.4543 34.6111 19.5329 34.9337 19.5329 35.5804C19.5329 36.2136 19.6003 36.5003 19.8146 36.7772C20.0882 37.1309 20.0887 37.1413 19.8329 37.1413C19.6881 37.1413 19.42 37.0216 19.2372 36.8755L18.9048 36.6096L18.9907 37.29C19.0379 37.6641 19.0474 37.9703 19.0118 37.9703C18.9762 37.9703 18.7426 37.8117 18.4926 37.6179L18.0381 37.2654V37.8942C18.0381 38.2401 17.9865 38.523 17.9233 38.523C17.782 38.523 17.4216 38.1128 17.3165 37.8322C17.2739 37.7182 17.2732 37.9727 17.315 38.3977C17.3969 39.2298 17.2216 39.7666 16.8678 39.7666C16.7056 39.7666 16.6678 39.8987 16.7001 40.3538C16.7247 40.7011 16.6874 40.9166 16.6085 40.8812C16.394 40.7849 15.9997 40.2234 15.9997 40.0142C15.9997 39.9084 15.9287 39.6686 15.842 39.4817L15.6841 39.1416L15.2999 39.5323C15.0886 39.7471 14.847 39.8798 14.763 39.8271C14.5619 39.7007 14.3554 40.0472 14.4492 40.3538C14.49 40.4868 14.4682 40.5956 14.4011 40.5956C14.1875 40.5956 13.9705 39.9917 13.9932 39.46C14.0051 39.1773 13.9876 38.9185 13.9542 38.8849C13.8026 38.7325 13.1046 39 13.0445 39.2335C12.9526 39.5906 12.7836 39.5541 12.6852 39.1557C12.595 38.7899 12.6996 38.3849 12.8845 38.3849C12.9488 38.3849 12.9688 38.298 12.9286 38.1916C12.8885 38.0853 12.921 37.9572 13.0009 37.9071C13.3286 37.701 13.132 37.5278 12.6704 37.6158C12.1282 37.7193 12.0753 37.593 12.4638 37.1221C12.6933 36.8437 12.7529 36.8263 12.8693 37.0031C12.9871 37.1818 13.0062 37.1776 13.0081 36.9734C13.0108 36.6555 13.4946 36.4102 13.977 36.4822C14.1926 36.5144 14.369 36.4952 14.369 36.4397C14.369 36.3841 14.5984 36.3696 14.8786 36.4076C15.2662 36.4602 15.4778 36.405 15.7619 36.1773C16.1133 35.8955 16.1356 35.8125 16.1356 34.7823C16.1356 33.8905 16.0969 33.687 15.9274 33.687C15.8129 33.687 15.6661 33.8268 15.6013 33.9978C15.496 34.2756 15.473 34.2828 15.3866 34.0651C15.331 33.9252 15.3685 33.723 15.4749 33.5895C15.5785 33.4597 15.59 33.4002 15.5012 33.4544C15.3479 33.5478 14.9126 33.2212 14.9126 33.0127C14.9126 32.829 15.3114 32.3685 15.3159 32.547C15.3184 32.6421 15.3851 32.7197 15.4642 32.7197C15.5433 32.7197 15.5695 32.6563 15.5225 32.5788C15.353 32.3 15.7532 31.4876 16.3234 30.9532C16.8348 30.474 18.1543 29.8211 18.6208 29.8164C18.88 29.8139 20.9125 29.2904 20.997 29.2045C21.0389 29.162 20.9559 29.1269 20.8126 29.1267C20.6693 29.1264 20.3566 29.0049 20.1176 28.8567C19.4234 28.4264 17.3587 26.6232 17.3587 26.4473C17.3587 26.3592 17.4596 26.1406 17.5829 25.9615C17.7348 25.7409 17.7507 25.6552 17.6321 25.6954C17.5357 25.728 17.3531 26.0249 17.226 26.3553C17.057 26.795 16.9719 26.8948 16.9087 26.7274C16.8613 26.6018 16.853 26.2976 16.8904 26.0513C16.9544 25.6296 16.9498 25.6237 16.8114 25.9492C16.7307 26.1392 16.4463 26.5229 16.1794 26.8018C15.7845 27.2143 15.7054 27.3883 15.7554 27.7344C15.8277 28.2359 15.6909 28.2809 15.396 27.8528C15.1072 27.4338 15.1304 26.8747 15.4646 26.2089C15.7072 25.7254 15.7323 25.5056 15.652 24.5694L15.5592 23.4884L15.9493 23.2735C16.1639 23.1554 16.2713 23.0561 16.188 23.0531C15.9497 23.0444 15.3203 23.599 15.3203 23.8176C15.3203 24.0832 15.0978 24.0685 14.9951 23.7962C14.8563 23.4288 14.9028 22.8474 15.0939 22.5602C15.1935 22.4103 15.314 22.1785 15.3617 22.0451C15.4407 21.8236 15.4017 21.8267 14.9137 22.0798C14.6198 22.2324 14.0445 22.6343 13.6355 22.973C13.0241 23.4794 12.8812 23.5469 12.8329 23.3528C12.775 23.12 12.8177 23.482 12.9596 24.4293L13.032 24.9129L12.7154 24.5405C12.4907 24.2764 12.244 24.1563 11.8667 24.1275C11.371 24.0897 11.3242 24.1184 11.1814 24.5499C11.02 25.0373 10.6078 25.4403 10.4027 25.3114C10.3359 25.2696 10.1571 25.3958 10.0051 25.5922C9.63917 26.0654 9.47691 26.0428 9.47691 25.5185C9.47691 25.1561 9.51985 25.0993 9.74856 25.1601C10.0191 25.2321 10.0191 25.2311 9.75237 24.8863C9.50763 24.5698 9.5011 24.4996 9.67763 24.0702C9.92386 23.4709 9.68102 23.4278 9.17102 23.9803C8.97805 24.1892 8.66224 24.472 8.46914 24.6085C8.27604 24.745 8.11799 24.9781 8.11799 25.1267C8.11799 25.4609 7.99922 25.4703 7.76358 25.1547C7.56097 24.8834 7.5115 24.2911 7.69142 24.2911C7.75584 24.2911 7.78057 24.1426 7.74646 23.9612C7.71235 23.7798 7.7504 23.506 7.83099 23.3528C7.96878 23.091 7.94541 23.0788 7.43622 23.1483C7.09812 23.1945 6.89496 23.1668 6.89496 23.0748C6.89496 22.7417 7.18672 22.1861 7.53909 21.8484C7.78465 21.6131 7.85545 21.4677 7.74429 21.4276C7.45457 21.3233 7.54452 20.5973 7.87651 20.3611C8.469 19.939 9.44226 20.1899 9.99765 20.9078C10.1571 21.1137 10.3067 21.2012 10.3574 21.1178C10.4052 21.0392 10.5851 20.975 10.7573 20.975C10.9293 20.975 11.2972 20.7916 11.5747 20.5674C11.8881 20.3141 12.3196 20.124 12.7144 20.0654C13.2924 19.9794 14.9126 19.2718 14.9126 19.1053C14.9126 19.0671 14.6089 19.1924 14.2376 19.3836C13.8665 19.5749 13.4996 19.7314 13.4223 19.7314C13.3451 19.7314 13.2793 19.4672 13.2762 19.1442L13.2705 18.5569L13.0323 19.0113C12.772 19.5074 12.6073 19.4708 12.5939 18.9138C12.586 18.5893 12.5751 18.5824 12.4731 18.8381C12.4115 18.9927 12.2721 19.1943 12.1634 19.2861C12.0019 19.4223 11.9372 19.3897 11.8113 19.1085C11.7265 18.9191 11.5926 18.7642 11.5138 18.7642C11.4351 18.7642 11.321 18.6275 11.2602 18.4606C11.1701 18.2133 11.1329 18.2864 11.0586 18.8557C11.0024 19.2857 10.8637 19.6498 10.6978 19.8024C10.4341 20.0451 10.4282 20.0406 10.4282 19.6077C10.4282 19.3643 10.3319 18.9759 10.2145 18.7449C10.097 18.5138 10.0339 18.2371 10.0743 18.13C10.1175 18.0157 10.0636 17.9352 9.94398 17.9352C9.83187 17.9352 9.70494 18.0284 9.662 18.1424C9.51646 18.5278 9.35814 18.3529 9.26193 17.7003C9.20635 17.3236 9.2266 16.8879 9.31004 16.6631L9.45395 16.2754L9.10742 16.5526C8.65803 16.912 7.92747 16.9124 7.57442 16.5534C7.24719 16.2207 7.23374 16.0308 7.51517 15.7146C7.70923 15.4965 7.70637 15.4776 7.4812 15.4964C7.28891 15.5126 7.24108 15.4283 7.2635 15.1127C7.2794 14.8904 7.37847 14.6208 7.48378 14.5138C7.64821 14.3465 7.68749 14.3693 7.76318 14.6763C7.81169 14.8728 7.91891 15.0335 8.00126 15.0335C8.10549 15.0335 8.10848 15.0862 8.01091 15.2062C7.90396 15.3379 7.97272 15.381 8.30009 15.3879C8.66496 15.3954 8.73426 15.3434 8.76103 15.0425C8.87233 13.7902 8.97887 13.1462 9.09981 12.9954C9.19467 12.8772 9.19276 12.8227 9.09383 12.8227C9.01447 12.8227 8.90807 12.8907 8.85752 12.9739C8.80696 13.0571 8.61984 13.0967 8.44182 13.0622C8.11269 12.9982 8.04407 13.1564 8.11092 13.8245C8.1555 14.2698 7.89173 14.0724 7.71507 13.5284C7.52129 12.9315 7.62036 12.6203 7.96185 12.7524C8.1415 12.8219 8.15224 12.8046 8.01607 12.6651C7.92258 12.5695 7.84621 12.3838 7.84621 12.2525C7.84621 11.9307 8.48232 11.441 8.90032 11.441C9.16613 11.441 9.20635 11.4018 9.0884 11.2572C8.99966 11.1486 8.77096 11.0986 8.52825 11.1348C8.02681 11.2097 8.00683 11.0426 8.46493 10.6052C8.75737 10.3257 8.83156 10.3056 8.93837 10.4774C9.03268 10.6289 9.06557 10.6345 9.0672 10.4992C9.06842 10.3826 9.20336 10.333 9.44267 10.361C9.72383 10.3939 9.87698 10.5365 10.0622 10.9378C10.1976 11.231 10.3439 11.4345 10.3875 11.3901C10.4311 11.3458 10.3999 11.2274 10.318 11.1271C10.2361 11.0267 10.1768 10.8232 10.186 10.6747C10.1954 10.5261 10.1577 10.2647 10.1026 10.0938C10.0216 9.84301 10.0532 9.78291 10.2664 9.78291C10.4119 9.78291 10.6069 9.87617 10.6999 9.99017C10.793 10.1042 10.8357 10.1974 10.7949 10.1974C10.7542 10.1974 10.9057 10.3853 11.1315 10.615C11.418 10.9063 11.5126 11.1047 11.4444 11.2713C11.2846 11.6612 11.2038 12.772 11.2981 13.2828C11.406 13.8672 12.2671 14.888 13.0445 15.3528C13.3619 15.5427 13.771 15.8606 13.9533 16.0592C14.4826 16.6352 15.3207 16.8168 16.8201 16.6805C18.7747 16.5027 18.9843 16.4466 19.128 16.0623C19.2522 15.7302 19.5329 15.5917 19.5329 15.8626C19.5329 16.1149 19.8887 16.0056 20.214 15.6535C20.4308 15.4189 20.5796 15.3516 20.6727 15.4462C20.7484 15.5232 20.9052 15.5858 21.021 15.5854C21.1369 15.5848 21.0568 15.4918 20.8432 15.3785C20.4752 15.1834 20.4407 15.1908 20.1878 15.5175C19.8869 15.9064 19.6688 15.9642 19.6688 15.6553C19.6688 15.3964 19.7229 15.3863 18.9324 15.794C18.2151 16.164 17.3407 16.2472 17.121 15.9662C17.0467 15.8713 16.9933 15.5981 17.0024 15.3592L17.0189 14.9249L16.5148 15.1865C15.2813 15.8263 14.369 15.1855 14.369 13.6793C14.369 12.8932 14.5068 12.8831 14.8534 13.6435C15.3707 14.7791 16.1147 14.9227 17.3994 14.135C17.8329 13.8693 18.2458 13.6518 18.3167 13.6518C18.3878 13.6518 18.4458 13.5964 18.4458 13.5285C18.4458 13.3401 17.8026 13.2178 17.3077 13.3123C16.9095 13.3881 16.8711 13.4372 16.9235 13.8006C16.9912 14.2694 16.7645 14.3397 16.5118 13.9281C16.4184 13.7761 16.2851 13.6518 16.2155 13.6518C15.9446 13.6518 15.5921 13.1756 15.5921 12.8095C15.5921 12.5978 15.5309 12.3861 15.4562 12.3391C15.3814 12.2921 15.3203 12.145 15.3203 12.0122C15.3203 11.8465 15.6135 11.638 16.2528 11.3494C17.1272 10.9542 17.1914 10.8947 17.2841 10.39C17.4205 9.64805 17.5739 9.50656 18.242 9.50656C18.8683 9.50656 19.2234 9.23063 19.1515 8.79953C19.1141 8.57486 19.245 8.54501 20.4425 8.50425L21.7752 8.45907L20.4081 8.43005L19.0412 8.40117L18.4825 7.15761C17.9858 6.05208 17.9521 5.91404 18.1784 5.91404C18.6168 5.91404 19.1287 6.22507 19.206 6.53845C19.261 6.7616 19.3589 6.82392 19.5847 6.77998C19.9751 6.70412 20.2635 7.05453 20.1792 7.50221C20.1189 7.82347 20.1521 7.84848 20.6401 7.84848C21.1323 7.84848 21.1551 7.83079 20.996 7.57171C20.7826 7.22448 20.99 6.83235 21.4213 6.76727C21.6501 6.73272 21.6992 6.65852 21.6329 6.44643C21.4998 6.01988 21.6834 5.5009 22.0171 5.36121C22.338 5.22663 22.9176 5.30097 23.1206 5.50256ZM23.557 9.89607C23.5191 9.95839 23.6684 9.98229 23.8887 9.94955C24.109 9.91666 24.2892 9.86567 24.2892 9.83638C24.2892 9.73109 23.6243 9.78526 23.557 9.89607ZM18.5138 11.0272C18.2765 11.1313 18.2882 11.1439 18.6059 11.1262C18.8061 11.1152 18.94 11.057 18.9036 10.9972C18.8672 10.9373 18.8258 10.8927 18.8115 10.898C18.7972 10.9034 18.6632 10.9614 18.5138 11.0272ZM23.2292 11.0541C23.0314 11.2553 23.0179 11.5326 23.2005 11.6473C23.2777 11.6958 23.3002 11.6398 23.2533 11.5155C23.2083 11.3966 23.2471 11.2068 23.3394 11.0938C23.54 10.848 23.4602 10.8192 23.2292 11.0541ZM18.7149 11.5446C18.7964 11.7157 18.9679 11.8505 19.0961 11.8446C19.2849 11.8358 19.2905 11.8185 19.1253 11.7531C19.0132 11.7088 18.8417 11.5738 18.7441 11.4532C18.5937 11.267 18.5892 11.2808 18.7149 11.5446ZM19.5156 11.5446C19.3466 11.7638 19.3514 11.7686 19.5669 11.5969C19.7933 11.4163 19.8652 11.3028 19.7534 11.3028C19.7252 11.3028 19.6181 11.4116 19.5156 11.5446ZM21.5713 12.5118C21.5713 12.5979 21.6325 12.7067 21.7072 12.7536C21.782 12.8006 21.8431 12.9704 21.8431 13.1309C21.8431 13.2914 21.9444 13.5364 22.068 13.6754C22.2791 13.9126 22.2754 13.9281 22.0081 13.9281C21.6849 13.9281 21.497 14.1415 21.705 14.2722C21.781 14.3198 21.8431 14.2998 21.8431 14.2275C21.8431 14.1554 22.0113 14.0521 22.2168 13.9982L22.5905 13.9001L22.2848 13.69C22.1165 13.5744 21.9771 13.3475 21.9747 13.1859C21.9723 13.0242 21.8806 12.7711 21.7708 12.6236C21.6611 12.4761 21.5713 12.4258 21.5713 12.5118ZM18.0938 14.565C18.0258 14.5814 17.8019 14.6325 17.5965 14.6787C17.3778 14.7276 17.2228 14.8547 17.2228 14.9846C17.2228 15.1685 17.342 15.1952 17.9124 15.1395C18.2917 15.1025 18.6945 14.978 18.8077 14.863C18.9913 14.6763 18.9706 14.6476 18.6154 14.5945C18.3966 14.5619 18.1618 14.5485 18.0938 14.565ZM21.6053 14.5784C21.4371 14.6112 21.2995 14.6874 21.2995 14.7476C21.2995 14.8888 21.9598 14.7624 22.057 14.6025C22.0976 14.5355 22.0815 14.4892 22.021 14.4996C21.9605 14.51 21.7735 14.5453 21.6053 14.5784ZM15.9318 17.3825C16.067 17.5345 16.2083 17.6588 16.2457 17.6588C16.2831 17.6588 16.2029 17.5345 16.0677 17.3825C15.9325 17.2305 15.7911 17.1061 15.7538 17.1061C15.7164 17.1061 15.7966 17.2305 15.9318 17.3825ZM16.9256 17.8914C17.0236 17.9313 17.1408 17.9263 17.1859 17.8804C17.2311 17.8346 17.1509 17.802 17.0077 17.8079C16.8493 17.8145 16.8171 17.8473 16.9256 17.8914ZM17.5053 18.1539C17.5118 18.3149 17.544 18.3476 17.5874 18.2375C17.6266 18.1377 17.6218 18.0185 17.5766 17.9726C17.5315 17.9267 17.4995 18.0082 17.5053 18.1539ZM24.5266 19.3886C24.4843 19.7672 24.4645 20.0923 24.4825 20.1113C24.5831 20.2165 24.7742 19.1956 24.6963 18.9697C24.6312 18.7813 24.5803 18.9071 24.5266 19.3886ZM23.219 19.4656C23.2005 20.0035 22.8951 20.3716 22.1489 20.7551C21.9059 20.8799 21.7072 21.0128 21.7072 21.0504C21.7072 21.1734 22.7991 20.5556 23.0717 20.2784C23.2182 20.1295 23.3379 20.0803 23.3379 20.169C23.3379 20.2576 23.3608 20.3043 23.3886 20.2726C23.4165 20.241 23.3935 19.9352 23.3377 19.5932C23.2398 18.9944 23.2355 18.9897 23.219 19.4656ZM16.7386 19.6278L16.3395 20.0768L16.7811 19.671C17.1927 19.2927 17.2853 19.1787 17.1802 19.1787C17.1569 19.1787 16.9581 19.3809 16.7386 19.6278ZM20.2124 19.7038C20.2124 19.9166 20.136 20.1744 20.0425 20.2768C19.9334 20.3963 19.9292 20.4306 20.031 20.3725C20.118 20.3229 20.2201 20.3605 20.2581 20.456C20.2958 20.5515 20.3317 20.3343 20.3376 19.9732C20.3434 19.6122 20.3177 19.3169 20.2804 19.3169C20.243 19.3169 20.2124 19.491 20.2124 19.7038ZM24.8327 19.5073C24.8327 19.5359 24.9398 19.6448 25.0706 19.7491C25.2861 19.9209 25.2908 19.916 25.1219 19.6969C24.9443 19.4667 24.8327 19.3936 24.8327 19.5073ZM18.334 20.0042C18.1697 20.2302 17.8371 20.4733 17.595 20.5444C17.2858 20.6352 17.2404 20.6774 17.4422 20.6862C17.7663 20.7003 18.3765 20.2594 18.5874 19.8588C18.7933 19.4675 18.6748 19.5356 18.334 20.0042ZM15.5921 20.3384C15.5921 20.3683 15.6869 20.4297 15.803 20.4751C15.9239 20.5222 15.9784 20.499 15.9308 20.4208C15.8511 20.2894 15.5921 20.2265 15.5921 20.3384ZM21.5697 20.7026C21.4739 20.9377 21.2058 21.2725 20.9738 21.4466C20.2409 21.9969 20.2101 21.9993 20.2837 21.5C20.3517 21.0387 20.2914 21.1372 20.0689 21.8504L19.9466 22.2422L20.3853 21.978C20.6265 21.8326 20.9659 21.6252 21.1395 21.517C21.428 21.3373 21.9166 20.451 21.7953 20.3275C21.767 20.2988 21.6655 20.4676 21.5697 20.7026ZM24.2381 20.4968C24.1069 20.8441 24.1455 20.9338 24.3058 20.6537C24.3851 20.515 24.4214 20.3724 24.3863 20.3369C24.3514 20.3012 24.2846 20.3732 24.2381 20.4968ZM7.43853 20.8368C7.43853 21.1438 7.37507 21.2513 7.19393 21.2513C7.05939 21.2513 6.87594 21.3259 6.78625 21.4171C6.47737 21.7312 6.6047 21.0818 6.91861 20.742C7.31229 20.316 7.43853 20.339 7.43853 20.8368ZM18.6852 20.6581C18.8543 20.6912 19.0989 20.6899 19.2288 20.6554C19.3587 20.6208 19.2204 20.5938 18.9214 20.5953C18.6225 20.5968 18.5162 20.6251 18.6852 20.6581ZM22.6692 29.4841C22.6757 29.6451 22.7079 29.6778 22.7513 29.5677C22.7906 29.468 22.7857 29.3487 22.7405 29.3028C22.6954 29.257 22.6634 29.3385 22.6692 29.4841ZM22.2508 30.2408C22.2508 30.3212 22.3119 30.3487 22.3867 30.3017C22.4614 30.2547 22.5226 30.189 22.5226 30.1554C22.5226 30.1218 22.4614 30.0944 22.3867 30.0944C22.3119 30.0944 22.2508 30.1603 22.2508 30.2408ZM22.1078 31.3994C22.2872 31.5936 22.4545 31.7525 22.4795 31.7525C22.6019 31.7525 22.1621 31.1947 21.9851 31.1258C21.8731 31.0821 21.9283 31.2052 22.1078 31.3994ZM24.6233 35.6306C24.574 35.7116 24.5629 35.8076 24.5985 35.8438C24.6341 35.88 24.6994 35.8137 24.7437 35.6964C24.8356 35.453 24.7573 35.4101 24.6233 35.6306ZM38.6166 40.0084C37.4169 41.8065 33.5583 45.3809 30.007 47.9838C27.3334 49.9435 21.3286 53.8603 20.998 53.8603C20.8319 53.8603 16.7226 51.2354 14.7767 49.8864C12.6917 48.441 10.2201 46.5558 8.59361 45.1704C6.96005 43.7789 4.0809 40.8327 3.51518 39.9739L3.06008 39.283L3.15521 39.9654C3.35959 41.4327 4.30499 43.5201 5.59963 45.3626C8.18104 49.0364 13.8026 53.7745 19.5774 57.1436L21.0453 58L22.0218 57.5042C24.8929 56.0465 29.1666 53.1793 31.7853 50.9537C35.8893 47.4655 38.6702 43.2862 39.1599 39.8702C39.2116 39.5092 39.2298 39.2139 39.2002 39.2139C39.1707 39.2139 38.9081 39.5714 38.6166 40.0084ZM25.5746 40.7431C25.4284 40.9836 25.5948 41.0346 25.7813 40.8062C25.8885 40.675 25.8988 40.5956 25.8086 40.5956C25.7292 40.5956 25.6238 40.662 25.5746 40.7431Z" fill="url(#paint0_linear_271_4656)" fill-opacity="0.5"/>
<path fill-rule="evenodd" clip-rule="evenodd" d="M14.9806 0.119869C11.3344 0.358633 6.27679 1.03416 5.65617 1.36523C5.53536 1.42975 5.39852 1.72365 5.35218 2.01837C5.03174 4.05602 3.25318 6.05512 1.38222 6.48097L0.643915 6.64885L0.612252 17.5771C0.575289 30.3433 0.569447 30.094 0.936357 31.6144C2.35358 37.487 7.05871 42.8026 16.4074 49.0924C18.4516 50.4677 20.9724 52.0641 21.1002 52.0641C21.2349 52.0641 24.4494 50.022 26.1917 48.8296C35.3186 42.5834 39.8607 37.3925 41.2551 31.6144C41.622 30.094 41.6161 30.3433 41.5792 17.5771L41.5475 6.64885L40.8175 6.48277C39.9175 6.27799 39.0804 5.74713 38.3111 4.89335C37.6603 4.17098 36.9687 2.81232 36.838 1.99875C36.7805 1.64144 36.6594 1.4292 36.4662 1.34713C35.6699 1.00943 30.3902 0.357251 26.4617 0.11144C24.0264 -0.0409658 17.3612 -0.0359914 14.9806 0.119869ZM23.1206 5.50256C23.188 5.56944 23.2568 5.85352 23.2735 6.13388C23.2916 6.43524 23.3943 6.69514 23.5248 6.76934C23.7663 6.90682 23.8218 7.43934 23.6165 7.64812C23.535 7.73103 23.6078 7.77939 23.8144 7.77939C24.0655 7.77939 24.1309 7.71541 24.0966 7.50304C24.0315 7.09971 24.2341 6.78716 24.6254 6.68726C24.8192 6.6378 24.9686 6.50031 24.9686 6.3714C24.9686 6.05512 25.3672 5.6377 25.6692 5.6377C25.9813 5.6377 25.9863 5.58878 25.5769 6.53002C25.3883 6.96375 25.1977 7.67106 25.1536 8.10175C25.0748 8.87096 25.0824 8.89335 25.5864 9.36839C26.9709 10.6733 27.007 10.7186 27.007 11.1508C27.007 11.4916 26.9497 11.5792 26.7263 11.5792C26.5719 11.5792 26.3121 11.5135 26.1487 11.4334C25.862 11.2926 25.8609 11.2949 26.1157 11.5025C26.2633 11.6227 26.6394 11.7173 26.9691 11.7173H27.5587L27.2489 12.1502C27.0785 12.3883 26.7556 12.6656 26.5314 12.7666C26.3072 12.8675 26.2154 12.9515 26.3276 12.9534C26.4397 12.9552 26.6218 12.8986 26.7321 12.8276C27.094 12.5949 27.4245 13.0568 27.3294 13.6623C27.2655 14.0685 27.3128 14.2795 27.5409 14.6053L27.835 15.0251L27.4816 15.1152C27.2872 15.1648 26.8206 15.1754 26.4446 15.1387C26.0453 15.0996 25.8364 15.1204 25.9423 15.1887C26.042 15.2531 26.2547 15.3065 26.4149 15.3078C26.5752 15.3089 26.7433 15.4082 26.7886 15.5284C26.9052 15.8374 26.8732 17.8108 26.7462 18.1414C26.6498 18.3928 26.6205 18.3776 26.4126 17.9687C26.1475 17.4475 25.9897 17.3604 26.213 17.8585C26.3422 18.1468 26.3137 18.2574 26.0177 18.6151C25.8271 18.8454 25.6288 19.2296 25.5772 19.4689C25.4574 20.023 25.05 20.7384 24.4044 21.5279C23.5059 22.6268 23.262 23.6463 23.6637 24.6237C23.7799 24.9064 24.2412 25.3953 24.8527 25.8837C26.8406 27.4712 27.264 28.0019 27.2973 28.9476C27.3075 29.2364 27.3413 29.3408 27.3724 29.1796C27.4231 28.9172 27.4954 28.9567 28.0674 29.5601C28.5952 30.117 28.8269 30.2562 29.4057 30.3651C30.2748 30.5284 31.3909 30.3621 31.8758 29.997C32.9095 29.2186 33.12 28.1655 32.4343 27.2029C31.966 26.5456 31.3497 26.2256 30.5526 26.2256C29.9393 26.2256 29.8957 26.2724 29.6787 27.1627C29.5602 27.6493 29.4129 27.8788 29.0847 28.0886C28.6316 28.3778 28.5107 28.8046 28.7985 29.0972C28.887 29.1872 28.9196 29.3012 28.871 29.3507C28.8224 29.4 28.5667 29.2208 28.3025 28.9522C27.7128 28.3526 27.635 27.6182 28.1245 27.2698C28.2905 27.1515 28.3591 27.0546 28.2769 27.0546C28.1947 27.0546 28.0514 27.1479 27.9583 27.2619C27.724 27.5489 27.367 27.521 27.075 27.1928C26.8354 26.9236 26.8376 26.9164 27.1596 26.9164C27.3414 26.9164 27.6029 26.7826 27.7408 26.6188C27.9846 26.3293 27.9845 26.3244 27.737 26.4342C27.2374 26.6561 26.0002 26.4009 25.3726 25.9466C24.5778 25.3711 24.3117 23.8227 24.8152 22.7021C25.1093 22.0476 26.2642 20.9207 26.5334 21.0257C26.6423 21.0682 26.7567 20.9858 26.8054 20.8298C26.8646 20.6399 27.0125 20.5605 27.3063 20.5605H27.7232L27.3651 20.274C26.9021 19.9039 26.9183 19.6323 27.4375 19.0515C27.8383 18.6031 27.8695 18.592 28.0451 18.836C28.1467 18.9775 28.23 19.2555 28.23 19.4538C28.23 19.8042 28.4448 20.1459 28.6649 20.1459C28.9067 20.1459 28.754 19.2135 28.4339 18.7345C28.0564 18.1696 28.0198 17.9201 28.2503 17.4821L28.4064 17.1854L28.5145 17.4822C28.6243 17.7841 29.1813 18.1839 29.1813 17.9609C29.1813 17.8936 28.9989 17.565 28.7761 17.2305C28.4482 16.7384 28.3704 16.4762 28.3684 15.8551C28.3662 15.1691 28.4127 15.0417 28.8076 14.6531C29.1981 14.2687 30.2684 13.6809 30.2684 13.8507C30.2684 13.8861 30.2021 14.0631 30.1211 14.2438C29.9967 14.5217 30.039 14.6773 30.3945 15.2474C30.9132 16.0791 31.082 16.6727 31.083 17.6688C31.0839 18.636 30.8019 19.4757 30.1912 20.3238C29.6164 21.1221 29.0052 21.5257 28.3659 21.5293C28.0087 21.5313 27.941 21.5653 28.0942 21.6658C28.2063 21.7395 28.5639 21.8007 28.8889 21.8019L29.4797 21.804L29.2015 22.2531C28.7892 22.9187 28.5725 23.0164 28.2182 22.6963L27.9187 22.4258L28.0827 22.7435C28.2083 22.9866 28.2101 23.1743 28.0902 23.5433C27.972 23.9074 27.9721 24.0726 28.0906 24.2178C28.2139 24.3687 28.1891 24.4419 27.9759 24.5578C27.2454 24.9555 26.6655 24.4579 26.8564 23.5972C26.9158 23.3296 26.9172 22.9876 26.8593 22.8373C26.7696 22.6038 26.7529 22.5992 26.7447 22.8058C26.7335 23.0929 26.6811 23.1019 26.328 22.8776C25.9278 22.6235 25.6189 23.0061 25.6005 23.7789C25.5833 24.4999 25.8442 25.0767 26.2474 25.2086C26.6585 25.3431 27.699 25.2993 28.1399 25.1288C28.3487 25.0481 28.7296 24.982 28.9863 24.982C29.36 24.982 29.4531 24.9277 29.4531 24.7101C29.4531 24.5557 29.2961 24.3546 29.0904 24.245L28.7277 24.0517L29.0894 23.8107C29.3357 23.6467 29.5708 23.5999 29.8258 23.664C30.1279 23.7398 30.1676 23.7239 30.0306 23.5825C29.8348 23.38 29.8003 22.7712 29.9846 22.7712C30.2054 22.7712 30.812 23.613 30.812 23.9192C30.812 24.2132 32.2879 25.7813 32.8551 26.09C33.0883 26.2169 33.1222 26.1903 33.1222 25.8807C33.1222 25.6856 33.2139 25.4902 33.326 25.4466C33.4381 25.4028 33.5299 25.3092 33.5299 25.2387C33.5299 25.1662 33.4123 25.1745 33.2593 25.2577C32.9032 25.4515 32.3025 25.1417 31.854 24.5331C31.4262 23.9525 31.3136 23.5566 31.4269 23.0318L31.5185 22.6078L31.8861 22.9658C32.3949 23.4614 32.6749 23.4352 32.318 22.9254C31.9534 22.4047 31.7108 21.2262 31.8222 20.5172C31.949 19.7114 32.5418 18.6824 33.2386 18.0588C33.7918 17.5636 33.9038 17.5206 34.6395 17.5206C35.3865 17.5206 35.4484 17.4956 35.581 17.1411C35.6591 16.9323 35.6967 16.6214 35.6644 16.4502C35.598 16.0966 35.6214 16.0842 35.9834 16.2812C36.6401 16.6385 36.857 17.9425 36.3896 18.7222C36.0589 19.2735 35.5863 19.5934 34.7734 19.816C34.1922 19.9752 34.1768 19.9898 34.583 19.9985C35.0982 20.0093 35.1476 20.1809 34.7226 20.4835C34.464 20.6678 34.4556 20.6986 34.6636 20.6986C34.7973 20.6986 35.0301 20.6315 35.1811 20.5493C35.5605 20.3428 35.6625 20.5017 35.3652 20.836C35.0907 21.1442 34.4888 21.1985 34.0305 20.9563C33.8673 20.87 33.7745 20.8441 33.8243 20.8987C33.8741 20.9533 33.7977 21.1172 33.6545 21.2628C33.3165 21.6064 33.3013 22.0116 33.6318 21.8695C33.7625 21.8131 34.0483 21.7772 34.2668 21.7896C34.4853 21.8019 34.7113 21.7344 34.7691 21.6393C34.9498 21.3418 35.0614 21.6312 34.9657 22.1496C34.9041 22.4829 34.7503 22.7237 34.4982 22.8815L34.1223 23.1167L34.3702 24.6366C34.6495 26.3481 34.6088 26.8769 34.1562 27.4306C33.94 27.6951 33.8171 28.0678 33.7618 28.6283C33.6251 30.0126 32.7441 31.1247 31.5075 31.474C30.6201 31.7246 28.8637 31.6265 27.6688 31.2598C27.5094 31.2107 27.3857 31.3485 27.2272 31.7513C26.8723 32.6531 26.9188 32.7529 28.0254 33.4656C29.1528 34.1917 29.4531 34.5333 29.4531 35.0889C29.4531 35.3192 29.6091 35.6206 29.8608 35.8765C30.1323 36.1525 30.2684 36.4293 30.2684 36.7048C30.2684 36.9325 30.3055 37.217 30.3509 37.3372C30.4763 37.6694 30.0074 37.6115 29.6046 37.2449L29.263 36.934L29.4913 37.305C29.7758 37.7675 30.0173 38.7994 29.8409 38.7994C29.5663 38.7994 28.644 38.2334 28.4429 37.9415C28.3259 37.7715 28.23 37.6977 28.23 37.7773C28.23 37.857 28.3817 38.0671 28.5671 38.2441C28.7989 38.4656 28.881 38.6596 28.8302 38.8657C28.7854 39.0466 28.8405 39.2364 28.9688 39.3448C29.0856 39.4434 29.1813 39.6204 29.1813 39.7381C29.1813 39.8559 29.2884 40.0751 29.4191 40.2255C29.6511 40.4922 29.647 40.4964 29.2492 40.3992C29.025 40.3444 28.6591 40.133 28.4361 39.9295C28.1243 39.645 28.0913 39.633 28.2935 39.8774L28.5566 40.1954L28.1556 40.5288C27.9349 40.712 27.7014 40.8643 27.6366 40.867C27.5719 40.8698 27.5519 41.0006 27.5924 41.1577C27.7009 41.5796 27.4335 42.2291 27.108 42.334C26.7825 42.4392 26.4387 42.752 26.2092 43.1519C26.0764 43.3833 26.0555 43.3047 26.0809 42.6689C26.1044 42.0829 26.0642 41.9004 25.9051 41.8692C25.7184 41.8327 24.9576 42.4208 24.9654 42.5956C24.9939 43.2355 24.9773 43.2606 24.666 43.0503C24.3159 42.814 24.0736 41.896 24.2911 41.6297C24.3922 41.5058 24.3732 41.4339 24.2235 41.3756C24.0992 41.3271 23.9473 41.4044 23.8475 41.5667C23.6139 41.9471 23.4731 41.9064 23.4776 41.4592C23.4799 41.2239 23.6351 40.9259 23.8853 40.6762C24.3556 40.207 24.3376 40.1167 23.8136 40.3193C23.6059 40.3996 23.4004 40.4289 23.3567 40.3844C23.2573 40.2834 23.6407 39.5794 23.7796 39.6077C23.8357 39.619 24.0038 39.5041 24.1533 39.3521C24.4827 39.0171 25.4649 38.9749 25.86 39.2786C26.2403 39.5711 26.3276 39.5386 26.3276 39.1047C26.3276 38.8928 26.4197 38.3594 26.5323 37.9198C26.7696 36.9937 26.7124 36.8305 25.9691 36.3125C25.6215 36.0703 25.4478 35.8462 25.4547 35.6489C25.4633 35.4075 25.4288 35.3817 25.2733 35.5128C25.1598 35.6085 25.1045 35.8351 25.1381 36.0673C25.1861 36.3996 25.1515 36.4539 24.9133 36.4206C24.6986 36.3906 24.5962 36.4928 24.4811 36.851C24.391 37.1319 24.2915 37.257 24.2337 37.1619C24.1807 37.0746 23.988 37.0031 23.8055 37.0031C23.4983 37.0031 23.4738 36.9524 23.4738 36.315C23.4738 35.9366 23.3708 35.3652 23.245 35.0455C23.0769 34.6184 23.0591 34.4493 23.1778 34.4091C23.2874 34.3719 23.2518 34.2409 23.067 34.002C22.893 33.7772 22.7878 33.4189 22.7764 33.012C22.7593 32.401 22.7551 32.3945 22.6745 32.8579L22.5905 33.3415H20.8016C19.8178 33.3415 18.9716 33.3833 18.9212 33.4342C18.8707 33.4854 18.9877 33.8016 19.1813 34.1373C19.4543 34.6111 19.5329 34.9337 19.5329 35.5804C19.5329 36.2136 19.6003 36.5003 19.8146 36.7772C20.0882 37.1309 20.0887 37.1413 19.8329 37.1413C19.6881 37.1413 19.42 37.0216 19.2372 36.8755L18.9048 36.6096L18.9907 37.29C19.0379 37.6641 19.0474 37.9703 19.0118 37.9703C18.9762 37.9703 18.7426 37.8117 18.4926 37.6179L18.0381 37.2654V37.8942C18.0381 38.2401 17.9865 38.523 17.9233 38.523C17.782 38.523 17.4216 38.1128 17.3165 37.8322C17.2739 37.7182 17.2732 37.9727 17.315 38.3977C17.3969 39.2298 17.2216 39.7666 16.8678 39.7666C16.7056 39.7666 16.6678 39.8987 16.7001 40.3538C16.7247 40.7011 16.6874 40.9166 16.6085 40.8812C16.394 40.7849 15.9997 40.2234 15.9997 40.0142C15.9997 39.9084 15.9287 39.6686 15.842 39.4817L15.6841 39.1416L15.2999 39.5323C15.0886 39.7471 14.847 39.8798 14.763 39.8271C14.5619 39.7007 14.3554 40.0472 14.4492 40.3538C14.49 40.4868 14.4682 40.5956 14.4011 40.5956C14.1875 40.5956 13.9705 39.9917 13.9932 39.46C14.0051 39.1773 13.9876 38.9185 13.9542 38.8849C13.8026 38.7325 13.1046 39 13.0445 39.2335C12.9526 39.5906 12.7836 39.5541 12.6852 39.1557C12.595 38.7899 12.6996 38.3849 12.8845 38.3849C12.9488 38.3849 12.9688 38.298 12.9286 38.1916C12.8885 38.0853 12.921 37.9572 13.0009 37.9071C13.3286 37.701 13.132 37.5278 12.6704 37.6158C12.1282 37.7193 12.0753 37.593 12.4638 37.1221C12.6933 36.8437 12.7529 36.8263 12.8693 37.0031C12.9871 37.1818 13.0062 37.1776 13.0081 36.9734C13.0108 36.6555 13.4946 36.4102 13.977 36.4822C14.1926 36.5144 14.369 36.4952 14.369 36.4397C14.369 36.3841 14.5984 36.3696 14.8786 36.4076C15.2662 36.4602 15.4778 36.405 15.7619 36.1773C16.1133 35.8955 16.1356 35.8125 16.1356 34.7823C16.1356 33.8905 16.0969 33.687 15.9274 33.687C15.8129 33.687 15.6661 33.8268 15.6013 33.9978C15.496 34.2756 15.473 34.2828 15.3866 34.0651C15.331 33.9252 15.3685 33.723 15.4749 33.5895C15.5785 33.4597 15.59 33.4002 15.5012 33.4544C15.3479 33.5478 14.9126 33.2212 14.9126 33.0127C14.9126 32.829 15.3114 32.3685 15.3159 32.547C15.3184 32.6421 15.3851 32.7197 15.4642 32.7197C15.5433 32.7197 15.5695 32.6563 15.5225 32.5788C15.353 32.3 15.7532 31.4876 16.3234 30.9532C16.8348 30.474 18.1543 29.8211 18.6208 29.8164C18.88 29.8139 20.9125 29.2904 20.997 29.2045C21.0389 29.162 20.9559 29.1269 20.8126 29.1267C20.6693 29.1264 20.3566 29.0049 20.1176 28.8567C19.4234 28.4264 17.3587 26.6232 17.3587 26.4473C17.3587 26.3592 17.4596 26.1406 17.5829 25.9615C17.7348 25.7409 17.7507 25.6552 17.6321 25.6954C17.5357 25.728 17.3531 26.0249 17.226 26.3553C17.057 26.795 16.9719 26.8948 16.9087 26.7274C16.8613 26.6018 16.853 26.2976 16.8904 26.0513C16.9544 25.6296 16.9498 25.6237 16.8114 25.9492C16.7307 26.1392 16.4463 26.5229 16.1794 26.8018C15.7845 27.2143 15.7054 27.3883 15.7554 27.7344C15.8277 28.2359 15.6909 28.2809 15.396 27.8528C15.1072 27.4338 15.1304 26.8747 15.4646 26.2089C15.7072 25.7254 15.7323 25.5056 15.652 24.5694L15.5592 23.4884L15.9493 23.2735C16.1639 23.1554 16.2713 23.0561 16.188 23.0531C15.9497 23.0444 15.3203 23.599 15.3203 23.8176C15.3203 24.0832 15.0978 24.0685 14.9951 23.7962C14.8563 23.4288 14.9028 22.8474 15.0939 22.5602C15.1935 22.4103 15.314 22.1785 15.3617 22.0451C15.4407 21.8236 15.4017 21.8267 14.9137 22.0798C14.6198 22.2324 14.0445 22.6343 13.6355 22.973C13.0241 23.4794 12.8812 23.5469 12.8329 23.3528C12.775 23.12 12.8177 23.482 12.9596 24.4293L13.032 24.9129L12.7154 24.5405C12.4907 24.2764 12.244 24.1563 11.8667 24.1275C11.371 24.0897 11.3242 24.1184 11.1814 24.5499C11.02 25.0373 10.6078 25.4403 10.4027 25.3114C10.3359 25.2696 10.1571 25.3958 10.0051 25.5922C9.63917 26.0654 9.47691 26.0428 9.47691 25.5185C9.47691 25.1561 9.51985 25.0993 9.74856 25.1601C10.0191 25.2321 10.0191 25.2311 9.75237 24.8863C9.50763 24.5698 9.5011 24.4996 9.67763 24.0702C9.92386 23.4709 9.68102 23.4278 9.17102 23.9803C8.97805 24.1892 8.66224 24.472 8.46914 24.6085C8.27604 24.745 8.11799 24.9781 8.11799 25.1267C8.11799 25.4609 7.99922 25.4703 7.76358 25.1547C7.56097 24.8834 7.5115 24.2911 7.69142 24.2911C7.75584 24.2911 7.78057 24.1426 7.74646 23.9612C7.71235 23.7798 7.7504 23.506 7.83099 23.3528C7.96878 23.091 7.94541 23.0788 7.43622 23.1483C7.09812 23.1945 6.89496 23.1668 6.89496 23.0748C6.89496 22.7417 7.18672 22.1861 7.53909 21.8484C7.78465 21.6131 7.85545 21.4677 7.74429 21.4276C7.45457 21.3233 7.54452 20.5973 7.87651 20.3611C8.469 19.939 9.44226 20.1899 9.99765 20.9078C10.1571 21.1137 10.3067 21.2012 10.3574 21.1178C10.4052 21.0392 10.5851 20.975 10.7573 20.975C10.9293 20.975 11.2972 20.7916 11.5747 20.5674C11.8881 20.3141 12.3196 20.124 12.7144 20.0654C13.2924 19.9794 14.9126 19.2718 14.9126 19.1053C14.9126 19.0671 14.6089 19.1924 14.2376 19.3836C13.8665 19.5749 13.4996 19.7314 13.4223 19.7314C13.3451 19.7314 13.2793 19.4672 13.2762 19.1442L13.2705 18.5569L13.0323 19.0113C12.772 19.5074 12.6073 19.4708 12.5939 18.9138C12.586 18.5893 12.5751 18.5824 12.4731 18.8381C12.4115 18.9927 12.2721 19.1943 12.1634 19.2861C12.0019 19.4223 11.9372 19.3897 11.8113 19.1085C11.7265 18.9191 11.5926 18.7642 11.5138 18.7642C11.4351 18.7642 11.321 18.6275 11.2602 18.4606C11.1701 18.2133 11.1329 18.2864 11.0586 18.8557C11.0024 19.2857 10.8637 19.6498 10.6978 19.8024C10.4341 20.0451 10.4282 20.0406 10.4282 19.6077C10.4282 19.3643 10.3319 18.9759 10.2145 18.7449C10.097 18.5138 10.0339 18.2371 10.0743 18.13C10.1175 18.0157 10.0636 17.9352 9.94398 17.9352C9.83187 17.9352 9.70494 18.0284 9.662 18.1424C9.51646 18.5278 9.35814 18.3529 9.26193 17.7003C9.20635 17.3236 9.2266 16.8879 9.31004 16.6631L9.45395 16.2754L9.10742 16.5526C8.65803 16.912 7.92747 16.9124 7.57442 16.5534C7.24719 16.2207 7.23374 16.0308 7.51517 15.7146C7.70923 15.4965 7.70637 15.4776 7.4812 15.4964C7.28891 15.5126 7.24108 15.4283 7.2635 15.1127C7.2794 14.8904 7.37847 14.6208 7.48378 14.5138C7.64821 14.3465 7.68749 14.3693 7.76318 14.6763C7.81169 14.8728 7.91891 15.0335 8.00126 15.0335C8.10549 15.0335 8.10848 15.0862 8.01091 15.2062C7.90396 15.3379 7.97272 15.381 8.30009 15.3879C8.66496 15.3954 8.73426 15.3434 8.76103 15.0425C8.87233 13.7902 8.97887 13.1462 9.09981 12.9954C9.19467 12.8772 9.19276 12.8227 9.09383 12.8227C9.01447 12.8227 8.90807 12.8907 8.85752 12.9739C8.80696 13.0571 8.61984 13.0967 8.44182 13.0622C8.11269 12.9982 8.04407 13.1564 8.11092 13.8245C8.1555 14.2698 7.89173 14.0724 7.71507 13.5284C7.52129 12.9315 7.62036 12.6203 7.96185 12.7524C8.1415 12.8219 8.15224 12.8046 8.01607 12.6651C7.92258 12.5695 7.84621 12.3838 7.84621 12.2525C7.84621 11.9307 8.48232 11.441 8.90032 11.441C9.16613 11.441 9.20635 11.4018 9.0884 11.2572C8.99966 11.1486 8.77096 11.0986 8.52825 11.1348C8.02681 11.2097 8.00683 11.0426 8.46493 10.6052C8.75737 10.3257 8.83156 10.3056 8.93837 10.4774C9.03268 10.6289 9.06557 10.6345 9.0672 10.4992C9.06842 10.3826 9.20336 10.333 9.44267 10.361C9.72383 10.3939 9.87698 10.5365 10.0622 10.9378C10.1976 11.231 10.3439 11.4345 10.3875 11.3901C10.4311 11.3458 10.3999 11.2274 10.318 11.1271C10.2361 11.0267 10.1768 10.8232 10.186 10.6747C10.1954 10.5261 10.1577 10.2647 10.1026 10.0938C10.0216 9.84301 10.0532 9.78291 10.2664 9.78291C10.4119 9.78291 10.6069 9.87617 10.6999 9.99017C10.793 10.1042 10.8357 10.1974 10.7949 10.1974C10.7542 10.1974 10.9057 10.3853 11.1315 10.615C11.418 10.9063 11.5126 11.1047 11.4444 11.2713C11.2846 11.6612 11.2038 12.772 11.2981 13.2828C11.406 13.8672 12.2671 14.888 13.0445 15.3528C13.3619 15.5427 13.771 15.8606 13.9533 16.0592C14.4826 16.6352 15.3207 16.8168 16.8201 16.6805C18.7747 16.5027 18.9843 16.4466 19.128 16.0623C19.2522 15.7302 19.5329 15.5917 19.5329 15.8626C19.5329 16.1149 19.8887 16.0056 20.214 15.6535C20.4308 15.4189 20.5796 15.3516 20.6727 15.4462C20.7484 15.5232 20.9052 15.5858 21.021 15.5854C21.1369 15.5848 21.0568 15.4918 20.8432 15.3785C20.4752 15.1834 20.4407 15.1908 20.1878 15.5175C19.8869 15.9064 19.6688 15.9642 19.6688 15.6553C19.6688 15.3964 19.7229 15.3863 18.9324 15.794C18.2151 16.164 17.3407 16.2472 17.121 15.9662C17.0467 15.8713 16.9933 15.5981 17.0024 15.3592L17.0189 14.9249L16.5148 15.1865C15.2813 15.8263 14.369 15.1855 14.369 13.6793C14.369 12.8932 14.5068 12.8831 14.8534 13.6435C15.3707 14.7791 16.1147 14.9227 17.3994 14.135C17.8329 13.8693 18.2458 13.6518 18.3167 13.6518C18.3878 13.6518 18.4458 13.5964 18.4458 13.5285C18.4458 13.3401 17.8026 13.2178 17.3077 13.3123C16.9095 13.3881 16.8711 13.4372 16.9235 13.8006C16.9912 14.2694 16.7645 14.3397 16.5118 13.9281C16.4184 13.7761 16.2851 13.6518 16.2155 13.6518C15.9446 13.6518 15.5921 13.1756 15.5921 12.8095C15.5921 12.5978 15.5309 12.3861 15.4562 12.3391C15.3814 12.2921 15.3203 12.145 15.3203 12.0122C15.3203 11.8465 15.6135 11.638 16.2528 11.3494C17.1272 10.9542 17.1914 10.8947 17.2841 10.39C17.4205 9.64805 17.5739 9.50656 18.242 9.50656C18.8683 9.50656 19.2234 9.23063 19.1515 8.79953C19.1141 8.57486 19.245 8.54501 20.4425 8.50425L21.7752 8.45907L20.4081 8.43005L19.0412 8.40117L18.4825 7.15761C17.9858 6.05208 17.9521 5.91404 18.1784 5.91404C18.6168 5.91404 19.1287 6.22507 19.206 6.53845C19.261 6.7616 19.3589 6.82392 19.5847 6.77998C19.9751 6.70412 20.2635 7.05453 20.1792 7.50221C20.1189 7.82347 20.1521 7.84848 20.6401 7.84848C21.1323 7.84848 21.1551 7.83079 20.996 7.57171C20.7826 7.22448 20.99 6.83235 21.4213 6.76727C21.6501 6.73272 21.6992 6.65852 21.6329 6.44643C21.4998 6.01988 21.6834 5.5009 22.0171 5.36121C22.338 5.22663 22.9176 5.30097 23.1206 5.50256ZM23.557 9.89607C23.5191 9.95839 23.6684 9.98229 23.8887 9.94955C24.109 9.91666 24.2892 9.86567 24.2892 9.83638C24.2892 9.73109 23.6243 9.78526 23.557 9.89607ZM18.5138 11.0272C18.2765 11.1313 18.2882 11.1439 18.6059 11.1262C18.8061 11.1152 18.94 11.057 18.9036 10.9972C18.8672 10.9373 18.8258 10.8927 18.8115 10.898C18.7972 10.9034 18.6632 10.9614 18.5138 11.0272ZM23.2292 11.0541C23.0314 11.2553 23.0179 11.5326 23.2005 11.6473C23.2777 11.6958 23.3002 11.6398 23.2533 11.5155C23.2083 11.3966 23.2471 11.2068 23.3394 11.0938C23.54 10.848 23.4602 10.8192 23.2292 11.0541ZM18.7149 11.5446C18.7964 11.7157 18.9679 11.8505 19.0961 11.8446C19.2849 11.8358 19.2905 11.8185 19.1253 11.7531C19.0132 11.7088 18.8417 11.5738 18.7441 11.4532C18.5937 11.267 18.5892 11.2808 18.7149 11.5446ZM19.5156 11.5446C19.3466 11.7638 19.3514 11.7686 19.5669 11.5969C19.7933 11.4163 19.8652 11.3028 19.7534 11.3028C19.7252 11.3028 19.6181 11.4116 19.5156 11.5446ZM21.5713 12.5118C21.5713 12.5979 21.6325 12.7067 21.7072 12.7536C21.782 12.8006 21.8431 12.9704 21.8431 13.1309C21.8431 13.2914 21.9444 13.5364 22.068 13.6754C22.2791 13.9126 22.2754 13.9281 22.0081 13.9281C21.6849 13.9281 21.497 14.1415 21.705 14.2722C21.781 14.3198 21.8431 14.2998 21.8431 14.2275C21.8431 14.1554 22.0113 14.0521 22.2168 13.9982L22.5905 13.9001L22.2848 13.69C22.1165 13.5744 21.9771 13.3475 21.9747 13.1859C21.9723 13.0242 21.8806 12.7711 21.7708 12.6236C21.6611 12.4761 21.5713 12.4258 21.5713 12.5118ZM18.0938 14.565C18.0258 14.5814 17.8019 14.6325 17.5965 14.6787C17.3778 14.7276 17.2228 14.8547 17.2228 14.9846C17.2228 15.1685 17.342 15.1952 17.9124 15.1395C18.2917 15.1025 18.6945 14.978 18.8077 14.863C18.9913 14.6763 18.9706 14.6476 18.6154 14.5945C18.3966 14.5619 18.1618 14.5485 18.0938 14.565ZM21.6053 14.5784C21.4371 14.6112 21.2995 14.6874 21.2995 14.7476C21.2995 14.8888 21.9598 14.7624 22.057 14.6025C22.0976 14.5355 22.0815 14.4892 22.021 14.4996C21.9605 14.51 21.7735 14.5453 21.6053 14.5784ZM15.9318 17.3825C16.067 17.5345 16.2083 17.6588 16.2457 17.6588C16.2831 17.6588 16.2029 17.5345 16.0677 17.3825C15.9325 17.2305 15.7911 17.1061 15.7538 17.1061C15.7164 17.1061 15.7966 17.2305 15.9318 17.3825ZM16.9256 17.8914C17.0236 17.9313 17.1408 17.9263 17.1859 17.8804C17.2311 17.8346 17.1509 17.802 17.0077 17.8079C16.8493 17.8145 16.8171 17.8473 16.9256 17.8914ZM17.5053 18.1539C17.5118 18.3149 17.544 18.3476 17.5874 18.2375C17.6266 18.1377 17.6218 18.0185 17.5766 17.9726C17.5315 17.9267 17.4995 18.0082 17.5053 18.1539ZM24.5266 19.3886C24.4843 19.7672 24.4645 20.0923 24.4825 20.1113C24.5831 20.2165 24.7742 19.1956 24.6963 18.9697C24.6312 18.7813 24.5803 18.9071 24.5266 19.3886ZM23.219 19.4656C23.2005 20.0035 22.8951 20.3716 22.1489 20.7551C21.9059 20.8799 21.7072 21.0128 21.7072 21.0504C21.7072 21.1734 22.7991 20.5556 23.0717 20.2784C23.2182 20.1295 23.3379 20.0803 23.3379 20.169C23.3379 20.2576 23.3608 20.3043 23.3886 20.2726C23.4165 20.241 23.3935 19.9352 23.3377 19.5932C23.2398 18.9944 23.2355 18.9897 23.219 19.4656ZM16.7386 19.6278L16.3395 20.0768L16.7811 19.671C17.1927 19.2927 17.2853 19.1787 17.1802 19.1787C17.1569 19.1787 16.9581 19.3809 16.7386 19.6278ZM20.2124 19.7038C20.2124 19.9166 20.136 20.1744 20.0425 20.2768C19.9334 20.3963 19.9292 20.4306 20.031 20.3725C20.118 20.3229 20.2201 20.3605 20.2581 20.456C20.2958 20.5515 20.3317 20.3343 20.3376 19.9732C20.3434 19.6122 20.3177 19.3169 20.2804 19.3169C20.243 19.3169 20.2124 19.491 20.2124 19.7038ZM24.8327 19.5073C24.8327 19.5359 24.9398 19.6448 25.0706 19.7491C25.2861 19.9209 25.2908 19.916 25.1219 19.6969C24.9443 19.4667 24.8327 19.3936 24.8327 19.5073ZM18.334 20.0042C18.1697 20.2302 17.8371 20.4733 17.595 20.5444C17.2858 20.6352 17.2404 20.6774 17.4422 20.6862C17.7663 20.7003 18.3765 20.2594 18.5874 19.8588C18.7933 19.4675 18.6748 19.5356 18.334 20.0042ZM15.5921 20.3384C15.5921 20.3683 15.6869 20.4297 15.803 20.4751C15.9239 20.5222 15.9784 20.499 15.9308 20.4208C15.8511 20.2894 15.5921 20.2265 15.5921 20.3384ZM21.5697 20.7026C21.4739 20.9377 21.2058 21.2725 20.9738 21.4466C20.2409 21.9969 20.2101 21.9993 20.2837 21.5C20.3517 21.0387 20.2914 21.1372 20.0689 21.8504L19.9466 22.2422L20.3853 21.978C20.6265 21.8326 20.9659 21.6252 21.1395 21.517C21.428 21.3373 21.9166 20.451 21.7953 20.3275C21.767 20.2988 21.6655 20.4676 21.5697 20.7026ZM24.2381 20.4968C24.1069 20.8441 24.1455 20.9338 24.3058 20.6537C24.3851 20.515 24.4214 20.3724 24.3863 20.3369C24.3514 20.3012 24.2846 20.3732 24.2381 20.4968ZM7.43853 20.8368C7.43853 21.1438 7.37507 21.2513 7.19393 21.2513C7.05939 21.2513 6.87594 21.3259 6.78625 21.4171C6.47737 21.7312 6.6047 21.0818 6.91861 20.742C7.31229 20.316 7.43853 20.339 7.43853 20.8368ZM18.6852 20.6581C18.8543 20.6912 19.0989 20.6899 19.2288 20.6554C19.3587 20.6208 19.2204 20.5938 18.9214 20.5953C18.6225 20.5968 18.5162 20.6251 18.6852 20.6581ZM22.6692 29.4841C22.6757 29.6451 22.7079 29.6778 22.7513 29.5677C22.7906 29.468 22.7857 29.3487 22.7405 29.3028C22.6954 29.257 22.6634 29.3385 22.6692 29.4841ZM22.2508 30.2408C22.2508 30.3212 22.3119 30.3487 22.3867 30.3017C22.4614 30.2547 22.5226 30.189 22.5226 30.1554C22.5226 30.1218 22.4614 30.0944 22.3867 30.0944C22.3119 30.0944 22.2508 30.1603 22.2508 30.2408ZM22.1078 31.3994C22.2872 31.5936 22.4545 31.7525 22.4795 31.7525C22.6019 31.7525 22.1621 31.1947 21.9851 31.1258C21.8731 31.0821 21.9283 31.2052 22.1078 31.3994ZM24.6233 35.6306C24.574 35.7116 24.5629 35.8076 24.5985 35.8438C24.6341 35.88 24.6994 35.8137 24.7437 35.6964C24.8356 35.453 24.7573 35.4101 24.6233 35.6306ZM38.6166 40.0084C37.4169 41.8065 33.5583 45.3809 30.007 47.9838C27.3334 49.9435 21.3286 53.8603 20.998 53.8603C20.8319 53.8603 16.7226 51.2354 14.7767 49.8864C12.6917 48.441 10.2201 46.5558 8.59361 45.1704C6.96005 43.7789 4.0809 40.8327 3.51518 39.9739L3.06008 39.283L3.15521 39.9654C3.35959 41.4327 4.30499 43.5201 5.59963 45.3626C8.18104 49.0364 13.8026 53.7745 19.5774 57.1436L21.0453 58L22.0218 57.5042C24.8929 56.0465 29.1666 53.1793 31.7853 50.9537C35.8893 47.4655 38.6702 43.2862 39.1599 39.8702C39.2116 39.5092 39.2298 39.2139 39.2002 39.2139C39.1707 39.2139 38.9081 39.5714 38.6166 40.0084ZM25.5746 40.7431C25.4284 40.9836 25.5948 41.0346 25.7813 40.8062C25.8885 40.675 25.8988 40.5956 25.8086 40.5956C25.7292 40.5956 25.6238 40.662 25.5746 40.7431Z" fill="url(#paint1_linear_271_4656)" fill-opacity="0.3"/>
<defs>
<linearGradient id="paint0_linear_271_4656" x1="21.0957" y1="4.01334e-06" x2="59.7099" y2="23.3792" gradientUnits="userSpaceOnUse">
<stop stop-color="white"/>
<stop offset="1" stop-color="white" stop-opacity="0"/>
</linearGradient>
<linearGradient id="paint1_linear_271_4656" x1="17.4688" y1="-34.22" x2="43.7916" y2="-30.1277" gradientUnits="userSpaceOnUse">
<stop stop-color="#4A60DB"/>
<stop offset="0.387957" stop-color="#B2E2E4"/>
<stop offset="0.787325" stop-color="#E4F5F6"/>
<stop offset="1" stop-color="#CFC0C3"/>
</linearGradient>
</defs>
</svg>
