<svg width="124" height="124" viewBox="0 0 124 124" fill="none" xmlns="http://www.w3.org/2000/svg">
<path fill-rule="evenodd" clip-rule="evenodd" d="M5.25732 0.3822C3.17648 1.1416 1.66531 2.5226 0.641765 4.6L0.099839 5.7V11.6V17.5L0.721437 18.8C1.81727 21.0916 3.92986 22.737 6.36693 23.197C7.76408 23.4606 15.6034 23.46 16.9926 23.1962C19.3404 22.7502 21.5143 21.055 22.6239 18.805L23.2625 17.5102L23.3244 12.1308C23.3813 7.203 23.3527 6.6402 22.9839 5.4256C22.3773 3.4286 21.0742 1.9146 19.0882 0.9L17.5223 0.1L11.906 0.0526001C6.83098 0.0100001 6.19042 0.0415999 5.25732 0.3822ZM30.1514 1.6V3.2H28.4541H26.7568V13.3V23.4H28.4541H30.1514V25.1V26.8H23.4622H16.7729V28.5V30.2H13.3784H9.9839V28.5V26.8H8.28663H6.58937V28.5V30.2H3.29469H0V31.8V33.4H1.59742H3.19485V35.1V36.8H4.89211H6.58937V38.5V40.2H4.89211H3.19485V41.9V43.6H1.59742H0V46.9V50.2H1.59742H3.19485V51.9V53.6H1.59742H0V57V60.4H1.59742H3.19485V57V53.6H4.88732H6.57979L6.6345 56.95L6.68921 60.3L8.33655 60.358L9.9839 60.4162V63.708V67H11.6812H13.3784V65.3V63.6H18.3704H23.3623V65.3V67H20.0676H16.7729V70.4V73.8H15.0757H13.3784V72.1V70.4H11.6812H9.9839V73.8V77.2H8.28663H6.58937V78.792V80.3838L4.94203 80.442L3.29469 80.5L3.23997 83.85L3.18526 87.2H1.59263H0V88.9V90.6H3.29469H6.58937V87.2V83.8H9.9839H13.3784V85.5V87.2H15.0757H16.7729V90.5V93.8H13.3784H9.9839V95.5V97.2H18.3704H26.7568V102.3V107.4H30.1514H33.5459V109V110.6H35.1433H36.7407V107.3V104H38.438H40.1353V100.6V97.2H41.8325H43.5298V98.9V100.6H46.9243H50.3188V102.3V104H48.6216H46.9243V107.3V110.6H50.219H53.5137V109V107.4H55.211H56.9082V109V110.6H58.6055H60.3027V114V117.4H58.6055H56.9082V115.692V113.984L55.2609 114.042L53.6135 114.1V115.7V117.3L55.2529 117.358L56.8922 117.416L56.9501 119.058L57.0081 120.7L58.6554 120.758L60.3027 120.816V119.108V117.4H62H63.6973V119.1V120.8H65.3945H67.0918V122.4V124H70.3865H73.6812V122.403V120.807L78.723 120.753L83.7649 120.7L83.8196 117.35L83.8743 114H85.575H87.2754L87.2173 112.35L87.1594 110.7L85.5121 110.642L83.8647 110.584V108.992V107.4H82.1675H80.4702V105.705V104.01L83.8148 103.955L87.1594 103.9L87.2173 102.25L87.2754 100.6H85.57H83.8647V98.9V97.2H82.1675H80.4702V95.5V93.8H78.7729H77.0757V92.2V90.6H78.7729H80.4702V88.9V87.2H77.0757H73.6812V85.5V83.8H77.0757H80.4702V82.1V80.4H75.4783H70.4863V82.1V83.8H68.7891H67.0918V85.5V87.2H65.3945H63.6973V85.5V83.8H62H60.3027V85.5V87.2H62H63.6973V88.9V90.6H65.3945H67.0918V93.9V97.2H68.7891H70.4863V98.9V100.6H68.7891H67.0918V102.3V104H65.3945H63.6973V102.3V100.6H62H60.3027V95.6V90.6H58.6055H56.9082V95.6V100.6H55.211H53.5137V93.9V87.2H51.9211H50.3284L50.2737 83.85L50.219 80.5L48.5717 80.442L46.9243 80.3838V83.792V87.2H48.6216H50.3188V88.9V90.6H48.6216H46.9243V92.2V93.8H48.6216H50.3188V95.5V97.2H46.9243H43.5298V95.4952V93.7904L40.1852 93.8452L36.8406 93.9L36.7827 95.55L36.7246 97.2H35.1353H33.5459V98.9V100.6H31.8486H30.1514V98.9V97.2H28.4541H26.7568V93.9V90.6H25.0596H23.3623V88.9V87.2H21.6651H19.9678V85.5V83.8H23.3623H26.7568V85.5V87.2H28.4541H30.1514V90.5V93.8H33.4461H36.7407V90.5V87.2H35.1433H33.5459V83.8V80.4H35.1433H36.7407V78.8V77.2H38.438H40.1353V73.8V70.4H41.8325H43.5298V65.4V60.4H41.8325H40.1353V58.7V57H41.8325H43.5298V53.6V50.2H40.1353H36.7407V48.4876V46.7752L35.0934 46.8012C34.1875 46.8156 32.7047 46.8212 31.7987 46.8136L30.1514 46.8V45.208V43.6162L31.7987 43.558L33.4461 43.5L33.4986 36.85L33.5513 30.2H35.1459H36.7407L36.7543 31.85C36.7619 32.7574 36.7563 34.2426 36.7419 35.15L36.716 36.8H38.4256H40.1353V38.5V40.2H46.8165H53.4975L53.5556 38.55L53.6135 36.9L56.9581 36.8452L60.3027 36.7904V35.0952V33.4H56.9082H53.5137V28.4V23.4H55.2062H56.8986L56.9533 26.75L57.0081 30.1L60.3527 30.1548L63.6973 30.2096V31.8048V33.4H65.3945H67.0918V35.1V36.8H65.3945H63.6973V40.2V43.6L67.0918 43.6076L70.3865 43.5L70.4444 41.85L70.5025 40.2H68.797H67.0918V38.5V36.8H68.797H70.5025L70.4444 35.15L70.3865 33.5L68.7391 33.442L67.0918 33.3838V31.792V30.2H65.3945H63.6973V28.5048V26.8096L67.0419 26.7548L70.3865 26.7L70.4286 21.7C70.452 18.95 70.4743 15.9574 70.4785 15.05L70.4863 13.4H72.0837H73.6812V15V16.6H75.3784H77.0757V13.3V10H75.3784H73.6812V6.6V3.2H75.3784H77.0757V4.9V6.6H78.7729H80.4702V15V23.4H82.1675H83.8647V25.1V26.8H82.1675H80.4702V28.5V30.2H78.7729H77.0757V28.5V26.8H75.3784H73.6812V31.8V36.8H77.0757H80.4702V40.2V43.6H82.1675H83.8647V38.5V33.4H85.5642H87.2639L87.2509 30.05C87.2439 28.2074 87.2429 25.9574 87.2487 25.05L87.2593 23.4H85.57H83.8647V21.692V19.9838L85.5121 20.042L87.1594 20.1L87.2173 21.75L87.2754 23.4H88.8567H90.4541V25.1V26.8H93.8486H97.2432V28.5V30.2H98.9404H100.638V31.8V33.4H98.9404H97.2432V35.1V36.8H100.65H104.057L104.031 35.15C104.017 34.2426 104.011 32.7574 104.019 31.85L104.032 30.2H107.327H110.622V31.792V33.3838L108.974 33.442L107.327 33.5L107.269 35.15L107.211 36.8H108.916H110.622V40.2V43.6H112.319H114.016V45.192V46.7838L112.369 46.842L110.721 46.9L110.667 50.25L110.612 53.6H112.314H114.016V51.9V50.2H115.713H117.411V51.9V53.6H120.705H124V48.6V43.6H122.403H120.805V46.9V50.2H119.108H117.411V46.9V43.6H115.713H114.016V40.2V36.8H112.319H110.622V35.0966V33.3932L115.663 33.4466L120.705 33.5L120.76 36.85L120.815 40.2H122.407H124V35.2V30.2H122.403H120.805V28.5V26.8H112.419H104.032V28.5V30.2H102.335H100.638V28.5V26.8H98.9404H97.2432V20.1V13.4H95.5459H93.8486V18.4V23.4H92.1514H90.4541V16.7V10H92.1514H93.8486V8.3V6.6H95.5459H97.2432V4.9V3.2H95.5459H93.8486V4.9V6.6H92.1514H90.4541V4.9V3.2H83.7649H77.0757V1.6V0H65.2947H53.5137V1.6V3.2H50.219H46.9243V1.6V0H45.2271H43.5298V1.6V3.2H45.2271H46.9243V6.6V10H45.2271H43.5298V11.7V13.4H38.5378H33.5459V10V6.6H31.8486H30.1514V4.9V3.2H31.8486H33.5459V1.6V0H31.8486H30.1514V1.6ZM46.9243 16.6V15V13.4H45.2271H43.5298V15V16.6H36.8406H30.1514V20V23.4H31.8486H33.5459V25.1V26.8H31.8486H30.1514V28.5V30.2H31.8486H33.5459V28.5V26.8H35.1433H36.7407V25.1V23.4H38.438H40.1353V21.7V20H41.8325H43.5298V23.4V26.8H41.8325H40.1353V30.1V33.4H41.8325H43.5298V35.1V36.8H46.9243H50.3188V33.5V30.2H48.6216H46.9243V31.8V33.4H45.2271H43.5298V30.1V26.8H46.9243H50.3188V25.1V23.4H51.9083H53.4975L53.5556 21.75L53.6135 20.1L55.2609 20.042L56.9082 19.9838V18.3V16.6H55.2165H53.5249V13.3V10H55.2165H56.9082V6.6V3.2H55.211H53.5137V4.9V6.6H51.9163H50.3188V11.6V16.6H48.6216H46.9243ZM46.9243 20V21.7V23.4H48.6216H50.3188V21.7V20H51.9163H53.5137V18.3V16.6H51.9163H50.3188V18.3V20H48.6216H46.9243ZM46.9243 20H45.2271H43.5298V18.3V16.6H45.2271H46.9243V18.3V20ZM36.7407 23.4V21.7V20H35.1433H33.5459V21.7V23.4H35.1433H36.7407ZM90.4541 6.6H88.8567H87.2593V8.3V10H88.8567H90.4541V8.3V6.6ZM40.1353 57V55.3V53.6H38.438H36.7407V55.3V57H38.43H40.1353ZM33.5459 70.4V75.4V80.4H31.8486H30.1514V77.1V73.8H25.0596H19.9678V72.1V70.4H21.6651H23.3623V68.7V67H26.7568H30.1514V68.7V70.4H31.8486H33.5459ZM33.5459 67H31.8486H30.1514V65.3V63.6H31.8486H33.5459V65.3V67ZM33.5459 57H35.1433H36.7246L36.7827 58.65L36.8406 60.3L38.4879 60.358L40.1353 60.4162V65.408V70.4H36.8406H33.5459V68.7V67H35.1433H36.7407V63.7V60.4H35.1433H33.5459V58.7V57ZM30.1514 57V53.6V50.2H31.8486H33.5459V53.6V57H31.8486H30.1514ZM23.3623 60.4H25.0596H26.7568V58.7V57H28.4541H30.1514V60.3V63.6H26.7568H23.3623V62V60.4ZM16.7729 57H20.0676H23.3623V58.7V60.4H20.0676H16.7729V58.7V57ZM13.3784 57H15.0757H16.7729V55.3V53.6H21.7649H26.7568V48.6V43.6H21.7649H16.7729V45.2V46.8H15.0757H13.3784V41.8V36.8H11.6812H9.9839V38.5V40.2H8.28663H6.58937V45.2V50.2H8.28663H9.9839V51.9V53.6H11.6812H13.3784V55.3V57ZM13.3784 57V58.7V60.4H11.6812H9.9839V58.7V57H11.6812H13.3784ZM9.9839 50.2V48.492V46.7838L11.6312 46.842L13.2786 46.9L13.3365 48.55L13.3946 50.2H11.6891H9.9839ZM23.3623 90.6H21.6651H19.9678V92.2V93.8H21.6651H23.3623V92.2V90.6ZM60.3027 104H62H63.6973V105.7V107.4H65.3945H67.0918V112.408V117.4H65.3945H63.6973V114V110.6H62H60.3027V107.3V104ZM60.3027 104H58.6055H56.9082V102.3V100.6H58.6055H60.3027V102.3V104ZM77.0757 93.8H75.3784H73.6812V92.2V90.6H72.0983H70.5157L70.451 92.25C70.4156 93.1576 70.4126 94.6424 70.4444 95.55L70.5025 97.2H72.0917H73.6812V98.9V100.6H75.3736H77.0757V97.2V93.8ZM70.4863 100.6L70.4793 102.25C70.4753 103.158 70.453 106.915 70.4294 110.6L70.3865 117.3L68.7391 117.358L67.0918 117.416V119.1V120.8H70.3831H73.6744L73.7277 115.75L73.781 110.7L75.4283 110.642L77.0757 110.584V109.008V107.416L75.4283 107.358L73.781 107.3L73.7263 103.95L73.6716 100.6H72.0837H70.4863ZM16.7729 30.2V31.8V33.4H21.7649H26.7568V31.8V30.2H21.7649H16.7729ZM80.4437 66.35L80.4135 60.95C80.4968 60.4 80.497 60.4 82.1807 60.4H83.8647V58.7V57H85.5744H87.284L87.2581 58.65C87.2437 59.5576 87.2381 61.0424 87.2457 61.95L87.2593 63.6H85.562H83.8647V67V70.4H82.1675H80.4702L80.4437 66.35ZM90.4541 40.2V43.5V46.8H88.8567H87.2593V48.5V50.2H88.8567H90.4541V56.9V63.6H88.8567H87.2593V67V70.4H88.8567H90.4541V72.1V73.8H85.4622H80.4702V75.5124V77.2248L82.1176 77.1988C83.0237 77.1844 84.5512 77.1788 85.5121 77.1864L87.2593 77.2V78.8V80.4H85.562H83.8647V82.1V83.8H85.562H87.2593V85.5V87.2H88.8567H90.4541V83.8V80.4H92.1514H93.8486V85.5V90.6H90.5539H87.2593V92.2V93.8H90.5539H93.8486V98.9V104H90.5539H87.2593V105.7V107.4H88.8567H90.4541V109V110.6H92.1514H93.8486V112.3V114H95.5459H97.2432V112.295V110.59L100.588 110.645L103.932 110.7L103.99 112.35L104.048 114H105.638H107.227V115.7V117.4H105.63H104.032V119.1V120.8H102.335H100.638V119.1V117.4H97.2432H93.8486V120.7V124H95.5459H97.2432V122.4V120.8H98.9404H100.638V122.4V124H102.335H104.032V122.4V120.8H105.63H107.227V122.4V124H110.622H114.016V120.7V117.4H119.008H124V114V110.6H122.403H120.805V112.3V114H117.411H114.016V115.7V117.4H112.319H110.622V112.4V107.4H112.319H114.016V105.7V104H115.713H117.411V102.3V100.6H115.713H114.016V80.5048V60.4096L110.672 60.3548L107.327 60.3L107.269 58.65L107.211 57H105.622H104.032V51.9V46.8H105.63H107.227V45.2V43.6H105.63H104.032V41.9V40.2H102.335H100.638V41.9V43.6H98.9404H97.2432V41.9V40.2H93.8486H90.4541ZM90.4541 40.2H88.8567H87.2593V38.5V36.8H88.8487H90.4379L90.496 35.15L90.5539 33.5L92.2013 33.442L93.8486 33.3838V35.092V36.8H92.1514H90.4541V38.5V40.2ZM110.622 117.4H108.924H107.227V119.1V120.8H108.924H110.622V119.1V117.4ZM93.8486 80.4H95.5459H97.2432V78.8048V77.2096L100.588 77.1548L103.932 77.1L103.99 75.45L104.048 73.8H102.343H100.638V72.1V70.4H97.2432H93.8486V72.1V73.8H95.5459H97.2432V75.5V77.2H95.5459H93.8486V78.8V80.4ZM83.8647 57H82.1675H80.4702V55.3V53.6H82.1675H83.8647V55.3V57ZM105.762 0.4834C103.485 1.4326 102.302 2.5558 101.283 4.7328L100.738 5.9V11.7V17.5L101.276 18.6506C102.351 20.9476 104.617 22.7464 107.005 23.197C108.4 23.4602 116.238 23.4602 117.633 23.197C120.07 22.737 122.183 21.0916 123.279 18.8L123.9 17.5V11.6V5.7L123.313 4.5C122.573 2.9888 121.057 1.4744 119.507 0.6992L118.309 0.1L112.618 0.0487999C106.989 -0.0018001 106.915 0.00299997 105.762 0.4834ZM56.9082 20H58.6055H60.3027V21.7V23.4H58.6055H56.9082V21.692V20ZM60.3027 23.4H62.0048H63.6973V25.1V26.8H62H60.3027V25.1V23.4ZM63.7068 23.4L63.6521 20.05L63.5974 16.7L61.9501 16.642L60.3027 16.5838V14.992V13.4H62H63.6973V8.2952V3.1904L67.0419 3.2452L70.3865 3.3L70.4412 6.65L70.4959 10H68.7938H67.0918V16.7V23.4H65.3945H63.7068ZM17.6825 4.1052C18.2867 4.4796 18.8899 5.0838 19.2637 5.6888L19.868 6.6672L19.9354 10.9836C20.0147 16.0538 19.8733 16.9712 18.8222 18.2012C17.5361 19.7062 17.1573 19.7906 11.6704 19.7956C6.91165 19.8 6.85794 19.7952 5.84038 19.2874C4.63572 18.686 3.67867 17.401 3.48857 16.1296C3.42048 15.6734 3.39373 13.365 3.42947 11C3.48578 7.2652 3.54329 6.608 3.86716 6C4.56903 4.6822 5.50013 3.9362 6.88889 3.579C7.21836 3.4944 9.56198 3.442 12.0967 3.4626L16.7057 3.5L17.6825 4.1052ZM118.148 3.9488C118.608 4.195 119.212 4.6944 119.489 5.059C120.531 6.4266 120.605 6.8594 120.605 11.5448C120.605 13.9416 120.518 16.2092 120.41 16.584C120.081 17.7358 119.232 18.7522 118.148 19.2934C117.145 19.7938 117.073 19.8 112.33 19.7956C106.843 19.7906 106.464 19.7062 105.178 18.2012C104.124 16.968 103.982 16.0502 104.063 11C104.132 6.7046 104.133 6.699 104.692 5.7456C105.292 4.724 106.416 3.8522 107.474 3.5878C107.832 3.4984 110.192 3.4422 112.718 3.4632C117.051 3.4992 117.358 3.5268 118.148 3.9488ZM8.51487 6.8056C6.96057 7.2722 6.58937 8.2182 6.58937 11.7134C6.58937 14.7888 6.81341 15.5768 7.8713 16.2228C8.40464 16.5486 8.90703 16.5986 11.6504 16.5992C15.2955 16.6002 15.7143 16.4642 16.3928 15.0606C16.7592 14.3022 16.7957 13.9082 16.7378 11.3398C16.6751 8.5558 16.6561 8.445 16.1202 7.742C15.769 7.2812 15.2955 6.9412 14.8223 6.8094C13.9379 6.5634 9.33095 6.5606 8.51487 6.8056ZM36.8244 6.8698C36.7677 7.0182 36.7479 7.7608 36.7809 8.5198L36.8406 9.9L38.4879 9.958L40.1353 10.0162V8.308V6.6H38.5317C37.3699 6.6 36.8995 6.6744 36.8244 6.8698ZM109.148 6.798C108.33 7.0558 107.658 7.7544 107.428 8.5852C107.319 8.9784 107.229 10.419 107.228 11.7868C107.227 13.8576 107.293 14.4106 107.622 15.0912C108.285 16.4618 108.718 16.6002 112.35 16.5992C117.1 16.5982 117.411 16.2954 117.41 11.6698C117.41 8.6098 117.213 7.8966 116.148 7.1142C115.647 6.7452 115.266 6.6954 112.654 6.6582C111.042 6.6352 109.464 6.6982 109.148 6.798ZM87.2593 15V16.6H85.562H83.8647V15V13.4H85.562H87.2593V15ZM73.6812 21.7V23.4H75.3784H77.0757V21.7V20H75.3784H73.6812V21.7ZM23.3623 38.5V40.2H20.0676H16.7729V38.5V36.8H20.0676H23.3623V38.5ZM30.1514 38.5V40.2H28.4541H26.7568V38.5V36.8H28.4541H30.1514V38.5ZM73.7231 41.85L73.781 43.5L75.4283 43.558L77.0757 43.6162V41.908V40.2H75.3704H73.665L73.7231 41.85ZM40.1353 45.2V46.8H41.8325H43.5298V45.2V43.6H41.8325H40.1353V45.2ZM16.7729 48.5056V50.2H20.0676H23.3623V48.5056V46.8112H20.0676H16.7729V48.5056ZM97.2432 53.6H98.9404H100.638V58.592V63.5838L102.285 63.642L103.932 63.7L103.99 65.35L104.048 67H107.335H110.622V70.4V73.8H108.924H107.227V72.1V70.4H105.63H104.032V68.7V67H98.9404H93.8486V63.7V60.4H95.5459H97.2432V58.7V57H95.5459H93.8486V52.0334C93.8486 49.3016 93.9085 47.0066 93.9818 46.9334C94.0549 46.86 94.8187 46.8 95.6791 46.8H97.2432V50.2V53.6ZM120.805 65.4V73.8H119.108H117.411V77.1V80.4H119.108H120.805V85.5V90.6H119.108H117.411V93.9V97.2H119.108H120.805V100.6V104H122.403H124V100.6V97.2H122.403H120.805V93.9V90.6H122.403H124V85.5V80.4H122.403H120.805V78.8V77.2H122.403H124V67.1V57H122.403H120.805V65.4ZM3.32803 63.7334C3.25475 63.8066 3.19485 64.5716 3.19485 65.4334V67H1.59742H0V68.7V70.4H3.29469H6.58937V67V63.6H5.02529C4.16488 63.6 3.40111 63.66 3.32803 63.7334ZM21.8148 77.1918L23.3623 77.2V78.792V80.3838L21.715 80.442L20.0676 80.5L20.0097 82.15L19.9516 83.8H18.3704H16.7891L16.731 82.15L16.6731 80.5L15.0258 80.442L13.3784 80.3838V78.8V77.2162L15.0258 77.158C15.9317 77.1262 17.4818 77.1188 18.4702 77.1418C19.4586 77.165 20.9636 77.1874 21.8148 77.1918ZM110.622 82.2V87.2H108.916H107.227V85.5V83.8H105.63H104.032V82.1V80.4H105.63H107.227V78.8V77.2H108.924H110.622V82.2ZM100.638 83.8H104.032V85.5V87.2H100.65H97.2432V85.5V83.8H100.638ZM107.211 87.2L107.269 88.85L107.327 90.5L108.974 90.558L110.622 90.6162V92.208V93.8H107.327H104.032L104.019 92.15C104.011 91.2424 104.017 89.7576 104.031 88.85L104.057 87.2H105.63H107.211ZM36.8288 80.6584C36.7745 80.8006 36.7547 82.308 36.7853 84.0084L36.8406 87.1L38.4799 87.158L40.1193 87.216L40.1772 88.858L40.2351 90.5L41.8825 90.558L43.5298 90.6162V88.908V87.2H41.8325H40.1353V85.5V83.8H41.8325H43.5298V82.1V80.4H40.2289C37.715 80.4 36.9043 80.4616 36.8288 80.6584ZM53.5974 84.0698C53.5406 84.2182 53.5209 84.9608 53.5538 85.7198L53.6135 87.1L55.2609 87.158L56.9082 87.2162V85.508V83.8H55.3046C54.1429 83.8 53.6724 83.8744 53.5974 84.0698ZM77.0757 110.6H78.7729H80.4702V114V117.4H78.7729H77.0757V113.992V110.6ZM0 95.5V97.2H3.29469H6.58937V95.5V93.8H3.29469H0V95.5ZM107.227 102.3V107.4H102.235H97.2432V102.3V97.2H102.235H107.227V102.3ZM5.55824 100.984C4.93624 101.183 4.12754 101.533 3.76113 101.761C2.62517 102.469 1.24319 104.046 0.658937 105.3L0.099839 106.5V112.4V118.3L0.65115 119.424C1.46624 121.087 2.57904 122.235 4.23417 123.121L5.69082 123.9H11.6055H17.5201L19.0872 123.1C21.0742 122.086 22.3771 120.572 22.9839 118.574C23.3527 117.36 23.3813 116.797 23.3244 111.874C23.2627 106.515 23.2609 106.497 22.7241 105.349C21.6495 103.052 19.3827 101.254 16.9954 100.803C16.4037 100.691 13.8429 100.605 11.3046 100.611C7.41923 100.62 6.5103 100.679 5.55824 100.984ZM100.638 102.308V104.016L102.285 103.958L103.932 103.9L103.99 102.25L104.048 100.6H102.343H100.638V102.308ZM17.2833 104.577C18.4347 105.101 19.5017 106.427 19.7773 107.676C19.9199 108.323 19.9782 110.289 19.9354 113.016L19.868 117.333L19.2637 118.311C18.8895 118.917 18.2871 119.52 17.6819 119.895L16.7045 120.5H11.6967C6.86832 120.5 6.65866 120.484 5.83798 120.045C4.88552 119.535 3.89951 118.302 3.57723 117.218C3.44385 116.769 3.38853 114.777 3.42927 111.9C3.49995 106.904 3.53789 106.717 4.72378 105.517C5.92824 104.298 6.40467 104.209 11.6812 104.209C15.9103 104.209 16.5685 104.252 17.2833 104.577ZM7.8713 107.777C6.80942 108.426 6.58937 109.208 6.58977 112.33C6.58997 115.39 6.78745 116.103 7.85154 116.886C8.34354 117.247 8.76267 117.309 11.157 117.368C14.5032 117.452 15.3552 117.261 16.1186 116.26C16.6563 115.555 16.6751 115.446 16.7378 112.66C16.7957 110.092 16.7592 109.698 16.3928 108.939C15.7143 107.536 15.2955 107.4 11.6504 107.401C8.90703 107.401 8.40464 107.451 7.8713 107.777ZM36.8739 110.733C36.8006 110.807 36.7407 111.572 36.7407 112.433V114H38.438H40.1353V112.3V110.6H38.5712C37.7108 110.6 36.947 110.66 36.8739 110.733ZM26.7568 115.7V117.4H30.1514H33.5459V115.7V114H30.1514H26.7568V115.7ZM43.5298 115.7V117.4H45.2271H46.9243V119.1V120.8H50.219H53.5137V119.1V117.4H51.9163H50.3188V115.7V114H46.9243H43.5298V115.7ZM87.2593 119.1V120.8H88.8567H90.4541V119.1V117.4H88.8567H87.2593V119.1ZM30.1514 122.4V124H33.4461H36.7407V122.4V120.8H33.4461H30.1514V122.4ZM40.1353 122.4V124H41.8325H43.5298V122.4V120.8H41.8325H40.1353V122.4ZM120.805 122.4V124H122.403H124V122.4V120.8H122.403H120.805V122.4Z" fill="white"/>
<path d="M61.0239 60.2723C61.0566 60.4031 61.2311 61.2646 61.3346 61.6953C62.5254 61.9439 64.9384 62.9765 65.9961 63.4617C65.0802 65.5226 62.9594 67.4635 61.58 68.3358C58.1289 65.9151 55.6591 62.4804 56.0026 56.9029L52.3715 55.8889C51.6191 62.0224 54.3179 69.1864 61.58 72.6211C63.2156 72.1141 69.1856 68.2704 70.3469 62.0224C69.7417 61.6789 67.0593 60.2559 65.3092 59.6998L60.8113 58.1624C60.7785 58.2114 60.9748 60.076 61.0239 60.2723Z" fill="url(#paint0_linear_5_2982)"/>
<path d="M70.7161 53.3519C70.787 53.7935 70.9353 54.8305 70.9615 55.4455C68.6978 54.1894 61.8348 51.6836 52.937 53.1556C57.8929 51.1765 65.155 50.5877 70.7161 53.3519Z" fill="url(#paint1_linear_5_2982)"/>
<path d="M52.937 53.1556C55.0175 53.1818 65.2532 55.5436 70.8797 58.5367C70.9178 57.7626 70.9876 56.0604 70.9615 55.4454C68.6978 54.1893 61.8348 51.6835 52.937 53.1556Z" fill="url(#paint2_linear_5_2982)"/>
<defs>
<linearGradient id="paint0_linear_5_2982" x1="68.2342" y1="64.2602" x2="44.1348" y2="51.7187" gradientUnits="userSpaceOnUse">
<stop stop-color="white"/>
<stop offset="1" stop-color="#858585"/>
</linearGradient>
<linearGradient id="paint1_linear_5_2982" x1="71.6157" y1="53.4675" x2="54.2619" y2="52.4697" gradientUnits="userSpaceOnUse">
<stop stop-color="#343433"/>
<stop offset="0.35422" stop-color="#818181"/>
<stop offset="1" stop-color="#D7D7D7"/>
</linearGradient>
<linearGradient id="paint2_linear_5_2982" x1="53.8857" y1="52.715" x2="70.7325" y2="56.9185" gradientUnits="userSpaceOnUse">
<stop stop-color="#757474"/>
<stop offset="1" stop-color="#EEEEEE"/>
</linearGradient>
</defs>
</svg>
